<svg xmlns="http://www.w3.org/2000/svg" width="215.102" height="111.983" viewBox="0 0 215.102 111.983">
  <g id="Group_263" data-name="Group 263" transform="translate(-332.774 -7748.198)">
    <path id="Path_18" data-name="Path 18" d="M167.986,79.871,177.064,50.9l9.079,28.971Zm36.07,0H193.372L181.882,43.2h-9.635L158.879,85.861h46.753a10.5,10.5,0,0,1,.1,21.006h-3.9l-5.888-18.793h-7.231l7.765,24.784h10.484a16.541,16.541,0,0,0,16.116-16.492c0-9.095-7.113-16.494-19.023-16.494" transform="translate(324.798 7705)" fill="#f6630c"/>
    <path id="Path_19" data-name="Path 19" d="M66.469,79.141,70.01,89.632H62.929Zm-4.057-6.735L51.359,101.072h7.685l1.9-5.569H71.994l1.9,5.569h7.857L70.7,72.406Z" transform="translate(281.415 7716.785)" fill="#003c34"/>
    <path id="Path_20" data-name="Path 20" d="M86.794,77.82H74.315V98.888h6.994V83.173h5.486Z" transform="translate(290.677 7718.97)" fill="#003c34"/>
    <path id="Path_21" data-name="Path 21" d="M98.926,90.513v3.281H92.882a1.641,1.641,0,0,1,0-3.281Zm6.908,8.375V86.627c0-6.13-2.676-8.807-8.807-8.807h-11.4V83H96.682c1.554,0,2.159.6,2.159,2.159v.26H90.9c-4.317,0-6.735,2.417-6.735,6.734s2.418,6.735,6.735,6.735Z" transform="translate(294.65 7718.97)" fill="#003c34"/>
    <path id="Path_22" data-name="Path 22" d="M108.565,95.892V85.185h3.109c3.712,0,5.353,1.641,5.353,5.353s-1.641,5.354-5.353,5.354Zm-6.994-23.486v28.666h12.088c6.821,0,10.533-3.714,10.533-10.535S120.48,80,113.659,80h-5.095v-7.6Z" transform="translate(301.675 7716.785)" fill="#003c34"/>
    <path id="Path_23" data-name="Path 23" d="M140.642,90.513v3.281H134.6a1.641,1.641,0,1,1,0-3.281Zm6.908,8.375V86.627c0-6.13-2.676-8.807-8.807-8.807h-11.4V83H138.4c1.554,0,2.159.6,2.159,2.159v.26h-7.944c-4.317,0-6.735,2.417-6.735,6.734s2.418,6.735,6.735,6.735Z" transform="translate(311.482 7718.97)" fill="#003c34"/>
    <path id="Path_24" data-name="Path 24" d="M158.165,98.888h6.994V86.627c0-6.13-2.676-8.807-8.807-8.807H143.313V98.888h6.995V83.173h4.4c2.418,0,3.454,1.037,3.454,3.454Z" transform="translate(318.517 7718.97)" fill="#003c34"/>
    <path id="Path_25" data-name="Path 25" d="M72.389,120.411V103.661H76.7c6.306,0,8.377,2.073,8.377,8.376s-2.072,8.375-8.377,8.375ZM65.308,97.7v28.666H78.172c9.844,0,14.334-4.49,14.334-14.332S88.016,97.7,78.172,97.7Z" transform="translate(287.043 7726.992)" fill="#003c34"/>
    <rect id="Rectangle_9" data-name="Rectangle 9" width="6.994" height="28.666" transform="translate(407.409 7824.695)" fill="#003c34"/>
    <rect id="Rectangle_10" data-name="Rectangle 10" width="6.994" height="28.666" transform="translate(417.225 7824.695)" fill="#003c34"/>
    <path id="Path_26" data-name="Path 26" d="M140.455,124.185h6.994V111.924c0-6.13-2.676-8.807-8.807-8.807H125.6v21.068H132.6V108.47H137c2.418,0,3.454,1.037,3.454,3.454Z" transform="translate(311.372 7729.176)" fill="#003c34"/>
    <path id="Path_27" data-name="Path 27" d="M158.388,108.3v10.015h-3.454c-3.367,0-5.008-1.641-5.008-5.008s1.641-5.008,5.008-5.008Zm-14.2,17.527v5.18h12.39c6.3,0,8.807-2.5,8.807-8.807V103.117H152.948c-6.389,0-10.188,3.8-10.188,10.189s3.8,10.188,10.188,10.188h5.44v.518c0,1.382-.431,1.813-1.813,1.813Z" transform="translate(318.294 7729.176)" fill="#003c34"/>
    <path id="Path_28" data-name="Path 28" d="M99.2,103.117H86.719v21.068h6.994V108.47H99.2Z" transform="translate(295.682 7729.176)" fill="#003c34"/>
    <path id="Path_29" data-name="Path 29" d="M119.269,72.406h6.994v4.2h-6.994Zm0,28.666h6.994V80h-6.994Z" transform="translate(308.816 7716.785)" fill="#003c34"/>
    <path id="Path_30" data-name="Path 30" d="M118.525,97.7h6.994v4.2h-6.994Zm0,28.666h6.994V105.3h-6.994Z" transform="translate(308.516 7726.992)" fill="#003c34"/>
    <path id="Path_31" data-name="Path 31" d="M97.457,97.7h6.994v4.2H97.457Zm0,28.666h6.994V105.3H97.457Z" transform="translate(300.015 7726.992)" fill="#003c34"/>
  </g>
</svg>
