<?xml version="1.0" encoding="utf-8"?>
<!-- Generator: Adobe Illustrator 26.0.1, SVG Export Plug-In . SVG Version: 6.00 Build 0)  -->
<svg version="1.1" id="Layer_1" xmlns="http://www.w3.org/2000/svg" xmlns:xlink="http://www.w3.org/1999/xlink" x="0px" y="0px"
	 viewBox="0 0 332.63 166.31" style="enable-background:new 0 0 332.63 166.31;" xml:space="preserve">
<style type="text/css">
	.st0{fill:#5F6369;}
	.st1{clip-path:url(#SVGID_00000132771978032850615520000016832289408600665773_);}
	.st2{fill:url(#SVGID_00000024682296721057991610000013383377628900279690_);}
	.st3{fill:#FFFFFF;}
</style>
<g>
	<path class="st0" d="M231.23,70.42c-10.33-0.06-18.76,8.27-18.82,18.6s8.27,18.76,18.6,18.82s18.76-8.27,18.82-18.6
		c0-0.04,0-0.07,0-0.11C249.81,78.85,241.51,70.5,231.23,70.42 M231.23,99.32c-5.6,0-10.14-4.54-10.14-10.14
		c0-5.6,4.54-10.14,10.14-10.14c0,0,0.01,0,0.01,0c5.6,0,10.14,4.54,10.14,10.14C241.36,94.78,236.83,99.32,231.23,99.32"/>
	<path class="st0" d="M162.73,70c-3.99,0-7.95,0.75-11.66,2.21c-2.78-1.59-5.95-2.36-9.15-2.21c-5.04-0.03-10.05,0.79-14.82,2.42
		l-0.94,0.32v34.36h9.35V78.94c1.69-0.59,3.47-0.88,5.26-0.85c4.62,0,6,1.48,6,6.31v22.7h9.45V83.77c0.06-1.6-0.08-3.2-0.42-4.77
		c1.6-0.61,3.29-0.95,5-1c4.41,0,6.41,2,6.41,6.31v22.7h9.35V83.67c0-4.63-0.73-7.36-2.83-9.67C171.41,71.47,167.52,70,162.73,70"/>
	<path class="st0" d="M200.22,99.69c-6.23,0-9.81-3.86-9.81-10.62c0-6.92,3.62-10.89,9.9-10.89c2.56-0.08,5.07,0.75,7.09,2.33
		l4-6.78c-1.64-1.31-3.53-2.27-5.56-2.8c-1.96-0.49-3.98-0.77-6-0.84c-11.25,0-18.79,7.8-18.79,19.39
		c0,11.15,7.15,18.35,18.25,18.35c0,0,7.43,0.32,12.42-4.3l-4.65-6c-1.98,1.43-4.38,2.18-6.82,2.14"/>
	<path class="st0" d="M78.29,70.32c-13.35,0-19.55,5.89-19.55,18.39v18.39h9.56V88.61c0-6.31,3.58-10.2,9.15-10.2
		c1.81,0.01,3.61,0.26,5.36,0.74l2.2-8.3C82.78,70.53,80.54,70.35,78.29,70.32"/>
	<path class="st0" d="M120.69,87.66v19.44h-12.82c-8.83,0-12.71-0.63-17.34-3.68c-4-2.73-6.2-7.88-6.2-14.61
		c0-9.24,6.1-18.6,19.55-18.6C114.81,70.21,120.69,76.31,120.69,87.66 M111.34,88.66c0-7-2.73-10.51-8.2-10.51S94,82.3,94,88.5
		c0,7.46,3.57,10.72,11.56,10.72h5.78L111.34,88.66z"/>
	<path class="st0" d="M53.54,87.66v19.44H40.82c-8.83,0-12.71-0.63-17.34-3.68c-4-2.73-6.2-7.88-6.2-14.61
		c0-9.24,6.1-18.6,19.55-18.6C47.76,70.21,53.54,76.31,53.54,87.66 M43.87,88.66c0-7.15-2.52-10.51-8.09-10.51s-9.15,4.1-9.15,10.3
		c0,7.46,3.58,10.72,11.56,10.72h5.68V88.66z"/>
	<g>
		<defs>
			<rect id="SVGID_1_" x="259.28" y="58.47" width="49.03" height="49.03"/>
		</defs>
		<clipPath id="SVGID_00000023240771047064603490000000576385302535083407_">
			<use xlink:href="#SVGID_1_"  style="overflow:visible;"/>
		</clipPath>
		<g style="clip-path:url(#SVGID_00000023240771047064603490000000576385302535083407_);">
			
				<radialGradient id="SVGID_00000120517943157397444380000012316911257449029276_" cx="587.01" cy="-3008.6301" r="0.31" gradientTransform="matrix(227.3346 -199.5778 199.5778 227.3346 467244.75 801237.625)" gradientUnits="userSpaceOnUse">
				<stop  offset="0" style="stop-color:#7FBF3F"/>
				<stop  offset="0.29" style="stop-color:#7FBF3F"/>
				<stop  offset="0.44" style="stop-color:#5FB744"/>
				<stop  offset="0.69" style="stop-color:#009848"/>
				<stop  offset="0.7" style="stop-color:#0062AF"/>
				<stop  offset="0.9" style="stop-color:#00A5E6"/>
				<stop  offset="1" style="stop-color:#00ACEC"/>
			</radialGradient>
			<polygon style="fill:url(#SVGID_00000120517943157397444380000012316911257449029276_);" points="234.97,79.8 286.97,34.14 
				332.62,86.15 280.62,131.8 			"/>
		</g>
	</g>
	<path class="st3" d="M286.33,79c0.55,0.24,0.9,0.77,0.9,1.37c-0.1,0.48-0.62,0.64-1.22,0.36c-0.56-0.24-0.91-0.79-0.89-1.4
		C285.22,78.86,285.75,78.72,286.33,79"/>
	<path class="st3" d="M288.06,69.61c0.47,0.25,0.8,0.67,0.77,1s-0.47,0.35-1,0.1s-0.82-0.69-0.77-1s0.48-0.33,1-0.08"/>
	<path class="st3" d="M288.22,68.67c0.39,0.21,0.67,0.56,0.64,0.8s-0.38,0.27-0.79,0.06s-0.68-0.57-0.64-0.81s0.39-0.26,0.79,0"/>
	<path class="st3" d="M288.37,67.74c0.36,0.2,0.62,0.51,0.6,0.73s-0.36,0.23-0.73,0s-0.64-0.53-0.6-0.74S288,67.5,288.37,67.74"/>
	<path class="st3" d="M288.51,66.83c0.34,0.18,0.58,0.47,0.56,0.67s-0.32,0.2-0.68,0s-0.58-0.49-0.55-0.68s0.33-0.19,0.67,0"/>
	<path class="st3" d="M288.65,66c0.31,0.17,0.54,0.44,0.51,0.61s-0.29,0.17-0.61,0S288,66.16,288,66s0.3-0.17,0.62,0"/>
	<path class="st3" d="M288.77,65.23c0.29,0.16,0.5,0.4,0.48,0.56s-0.27,0.15-0.57,0s-0.5-0.41-0.48-0.56S288.47,65.08,288.77,65.23"
		/>
	<path class="st3" d="M288.89,64.5c0.26,0.15,0.46,0.34,0.44,0.5s-0.25,0.13-0.52,0s-0.47-0.35-0.45-0.52s0.25-0.12,0.53,0"/>
	<path class="st3" d="M289,63.76c0.23,0.13,0.4,0.29,0.39,0.43s-0.22,0.1-0.45,0s-0.41-0.3-0.39-0.44s0.22-0.09,0.45,0"/>
	<path class="st3" d="M289.11,63.06c0.22,0.12,0.37,0.27,0.36,0.39s-0.2,0.09-0.41,0s-0.37-0.27-0.36-0.4s0.2-0.08,0.41,0"/>
	<path class="st3" d="M289.22,62.37c0.18,0.11,0.31,0.23,0.3,0.34s-0.16,0.06-0.35,0s-0.32-0.23-0.31-0.34
		S289.03,62.31,289.22,62.37"/>
	<path class="st3" d="M289.32,61.72c0.16,0.1,0.28,0.21,0.27,0.3s-0.14,0-0.31,0s-0.28-0.2-0.27-0.29S289.16,61.67,289.32,61.72"/>
	<path class="st3" d="M285.72,82.35c-0.47-0.2-0.77-0.68-0.74-1.19c0.09-0.42,0.53-0.55,1-0.31c0.46,0.2,0.75,0.66,0.73,1.16
		C286.63,82.44,286.19,82.58,285.72,82.35"/>
	<path class="st3" d="M285.34,84.36c-0.47-0.21-0.75-0.68-0.72-1.19c0.1-0.43,0.53-0.57,1-0.34c0.46,0.2,0.74,0.66,0.71,1.16
		c-0.08,0.44-0.51,0.59-1,0.37"/>
	<path class="st3" d="M284.93,86.45c-0.46-0.2-0.74-0.68-0.69-1.18c0.1-0.43,0.52-0.59,1-0.38c0.45,0.21,0.72,0.67,0.69,1.17
		C285.84,86.5,285.42,86.67,284.93,86.45"/>
	<path class="st3" d="M284.47,88.76c-0.45-0.21-0.72-0.69-0.66-1.19c0.08-0.35,0.42-0.57,0.77-0.5c0.08,0.02,0.16,0.05,0.23,0.1
		c0.44,0.21,0.71,0.67,0.66,1.16c-0.06,0.35-0.4,0.59-0.75,0.53C284.63,88.84,284.54,88.81,284.47,88.76"/>
	<path class="st3" d="M284,91.06c-0.4-0.19-0.63-0.62-0.56-1.06c0.06-0.31,0.35-0.52,0.66-0.46c0.07,0.01,0.13,0.04,0.19,0.07
		c0.38,0.18,0.61,0.58,0.57,1c-0.05,0.32-0.35,0.53-0.67,0.48c-0.07-0.01-0.13-0.03-0.19-0.07"/>
	<path class="st3" d="M283.44,93.85c-0.39-0.2-0.61-0.63-0.54-1.06c0.05-0.32,0.35-0.53,0.66-0.48c0.07,0.01,0.13,0.03,0.19,0.06
		c0.37,0.19,0.58,0.59,0.53,1c-0.05,0.32-0.34,0.55-0.67,0.5c-0.06-0.01-0.12-0.03-0.17-0.05"/>
	<path class="st3" d="M282.81,96.86c-0.37-0.18-0.57-0.6-0.47-1c0.03-0.3,0.3-0.51,0.6-0.47c0.06,0.01,0.11,0.02,0.16,0.04
		c0.37,0.18,0.57,0.6,0.47,1c-0.02,0.3-0.28,0.52-0.58,0.5c-0.06,0-0.12-0.02-0.18-0.05"/>
	<path class="st3" d="M282.18,99.87c-0.31-0.16-0.47-0.51-0.38-0.85c0.02-0.27,0.26-0.47,0.53-0.45c0.05,0,0.09,0.01,0.13,0.03
		c0.31,0.16,0.47,0.5,0.39,0.84C282.76,99.8,282.48,99.99,282.18,99.87"/>
	<path class="st3" d="M288.39,80.18c0.43,0.19,0.71,0.62,0.72,1.1c-0.06,0.4-0.46,0.52-0.93,0.29c-0.44-0.2-0.73-0.64-0.73-1.12
		C287.52,80.07,287.92,79.95,288.39,80.18"/>
	<path class="st3" d="M290.42,81c0.54,0.26,0.89,0.79,0.92,1.39c0,0.5-0.53,0.67-1.11,0.38c-0.55-0.26-0.91-0.81-0.93-1.42
		C289.37,80.86,289.85,80.72,290.42,81"/>
	<path class="st3" d="M304.51,80.29c-0.23-0.15-0.39-0.1-0.37,0.1c0.08,0.26,0.24,0.49,0.47,0.65c0.24,0.14,0.39,0.1,0.36-0.12
		C304.91,80.66,304.74,80.43,304.51,80.29"/>
	<path class="st3" d="M302.87,79.16c-0.31-0.18-0.52-0.12-0.5,0.14c0.09,0.34,0.31,0.63,0.61,0.81c0.31,0.19,0.52,0.13,0.49-0.14
		C303.38,79.63,303.16,79.35,302.87,79.16"/>
	<path class="st3" d="M298.29,94.45c-0.39-0.24-0.7-0.07-0.71,0.4c0.02,0.52,0.29,1,0.71,1.3c0.4,0.25,0.69,0.08,0.7-0.41
		C298.96,95.23,298.71,94.75,298.29,94.45"/>
	<path class="st3" d="M296.34,90.58c-0.46-0.26-0.82-0.08-0.85,0.41c0.03,0.57,0.33,1.09,0.81,1.39c0.46,0.27,0.82,0.08,0.83-0.43
		C297.1,91.39,296.81,90.88,296.34,90.58"/>
	<path class="st3" d="M294.29,87.24c-0.46-0.25-0.82-0.09-0.86,0.36c0.03,0.53,0.32,1.01,0.77,1.28c0.47,0.24,0.83,0.08,0.86-0.39
		C295.03,87.97,294.74,87.5,294.29,87.24"/>
	<path class="st3" d="M293,73.51c-0.41-0.22-0.74-0.17-0.77,0.11c0.07,0.4,0.34,0.75,0.71,0.92c0.42,0.22,0.75,0.16,0.77-0.13
		C293.63,74.01,293.37,73.68,293,73.51"/>
	<path class="st3" d="M301.41,79.59c-0.32-0.18-0.55-0.12-0.53,0.15c0.08,0.35,0.31,0.66,0.62,0.84c0.32,0.2,0.54,0.13,0.52-0.15
		C301.94,80.08,301.72,79.78,301.41,79.59"/>
	<path class="st3" d="M299.75,78.6c-0.34-0.2-0.58-0.14-0.57,0.14c0.08,0.37,0.31,0.69,0.64,0.87c0.35,0.2,0.59,0.13,0.57-0.16
		C300.31,79.09,300.08,78.78,299.75,78.6"/>
	<path class="st3" d="M296.45,78c-0.4-0.21-0.7-0.14-0.71,0.18c0.07,0.43,0.34,0.8,0.72,1c0.4,0.22,0.71,0.14,0.71-0.19
		c-0.07-0.43-0.33-0.8-0.72-1"/>
	<path class="st3" d="M298.12,77.59c-0.38-0.21-0.66-0.15-0.66,0.16c0.08,0.4,0.34,0.74,0.7,0.94c0.39,0.21,0.67,0.14,0.66-0.17
		C298.74,78.12,298.48,77.78,298.12,77.59"/>
	<path class="st3" d="M296.37,76.58c-0.42-0.23-0.75-0.16-0.76,0.17c0.09,0.43,0.38,0.8,0.77,1c0.44,0.23,0.77,0.15,0.76-0.18
		c-0.09-0.43-0.37-0.8-0.77-1"/>
	<path class="st3" d="M294.69,77c-0.44-0.24-0.79-0.16-0.82,0.18c0.07,0.46,0.37,0.86,0.79,1.07c0.45,0.24,0.8,0.15,0.81-0.2
		c-0.09-0.44-0.38-0.81-0.78-1"/>
	<path class="st3" d="M292.32,84c-0.46-0.24-0.85-0.1-0.9,0.33c0.02,0.52,0.32,0.99,0.78,1.23c0.48,0.24,0.86,0.1,0.9-0.35
		C293.08,84.7,292.78,84.23,292.32,84"/>
	<path class="st3" d="M292.46,82.18c-0.5-0.25-0.91-0.12-1,0.32c0.02,0.55,0.35,1.05,0.84,1.3c0.52,0.27,0.93,0.12,1-0.34
		c-0.04-0.55-0.36-1.03-0.85-1.28"/>
	<path class="st3" d="M292.59,80.45c-0.55-0.28-1-0.16-1,0.3c0.04,0.59,0.39,1.11,0.92,1.37c0.56,0.29,1,0.14,1-0.33
		c-0.05-0.57-0.4-1.08-0.91-1.34"/>
	<path class="st3" d="M292.7,78.82c-0.53-0.27-1-0.17-1,0.26c0.05,0.56,0.39,1.05,0.89,1.3c0.54,0.28,1,0.15,1-0.29
		C293.53,79.54,293.2,79.06,292.7,78.82"/>
	<path class="st3" d="M292.78,77.41c-0.47-0.24-0.84-0.16-0.88,0.2c0.06,0.48,0.35,0.9,0.79,1.11c0.47,0.25,0.85,0.15,0.87-0.22
		C293.51,78.03,293.21,77.61,292.78,77.41"/>
	<path class="st3" d="M292.88,76c-0.5-0.26-0.9-0.18-0.94,0.19c0.06,0.52,0.39,0.96,0.86,1.18c0.51,0.26,0.91,0.17,0.94-0.22
		C293.66,76.65,293.34,76.22,292.88,76"/>
	<path class="st3" d="M293,74.67c-0.49-0.26-0.88-0.19-0.92,0.16c0.08,0.49,0.39,0.9,0.84,1.11c0.5,0.26,0.89,0.19,0.91-0.18
		C293.75,75.28,293.44,74.87,293,74.67"/>
	<path class="st3" d="M289.8,70.67c-0.35-0.18-0.63-0.15-0.67,0.07s0.22,0.53,0.57,0.72s0.63,0.14,0.66-0.08
		S290.14,70.85,289.8,70.67"/>
	<path class="st3" d="M289.87,69.65c-0.32-0.16-0.58-0.14-0.61,0s0.2,0.47,0.52,0.64s0.58,0.14,0.6,0S290.18,69.82,289.87,69.65"/>
	<path class="st3" d="M289.92,68.69c-0.27-0.15-0.5-0.13-0.53,0s0.18,0.41,0.46,0.56s0.49,0.13,0.52,0s-0.18-0.39-0.45-0.54"/>
	<path class="st3" d="M290,67.76c-0.25-0.13-0.45-0.15-0.47,0s0.16,0.36,0.4,0.49s0.45,0.14,0.48,0S290.24,67.9,290,67.76"/>
	<path class="st3" d="M290,66.89c-0.23-0.12-0.41-0.14-0.44,0s0.16,0.33,0.39,0.45s0.41,0.14,0.43,0S290.22,67.02,290,66.89"/>
	<path class="st3" d="M290.05,66c-0.21-0.11-0.37-0.13-0.39,0s0.14,0.28,0.34,0.39s0.37,0.13,0.38,0s-0.14-0.27-0.33-0.38"/>
	<path class="st3" d="M290.08,65.25c-0.18-0.1-0.33-0.13-0.35,0s0.13,0.26,0.31,0.36s0.34,0.13,0.36,0s-0.13-0.25-0.32-0.35"/>
	<path class="st3" d="M290.12,64.45c-0.17-0.09-0.3-0.11-0.31,0s0.11,0.21,0.28,0.31s0.29,0.11,0.31,0S290.28,64.55,290.12,64.45"/>
	<path class="st3" d="M288,83.21c0.36,0.17,0.68,0.06,0.73-0.25c-0.01-0.38-0.22-0.71-0.56-0.88c-0.36-0.17-0.67-0.07-0.73,0.24
		C287.44,82.7,287.66,83.04,288,83.21"/>
	<path class="st3" d="M287.64,85.23c0.35,0.16,0.65,0,0.7-0.27c0.01-0.37-0.2-0.7-0.53-0.86c-0.34-0.16-0.64,0-0.7,0.26
		C287.11,84.73,287.32,85.06,287.64,85.23"/>
	<path class="st3" d="M287.16,87.3c0.35,0.16,0.64,0,0.7-0.29c0.02-0.37-0.19-0.71-0.52-0.87c-0.34-0.16-0.64,0-0.7,0.28
		C286.62,86.79,286.83,87.14,287.16,87.3"/>
	<path class="st3" d="M286.72,89.56c0.21,0.13,0.48,0.06,0.6-0.15c0.03-0.05,0.05-0.1,0.06-0.15c0.02-0.35-0.17-0.68-0.48-0.84
		c-0.2-0.13-0.47-0.07-0.6,0.12c-0.03,0.05-0.05,0.11-0.06,0.17C286.21,89.06,286.4,89.4,286.72,89.56"/>
	<path class="st3" d="M286.19,91.81c0.19,0.12,0.45,0.05,0.56-0.14c0.03-0.05,0.05-0.11,0.06-0.17c0.03-0.33-0.15-0.65-0.44-0.8
		c-0.19-0.12-0.45-0.06-0.56,0.14c-0.03,0.05-0.05,0.11-0.06,0.16C285.71,91.34,285.89,91.66,286.19,91.81"/>
	<path class="st3" d="M285.57,94.49c0.19,0.11,0.44,0.03,0.54-0.16c0.03-0.05,0.04-0.1,0.05-0.16c0.03-0.32-0.13-0.62-0.41-0.77
		c-0.19-0.11-0.44-0.04-0.54,0.16c-0.03,0.05-0.04,0.1-0.05,0.15C285.12,94.03,285.28,94.34,285.57,94.49"/>
	<path class="st3" d="M294.65,75.67c-0.41-0.22-0.73-0.16-0.75,0.15c0.06,0.44,0.33,0.81,0.73,1c0.42,0.23,0.74,0.16,0.75-0.16
		c-0.06-0.43-0.34-0.81-0.73-1"/>
	<path class="st3" d="M294.57,78.49c-0.37-0.19-0.67-0.12-0.69,0.18c0.06,0.39,0.3,0.73,0.65,0.91c0.38,0.2,0.67,0.11,0.68-0.19
		C295.15,79.01,294.91,78.67,294.57,78.49"/>
	<path class="st3" d="M294.53,80c-0.42-0.22-0.75-0.13-0.78,0.22c0.05,0.46,0.33,0.86,0.74,1.07c0.43,0.22,0.76,0.12,0.78-0.24
		c-0.08-0.43-0.35-0.8-0.74-1"/>
	<path class="st3" d="M294.32,85.18c-0.41-0.22-0.74-0.09-0.77,0.3c0.02,0.47,0.29,0.9,0.71,1.13c0.42,0.22,0.75,0.09,0.77-0.31
		C295,85.83,294.73,85.41,294.32,85.18"/>
	<path class="st3" d="M301.27,78.16c-0.35-0.2-0.59-0.14-0.57,0.14c0.09,0.38,0.33,0.7,0.67,0.89c0.35,0.2,0.59,0.14,0.57-0.15
		C301.84,78.67,301.6,78.35,301.27,78.16"/>
	<path class="st3" d="M296.19,93.09c-0.38-0.21-0.68-0.06-0.7,0.38c0.02,0.48,0.26,0.93,0.66,1.2c0.39,0.22,0.69,0,0.71-0.39
		C296.84,93.8,296.59,93.36,296.19,93.09"/>
	<path class="st3" d="M298.32,97.06c-0.37-0.23-0.65-0.06-0.66,0.4c0.02,0.49,0.26,0.95,0.65,1.25c0.37,0.23,0.64,0.06,0.65-0.41
		C298.94,97.81,298.71,97.36,298.32,97.06"/>
	<path class="st3" d="M294.12,89.42c-0.42-0.23-0.77-0.07-0.8,0.37c0.01,0.49,0.27,0.95,0.68,1.21c0.43,0.23,0.77,0.06,0.8-0.39
		c-0.02-0.49-0.29-0.95-0.71-1.2"/>
	<path class="st3" d="M292.16,86.16c-0.42-0.21-0.76-0.08-0.81,0.32c0.01,0.47,0.27,0.91,0.69,1.13c0.42,0.22,0.77,0.07,0.8-0.34
		C292.83,86.81,292.57,86.38,292.16,86.16"/>
	<path class="st3" d="M290.25,83c-0.46-0.23-0.84-0.1-0.9,0.31c0,0.49,0.28,0.95,0.73,1.16c0.47,0.23,0.86,0.09,0.9-0.33
		C290.97,83.65,290.69,83.21,290.25,83"/>
	<path class="st3" d="M294.4,83.41c-0.38-0.21-0.69-0.1-0.72,0.25c0.04,0.42,0.29,0.8,0.67,1c0.39,0.21,0.7,0.1,0.71-0.26
		c-0.04-0.42-0.29-0.8-0.66-1"/>
	<path class="st3" d="M293.08,72.39c-0.36-0.19-0.65-0.16-0.67,0.08c0.07,0.35,0.3,0.64,0.62,0.79c0.37,0.2,0.65,0.15,0.67-0.09
		C293.63,72.83,293.4,72.54,293.08,72.39"/>
	<path class="st3" d="M299.66,77.31c-0.29-0.16-0.49-0.11-0.48,0.11c0.07,0.3,0.27,0.56,0.54,0.71c0.29,0.16,0.49,0.11,0.48-0.12
		C300.12,77.71,299.93,77.46,299.66,77.31"/>
	<path class="st3" d="M296.46,81.15c-0.32-0.17-0.57-0.1-0.58,0.18c0.04,0.36,0.26,0.67,0.58,0.84c0.33,0.18,0.57,0.1,0.57-0.19
		C296.98,81.63,296.77,81.32,296.46,81.15"/>
	<path class="st3" d="M296.31,88.44c-0.41-0.23-0.72-0.09-0.74,0.33c0.03,0.48,0.29,0.92,0.7,1.17c0.41,0.23,0.72,0.09,0.73-0.34
		C296.97,89.12,296.71,88.69,296.31,88.44"/>
	<path class="st3" d="M294.47,81.71c-0.37-0.2-0.67-0.11-0.7,0.22c0.03,0.42,0.27,0.8,0.65,1c0.39,0.2,0.68,0.1,0.7-0.24
		c-0.03-0.42-0.28-0.8-0.65-1"/>
	<path class="st3" d="M298.33,83.88c-0.36-0.21-0.64-0.11-0.64,0.24c0.06,0.42,0.31,0.79,0.67,1c0.36,0.22,0.64,0.11,0.63-0.24
		C298.93,84.47,298.69,84.1,298.33,83.88"/>
	<path class="st3" d="M299.9,101.5c-0.3-0.21-0.52,0-0.52,0.36c0.02,0.44,0.21,0.85,0.53,1.14c0.3,0.21,0.52,0,0.52-0.37
		C300.4,102.2,300.22,101.79,299.9,101.5"/>
	<path class="st3" d="M298.18,79.06c-0.34-0.19-0.59-0.13-0.59,0.15c0.06,0.37,0.29,0.68,0.62,0.86c0.34,0.19,0.59,0.12,0.58-0.17
		C298.72,79.54,298.5,79.23,298.18,79.06"/>
	<path class="st3" d="M291.38,71.53c-0.33-0.17-0.6-0.15-0.62,0.07s0.22,0.52,0.55,0.7s0.6,0.14,0.62-0.08S291.71,71.7,291.38,71.53
		"/>
	<path class="st3" d="M294.71,72.22c-0.32-0.16-0.56-0.14-0.57,0.07c0.07,0.3,0.28,0.55,0.56,0.68c0.32,0.17,0.56,0.14,0.56-0.07
		C295.19,72.6,294.99,72.35,294.71,72.22"/>
	<path class="st3" d="M298.07,76.42c-0.26-0.14-0.46-0.1-0.45,0.1c0.06,0.27,0.24,0.49,0.48,0.62c0.26,0.15,0.46,0.11,0.45-0.1
		C298.49,76.77,298.31,76.55,298.07,76.42"/>
	<path class="st3" d="M296.38,82.82c-0.33-0.18-0.59-0.09-0.6,0.21c0.05,0.37,0.26,0.7,0.59,0.89c0.34,0.19,0.6,0.09,0.6-0.22
		C296.93,83.33,296.71,83,296.38,82.82"/>
	<path class="st3" d="M298.23,82.21c-0.29-0.16-0.51-0.1-0.51,0.17c0.05,0.32,0.25,0.6,0.53,0.76c0.29,0.17,0.5,0.09,0.5-0.17
		C298.69,82.65,298.51,82.38,298.23,82.21"/>
	<path class="st3" d="M300.11,85c-0.32-0.19-0.56-0.1-0.55,0.21c0.06,0.38,0.28,0.72,0.6,0.93c0.32,0.2,0.56,0.1,0.54-0.22
		C300.65,85.54,300.43,85.21,300.11,85"/>
	<path class="st3" d="M303,80.66c-0.25-0.15-0.41-0.1-0.39,0.12c0.06,0.28,0.23,0.52,0.47,0.66c0.25,0.15,0.41,0.1,0.39-0.12
		C303.41,81.05,303.24,80.81,303,80.66"/>
	<path class="st3" d="M294.71,71.24c-0.27-0.15-0.49-0.13-0.49,0c0.06,0.26,0.24,0.48,0.49,0.6c0.28,0.14,0.49,0.12,0.49-0.06
		s-0.21-0.43-0.49-0.58"/>
	<path class="st3" d="M294.7,73.35c-0.3-0.16-0.52-0.13-0.53,0.07c0.07,0.28,0.25,0.52,0.51,0.65c0.3,0.15,0.52,0.12,0.53-0.09
		C295.14,73.71,294.95,73.48,294.7,73.35"/>
	<path class="st3" d="M300.21,98.8c-0.33-0.23-0.59-0.07-0.59,0.37c0.02,0.48,0.24,0.92,0.61,1.23c0.34,0.24,0.59,0.08,0.58-0.38
		C300.79,99.55,300.57,99.1,300.21,98.8"/>
	<path class="st3" d="M293.12,71.4c-0.29-0.15-0.51-0.13-0.53,0.06c0.06,0.27,0.25,0.49,0.5,0.61c0.29,0.15,0.52,0.12,0.53-0.06
		C293.56,71.74,293.37,71.51,293.12,71.4"/>
	<path class="st3" d="M296.38,79.61c-0.29-0.16-0.5-0.1-0.51,0.14c0.05,0.3,0.24,0.56,0.51,0.71c0.28,0.16,0.5,0.1,0.51-0.14
		C296.84,80.02,296.65,79.76,296.38,79.61"/>
	<path class="st3" d="M296.36,75.53c-0.24-0.13-0.42-0.09-0.42,0.08c0.05,0.24,0.21,0.45,0.43,0.55c0.24,0.14,0.42,0.1,0.42-0.08
		C296.74,75.84,296.58,75.64,296.36,75.53"/>
	<path class="st3" d="M296.34,86.52c-0.29-0.16-0.51-0.07-0.52,0.22c0.03,0.33,0.22,0.63,0.5,0.8c0.29,0.16,0.51,0.07,0.52-0.22
		C296.82,86.99,296.63,86.69,296.34,86.52"/>
	<path class="st3" d="M298.34,92.08c-0.32-0.2-0.57-0.07-0.58,0.3c0.04,0.41,0.25,0.77,0.59,1c0.33,0.2,0.57,0.07,0.58-0.31
		C298.89,92.66,298.68,92.3,298.34,92.08"/>
	<path class="st3" d="M294.67,74.64c-0.21-0.11-0.38-0.09-0.39,0.07c0.04,0.21,0.18,0.39,0.38,0.49c0.22,0.12,0.39,0.09,0.4-0.07
		C295.01,74.92,294.87,74.74,294.67,74.64"/>
	<path class="st3" d="M298.18,99.72c-0.26-0.17-0.46,0-0.47,0.31c0,0.36,0.17,0.7,0.45,0.93c0.27,0.17,0.47,0,0.47-0.32
		C298.62,100.28,298.46,99.94,298.18,99.72"/>
	<path class="st3" d="M299.85,80.14c-0.27-0.16-0.46-0.1-0.46,0.13c0.06,0.3,0.25,0.56,0.51,0.71c0.28,0.16,0.47,0.1,0.46-0.14
		C300.31,80.54,300.12,80.28,299.85,80.14"/>
	<path class="st3" d="M296.34,72.16c-0.25-0.13-0.43-0.12-0.43,0s0.2,0.4,0.45,0.54s0.43,0.11,0.43-0.06
		c-0.07-0.23-0.23-0.43-0.45-0.53"/>
	<path class="st3" d="M306.12,81.38c-0.2-0.13-0.33-0.09-0.3,0.09c0.06,0.23,0.2,0.43,0.4,0.57c0.2,0.13,0.32,0.09,0.3-0.1
		C306.46,81.71,306.32,81.51,306.12,81.38"/>
	<path class="st3" d="M301.92,86.2c-0.28-0.18-0.48-0.1-0.47,0.2c0.05,0.35,0.25,0.66,0.54,0.86c0.29,0.19,0.49,0.1,0.47-0.2
		C302.41,86.71,302.21,86.4,301.92,86.2"/>
	<path class="st3" d="M301.05,104.38c-0.24-0.19-0.41,0-0.41,0.33c0.01,0.39,0.17,0.77,0.44,1.06c0.23,0.2,0.41,0.06,0.4-0.33
		C301.47,105.05,301.32,104.67,301.05,104.38"/>
	<path class="st3" d="M296.11,95.74c-0.29-0.16-0.52,0-0.53,0.31c0,0.37,0.18,0.72,0.49,0.92c0.29,0.17,0.51,0,0.53-0.31
		C296.59,96.29,296.41,95.95,296.11,95.74"/>
	<path class="st3" d="M300,83.4c-0.2-0.12-0.35-0.07-0.34,0.13c0.04,0.24,0.18,0.44,0.38,0.57c0.2,0.12,0.35,0.06,0.35-0.13
		C300.35,83.73,300.21,83.52,300,83.4"/>
	<path class="st3" d="M296.25,71.15c-0.21-0.11-0.37-0.12-0.37,0c0.05,0.2,0.19,0.36,0.38,0.45c0.22,0.12,0.38,0.12,0.37,0
		C296.58,71.4,296.44,71.24,296.25,71.15"/>
	<path class="st3" d="M297.75,72.05c-0.17-0.09-0.3-0.09-0.3,0c0.05,0.17,0.17,0.31,0.33,0.38c0.17,0.09,0.3,0.09,0.29,0
		C298.02,72.26,297.91,72.12,297.75,72.05"/>
	<path class="st3" d="M294,92.11c-0.26-0.14-0.47,0-0.49,0.25c0,0.31,0.17,0.6,0.43,0.76c0.26,0.14,0.46,0,0.48-0.26
		C294.42,92.55,294.26,92.27,294,92.11"/>
	<path class="st3" d="M291.9,88.59c-0.25-0.13-0.46,0-0.49,0.22c0,0.29,0.16,0.56,0.41,0.7c0.26,0.13,0.47,0,0.49-0.22
		C292.31,89,292.15,88.73,291.9,88.59"/>
	<path class="st3" d="M290,85.33c-0.25-0.13-0.46,0-0.5,0.19c0,0.27,0.16,0.52,0.4,0.65c0.25,0.12,0.47,0,0.5-0.2
		C290.4,85.7,290.25,85.45,290,85.33"/>
	<path class="st3" d="M297.66,71.1c-0.19-0.1-0.32-0.11-0.32,0c0.06,0.17,0.19,0.31,0.35,0.39c0.18,0.11,0.32,0.11,0.31,0
		C297.95,71.32,297.82,71.17,297.66,71.1"/>
	<path class="st3" d="M298.84,71.13c-0.16-0.09-0.28-0.09-0.27,0c0.04,0.15,0.15,0.27,0.29,0.34c0.16,0.09,0.28,0.09,0.27,0
		C299.09,71.32,298.98,71.2,298.84,71.13"/>
	<path class="st3" d="M303.71,87.57c-0.18-0.12-0.31-0.07-0.3,0.13c0.04,0.23,0.16,0.44,0.35,0.58c0.19,0.12,0.31,0.06,0.3-0.14
		C304.02,87.91,303.9,87.71,303.71,87.57"/>
	<path class="st3" d="M302.06,88c-0.23-0.15-0.39-0.07-0.38,0.18c0.03,0.29,0.19,0.55,0.43,0.72c0.23,0.15,0.39,0.07,0.38-0.18
		C302.45,88.43,302.3,88.17,302.06,88"/>
	<path class="st3" d="M300.21,86.87c-0.22-0.13-0.37-0.07-0.37,0.15c0.03,0.26,0.18,0.5,0.4,0.64c0.21,0.13,0.36,0.06,0.36-0.16
		C300.57,87.24,300.43,87.01,300.21,86.87"/>
	<path class="st3" d="M298.31,85.75c-0.2-0.11-0.34-0.06-0.34,0.14c0.02,0.23,0.15,0.44,0.35,0.56c0.2,0.12,0.35,0,0.35-0.14
		C298.64,86.08,298.51,85.87,298.31,85.75"/>
	<path class="st3" d="M296.37,84.63c-0.2-0.11-0.35,0-0.36,0.14c0.02,0.23,0.16,0.43,0.36,0.54c0.2,0.12,0.35,0,0.36-0.14
		C296.71,84.94,296.57,84.74,296.37,84.63"/>
	<path class="st3" d="M303.81,89.3c-0.19-0.13-0.31-0.07-0.3,0.14c0.04,0.24,0.16,0.46,0.35,0.61c0.18,0.13,0.31,0.07,0.3-0.15
		C304.13,89.66,304,89.45,303.81,89.3"/>
	<path class="st3" d="M305.64,90.68c-0.16-0.12-0.27-0.06-0.26,0.13c0.03,0.23,0.15,0.43,0.32,0.58c0.16,0.13,0.27,0.07,0.25-0.13
		C305.92,91.04,305.81,90.83,305.64,90.68"/>
	<path class="st3" d="M296.31,73.23c-0.2-0.11-0.35-0.1-0.35,0c0.04,0.2,0.18,0.37,0.37,0.45c0.2,0.11,0.35,0.1,0.35,0
		C296.64,73.48,296.5,73.31,296.31,73.23"/>
	<path class="st3" d="M284.19,78.09c-0.48-0.22-0.91-0.12-1,0.26c-0.03,0.48,0.25,0.92,0.7,1.09c0.48,0.23,0.92,0.11,1-0.27
		C284.91,78.7,284.63,78.27,284.19,78.09"/>
	<path class="st3" d="M282.12,76.92c-0.6-0.27-1.17-0.14-1.32,0.32c-0.05,0.59,0.3,1.15,0.86,1.36c0.63,0.28,1.19,0.13,1.32-0.35
		C283.02,77.66,282.67,77.12,282.12,76.92"/>
	<path class="st3" d="M268.28,62.31c0.33,0.11,0.48,0.31,0.37,0.47c-0.23,0.16-0.53,0.19-0.79,0.08c-0.34-0.11-0.5-0.31-0.38-0.47
		C267.71,62.22,268.02,62.19,268.28,62.31"/>
	<path class="st3" d="M270.56,63c0.39,0.14,0.59,0.4,0.46,0.6s-0.54,0.22-0.94,0.08s-0.6-0.41-0.46-0.61
		C269.89,62.87,270.26,62.84,270.56,63"/>
	<path class="st3" d="M269.7,81.09c0.32,0.09,0.51,0.41,0.42,0.74c0,0.02-0.01,0.03-0.01,0.04c-0.19,0.31-0.58,0.43-0.91,0.28
		c-0.32-0.08-0.51-0.4-0.43-0.71c0.01-0.03,0.01-0.05,0.02-0.08C268.98,81.05,269.37,80.94,269.7,81.09"/>
	<path class="st3" d="M273,79.45c0.46,0.13,0.72,0.6,0.6,1.06c-0.24,0.42-0.77,0.58-1.2,0.36c-0.46-0.13-0.73-0.61-0.61-1.07
		c0-0.01,0-0.01,0.01-0.02C272.05,79.37,272.58,79.23,273,79.45"/>
	<path class="st3" d="M276.25,78.5c0.47,0.16,0.76,0.64,0.67,1.13c-0.22,0.43-0.74,0.6-1.17,0.38c-0.02-0.01-0.03-0.02-0.05-0.03
		c-0.49-0.16-0.78-0.66-0.67-1.16C275.28,78.4,275.82,78.25,276.25,78.5C276.25,78.5,276.25,78.5,276.25,78.5"/>
	<path class="st3" d="M282.39,68c0.44,0.22,0.72,0.59,0.64,0.86s-0.49,0.3-0.94,0.09s-0.74-0.6-0.65-0.87S281.94,67.79,282.39,68"/>
	<path class="st3" d="M272,64.88c0.41,0.16,0.63,0.44,0.51,0.66s-0.56,0.27-1,0.11s-0.65-0.44-0.51-0.67S271.56,64.72,272,64.88"/>
	<path class="st3" d="M274.11,65.68c0.42,0.18,0.65,0.49,0.54,0.72s-0.55,0.28-1,0.11s-0.66-0.49-0.53-0.73s0.56-0.26,1-0.1"/>
	<path class="st3" d="M277.62,68.53c0.46,0.21,0.73,0.57,0.62,0.86s-0.57,0.33-1,0.13s-0.74-0.59-0.62-0.87
		S277.2,68.32,277.62,68.53"/>
	<path class="st3" d="M276.16,66.48c0.45,0.2,0.7,0.54,0.59,0.8s-0.57,0.31-1,0.12s-0.72-0.56-0.6-0.82s0.59-0.29,1.05-0.1"/>
	<path class="st3" d="M278.19,67.36c0.48,0.22,0.75,0.6,0.65,0.88s-0.58,0.33-1.07,0.11s-0.77-0.61-0.65-0.89
		S277.71,67.14,278.19,67.36"/>
	<path class="st3" d="M279.64,69.39c0.5,0.24,0.79,0.65,0.69,1s-0.59,0.38-1.1,0.15s-0.81-0.66-0.7-1s0.61-0.36,1.11-0.14"/>
	<path class="st3" d="M279.29,77.67c0.47,0.17,0.76,0.64,0.7,1.13c-0.13,0.4-0.63,0.54-1.16,0.31c-0.5-0.15-0.8-0.64-0.7-1.15
		C278.28,77.57,278.78,77.44,279.29,77.67"/>
	<path class="st3" d="M279.82,76c0.5,0.17,0.82,0.66,0.76,1.19c-0.14,0.42-0.67,0.55-1.24,0.3c-0.51-0.17-0.83-0.68-0.76-1.21
		C278.73,75.87,279.26,75.76,279.82,76"/>
	<path class="st3" d="M280.29,74.37c0.59,0.29,0.95,0.82,0.83,1.25s-0.71,0.56-1.32,0.29s-1-0.84-0.83-1.27
		S279.69,74.11,280.29,74.37"/>
	<path class="st3" d="M280.77,72.88c0.57,0.28,0.92,0.79,0.81,1.19s-0.68,0.51-1.27,0.24s-0.94-0.8-0.81-1.21
		S280.19,72.62,280.77,72.88"/>
	<path class="st3" d="M281.18,71.59c0.5,0.24,0.81,0.68,0.71,1s-0.58,0.42-1.1,0.18s-0.82-0.7-0.71-1s0.59-0.4,1.1-0.16"/>
	<path class="st3" d="M281.65,70.28c0.54,0.26,0.87,0.73,0.78,1.08s-0.62,0.42-1.18,0.17s-0.9-0.75-0.78-1.1
		S281.1,70.02,281.65,70.28"/>
	<path class="st3" d="M282.05,69.08c0.52,0.26,0.85,0.71,0.76,1s-0.59,0.39-1.13,0.13s-0.88-0.72-0.77-1S281.52,68.84,282.05,69.08"
		/>
	<path class="st3" d="M286.23,68.81c0.35,0.18,0.59,0.49,0.55,0.7s-0.36,0.24-0.72,0.06s-0.59-0.49-0.54-0.7
		S285.88,68.63,286.23,68.81"/>
	<path class="st3" d="M286.51,67.85c0.32,0.17,0.54,0.44,0.5,0.63s-0.32,0.21-0.65,0s-0.54-0.45-0.5-0.64s0.33-0.19,0.65,0"/>
	<path class="st3" d="M286.79,67c0.27,0.15,0.46,0.38,0.43,0.54s-0.27,0.17-0.56,0s-0.47-0.39-0.43-0.55s0.28-0.16,0.56,0"/>
	<path class="st3" d="M287,66.09c0.24,0.14,0.42,0.33,0.39,0.48s-0.25,0.14-0.5,0s-0.43-0.33-0.4-0.48S286.74,65.95,287,66.09"/>
	<path class="st3" d="M287.27,65.31c0.23,0.13,0.39,0.3,0.37,0.44s-0.23,0.12-0.46,0s-0.4-0.3-0.37-0.44S287.04,65.19,287.27,65.31"
		/>
	<path class="st3" d="M287.49,64.57c0.2,0.11,0.35,0.26,0.33,0.38s-0.2,0.1-0.41,0s-0.35-0.26-0.33-0.38S287.28,64.47,287.49,64.57"
		/>
	<path class="st3" d="M287.68,63.94c0.19,0.1,0.32,0.24,0.3,0.35s-0.18,0.09-0.37,0s-0.33-0.25-0.31-0.36S287.49,63.85,287.68,63.94
		"/>
	<path class="st3" d="M287.87,63.3c0.17,0.1,0.29,0.21,0.27,0.31s-0.16,0.07-0.33,0s-0.28-0.21-0.27-0.31S287.7,63.23,287.87,63.3"
		/>
	<path class="st3" d="M283.49,81c-0.35-0.14-0.57-0.49-0.53-0.87c0.08-0.29,0.42-0.39,0.79-0.22c0.34,0.14,0.55,0.48,0.53,0.85
		C284.21,81.07,283.87,81.17,283.49,81"/>
	<path class="st3" d="M283.09,83c-0.34-0.14-0.54-0.49-0.51-0.85c0.09-0.3,0.41-0.4,0.77-0.24c0.34,0.14,0.54,0.48,0.5,0.84
		C283.78,83.05,283.45,83.16,283.09,83"/>
	<path class="st3" d="M282.71,85.08c-0.34-0.14-0.54-0.5-0.49-0.86c0.08-0.31,0.41-0.43,0.76-0.27c0.33,0.14,0.53,0.49,0.49,0.85
		c-0.08,0.27-0.37,0.42-0.64,0.34C282.79,85.12,282.75,85.1,282.71,85.08"/>
	<path class="st3" d="M282.36,87.34c-0.32-0.14-0.51-0.48-0.45-0.82c0.07-0.26,0.34-0.41,0.6-0.34c0.04,0.01,0.08,0.03,0.12,0.05
		c0.32,0.14,0.5,0.48,0.45,0.82c-0.06,0.26-0.33,0.41-0.58,0.35C282.45,87.39,282.4,87.37,282.36,87.34"/>
	<path class="st3" d="M281.91,89.8c-0.31-0.14-0.48-0.47-0.42-0.8c0.07-0.25,0.33-0.4,0.58-0.33c0.04,0.01,0.07,0.02,0.1,0.04
		c0.3,0.13,0.48,0.45,0.42,0.78c-0.06,0.25-0.31,0.41-0.56,0.35C281.99,89.83,281.95,89.82,281.91,89.8"/>
	<path class="st3" d="M281.43,92.6c-0.29-0.14-0.45-0.46-0.38-0.77c0.06-0.25,0.3-0.4,0.55-0.34c0.03,0.01,0.07,0.02,0.1,0.03
		c0.29,0.14,0.44,0.45,0.38,0.76c-0.05,0.25-0.3,0.41-0.54,0.36C281.5,92.63,281.46,92.62,281.43,92.6"/>
	<path class="st3" d="M280.14,68.27c0.46,0.22,0.74,0.6,0.65,0.87s-0.54,0.33-1,0.12s-0.75-0.61-0.65-0.89
		S279.69,68.06,280.14,68.27"/>
	<path class="st3" d="M279.11,70.73c0.42,0.19,0.66,0.54,0.57,0.82s-0.5,0.33-0.92,0.14s-0.67-0.55-0.58-0.83
		S278.69,70.54,279.11,70.73"/>
	<path class="st3" d="M278.64,72c0.47,0.22,0.75,0.63,0.64,1s-0.58,0.41-1.07,0.19s-0.76-0.64-0.65-1s0.6-0.39,1.08-0.18"/>
	<path class="st3" d="M276.89,76.7c0.43,0.13,0.69,0.56,0.62,1c-0.14,0.36-0.61,0.47-1.09,0.27c-0.43-0.13-0.69-0.56-0.62-1
		C276.03,76.6,276.51,76.48,276.89,76.7C276.89,76.71,276.89,76.71,276.89,76.7"/>
	<path class="st3" d="M272.68,63.75c0.44,0.19,0.67,0.5,0.54,0.72s-0.6,0.26-1.05,0.08s-0.68-0.49-0.54-0.72
		S272.24,63.58,272.68,63.75"/>
	<path class="st3" d="M272.1,81.65c0.42,0.14,0.66,0.57,0.55,1c-0.22,0.41-0.72,0.58-1.14,0.37c-0.42-0.13-0.66-0.58-0.54-1
		c0.22-0.4,0.72-0.56,1.13-0.36"/>
	<path class="st3" d="M268.83,83c0.42,0.13,0.65,0.58,0.51,0.99c0,0,0,0,0,0.01c-0.25,0.4-0.75,0.57-1.19,0.41
		c-0.41-0.12-0.66-0.55-0.54-0.96c0.01-0.03,0.02-0.06,0.03-0.09c0.26-0.39,0.75-0.56,1.19-0.39"/>
	<path class="st3" d="M275.5,80.54c0.45,0.15,0.72,0.62,0.61,1.08c-0.19,0.41-0.67,0.58-1.07,0.4c-0.01-0.01-0.02-0.01-0.04-0.02
		c-0.46-0.14-0.73-0.63-0.61-1.1c0.21-0.41,0.71-0.56,1.12-0.35c0.01,0,0.01,0.01,0.02,0.01"/>
	<path class="st3" d="M278.66,79.64c0.41,0.15,0.66,0.57,0.61,1c-0.12,0.38-0.58,0.52-1,0.31c-0.41-0.15-0.67-0.56-0.61-1
		c0.13-0.37,0.58-0.49,1.05-0.29"/>
	<path class="st3" d="M281.57,78.75c0.45,0.17,0.73,0.61,0.69,1.09c-0.12,0.4-0.58,0.53-1.07,0.31c-0.47-0.15-0.76-0.62-0.68-1.11
		C280.63,78.65,281.09,78.53,281.57,78.75"/>
	<path class="st3" d="M277.49,75.05c0.43,0.2,0.69,0.59,0.58,0.92s-0.55,0.41-1,0.23s-0.7-0.61-0.59-0.93s0.57-0.4,1-0.22"/>
	<path class="st3" d="M282.71,67c0.39,0.2,0.64,0.51,0.58,0.74s-0.43,0.25-0.83,0.06s-0.64-0.52-0.57-0.75s0.44-0.24,0.82,0"/>
	<path class="st3" d="M274.74,64.71c0.34,0.15,0.53,0.41,0.44,0.59s-0.46,0.21-0.82,0.06s-0.54-0.42-0.44-0.6
		S274.39,64.56,274.74,64.71"/>
	<path class="st3" d="M276.48,71.21c0.37,0.17,0.59,0.48,0.49,0.73s-0.48,0.31-0.87,0.15s-0.6-0.49-0.5-0.74
		S276.1,71.05,276.48,71.21"/>
	<path class="st3" d="M273.76,77.5c0.41,0.05,0.69,0.43,0.63,0.83c-0.05,0.41-0.43,0.69-0.83,0.63c-0.13-0.02-0.25-0.07-0.35-0.15
		c-0.49-0.21-0.75-0.65-0.59-1c0.24-0.38,0.74-0.51,1.14-0.3"/>
	<path class="st3" d="M278,73.59c0.42,0.2,0.67,0.57,0.57,0.87s-0.53,0.38-1,0.19s-0.68-0.57-0.58-0.87S277.53,73.41,278,73.59"/>
	<path class="st3" d="M273.6,71.67c0.44,0.18,0.68,0.54,0.56,0.83s-0.6,0.38-1.06,0.2s-0.69-0.55-0.55-0.84
		S273.15,71.49,273.6,71.67"/>
	<path class="st3" d="M266,84.37c0.27,0.07,0.44,0.35,0.37,0.62c-0.01,0.03-0.02,0.07-0.04,0.1c-0.18,0.3-0.54,0.43-0.87,0.31
		c-0.27-0.07-0.44-0.34-0.37-0.62c0.01-0.04,0.02-0.08,0.04-0.11C265.31,84.38,265.68,84.25,266,84.37"/>
	<path class="st3" d="M275.53,67.68c0.4,0.18,0.62,0.49,0.52,0.73s-0.52,0.29-0.93,0.12s-0.64-0.5-0.53-0.74
		S275.12,67.52,275.53,67.68"/>
	<path class="st3" d="M284.51,67.94c0.34,0.18,0.56,0.47,0.52,0.68s-0.37,0.22-0.72,0s-0.57-0.47-0.52-0.68
		S284.16,67.72,284.51,67.94"/>
	<path class="st3" d="M279.48,64.52c0.26,0.11,0.43,0.29,0.4,0.43s-0.27,0.17-0.54,0.07s-0.44-0.29-0.4-0.43
		S279.22,64.42,279.48,64.52"/>
	<path class="st3" d="M276.65,65.5c0.31,0.14,0.48,0.37,0.41,0.55s-0.39,0.19-0.7,0.06s-0.49-0.38-0.41-0.55
		S276.34,65.37,276.65,65.5"/>
	<path class="st3" d="M275.82,72.7c0.39,0.17,0.6,0.49,0.5,0.76s-0.5,0.34-0.9,0.18s-0.62-0.51-0.51-0.78S275.42,72.53,275.82,72.7"
		/>
	<path class="st3" d="M274.29,70.36c0.35,0.14,0.54,0.42,0.44,0.64s-0.46,0.28-0.82,0.14s-0.54-0.43-0.44-0.65
		S273.94,70.22,274.29,70.36"/>
	<path class="st3" d="M271.27,70.86c0.41,0.16,0.62,0.47,0.5,0.73c-0.25,0.28-0.66,0.36-1,0.19c-0.41-0.16-0.63-0.48-0.49-0.75
		c0.25-0.28,0.67-0.35,1-0.17"/>
	<path class="st3" d="M269.86,64.21c0.32,0.12,0.49,0.33,0.38,0.5c-0.22,0.18-0.52,0.22-0.78,0.1c-0.34-0.12-0.51-0.33-0.4-0.51
		C269.29,64.12,269.6,64.09,269.86,64.21"/>
	<path class="st3" d="M279.92,63.62c0.28,0.12,0.47,0.32,0.44,0.46c-0.03,0.14-0.29,0.18-0.58,0.07s-0.48-0.32-0.44-0.46
		S279.64,63.52,279.92,63.62"/>
	<path class="st3" d="M280.92,66.17c0.35,0.18,0.56,0.45,0.5,0.65s-0.4,0.22-0.76,0.05s-0.56-0.45-0.49-0.65s0.4-0.21,0.75,0"/>
	<path class="st3" d="M281.33,65.21c0.31,0.15,0.5,0.4,0.46,0.58s-0.34,0.18-0.65,0s-0.51-0.41-0.46-0.59S281.03,65.03,281.33,65.21
		"/>
	<path class="st3" d="M277,70c0.33,0.15,0.51,0.41,0.44,0.62s-0.42,0.26-0.76,0.12s-0.52-0.43-0.44-0.64S276.66,69.85,277,70"/>
	<path class="st3" d="M278.62,66.44c0.28,0.12,0.44,0.34,0.38,0.49s-0.33,0.17-0.61,0s-0.43-0.34-0.37-0.5s0.33-0.17,0.6,0"/>
	<path class="st3" d="M274.47,75.87c0.34,0.15,0.52,0.44,0.42,0.69s-0.45,0.33-0.79,0.19s-0.53-0.44-0.43-0.69
		C273.84,75.8,274.2,75.71,274.47,75.87"/>
	<path class="st3" d="M280.47,67.33c0.24,0.12,0.38,0.31,0.34,0.45s-0.28,0.16-0.53,0s-0.39-0.31-0.34-0.45
		S280.22,67.17,280.47,67.33"/>
	<path class="st3" d="M283,66.09c0.27,0.14,0.45,0.37,0.41,0.53s-0.28,0.16-0.56,0s-0.45-0.37-0.41-0.53S282.72,65.92,283,66.09"/>
	<path class="st3" d="M273.37,66.89c0.34,0.14,0.52,0.39,0.43,0.58s-0.45,0.23-0.8,0.1s-0.52-0.39-0.42-0.58
		S273.03,66.76,273.37,66.89"/>
	<path class="st3" d="M266,61.57c0.27,0.08,0.4,0.24,0.3,0.37c-0.21,0.13-0.46,0.16-0.69,0.07c-0.28-0.09-0.41-0.25-0.3-0.37
		C265.51,61.5,265.77,61.48,266,61.57"/>
	<path class="st3" d="M268.88,70c0.39,0.14,0.58,0.42,0.45,0.65c-0.24,0.25-0.62,0.32-0.94,0.18c-0.39-0.14-0.59-0.42-0.45-0.65
		C268.18,69.93,268.56,69.86,268.88,70"/>
	<path class="st3" d="M265.16,86.51c0.25,0.07,0.4,0.33,0.33,0.58c-0.01,0.04-0.03,0.08-0.05,0.11c-0.16,0.29-0.5,0.42-0.81,0.31
		c-0.25-0.08-0.4-0.34-0.32-0.6c0.01-0.04,0.03-0.07,0.04-0.1C264.51,86.53,264.85,86.4,265.16,86.51"/>
	<path class="st3" d="M262.76,87.75c0.22,0.06,0.34,0.29,0.28,0.51c-0.01,0.03-0.02,0.06-0.04,0.09c-0.15,0.24-0.45,0.36-0.73,0.27
		c-0.22-0.03-0.37-0.24-0.33-0.46c0.01-0.06,0.03-0.11,0.06-0.16c0.16-0.24,0.46-0.35,0.74-0.27"/>
	<path class="st3" d="M271.25,83.78c0.33,0.11,0.51,0.46,0.4,0.8c0,0,0,0,0,0c-0.16,0.32-0.55,0.45-0.87,0.3
		c-0.33-0.1-0.51-0.45-0.4-0.78c0-0.01,0.01-0.02,0.01-0.03C270.55,83.76,270.93,83.63,271.25,83.78"/>
	<path class="st3" d="M268,85.18c0.33,0.11,0.51,0.46,0.4,0.8c0,0,0,0,0,0c-0.16,0.32-0.54,0.45-0.87,0.31
		c-0.33-0.11-0.51-0.47-0.39-0.8c0,0,0-0.01,0-0.01C267.3,85.16,267.68,85.03,268,85.18"/>
	<path class="st3" d="M272,69.56c0.25,0.11,0.39,0.3,0.31,0.46s-0.35,0.2-0.61,0.1s-0.41-0.3-0.32-0.46S271.73,69.47,272,69.56"/>
	<path class="st3" d="M278.76,62.29c0.22,0.09,0.36,0.23,0.33,0.35s-0.25,0.12-0.47,0s-0.37-0.23-0.33-0.35
		S278.54,62.17,278.76,62.29"/>
	<path class="st3" d="M274.72,82.69c0.28,0.1,0.43,0.4,0.36,0.69c-0.12,0.26-0.43,0.37-0.69,0.25c-0.01,0-0.01-0.01-0.02-0.01
		c-0.28-0.1-0.44-0.4-0.36-0.69c0.12-0.26,0.43-0.37,0.69-0.25C274.71,82.68,274.71,82.69,274.72,82.69"/>
	<path class="st3" d="M278,81.6c0.26,0.09,0.42,0.36,0.37,0.64c-0.1,0.23-0.36,0.34-0.59,0.24c-0.02-0.01-0.04-0.02-0.06-0.03
		c-0.27-0.09-0.42-0.37-0.36-0.65c0.1-0.23,0.37-0.33,0.6-0.22C277.97,81.58,277.99,81.59,278,81.6"/>
	<path class="st3" d="M281,80.93c0.25,0.1,0.4,0.35,0.36,0.61c-0.06,0.22-0.32,0.31-0.59,0.19c-0.25-0.1-0.39-0.36-0.36-0.62
		C280.48,80.89,280.73,80.81,281,80.93"/>
	<path class="st3" d="M266.31,69.36c0.25,0.08,0.38,0.26,0.28,0.41c-0.17,0.16-0.42,0.21-0.64,0.12c-0.26-0.08-0.39-0.25-0.29-0.4
		C265.83,69.33,266.09,69.28,266.31,69.36"/>
	<path class="st3" d="M268,71.24c0.32,0.1,0.47,0.33,0.36,0.53c-0.2,0.21-0.51,0.27-0.77,0.16c-0.32-0.11-0.47-0.34-0.36-0.54
		C267.43,71.18,267.74,71.12,268,71.24"/>
	<path class="st3" d="M270.45,72.32c0.27,0.11,0.41,0.32,0.32,0.5c-0.16,0.2-0.44,0.25-0.67,0.14c-0.27-0.11-0.42-0.32-0.32-0.5
		C269.94,72.26,270.22,72.21,270.45,72.32"/>
	<path class="st3" d="M272.85,73.28c0.24,0.1,0.37,0.3,0.3,0.47c-0.14,0.18-0.38,0.23-0.58,0.12c-0.25-0.1-0.37-0.3-0.3-0.47
		C272.41,73.23,272.65,73.18,272.85,73.28"/>
	<path class="st3" d="M275.15,74.25c0.23,0.11,0.36,0.31,0.3,0.48s-0.31,0.21-0.56,0.12s-0.37-0.31-0.3-0.48
		C274.72,74.19,274.96,74.14,275.15,74.25"/>
	<path class="st3" d="M280.33,62.89c0.21,0.09,0.36,0.22,0.33,0.34s-0.22,0.13-0.44,0s-0.36-0.22-0.33-0.34
		S280.11,62.77,280.33,62.89"/>
	<path class="st3" d="M279.2,61.58c0.19,0.08,0.32,0.21,0.29,0.31s-0.2,0.11-0.39,0s-0.33-0.21-0.3-0.31S279,61.47,279.2,61.58"/>
	<path class="st3" d="M278,60.44c0.18,0.07,0.3,0.18,0.27,0.28s-0.18,0.1-0.35,0s-0.29-0.18-0.27-0.28S277.83,60.34,278,60.44"/>
	<path class="st3" d="M281.64,64.43c0.22,0.12,0.37,0.28,0.34,0.42s-0.25,0.13-0.48,0s-0.38-0.29-0.34-0.42
		S281.41,64.3,281.64,64.43"/>
	<path class="st3" d="M265.46,70.5c0.27,0.09,0.39,0.27,0.3,0.43c-0.18,0.17-0.44,0.22-0.67,0.14c-0.27-0.09-0.39-0.27-0.29-0.43
		C264.98,70.48,265.23,70.42,265.46,70.5"/>
	<path class="st3" d="M263.09,69.86c0.25,0.06,0.37,0.22,0.27,0.37c-0.17,0.16-0.42,0.21-0.64,0.14c-0.26-0.07-0.37-0.23-0.27-0.37
		C262.62,69.85,262.87,69.79,263.09,69.86"/>
	<path class="st3" d="M283.22,69c-0.07,0.27,0.17,0.64,0.57,0.91c-0.48-0.16-0.88-0.08-1,0.23c-0.02,0.36,0.15,0.71,0.46,0.91
		c-0.41-0.07-0.73,0-0.82,0.32s0.17,0.77,0.63,1.08c-0.51-0.15-0.93,0-1,0.31c-0.07,0.38,0.09,0.78,0.41,1
		c-0.34-0.09-0.69,0.08-0.82,0.4c-0.05,0.43,0.15,0.85,0.51,1.09c-0.47-0.07-0.85,0.08-1,0.44c-0.05,0.63,0.34,1.21,0.93,1.42
		c0.4,0.26,0.92,0.22,1.27-0.09c0.13,0.52,0.5,0.95,1,1.15c0.35,0.21,0.78,0.21,1.13,0c0.17,0.44,0.49,0.79,0.91,1
		c0.33,0.22,0.77,0.22,1.1,0c0.18,0.43,0.5,0.79,0.92,1c0.32,0.23,0.76,0.23,1.08,0c0.18,0.44,0.51,0.79,0.93,1
		c0.62,0.31,1.13,0.15,1.19-0.36c-0.02-0.47-0.24-0.9-0.6-1.19c0.41,0.07,0.7-0.09,0.74-0.45c-0.03-0.39-0.21-0.75-0.51-1
		c0.36,0,0.6-0.11,0.63-0.42c-0.03-0.48-0.3-0.92-0.71-1.18c0.46,0.16,0.8,0,0.84-0.32c-0.03-0.4-0.23-0.76-0.55-1
		c0.37,0.07,0.62,0,0.65-0.34c-0.06-0.45-0.32-0.84-0.71-1.07c0.4,0.14,0.69,0.06,0.72-0.23c-0.08-0.45-0.38-0.82-0.8-1
		c-0.42-0.22-0.77-0.21-0.89,0c-0.13-0.39-0.42-0.71-0.79-0.88c-0.4-0.21-0.74-0.21-0.89,0c-0.14-0.42-0.45-0.76-0.85-0.94
		c-0.46-0.23-0.86-0.23-1,0c-0.12-0.37-0.4-0.68-0.76-0.84c-0.5-0.25-0.94-0.23-1,0.08l0,0c0.06-0.32-0.29-0.74-0.79-1
		s-1-0.21-1.06,0.09 M289.75,78.56c0.22,0.1,0.37,0.32,0.39,0.57c0,0.2-0.23,0.25-0.48,0.13c-0.22-0.1-0.37-0.32-0.39-0.57
		C289.27,78.49,289.5,78.44,289.75,78.56 M287.82,77.63c0.2,0.09,0.34,0.28,0.35,0.5c0,0.17-0.23,0.22-0.44,0.11
		c-0.21-0.08-0.35-0.29-0.35-0.51C287.38,77.57,287.6,77.52,287.82,77.63 M285.88,76.63c0.2,0.08,0.33,0.27,0.33,0.49
		c0,0.17-0.23,0.22-0.46,0.11c-0.2-0.08-0.33-0.28-0.33-0.5C285.42,76.57,285.65,76.52,285.88,76.63 M284.06,76
		c-0.05,0.18-0.28,0.23-0.54,0.12s-0.42-0.37-0.37-0.56s0.28-0.23,0.54-0.11C283.92,75.54,284.07,75.76,284.06,76 M289.92,77.06
		c0.2,0.09,0.33,0.28,0.35,0.49c0,0.16-0.2,0.2-0.42,0.1c-0.2-0.09-0.33-0.28-0.34-0.5C289.51,76.99,289.71,76.95,289.92,77.06
		 M284.02,74.06c0.19,0.08,0.32,0.26,0.33,0.47c0,0.16-0.25,0.2-0.47,0.1s-0.36-0.32-0.33-0.48S283.8,73.96,284.02,74.06
		 M290.09,75.59c0.19,0.08,0.32,0.26,0.34,0.47c0,0.15-0.19,0.19-0.4,0.08s-0.36-0.31-0.34-0.46S289.88,75.49,290.09,75.59
		 M284.36,72.7c0.21,0.11,0.35,0.3,0.32,0.45s-0.23,0.18-0.45,0.08s-0.36-0.31-0.32-0.46S284.14,72.6,284.36,72.7 M290.25,74.26
		c0.18,0.08,0.31,0.24,0.33,0.44c0,0.16-0.19,0.18-0.39,0.08c-0.19-0.08-0.31-0.25-0.33-0.45
		C289.86,74.18,290.04,74.16,290.25,74.26 M284.67,71.42c0.21,0.11,0.35,0.29,0.32,0.44s-0.23,0.16-0.44,0.06s-0.35-0.29-0.32-0.44
		S284.46,71.32,284.67,71.42 M290.33,72.88c0.19,0.08,0.33,0.26,0.36,0.47c0,0.15-0.2,0.18-0.42,0.07
		c-0.19-0.08-0.33-0.26-0.36-0.47C289.91,72.8,290.12,72.77,290.33,72.88 M288.61,72.02c0.2,0.1,0.34,0.27,0.32,0.41
		s-0.19,0.16-0.39,0.06s-0.33-0.28-0.31-0.42s0.19-0.15,0.38,0 M286.88,71.18c0.19,0.1,0.33,0.27,0.3,0.41s-0.2,0.15-0.39,0
		s-0.34-0.28-0.32-0.41S286.68,71.03,286.88,71.18 M284.99,70.18c0.22,0.12,0.37,0.31,0.34,0.46s-0.24,0.16-0.47,0
		s-0.38-0.31-0.34-0.46S284.76,70.02,284.99,70.18"/>
</g>
</svg>
