<svg xmlns="http://www.w3.org/2000/svg" height="800" width="1200" version="1.0" viewBox="-82.1724 -75.53425 712.1608 453.2055"><path fill="#606060" clip-rule="evenodd" fill-rule="evenodd" d="M196.855 160.969l-48.962 28.264-.178-.103v-.073l-.064.037-.038-.023v.044l-49.088 28.337-.021-.012v-.021l-.018.011-.018-.011v.014l-49.06-28.321v-.055l-.048.027-.048-.027v.055l-.173.1L.02 160.858v56.839l.269-.155 49.001 28.286-.019.011.041.023v.035l.03-.018 49.126 28.359v.021l.018-.011.018.011v-.021l49.109-28.348v.021l.004-.002v56.227l48.987-28.278.263.151v-56.84l-.012.007z"/><path d="M147.623 189.389l49.232 28.42v-56.84zm-49.155 84.87l49.233-28.42-49.233-28.42zM.02 217.697l49.232-28.42L.02 160.857z" fill="#606060" clip-rule="evenodd" fill-rule="evenodd"/><path d="M196.85 273.716l-48.701-28.114 48.697-28.11-49.233-28.42v56.84l.004-.002v56.227zM49.312 245.897l49.232-28.42-49.232-28.42z" fill="#131311" clip-rule="evenodd" fill-rule="evenodd"/><path fill="#3E3E3E" clip-rule="evenodd" fill-rule="evenodd" d="M147.715 189.057l-49.211 28.408v-.046L49.408 245.76v-56.703L.175 217.477l49.115 28.351-.019.011 49.233 28.42v-56.771l49.211 28.409v-.261l49.152 28.373v-56.84l-49.152 28.373z"/><path fill="red" clip-rule="evenodd" fill-rule="evenodd" d="M196.578 84.593l-49-28.285.018-.011-.04-.023v-.035l-.03.017L98.4 27.897v-.021l-.018.01-.018-.01v.021l-49.11 28.35v-.022l-.004.002V0L.264 28.278 0 28.126v56.84l.012-.007v56.208l48.963-28.264.177.102v.074l.064-.036.038.022v-.045l49.088-28.336.022.012v.021l.018-.01.018.01v-.013l49.06 28.32v.055l.048-.028.048.028v-.055l.173-.1 49.119 28.354v-56.84z"/><path d="M.012 141.167l49.232-28.42L.012 84.327zM98.4 84.717V27.876L49.167 56.297zm49.216 28.141l49.232 28.42V84.437z" fill="red" clip-rule="evenodd" fill-rule="evenodd"/><path d="M49.25 0L.018 28.42 48.72 56.533.022 84.644l49.232 28.42v-56.84l-.004.002zm49.073 84.659l49.232 28.42v-56.84z" fill="#BD0000" clip-rule="evenodd" fill-rule="evenodd"/><path fill="#940000" clip-rule="evenodd" fill-rule="evenodd" d="M147.596 56.297L98.364 27.876v56.771L49.152 56.239v.26L0 28.126v56.84l49.152-28.373v56.486l49.212-28.408v.046l49.096-28.341v56.703l49.232-28.42-49.114-28.351z"/><path d="M541.081 102.856c-.415.382-.763.711-1.039.987-.866.935-1.61 2.061-2.233 3.377-.623 1.316-1.567 2.476-2.831 3.479-1.265 1.005-2.26 1.507-2.987 1.507v1.974a9.828 9.828 0 012.883 3.792c.641 1.489.962 3.1.962 4.831v13.426l-23.284-.128v-20.985h-1.402c-.416.381-.762.71-1.039.986-.866.936-1.61 2.062-2.233 3.377-.624 1.316-1.567 2.477-2.831 3.48-1.265 1.005-2.26 1.506-2.987 1.506v1.975c.865.693 1.645 1.662 2.338 2.909 1.004 1.801 1.507 3.705 1.507 5.714V149.4c0 1.87-.642 3.445-1.923 4.727-1.281 1.282-2.856 1.922-4.727 1.922h-29.722c-2.285 0-4.277-.502-5.974-1.506-.97-.555-1.853-1.334-2.649-2.338h-1.974c0 .728-.485 1.696-1.454 2.909-1.074 1.351-2.234 2.319-3.48 2.909-1.662.796-2.961 1.679-3.896 2.649a5.97 5.97 0 00-.52.623v1.402h49.669c3.913 0 7.107-1.238 9.584-3.714 2.476-2.477 3.714-5.671 3.714-9.584v-6.649h1.458v.067h21.822c-.001.082-.013.154-.015.235h6.659c.001-.103.008-.199.008-.303v-39.895h-1.404zm-93.427-6.229c-.653 1.684-1.993 3.109-4.02 4.276-.275.173-2.354 1.117-6.234 2.834-2.851 1.271-5.135 2.646-6.852 4.121-2.439 2.096-4.147 4.432-5.127 7.008-.979 2.575-1.468 5.615-1.468 9.119v5.615h19.784v6.717l-58.193-.122v-27.924h-1.391c-.412.378-.756.704-1.03.979-.858.928-1.597 2.044-2.216 3.349-.617 1.306-1.555 2.456-2.808 3.452-1.254.996-2.241 1.494-2.962 1.494v1.958c.755.412 1.527.808 2.318 1.185.996.791 1.494 2.25 1.494 4.379v19.27c0 7.144-1.615 12.897-4.844 17.26-2.576 3.503-5.289 5.255-8.141 5.255v2.318c3.229 0 6.114-.618 8.656-1.854 3.263-1.58 5.805-4.14 7.625-7.677 2.197-4.294 3.297-9.91 3.297-16.848l58.189.063c0 .081-.012.152-.014.233h6.604c.002-.101.009-.194.009-.296V96.628h-2.676zm-3.916 26.379h-13.189c0-4.121 1.459-7.59 4.379-10.407a13.364 13.364 0 013.555-2.396c1.306-.601 3.057-1.313 5.256-2.138v14.941zm-84.335-19.32c-.858.928-1.597 2.044-2.216 3.349-.617 1.306-1.555 2.456-2.808 3.452-1.254.997-2.241 1.494-2.962 1.494v1.958a9.742 9.742 0 012.859 3.761c.635 1.478.953 3.074.953 4.792v13.704h-21.385c-1.648 0-3.4-.584-5.255-1.752-1.442-.927-3.194-2.387-5.255-4.379 1.305-.961 3.64-2.112 7.006-3.452 1.134-.445 2.713-1.03 4.74-1.752 0-3.915-1.048-7.298-3.143-10.149-1.133-1.546-3.4-3.658-6.801-6.337-3.16-2.473-5.324-4.637-6.492-6.491-1.202 1.82-3.418 4.001-6.646 6.543-3.4 2.679-5.667 4.774-6.801 6.285-2.062 2.782-3.091 6.149-3.091 10.099 2.025.756 3.605 1.357 4.739 1.803 3.435 1.374 5.788 2.508 7.059 3.4-2.13 2.096-3.899 3.59-5.307 4.482-1.786 1.134-3.538 1.7-5.255 1.7H269.25v-35.984s-3.232-.069-3.341.04c-.188 9.01-9.701 14.951-11.084 16.212a638.986 638.986 0 01-5.358 4.585c-2.439 2.096-4.147 4.432-5.126 7.007-.979 2.576-1.468 5.616-1.468 9.12v5.615h60.474c2.541 0 5.135-.772 7.779-2.318 2.164-1.271 4.671-3.246 7.521-5.925 2.954 2.782 5.444 4.774 7.471 5.977 2.576 1.512 5.152 2.267 7.729 2.267h27.979v-40.083h-1.391c-.414.376-.757.702-1.032.977zm-96.748 32.509h-13.189c0-2.232.292-4.173.876-5.821.583-1.649 1.614-3.177 3.091-4.586l5.255-4.431c1.991-1.683 3.314-3.125 3.967-4.328zm55.941-10.819c-.962-.722-2.611-1.683-4.946-2.885-1.854-.962-3.384-1.683-4.585-2.164.549-1.408 1.769-2.919 3.658-4.534 1.133-.961 3.091-2.559 5.873-4.791 1.408 1.202 3.365 2.8 5.873 4.791 1.889 1.648 3.092 3.143 3.606 4.482-1.58.722-3.108 1.46-4.585 2.216-2.302 1.168-3.933 2.13-4.894 2.885z" fill="#131311" clip-rule="evenodd" fill-rule="evenodd"/><path d="M435.963 83.032l-1.988 2.311c-1.128 1.379-1.845 2.391-2.148 3.035.59.591 1.639 1.396 3.143 2.418l2.122 1.343 2.257-2.687 1.799-2.256-2.095-1.424c-1.506-1.092-2.535-2.005-3.09-2.74zm9.972-.403l-1.987 2.31c-1.129 1.38-1.846 2.391-2.149 3.036.591.591 1.639 1.396 3.143 2.417l2.122 1.344 2.257-2.687 1.8-2.257-2.096-1.424c-1.505-1.092-2.536-2.005-3.09-2.739zm-99.782 67.025l-1.988 2.311c-1.128 1.379-1.845 2.391-2.149 3.035.592.591 1.639 1.396 3.144 2.418l2.122 1.343 2.257-2.687 1.8-2.256-2.096-1.424c-1.505-1.092-2.535-2.005-3.09-2.74zm9.972-.403l-1.988 2.31c-1.127 1.38-1.844 2.391-2.148 3.036.591.591 1.639 1.396 3.143 2.417l2.123 1.344 2.256-2.687 1.8-2.257-2.095-1.424c-1.506-1.091-2.536-2.005-3.091-2.739zM253.921 86.262l-1.988 2.311c-1.128 1.379-1.845 2.391-2.149 3.035.591.591 1.639 1.397 3.143 2.418l2.122 1.343 2.256-2.687 1.8-2.256-2.095-1.424c-1.504-1.093-2.534-2.006-3.089-2.74zm9.973-.404l-1.988 2.31c-1.128 1.38-1.845 2.391-2.149 3.036.591.591 1.639 1.396 3.143 2.417l2.123 1.344 2.256-2.687 1.8-2.257-2.095-1.424c-1.505-1.091-2.536-2.004-3.09-2.739zm219.96 49.659l-1.987 2.31c-1.128 1.38-1.845 2.391-2.149 3.036.592.591 1.639 1.396 3.144 2.417l2.122 1.344 2.256-2.687 1.801-2.257-2.096-1.424c-1.506-1.092-2.536-2.005-3.091-2.739zm44.143 16.473c-1.504-1.092-2.534-2.005-3.089-2.739l-1.988 2.31c-1.128 1.38-1.845 2.391-2.148 3.036.591.591 1.639 1.396 3.143 2.417l2.122 1.344 2.257-2.687 1.8-2.257zM404.82 223.107c-1.779.379-3.6.569-5.463.569-2.624 0-5.222-.319-7.793-.958a54.973 54.973 0 01-7.637-2.512 73.708 73.708 0 01-7.379-3.521 200.57 200.57 0 01-6.964-3.987c2.692-2.036 4.763-4.556 6.214-7.56a21.535 21.535 0 002.174-9.475c0-2.83-.526-5.411-1.579-7.741-1.054-2.33-2.485-4.331-4.298-6.006-1.813-1.674-3.943-2.969-6.395-3.884-2.451-.914-5.057-1.372-7.818-1.372-2.865 0-5.54.51-8.025 1.527-2.485 1.019-4.652 2.434-6.498 4.246-1.848 1.813-3.306 3.944-4.375 6.395-1.07 2.451-1.605 5.109-1.605 7.974 0 2.97.482 5.695 1.449 8.181.967 2.486 2.33 4.617 4.091 6.395 1.761 1.778 3.884 3.159 6.369 4.143s5.247 1.476 8.284 1.476c.794 0 1.554-.086 2.278-.259a37.344 37.344 0 002.123-.569c.587-.173 1.13-.337 1.631-.492.5-.155.94-.232 1.32-.232h.259c.69.276 1.432.604 2.227.983.794.38 1.535.776 2.227 1.19.379.207.836.448 1.372.726.534.275.991.5 1.372.673 1.795.862 3.684 1.726 5.67 2.589a71.116 71.116 0 006.031 2.304 54.576 54.576 0 006.214 1.657c2.104.432 4.194.647 6.265.647 2.52 0 4.953-.329 7.301-.984a27.516 27.516 0 006.731-2.899l-.569-.828a30.982 30.982 0 01-5.204 1.604zm-39.688-11.754a16.764 16.764 0 01-5.074 2.899c-2.521-.311-4.833-1.069-6.938-2.278a19.823 19.823 0 01-5.437-4.557c-1.519-1.829-2.701-3.9-3.546-6.213a20.89 20.89 0 01-1.27-7.249c0-2.209.354-4.211 1.062-6.006.707-1.795 1.709-3.331 3.003-4.608 1.295-1.277 2.84-2.261 4.635-2.951 1.794-.69 3.779-1.036 5.954-1.036 2.313 0 4.366.458 6.161 1.372a14.082 14.082 0 014.557 3.65c1.243 1.52 2.184 3.28 2.822 5.281.639 2.003.958 4.108.958 6.317 0 2.037-.269 3.995-.803 5.877a19.856 19.856 0 01-2.33 5.229 18.465 18.465 0 01-3.754 4.273zm44.827-32.802c-1.83.052-3.677.078-5.541.078a.87.87 0 00-.466.129c-.138.087-.19.199-.155.337.068.38.363.63.881.751a9.43 9.43 0 001.501.232c.207.035.362.044.466.026a.66.66 0 01.311.025c.449.174.742.501.881.984.137.483.207 1.001.207 1.554v2.641c0 .932.008 1.872.025 2.821.018.95.026 1.89.026 2.822v2.589c.034 1.83.052 3.642.052 5.437v5.488c0 1.554-.268 2.97-.803 4.246-.535 1.277-1.277 2.364-2.227 3.262-.949.898-2.07 1.597-3.365 2.097-1.295.501-2.685.751-4.168.751-1.484 0-2.857-.241-4.117-.725-1.26-.484-2.348-1.173-3.262-2.071a9.626 9.626 0 01-2.148-3.21c-.518-1.243-.777-2.641-.777-4.194 0-1.863-.008-3.71-.025-5.54-.018-1.829-.009-3.676.025-5.54.035-1.864.053-3.71.053-5.54v-5.541c0-1.035.267-1.726.803-2.07.534-.345 1.268-.57 2.2-.674.345-.034.518-.189.518-.466 0-.275-.173-.431-.518-.466a30.015 30.015 0 00-5.126-.078 44.986 44.986 0 01-5.074.078l-1.968-.052a.868.868 0 00-.466.129c-.139.087-.19.199-.156.337.069.38.363.64.881.776a7.944 7.944 0 001.502.26c.207.034.362.043.466.025a.66.66 0 01.311.025c.448.174.741.501.88.984a5.64 5.64 0 01.207 1.554v20.557c0 .138.026.371.078.699.052.328.104.682.155 1.061.052.381.112.743.181 1.088.069.346.139.587.207.725a17.309 17.309 0 002.383 4.323c1 1.329 2.156 2.469 3.469 3.418a16.318 16.318 0 004.323 2.227c1.57.534 3.218.802 4.944.802 2.279 0 4.332-.414 6.162-1.242 1.829-.828 3.392-1.95 4.686-3.365 1.295-1.415 2.287-3.072 2.978-4.971.691-1.899 1.036-3.936 1.036-6.11v-19.572c0-1 .301-1.69.906-2.07.604-.38 1.354-.639 2.252-.777l-.052-.932a53.648 53.648 0 00-5.542-.132zm42.086 36.711c-1.277-.673-2.529-1.587-3.754-2.744a32.595 32.595 0 01-3.521-3.936 596.944 596.944 0 01-3.235-4.271 220.178 220.178 0 01-1.839-2.485 22.394 22.394 0 00-1.734-2.123 24.82 24.82 0 002.201-2.407 19.727 19.727 0 001.89-2.822 17.988 17.988 0 001.347-3.081 10.189 10.189 0 00.492-3.961 2.247 2.247 0 00-.13-.673c-.414-1.726-1.053-3.114-1.915-4.168a8.934 8.934 0 00-3.081-2.434 12.983 12.983 0 00-3.883-1.139 31.849 31.849 0 00-4.271-.285h-2.744c-.312 0-.613.009-.906.025a14.1 14.1 0 01-.906.026c-.553 0-1.088.009-1.605.025-.518.019-1.07.01-1.656-.025h-4.35c-.242 0-.414.061-.518.181-.104.122-.104.269 0 .44a.947.947 0 00.672.673c.346.104.76.174 1.243.207.241.035.483.078.726.13.24.052.465.155.673.311.206.155.379.406.518.751.138.346.207.812.207 1.398v28.685c0 .828-.019 1.511-.052 2.045-.035.536-.147.958-.336 1.269-.191.311-.492.553-.906.726-.414.173-1.002.328-1.762.466-.345.069-.509.232-.491.491.017.26.198.406.544.44 2.105.104 4.211.155 6.316.155h6.317c.276 0 .466-.086.569-.259.104-.172.052-.345-.155-.518a2.13 2.13 0 00-1.062-.518 13.77 13.77 0 00-1.165-.155 9.878 9.878 0 00-.698-.104 2.783 2.783 0 01-.699-.155c-.104-.069-.207-.293-.311-.674a27.417 27.417 0 01-.311-1.269 13.87 13.87 0 01-.233-1.32 8.438 8.438 0 01-.078-.88v-9.631c.276-.034.569-.052.88-.052h.933c.725 0 1.544.069 2.46.207.914.139 1.682.484 2.304 1.036.828.725 1.631 1.613 2.407 2.666a323.872 323.872 0 012.355 3.236 92.479 92.479 0 002.46 3.365 21.63 21.63 0 002.744 2.978c.983.88 2.054 1.588 3.21 2.123 1.156.534 2.46.803 3.91.803.896 0 1.777-.104 2.641-.312.862-.207 1.69-.5 2.484-.88l-.311-.88c-1.314.209-2.609-.024-3.885-.697zM436.9 196.414a5.151 5.151 0 01-1.217 1.372c-.484.381-1.105.604-1.865.674-.759.069-1.432.104-2.019.104-1.485 0-2.917-.104-4.298-.311v-17.035a9.098 9.098 0 012.9-.466c1.311 0 2.459.303 3.442.906a8.128 8.128 0 012.46 2.33c.654.949 1.146 2.027 1.476 3.235a13.83 13.83 0 01.362 5.54 10.188 10.188 0 01-.44 1.916 8.27 8.27 0 01-.801 1.735zm52.664 16.751a156.829 156.829 0 01-2.201-4.945 229.253 229.253 0 01-2.201-5.358 312.057 312.057 0 01-2.097-5.438l-1.941-5.178a65.742 65.742 0 00-1.424-3.521 65.73 65.73 0 01-1.372-3.365 2.584 2.584 0 01-.182-.519 1.98 1.98 0 00-.285-.621 123.377 123.377 0 00-1.294-3.469c-.483-1.243-1.019-2.192-1.604-2.848-.139-.173-.294-.208-.467-.104a.917.917 0 00-.362.363 1959.484 1959.484 0 00-3.78 9.993 859.032 859.032 0 00-3.676 9.993 328.584 328.584 0 00-2.459 7.016 153.693 153.693 0 01-2.563 7.016 9.08 9.08 0 01-.698 1.32c-.295.466-.64.898-1.036 1.295a6.453 6.453 0 01-1.243.983c-.431.258-.871.389-1.32.389-.034 0-.129-.008-.284-.026-.155-.017-.269.026-.337.13-.139.139-.173.276-.104.414.034.069.121.173.26.311l10.77.052c.344 0 .525-.129.543-.388.018-.26-.146-.423-.492-.492a7.7 7.7 0 01-1.578-.389c-.536-.189-.803-.577-.803-1.165 0-.448.146-1.233.439-2.355a58.924 58.924 0 011.063-3.573c.414-1.26.836-2.485 1.268-3.676.432-1.191.785-2.097 1.062-2.719h10.2c.794 2.175 1.613 4.35 2.46 6.524.845 2.175 1.683 4.35 2.511 6.523l-1.813.933c-.207.173-.258.328-.154.466.104.139.293.225.568.259.726.069 1.623.086 2.693.052a88.592 88.592 0 012.744-.052c1.035 0 2.053.008 3.055.026a35.005 35.005 0 003.003-.078v-.932a7.812 7.812 0 01-2.821-.726c-.883-.413-1.565-1.12-2.048-2.121zm-19.572-13.618a281.238 281.238 0 002.097-6.239c.638-1.984 1.302-4.064 1.993-6.239l4.246 12.479h-8.336zm38.345 16.259c-1.209.069-2.219-.138-3.029-.622-.812-.482-1.217-1.38-1.217-2.692v-11.339c0-.759.276-1.777.829-3.055.551-1.277 1.285-2.675 2.2-4.194a76.017 76.017 0 013.055-4.66 58.986 58.986 0 013.417-4.401c1.156-1.346 2.261-2.493 3.314-3.443 1.053-.948 1.941-1.544 2.666-1.786l-.155-.88a53.053 53.053 0 00-2.459-.155 63.875 63.875 0 00-2.563-.052 53.789 53.789 0 00-4.711.207c-.345.035-.535.173-.569.414-.035.242.104.397.414.466.311.139.578.337.803.596.225.259.337.578.337.958 0 .414-.147.967-.44 1.657-.294.69-.673 1.441-1.139 2.252a44.996 44.996 0 01-1.527 2.459c-.553.829-1.07 1.589-1.554 2.278-.276.381-.544.76-.803 1.14-.259.38-.475.708-.647.983-.448.76-.906 1.563-1.372 2.408a38.196 38.196 0 00-1.269 2.511 2.526 2.526 0 01-.259-.362 14.17 14.17 0 00-.414-.673c-.69-1.174-1.511-2.571-2.459-4.194-.95-1.622-1.864-3.21-2.745-4.764a137.817 137.817 0 01-2.252-4.116c-.621-1.19-.932-1.924-.932-2.2 0-.207.068-.38.207-.519.137-.137.293-.275.466-.414.207-.138.362-.259.466-.362.173-.172.215-.345.13-.518-.087-.173-.269-.259-.544-.259-1.761 0-3.495.009-5.203.025a75.696 75.696 0 00-5.152.233c-.346.035-.527.181-.544.44-.018.259.13.423.44.491.586.174 1.372.751 2.355 1.734.984.984 2.054 2.193 3.211 3.625a70.062 70.062 0 013.469 4.712 104.889 104.889 0 013.158 4.944c.949 1.588 1.726 3.038 2.33 4.35.604 1.313.906 2.278.906 2.899v10.511c0 .311-.025.665-.078 1.062-.052.397-.146.76-.284 1.088a2.393 2.393 0 01-.569.828 1.247 1.247 0 01-.881.337c-.207 0-.432-.052-.673-.155l-.362.932c.862.207 1.769.337 2.718.389.949.052 1.891.077 2.822.077a62.63 62.63 0 003.624-.104c1.208-.068 2.399-.138 3.573-.207.345-.034.5-.198.466-.492-.037-.294-.226-.422-.571-.388zm36.654-.519c-.88-.414-1.563-1.121-2.045-2.122a156.829 156.829 0 01-2.201-4.945 225.01 225.01 0 01-2.2-5.358 320.405 320.405 0 01-2.098-5.438l-1.941-5.178a65.742 65.742 0 00-1.424-3.521 65.73 65.73 0 01-1.372-3.365 2.588 2.588 0 01-.181-.519 2.026 2.026 0 00-.285-.621c-.38-1.069-.812-2.227-1.295-3.469-.483-1.243-1.019-2.192-1.604-2.848-.139-.173-.294-.208-.466-.104a.914.914 0 00-.363.363 1868.95 1868.95 0 00-3.779 9.993 823.88 823.88 0 00-3.676 9.993 323.096 323.096 0 00-2.46 7.016 153.693 153.693 0 01-2.563 7.016 9.08 9.08 0 01-.698 1.32c-.294.466-.64.898-1.036 1.295a6.448 6.448 0 01-1.242.983c-.433.259-.872.389-1.32.389-.035 0-.13-.008-.285-.026-.155-.017-.268.026-.336.13-.139.139-.174.276-.104.414.034.069.121.173.26.311l10.77.052c.345 0 .525-.129.544-.388.017-.26-.147-.423-.492-.492a7.708 7.708 0 01-1.579-.389c-.536-.189-.803-.577-.803-1.165 0-.448.146-1.233.44-2.355a59.568 59.568 0 011.061-3.573c.415-1.26.837-2.485 1.269-3.676.432-1.191.785-2.097 1.062-2.719h10.201a318.45 318.45 0 002.459 6.524c.846 2.175 1.683 4.35 2.512 6.523l-1.813.933c-.207.173-.259.328-.155.466.104.139.293.225.569.259.725.069 1.622.086 2.692.052a88.592 88.592 0 012.744-.052c1.036 0 2.054.008 3.055.026a35.005 35.005 0 003.003-.078v-.932a7.816 7.816 0 01-2.825-.725zm-21.617-15.74a271.218 271.218 0 002.097-6.239c.639-1.984 1.303-4.064 1.993-6.239l4.246 12.479h-8.336zm-258.283-.293a12.089 12.089 0 00-2.663-2.375 13.602 13.602 0 00-3.315-1.593 21.582 21.582 0 001.723-1.827 15.68 15.68 0 001.488-2.088c.435-.731.783-1.488 1.044-2.271a7.631 7.631 0 00.392-2.428c0-1.427-.348-2.663-1.044-3.707a9.197 9.197 0 00-2.637-2.61 11.644 11.644 0 00-3.55-1.54 15.378 15.378 0 00-3.785-.496c-.801 0-1.558.025-2.271.078-.713.052-1.418.113-2.114.183-.731.07-1.445.131-2.141.183-.697.053-1.393.078-2.088.078-1.01 0-1.984-.121-2.924-.365-.279-.034-.496.035-.653.209-.156.175-.148.349.026.522.278.383.6.618.966.704.366.088.774.166 1.227.235.209.035.426.07.652.104a1.3 1.3 0 01.627.287c.19.156.339.392.443.705.104.313.157.73.157 1.253v28.82c0 .87-.026 1.565-.078 2.088-.052.523-.192.939-.418 1.253-.227.313-.557.574-.992.783-.436.209-1.018.436-1.749.679l.208.888h8.145c.417 0 .87.018 1.357.052a68.936 68.936 0 003.812.104c.591 0 1.13-.008 1.618-.025a6.834 6.834 0 001.201-.131 11.775 11.775 0 003.811-1.384 12.331 12.331 0 003.081-2.479c.87-.975 1.557-2.08 2.063-3.315.504-1.235.757-2.532.757-3.89 0-1.287-.209-2.497-.626-3.629a10.473 10.473 0 00-1.75-3.055zm-14.906-18.43a8.243 8.243 0 012.506-.365c.939 0 1.783.191 2.532.574a5.585 5.585 0 011.879 1.54 7.355 7.355 0 011.175 2.219c.278.836.417 1.723.417 2.663 0 1.462-.208 2.654-.626 3.576-.417.923-1.01 1.645-1.775 2.167-.766.521-1.663.87-2.689 1.044-1.027.175-2.167.261-3.42.261v-13.679zm11.513 29.551a7.55 7.55 0 01-1.41 2.401 6.612 6.612 0 01-2.193 1.646c-.854.4-1.784.6-2.793.6-.488 0-1.036-.086-1.645-.261a6.024 6.024 0 01-1.697-.783 5.16 5.16 0 01-1.305-1.227c-.349-.47-.522-1-.522-1.593v-14.097c.974 0 2.01.044 3.107.131 1.096.087 2.062.339 2.897.757.87.418 1.679.966 2.428 1.645a11.468 11.468 0 011.932 2.271c.54.835.957 1.731 1.253 2.688.295.958.444 1.94.444 2.95 0 1.01-.166 1.968-.496 2.872zm20.521 5.561a8.527 8.527 0 00-1.148-.078c-.174 0-.4-.034-.679-.104a5.28 5.28 0 01-.679-.209c-.104-.139-.218-.408-.34-.81a19.908 19.908 0 01-.339-1.279 24.521 24.521 0 01-.261-1.278c-.07-.4-.104-.688-.104-.861v-28.769c0-1.078.295-1.792.888-2.141.592-.348 1.357-.608 2.297-.783.348-.069.504-.234.471-.496-.035-.261-.228-.408-.575-.443a28.872 28.872 0 00-2.976-.053c-.975.035-1.949.053-2.924.053-1.01 0-2.01-.008-3.002-.026a35.161 35.161 0 00-3.002.078c-.313.035-.47.192-.47.471 0 .279.157.436.47.47.905.104 1.688.357 2.35.757.661.4.992 1.122.992 2.167v28.507c0 .348-.026.774-.078 1.279a7.303 7.303 0 01-.313 1.487 4.647 4.647 0 01-.601 1.253c-.244.349-.557.522-.94.522-.104 0-.392.062-.861.183-.47.122-.792.148-.966.078a.404.404 0 00-.418.026.837.837 0 00-.313.34.918.918 0 00-.104.417c0 .14.069.244.209.313.243.104.983.131 2.219.078a99.527 99.527 0 014.151-.078c.939 0 1.861.009 2.767.026.906.017 1.723.044 2.454.078.731.035 1.549.07 2.454.104.278 0 .461-.078.549-.235.086-.156.043-.321-.131-.496-.316-.313-.664-.497-1.047-.548zm42.393-36.625a54.203 54.203 0 00-3.759-.079 244.34 244.34 0 01-3.707.026h-3.76c-.279 0-.461.087-.548.261-.087.175-.026.332.183.471.174.208.408.348.705.417.295.07.635.14 1.018.209l.939.209c.314.07.602.218.862.443.261.228.478.566.652 1.019.174.453.261 1.079.261 1.88 0 3.829.061 7.641.184 11.434.121 3.794.183 7.605.183 11.435 0 .278-.009.548-.026.809-.018.262-.025.531-.025.81a1088.091 1088.091 0 00-28.246-29.969c-.279-.209-.558-.209-.836 0a4.953 4.953 0 00-.521.601c-.141.191-.209.427-.209.705v32.892c0 .871-.253 1.576-.758 2.115-.504.54-1.157.896-1.957 1.07l-.731.156c-.313.07-.496.227-.548.47-.053.244.078.4.391.47.836.174 1.724.2 2.664.079a16.608 16.608 0 012.767-.131l6.631.156c.278 0 .47-.095.574-.287.104-.19.034-.356-.209-.496a5.187 5.187 0 00-1.122-.548 9.178 9.178 0 00-1.07-.287 6.36 6.36 0 01-.94-.287 1.936 1.936 0 01-.81-.601c-.227-.278-.409-.661-.548-1.148-.14-.487-.208-1.148-.208-1.984 0-1.74-.035-3.472-.105-5.194-.07-1.724-.139-3.473-.209-5.247l-.209-5.117a127.822 127.822 0 01-.104-5.169c0-.904.052-1.861.156-2.871.627.696 1.148 1.271 1.566 1.723.418.453.922 1.027 1.514 1.723 1.984 2.193 4.003 4.43 6.057 6.709a457.234 457.234 0 006.239 6.788 205.113 205.113 0 006.422 6.552 123.258 123.258 0 006.604 6.005.734.734 0 00.652.104c.227-.07.357-.209.393-.418.451-5.777.652-11.573.6-17.386-.052-5.813-.078-11.625-.078-17.438 0-.592.27-.992.809-1.201.54-.209 1.088-.399 1.646-.574.104-.034.217-.104.339-.209.122-.105.235-.174.34-.209z" fill="#131311" clip-rule="evenodd" fill-rule="evenodd"/></svg>