<?xml version="1.0" encoding="UTF-8"?>
<svg id="Layer_2" data-name="Layer 2" xmlns="http://www.w3.org/2000/svg" version="1.1" viewBox="0 0 1000 1000">
  <defs>
    <style>
      .cls-1 {
        fill: #000;
      }

      .cls-1, .cls-2, .cls-3 {
        stroke-width: 0px;
      }

      .cls-2 {
        fill: #be413f;
      }

      .cls-3 {
        fill: #fff;
      }
    </style>
  </defs>
  <g>
    <path class="cls-3" d="M409.2,533.6l-21,5.3s3.1,22.5,19.5,24.6l14.6-17.4-13.2-12.4h0Z"/>
    <path class="cls-3" d="M424.5,522.5c0,3.6-3,6.6-6.6,6.6s-6.6-3-6.6-6.6,3-6.6,6.6-6.6,6.6,3,6.6,6.6"/>
    <path class="cls-3" d="M451.3,522.5c0,3.6-3,6.6-6.6,6.6s-6.6-3-6.6-6.6,3-6.6,6.6-6.6,6.6,3,6.6,6.6"/>
    <path class="cls-1" d="M440.1,523c0-2.2,2.2-3.9,5-3.9s5.1,1.8,5.1,3.9-2.3,3.9-5.1,3.9-5-1.8-5-3.9M418.2,526.9c-2.8,0-5-1.8-5-3.9s2.3-3.9,5-3.9,5,1.8,5,3.9-2.2,3.9-5,3.9M403.6,558.8l-1.6-1.6,13.2-13.3,1.6,1.6-13.2,13.2h0ZM400.1,628.2c-1-6.7,3.1-13.4,3.1-13.4,3.4,7.2,2,19,2.9,27.9-3.9-3.2-5.1-9.2-5.9-14.4M398,552.6l-1.2-1.9,15.7-10.5,1.2,1.9-15.7,10.5h0ZM393.5,543.7l16.9-7,.8,2-16.9,7-.8-2ZM320,603.7c-.8-8.2,5.1-14.6,5.1-14.6.2,11.3,4.9,25.1,9.2,33.3-7.2-3.1-13.5-11.6-14.2-18.8M468.3,544.3l.8-2.1-7.8-3.2c2.1-5.3,1.9-8.4,1.9-8.4,0-9.8-4.3-17.7-4.3-17.7,3.6-14.2-1.9-30.9-6.4-30.9s-10.8,17.7-10.8,17.7c0,0-3.7-1.8-10.9-1.8s-11.1,1.9-11.1,1.9c0,0-5.5-17.7-10.5-17.7s-6.7,13.2-6.7,18.9-1.4,6.4-3,6.3c-1.6,0-2.6.3-3.2-2.9-.6-3.1-4.8-13.1-4.8-13.1-8.1-17.6-30.2-29.5-48.4-29.5s-30,8.1-32.8,10.4c-2.8,2.4-3.8,1.8-3.8,1.8-7.5-15.8-1.4-60.3-1.4-60.3,6.9-28.6-2.1-54.4-7.4-63.8-5.3-9.5-17.7-26.4-35-16-17.4,10.5-9,28.2-7.6,30.7s8.8,12.5,12.2,22.2,5.7,19.6,4.7,34.1c-1,14.5-4.5,28.8-2.1,48.6,2.4,19.7,19.1,26.6,19.1,26.6-.4,7,1.7,21.7,3.4,28.2,1.7,6.6,5.5,19.8,6.4,32.7.9,12.9-1.6,33.7-1.6,33.7-.3,5.8,6.9,26.5,8.6,31.8s5.7,15.2,19.3,15.8c10.9.6,12.8-5.8,12.7-10.4.2.2.4.4.5.6,4.3,3.8,13.3,3.7,18.9.6,5.6-3.1,3.8-13-1.7-14.8-5.5-1.9-10.8-5.9-11-13.1-.2-7.2,3-9.6,3-9.6,12-8.5,10.9-14.6,13.1-14.1,2.2.5,2.7,2.8,2.7,2.8,0,.2.1.5.2.6,1.3,4.8.6,3,9,17.5,11.5,19.8,8.2,34.5,8.2,43.5s10.5,15.7,17.7,15.7,12-4,12.7-4.6c3.5,3,8,4.6,11.5,4.6,6.3,0,11.1-3.1,11.4-7,.3-4-4.3-7.2-6.6-14.2-2.3-6.9-2.6-12.9-.5-23.7,2.1-10.8,9.1-13.9,13.7-23.6,4.6-9.7-.2-22,11.4-35.7.5-.6.9-1.1,1.3-1.6l5.4,5.5,1.6-1.6-5.6-5.7c.9-1.3,1.8-2.5,2.6-3.7l7.1,4.7,1.2-1.9-7.1-4.7c.7-1.2,1.3-2.4,1.8-3.5l7.8,3.2h0Z"/>
    <path class="cls-1" d="M509.5,627.8c0-.8.3-1.6.9-2.2.6-.6,1.4-.9,2.3-.9s1.7.3,2.3.9c.6.6.9,1.3.9,2.2s-.3,1.6-.9,2.2-1.4.9-2.3.9-1.7-.3-2.3-.9-.9-1.3-.9-2.2M501.1,627.8c0-.8.3-1.6.9-2.2.6-.6,1.4-.9,2.3-.9s1.7.3,2.3.9c.6.6.9,1.3.9,2.2s-.3,1.6-.9,2.2-1.4.9-2.3.9-1.7-.3-2.3-.9-.9-1.3-.9-2.2M495.5,657.5c-1.6,0-2.9-.2-4-.6s-1.9-1-2.6-1.7c-.6-.7-1.1-1.6-1.4-2.5-.3-1-.4-2-.4-3v-9.1h6.1v8c0,1.2.2,1.9.6,2.2.4.3,1.1.5,2,.5h25v-15.1h6.2v21.4h-31.6Z"/>
    <path class="cls-1" d="M535.4,619.1h6.1v32.2h3.7c.6,0,1,.1,1.2.4.2.3.3.6.3,1v3.3c0,.3-.1.6-.4,1s-.6.5-1.1.5h-9.8v-38.5h0Z"/>
    <path class="cls-1" d="M544.9,657.6c-.5,0-.9-.2-1.1-.4-.2-.3-.3-.6-.3-.9v-3.2c0-.4.1-.7.4-1.1.2-.4.6-.6,1.1-.6h16.6v-5.1c0-1.3-.2-2.3-.5-3.1-.4-.7-.8-1.3-1.4-1.7-.6-.4-1.2-.6-2-.7-.8,0-1.6-.1-2.5-.1h-6.5v-5.4l10.4-16.6,5,3.4-8.2,12.6h.6c1.4,0,2.8.2,4.2.5,1.4.3,2.6.9,3.6,1.8,1,.8,1.9,1.9,2.5,3.4.6,1.4.9,3.2.9,5.4v11.9h-22.7,0Z"/>
    <path class="cls-1" d="M598.9,627.8c0-.8.3-1.6.9-2.2.6-.6,1.4-.9,2.3-.9s1.7.3,2.3.9c.6.6.9,1.3.9,2.2s-.3,1.6-.9,2.2-1.4.9-2.3.9-1.7-.3-2.3-.9c-.6-.6-.9-1.3-.9-2.2M602.3,651.3v-4.8c0-2-.4-3.6-1.2-4.7s-1.9-1.6-3.4-1.6-1.2.1-1.9.4c-.6.3-1.1.6-1.6,1.1-.5.5-.8,1.1-1.1,1.8-.3.7-.5,1.4-.5,2.3s.2,1.9.5,2.6c.3.7.8,1.3,1.3,1.7.6.4,1.2.7,1.9.9s1.4.3,2.2.3h3.8ZM590.5,627.8c0-.8.3-1.6.9-2.2.6-.6,1.4-.9,2.3-.9s1.7.3,2.3.9c.6.6.9,1.3.9,2.2s-.3,1.6-.9,2.2c-.6.6-1.4.9-2.3.9s-1.7-.3-2.3-.9-.9-1.3-.9-2.2M598.7,657.5c-2.2,0-4-.3-5.6-.9-1.5-.6-2.8-1.5-3.7-2.5-1-1-1.7-2.2-2.1-3.5-.4-1.3-.6-2.6-.6-3.9s.3-3.3.9-4.8c.6-1.5,1.4-2.9,2.3-4,1-1.2,2.2-2,3.6-2.7,1.4-.6,2.9-1,4.6-1s3,.3,4.2.8c1.3.5,2.4,1.2,3.3,2.2s1.6,2.1,2.1,3.4.7,2.8.7,4.4v6.4h3.8c.5,0,.9.1,1.1.4.2.3.3.6.3,1v3.3c0,.3,0,.6-.3,1s-.6.5-1.1.5h-13.5,0Z"/>
    <path class="cls-1" d="M619,651.3c-.9-.8-1.7-1.9-2.4-3.1-.6-1.3-1-2.7-1-4.3s.2-2.5.6-3.8c.5-1.2,1.1-2.3,2.1-3.3s2.1-1.7,3.6-2.3,3.2-.8,5.3-.8,1.7,0,2.7.1,2.1.2,3.3.4l-.7,6.1c-.9-.2-1.7-.3-2.4-.3s-1.4,0-2.1,0c-1.9,0-3.4.5-4.5,1.4-1,.9-1.6,2.1-1.6,3.6s.3,1.9.7,2.8,1.1,1.5,1.9,2c.8.6,1.7.9,2.7,1.2,1,.3,2.1.4,3.2.4h4.7v6.2h-23.3c-.6,0-.9-.2-1.1-.4-.2-.3-.3-.6-.3-.9v-3.2c0-.4.1-.7.4-1.1.2-.4.6-.6,1.1-.6h7.1Z"/>
    <path class="cls-1" d="M657.7,651.3v-4.8c0-2-.4-3.6-1.2-4.7s-1.9-1.6-3.3-1.6-1.3.1-1.9.4c-.6.3-1.1.6-1.6,1.1-.5.5-.8,1.1-1.1,1.8-.3.7-.4,1.4-.4,2.3s.2,1.9.5,2.6c.3.7.7,1.3,1.3,1.7.6.4,1.2.7,1.9.9s1.4.3,2.2.3h3.7ZM663.7,657.5c0,2.1-.6,3.9-1.3,5.3-.7,1.5-1.7,2.7-2.9,3.6s-2.6,1.6-4.3,2.1c-1.7.5-3.4.6-5.4.6s-1.7,0-2.6,0c-.9,0-1.9-.2-3-.3l.4-6c1.1.1,2,.3,3,.3.9,0,1.7,0,2.4,0s1.9,0,2.9-.2c.9-.2,1.7-.4,2.4-.8.7-.4,1.3-1,1.7-1.7.4-.7.6-1.7.7-3h-3.6c-2.2,0-4.1-.3-5.6-.9-1.5-.6-2.8-1.5-3.7-2.5-.9-1-1.7-2.2-2.1-3.5s-.6-2.6-.6-3.9.3-3.3.8-4.8c.6-1.5,1.3-2.9,2.3-4,1-1.2,2.2-2,3.6-2.7,1.4-.6,2.9-1,4.6-1s3,.3,4.3.8c1.3.5,2.4,1.2,3.2,2.2.9.9,1.6,2.1,2,3.4s.7,2.8.7,4.4v6.4h5.3c.6,0,1,.1,1.2.4.2.3.3.6.3,1v3.3c0,.3,0,.6-.4,1-.2.4-.6.5-1.1.5h-5.3Z"/>
    <path class="cls-1" d="M685.1,651.7c1.7,0,3-.5,3.8-1.6s1.2-2.3,1.2-3.8-.1-1.8-.4-2.5c-.3-.8-.6-1.4-1.1-1.9-.5-.5-1-.9-1.6-1.2-.6-.3-1.2-.4-1.9-.4s-1.4.1-1.9.4c-.6.3-1.1.7-1.6,1.2-.5.6-.8,1.2-1.1,1.9-.3.7-.4,1.6-.4,2.5,0,1.5.4,2.8,1.2,3.8s2.1,1.6,3.8,1.6M668.8,657.6c-.5,0-.9-.2-1.1-.4-.2-.3-.3-.6-.3-.9v-3.2c0-.4.1-.7.4-1.1.2-.4.6-.6,1.1-.6h2.1c.4,0,.8,0,1.2-.2s.7-.4,1-.7c.3-.4.6-.9.7-1.6.2-.7.3-1.5.3-2.6,0-1.7.3-3.3.8-4.7.6-1.4,1.3-2.7,2.3-3.8,1-1,2.2-1.9,3.5-2.5,1.4-.6,2.9-.9,4.4-.9,3.5,0,6.1,1.1,8,3.3,1.9,2.2,2.8,5.4,2.8,9.4s0,.7.1,1.2c0,.5.3,1,.6,1.4s.8.8,1.4,1.1c.6.3,1.5.5,2.6.5h1.9c.5,0,.9.1,1.1.4s.4.6.4,1v3.3c0,.3-.1.6-.4,1-.3.4-.6.5-1.1.5h-2.1c-1.5,0-2.8-.4-4-1.1-1.1-.7-1.9-1.7-2.5-2.9-.6,1-1.3,1.8-2,2.4s-1.5,1-2.2,1.3-1.5.4-2.4.5c-.8,0-1.7,0-2.5,0-2,0-3.7-.4-5.1-1.1-1.4-.7-2.5-1.7-3.3-2.8-.5,1-1.2,1.9-2.1,2.6-.9.7-2,1-3.2,1h-2.5Z"/>
    <path class="cls-1" d="M709.9,664.3c0-.9.3-1.6.9-2.2.6-.6,1.4-.9,2.3-.9s1.7.3,2.3.9c.6.6.9,1.3.9,2.2s-.3,1.7-.9,2.2c-.6.6-1.4.9-2.3.9s-1.7-.3-2.3-.9c-.6-.6-.9-1.3-.9-2.2M729.6,656.1c0,.3-.1.6-.4,1s-.6.5-1.2.5h-1c-1.1,0-2.2-.2-3.4-.7-1.1-.5-2-1-2.8-1.7-.6,1-1.4,1.7-2.1,1.9-.7.3-1.5.4-2.3.4h-14.1c-.5,0-.9-.1-1.1-.4-.2-.3-.3-.6-.3-.9v-3.2c0-.4.1-.7.4-1.1.2-.4.6-.6,1.1-.6h15.8c-.3-.6-.6-1.3-.9-2.2-.3-.9-.5-2.2-.6-3.8-.2-1.8-.6-3.1-1.4-3.8-.8-.7-1.8-1.1-3-1.1s-1.7,0-2.8.3c-1.1.2-2.2.6-3.3,1.2l-1.5-5.8c.4-.1,1-.3,1.7-.6.7-.2,1.5-.4,2.2-.6.8-.2,1.6-.4,2.4-.5s1.7-.2,2.4-.2c1.7,0,3.1.3,4.3.9s2.1,1.4,2.9,2.4c.7.9,1.3,2,1.7,3.2s.6,2.3.7,3.4c0,.7.2,1.5.3,2.3.2.8.4,1.7.7,2.4.3.7.6,1.3,1.1,1.9.5.5,1.1.7,1.8.7h1.2c.6,0,1,.1,1.2.4.2.3.3.6.3,1v3.3h0Z"/>
    <path class="cls-1" d="M744.2,651.7c1.7,0,3-.5,3.8-1.6s1.2-2.3,1.2-3.8-.1-1.8-.4-2.5c-.3-.8-.6-1.4-1.1-1.9-.5-.5-1-.9-1.6-1.2s-1.2-.4-1.9-.4-1.3.1-1.9.4-1.1.7-1.6,1.2c-.4.6-.8,1.2-1.1,1.9-.3.7-.4,1.6-.4,2.5,0,1.4.4,2.7,1.2,3.7s2,1.6,3.8,1.6M727.8,657.6c-.5,0-.9-.2-1.1-.4-.2-.3-.3-.6-.3-.9v-3.2c0-.4.1-.7.4-1.1.3-.4.6-.6,1.1-.6h2.1c2.2,0,3.3-1.7,3.3-5s.3-3.3.8-4.8c.6-1.5,1.3-2.7,2.3-3.8,1-1,2.2-1.9,3.5-2.5,1.3-.6,2.8-.9,4.4-.9s3.3.3,4.7.9c1.3.6,2.4,1.5,3.3,2.5s1.5,2.4,2,3.9.6,3.1.6,4.9-.2,2.8-.6,4.1-1,2.5-1.9,3.5c-.9,1-2,1.8-3.3,2.4s-3,.9-4.9.9-1.6,0-2.4-.1c-.8,0-1.6-.3-2.3-.5-.7-.3-1.5-.6-2.2-1.1-.7-.5-1.3-1.1-1.9-1.9-.6,1.2-1.3,2.2-2.2,2.8-.9.6-1.9.9-3,.9h-2.5Z"/>
    <path class="cls-1" d="M539.6,599.4c-4.9,6.6-13.2,11.1-23.5,11.1-16,0-28.9-13-28.9-29.1s12.5-29.4,30.3-29.4,15.7,3.4,19.5,7.1v12.3c-4.7-5.6-11.9-9.7-19.5-9.7-11.5,0-19.8,8.4-19.8,19.7s8.1,19.5,18.9,19.5,9.8-1.9,12.7-4.6v-9.8h-14.1l2.5-8.7h22v21.5h0Z"/>
    <path class="cls-1" d="M560.6,579.3h5.5c6.4,0,10.8-3.2,10.8-8.9s-4.4-8.9-10.8-8.9h-5.5v17.8h0ZM560.6,609.5h-10.5v-56.6h16c12.5,0,21.4,6.4,21.4,17.5s-4.3,13-11.1,15.5l17.6,23.6h-12.2l-16.2-21.9h-5v21.9h0Z"/>
    <path class="cls-1" d="M605.9,581.2c0,11.2,8.2,19.5,18.5,19.5s18.4-8.4,18.4-19.5-8.2-19.5-18.4-19.5-18.5,8.4-18.5,19.5M653.3,581.2c0,16.1-12.9,29.3-28.9,29.3s-28.9-13.1-28.9-29.3,12.9-29.3,28.9-29.3,28.9,13.1,28.9,29.3"/>
    <path class="cls-1" d="M683.8,601.3c7.2,0,12.1-5,12.1-14.1v-34.2h10.5v34.3c0,14.7-9.8,23.3-22.6,23.3s-22.6-8.5-22.6-23.3v-34.3h10.5v34.2c0,9.2,5,14.1,12.1,14.1"/>
    <path class="cls-1" d="M727.9,579.3h5.5c6.4,0,10.8-3.2,10.8-8.9s-4.4-8.9-10.8-8.9h-5.5v17.8h0ZM727.9,587.9v21.6h-10.5v-56.6h16c12.6,0,21.4,6.4,21.4,17.5s-8.8,17.5-21.4,17.5h-5.5,0Z"/>
    <path class="cls-2" d="M544.9,515.5v18.9c-5.5,3-11.9,4.5-18.5,4.5-21.8,0-39.2-17.4-39.2-38.8s17.4-38.8,39.2-38.8,13.1,1.5,18.5,4.5v18.8c-4.1-4.6-10.5-7.7-18.2-7.7-13,0-23,10-23,23.2s10,23.2,23,23.2,14.1-3.1,18.2-7.7"/>
  </g>
  <polygon class="cls-2" points="719.6 476 719.6 537.7 703.2 537.7 703.2 476 679.9 476 679.9 462.4 742.9 462.4 742.9 476 719.6 476"/>
  <g>
    <path class="cls-2" d="M621.9,463.4c0,1-.8,1.8-1.8,1.8s-1.8-.8-1.8-1.8.8-1.8,1.8-1.8,1.8.8,1.8,1.8"/>
    <path class="cls-2" d="M610.8,511.4l9.4-19.4,9.4,19.4h-18.8ZM622,462.8c-.3-.7-.9-1.3-1.8-1.3s-1.5.6-1.8,1.3l-37.7,74.9h17.3l6.6-13.6h30.9l6.6,13.6h17.4l-37.6-74.9h0Z"/>
    <path class="cls-2" d="M570.7,530.1c0,4.4-3.5,7.7-7.8,7.7h-.2c-4.4,0-7.8-3.3-7.8-7.7s3.5-7.8,7.8-7.8h.2c4.3,0,7.8,3.3,7.8,7.8"/>
    <path class="cls-2" d="M686.3,530.1c0,4.4-3.5,7.7-7.8,7.7h-.2c-4.4,0-7.8-3.3-7.8-7.7s3.5-7.8,7.8-7.8h.2c4.3,0,7.8,3.3,7.8,7.8"/>
    <path class="cls-2" d="M754.8,530.1c0,4.4-3.5,7.7-7.8,7.7h-.2c-4.4,0-7.8-3.3-7.8-7.7s3.5-7.8,7.8-7.8h.2c4.3,0,7.8,3.3,7.8,7.8"/>
  </g>
</svg>