<svg xmlns="http://www.w3.org/2000/svg" xmlns:xlink="http://www.w3.org/1999/xlink" version="1.1" width="369" height="137" viewBox="0 0 369 137" xml:space="preserve">
<desc>Created with Fabric.js 3.5.0</desc>
<defs>
</defs>
<rect x="0" y="0" width="100%" height="100%" fill="#1f4aae"/>
<g transform="matrix(0.6037 0 0 0.6037 184.5086 68.5032)" id="116652">
<g style="" vector-effect="non-scaling-stroke">
		<g transform="matrix(1 0 0 1 -18.285 -18.74)" id="Livello_1">
<path style="stroke: none; stroke-width: 1; stroke-dasharray: none; stroke-linecap: butt; stroke-dashoffset: 0; stroke-linejoin: miter; stroke-miterlimit: 4; is-custom-font: none; font-file-url: none; fill: rgb(255,255,255); fill-rule: nonzero; opacity: 1;" transform=" translate(-195.66, -60.4)" d="M 196.5 42.94 c -2.39 0 -4.4 0.54 -6.02 1.64 c -1.62 1.09 -2.95 2.5 -3.96 4.23 c -1.03 1.74 -1.75 3.64 -2.18 5.71 c -0.41 2.08 -0.63 4.15 -0.63 6.19 s 0.22 3.98 0.63 6.03 c 0.43 2.04 1.11 3.89 2.07 5.55 c 0.95 1.65 2.24 3.01 3.85 4.07 c 1.63 1.05 3.6 1.59 5.92 1.59 c 3.6 0 6.37 -1.01 8.31 -3.01 c 1.93 -2.01 3.15 -4.71 3.65 -8.09 h 14.48 c -0.98 7.26 -3.81 12.79 -8.46 16.6 s -10.6 5.71 -17.87 5.71 c -4.09 0 -7.85 -0.69 -11.26 -2.06 c -3.42 -1.37 -6.33 -3.3 -8.72 -5.76 c -2.4 -2.47 -4.26 -5.42 -5.6 -8.83 c -1.34 -3.41 -2.01 -7.18 -2.01 -11.27 s 0.61 -8.15 1.86 -11.78 c 1.23 -3.63 3.04 -6.76 5.44 -9.41 c 2.39 -2.65 5.32 -4.71 8.77 -6.19 c 3.46 -1.48 7.4 -2.22 11.85 -2.22 c 3.24 0 6.36 0.43 9.36 1.28 c 2.99 0.84 5.67 2.12 8.03 3.86 c 2.36 1.72 4.28 3.87 5.76 6.45 c 1.48 2.57 2.33 5.63 2.54 9.15 h -14.7 c -0.99 -6.31 -4.7 -9.44 -11.11 -9.44" stroke-linecap="round"/>
</g>
		<g transform="matrix(1 0 0 1 50.255 -19.44)" id="Livello_1">
<path style="stroke: none; stroke-width: 1; stroke-dasharray: none; stroke-linecap: butt; stroke-dashoffset: 0; stroke-linejoin: miter; stroke-miterlimit: 4; is-custom-font: none; font-file-url: none; fill: rgb(255,255,255); fill-rule: nonzero; opacity: 1;" transform=" translate(-264.2, -59.7)" d="M 236.62 33.1 v 7.4 h 0.21 c 1.97 -2.82 4.35 -5 7.13 -6.56 c 2.78 -1.55 5.97 -2.33 9.56 -2.33 s 6.62 0.68 9.46 2.01 c 2.86 1.34 5.03 3.7 6.51 7.09 c 1.62 -2.4 3.82 -4.52 6.6 -6.35 c 2.79 -1.83 6.08 -2.75 9.89 -2.75 c 2.89 0 5.57 0.36 8.05 1.06 c 2.47 0.7 4.58 1.83 6.34 3.38 c 1.76 1.56 3.14 3.59 4.12 6.09 c 0.98 2.51 1.48 5.51 1.48 9.05 v 36.59 h -15.02 v -30.99 c 0 -1.83 -0.07 -3.55 -0.21 -5.18 c -0.14 -1.63 -0.52 -3.03 -1.17 -4.23 c -0.63 -1.2 -1.56 -2.15 -2.8 -2.86 c -1.23 -0.7 -2.91 -1.05 -5.02 -1.05 s -3.83 0.41 -5.13 1.22 c -1.31 0.82 -2.33 1.87 -3.07 3.17 c -0.74 1.3 -1.23 2.79 -1.48 4.44 c -0.24 1.66 -0.37 3.34 -0.37 5.03 v 30.46 h -15.01 v -30.67 c 0 -1.63 -0.04 -3.22 -0.11 -4.82 c -0.07 -1.58 -0.36 -3.04 -0.9 -4.39 c -0.52 -1.34 -1.42 -2.4 -2.64 -3.22 c -1.24 -0.81 -3.05 -1.22 -5.45 -1.22 c -0.7 0 -1.64 0.16 -2.8 0.48 c -1.17 0.32 -2.3 0.92 -3.38 1.79 c -1.09 0.88 -2.03 2.15 -2.8 3.81 c -0.78 1.66 -1.17 3.83 -1.17 6.5 v 31.73 h -15.01 v -54.68 h 14.19" stroke-linecap="round"/>
</g>
		<g transform="matrix(1 0 0 1 119.015 -18.74)" id="Livello_1">
<path style="stroke: none; stroke-width: 1; stroke-dasharray: none; stroke-linecap: butt; stroke-dashoffset: 0; stroke-linejoin: miter; stroke-miterlimit: 4; is-custom-font: none; font-file-url: none; fill: rgb(255,255,255); fill-rule: nonzero; opacity: 1;" transform=" translate(-332.96, -60.4)" d="M 333.8 42.94 c -2.4 0 -4.41 0.54 -6.02 1.64 c -1.63 1.09 -2.95 2.5 -3.97 4.23 c -1.03 1.74 -1.75 3.64 -2.17 5.71 c -0.42 2.08 -0.63 4.15 -0.63 6.19 s 0.21 3.98 0.63 6.03 c 0.42 2.04 1.11 3.89 2.07 5.55 c 0.95 1.65 2.23 3.01 3.86 4.07 c 1.62 1.05 3.59 1.59 5.92 1.59 c 3.6 0 6.36 -1.01 8.3 -3.01 c 1.94 -2.01 3.15 -4.71 3.65 -8.09 h 14.49 c -0.99 7.26 -3.8 12.79 -8.46 16.6 c -4.66 3.81 -10.61 5.71 -17.87 5.71 c -4.09 0 -7.84 -0.69 -11.26 -2.06 c -3.43 -1.37 -6.33 -3.3 -8.73 -5.76 c -2.4 -2.47 -4.27 -5.42 -5.61 -8.83 c -1.34 -3.41 -2.01 -7.18 -2.01 -11.27 s 0.61 -8.15 1.85 -11.78 c 1.22 -3.63 3.04 -6.76 5.44 -9.41 c 2.4 -2.65 5.32 -4.71 8.78 -6.19 c 3.45 -1.48 7.4 -2.22 11.85 -2.22 c 3.25 0 6.36 0.43 9.36 1.28 c 3 0.84 5.67 2.12 8.04 3.86 c 2.36 1.72 4.28 3.87 5.76 6.45 c 1.48 2.57 2.33 5.63 2.54 9.15 h -14.7 c -0.99 -6.31 -4.69 -9.44 -11.11 -9.44" stroke-linecap="round"/>
</g>
		<g transform="matrix(1 0 0 1 172.495 -18.74)" id="Livello_1">
<path style="stroke: none; stroke-width: 1; stroke-dasharray: none; stroke-linecap: butt; stroke-dashoffset: 0; stroke-linejoin: miter; stroke-miterlimit: 4; is-custom-font: none; font-file-url: none; fill: rgb(255,255,255); fill-rule: nonzero; opacity: 1;" transform=" translate(-386.44, -60.4)" d="M 387.28 42.94 c -2.39 0 -4.4 0.54 -6.03 1.64 c -1.62 1.09 -2.94 2.5 -3.97 4.23 c -1.02 1.74 -1.74 3.64 -2.16 5.71 c -0.42 2.08 -0.63 4.15 -0.63 6.19 s 0.21 3.98 0.63 6.03 c 0.42 2.04 1.11 3.89 2.06 5.55 c 0.95 1.65 2.24 3.01 3.86 4.07 c 1.62 1.05 3.6 1.59 5.92 1.59 c 3.6 0 6.36 -1.01 8.3 -3.01 c 1.94 -2.01 3.16 -4.71 3.65 -8.09 h 14.49 c -0.99 7.26 -3.81 12.79 -8.46 16.6 s -10.61 5.71 -17.87 5.71 c -4.09 0 -7.84 -0.69 -11.26 -2.06 c -3.41 -1.37 -6.33 -3.3 -8.72 -5.76 c -2.4 -2.47 -4.27 -5.42 -5.6 -8.83 c -1.34 -3.41 -2.01 -7.18 -2.01 -11.27 s 0.62 -8.15 1.85 -11.78 s 3.05 -6.76 5.45 -9.41 c 2.4 -2.65 5.32 -4.71 8.78 -6.19 c 3.45 -1.48 7.4 -2.22 11.84 -2.22 c 3.24 0 6.36 0.43 9.36 1.28 c 3 0.84 5.67 2.12 8.04 3.86 c 2.36 1.72 4.28 3.87 5.77 6.45 c 1.47 2.57 2.32 5.63 2.54 9.15 h -14.7 c -1 -6.31 -4.71 -9.44 -11.13 -9.44" stroke-linecap="round"/>
</g>
		<g transform="matrix(1 0 0 1 -134.5553 -0.0388)" id="Livello_1">
<path style="stroke: none; stroke-width: 1; stroke-dasharray: none; stroke-linecap: butt; stroke-dashoffset: 0; stroke-linejoin: miter; stroke-miterlimit: 4; is-custom-font: none; font-file-url: none; fill: rgb(255,255,255); fill-rule: nonzero; opacity: 1;" transform=" translate(-79.3896, -79.1012)" d="M 86.73 17.03 C 52.35 12.99 21.08 37.68 17.05 72.08 c -1.14 9.64 0.2 18.95 3.16 27.57 c -0.9 -10.31 1.29 -20.65 6.49 -29.84 c 6.81 -12.09 18.28 -22.68 31.64 -26.42 c 22.81 -6.33 57.27 4.07 54.15 36.02 c -0.91 9.33 -10.42 16.21 -17.39 16.27 c -9.37 0.07 -17.65 -6.9 -17.65 -16.27 c 0 -6.91 4.14 -12.82 10.06 -15.47 c -7.03 -5.56 -16.51 -7.83 -25.81 -5.25 c -9.79 2.73 -17.92 9.1 -22.92 17.96 c -5 8.83 -6.24 19.08 -3.52 28.89 c 3.54 12.68 11.77 23.23 23.25 29.68 c 11.45 6.47 24.76 8.08 37.42 4.57 c 24.75 -6.9 41.86 -27.7 45.51 -51.57 c 0.08 -0.51 0.24 -0.94 0.3 -1.44 c 0.04 -0.21 -0.01 -0.45 0.03 -0.69 c 3.67 -34.14 -20.87 -65.05 -55.04 -69.06" stroke-linecap="round"/>
</g>
		<g transform="matrix(1 0 0 1 -33.375 27.535)" id="Livello_1">
<path style="stroke: none; stroke-width: 1; stroke-dasharray: none; stroke-linecap: butt; stroke-dashoffset: 0; stroke-linejoin: miter; stroke-miterlimit: 4; is-custom-font: none; font-file-url: none; fill: rgb(255,255,255); fill-rule: nonzero; opacity: 1;" transform=" translate(-180.57, -106.675)" d="M 183.69 103.36 c -0.19 -0.3 -0.42 -0.56 -0.7 -0.79 s -0.6 -0.4 -0.95 -0.53 s -0.72 -0.19 -1.11 -0.19 c -0.71 0 -1.31 0.14 -1.8 0.41 s -0.89 0.64 -1.2 1.1 s -0.53 0.98 -0.67 1.57 s -0.21 1.2 -0.21 1.82 s 0.07 1.19 0.21 1.75 c 0.14 0.57 0.36 1.08 0.67 1.53 c 0.31 0.45 0.71 0.82 1.2 1.09 c 0.49 0.27 1.09 0.41 1.8 0.41 c 0.96 0 1.71 -0.29 2.25 -0.88 s 0.87 -1.36 0.99 -2.32 h 3.05 c -0.08 0.89 -0.29 1.7 -0.62 2.42 s -0.77 1.34 -1.32 1.84 c -0.55 0.51 -1.19 0.9 -1.92 1.16 c -0.73 0.27 -1.54 0.4 -2.42 0.4 c -1.09 0 -2.08 -0.19 -2.95 -0.57 c -0.88 -0.38 -1.61 -0.9 -2.21 -1.57 s -1.06 -1.45 -1.38 -2.35 s -0.48 -1.87 -0.48 -2.92 s 0.16 -2.06 0.48 -2.97 s 0.78 -1.71 1.38 -2.39 c 0.6 -0.68 1.34 -1.21 2.21 -1.6 c 0.88 -0.39 1.86 -0.58 2.95 -0.58 c 0.79 0 1.53 0.11 2.23 0.34 s 1.33 0.56 1.88 0.99 c 0.55 0.43 1.01 0.97 1.37 1.61 c 0.36 0.64 0.59 1.38 0.68 2.2 h -3.05 c -0.05 -0.35 -0.17 -0.68 -0.36 -0.98" stroke-linecap="round"/>
</g>
		<g transform="matrix(1 0 0 1 -20.9666 29.52)" id="Livello_1">
<path style="stroke: none; stroke-width: 1; stroke-dasharray: none; stroke-linecap: butt; stroke-dashoffset: 0; stroke-linejoin: miter; stroke-miterlimit: 4; is-custom-font: none; font-file-url: none; fill: rgb(255,255,255); fill-rule: nonzero; opacity: 1;" transform=" translate(-192.9784, -108.66)" d="M 191.36 111.36 c 0.43 0.41 1.04 0.62 1.84 0.62 c 0.57 0 1.07 -0.14 1.48 -0.43 c 0.41 -0.29 0.67 -0.59 0.76 -0.91 h 2.5 c -0.4 1.24 -1.02 2.13 -1.84 2.66 c -0.83 0.53 -1.83 0.8 -3 0.8 c -0.82 0 -1.55 -0.13 -2.2 -0.39 c -0.65 -0.26 -1.21 -0.63 -1.66 -1.11 c -0.45 -0.48 -0.8 -1.05 -1.05 -1.72 s -0.37 -1.4 -0.37 -2.2 s 0.13 -1.49 0.38 -2.16 s 0.61 -1.25 1.08 -1.73 c 0.47 -0.49 1.02 -0.87 1.67 -1.15 c 0.65 -0.28 1.37 -0.42 2.15 -0.42 c 0.88 0 1.65 0.17 2.3 0.51 s 1.19 0.8 1.61 1.37 c 0.42 0.57 0.72 1.23 0.91 1.96 c 0.19 0.73 0.25 1.5 0.2 2.3 h -7.47 c 0.05 0.92 0.28 1.59 0.71 2 M 194.58 105.91 c -0.34 -0.37 -0.86 -0.56 -1.55 -0.56 c -0.45 0 -0.83 0.08 -1.13 0.23 c -0.3 0.15 -0.54 0.35 -0.72 0.57 c -0.18 0.23 -0.31 0.47 -0.38 0.72 s -0.12 0.48 -0.13 0.68 h 4.63 c -0.15 -0.72 -0.38 -1.26 -0.72 -1.64 Z" stroke-linecap="round"/>
</g>
		<g transform="matrix(1 0 0 1 -9.515 29.385)" id="Livello_1">
<path style="stroke: none; stroke-width: 1; stroke-dasharray: none; stroke-linecap: butt; stroke-dashoffset: 0; stroke-linejoin: miter; stroke-miterlimit: 4; is-custom-font: none; font-file-url: none; fill: rgb(255,255,255); fill-rule: nonzero; opacity: 1;" transform=" translate(-204.43, -108.525)" d="M 202.28 103.49 v 1.44 h 0.06 c 0.36 -0.6 0.83 -1.04 1.4 -1.31 s 1.16 -0.41 1.76 -0.41 c 0.76 0 1.38 0.1 1.87 0.31 s 0.87 0.49 1.15 0.86 s 0.48 0.81 0.59 1.34 s 0.17 1.11 0.17 1.75 v 6.37 h -2.84 v -5.85 c 0 -0.85 -0.13 -1.49 -0.4 -1.91 s -0.74 -0.63 -1.42 -0.63 c -0.77 0 -1.33 0.23 -1.68 0.69 s -0.52 1.22 -0.52 2.27 v 5.43 h -2.84 v -10.36 h 2.7" stroke-linecap="round"/>
</g>
		<g transform="matrix(1 0 0 1 -0.365 28.025)" id="Livello_1">
<path style="stroke: none; stroke-width: 1; stroke-dasharray: none; stroke-linecap: butt; stroke-dashoffset: 0; stroke-linejoin: miter; stroke-miterlimit: 4; is-custom-font: none; font-file-url: none; fill: rgb(255,255,255); fill-rule: nonzero; opacity: 1;" transform=" translate(-213.58, -107.165)" d="M 216.9 103.49 v 1.9 h -2.08 v 5.13 c 0 0.48 0.08 0.8 0.24 0.96 s 0.48 0.24 0.96 0.24 c 0.16 0 0.31 -0.01 0.46 -0.02 c 0.15 -0.01 0.29 -0.03 0.42 -0.06 v 2.2 c -0.24 0.04 -0.51 0.07 -0.8 0.08 s -0.58 0.02 -0.86 0.02 c -0.44 0 -0.86 -0.03 -1.25 -0.09 s -0.74 -0.18 -1.04 -0.35 c -0.3 -0.17 -0.54 -0.42 -0.71 -0.74 c -0.17 -0.32 -0.26 -0.74 -0.26 -1.26 v -6.11 h -1.72 v -1.9 h 1.72 v -3.1 h 2.84 v 3.1 h 2.08" stroke-linecap="round"/>
</g>
		<g transform="matrix(1 0 0 1 7.415 29.385)" id="Livello_1">
<path style="stroke: none; stroke-width: 1; stroke-dasharray: none; stroke-linecap: butt; stroke-dashoffset: 0; stroke-linejoin: miter; stroke-miterlimit: 4; is-custom-font: none; font-file-url: none; fill: rgb(255,255,255); fill-rule: nonzero; opacity: 1;" transform=" translate(-221.36, -108.525)" d="M 220.73 103.49 v 1.92 h 0.04 c 0.13 -0.32 0.31 -0.62 0.54 -0.89 c 0.23 -0.27 0.49 -0.51 0.78 -0.7 s 0.61 -0.34 0.94 -0.45 c 0.33 -0.11 0.68 -0.16 1.04 -0.16 c 0.19 0 0.39 0.03 0.62 0.1 v 2.64 c -0.13 -0.03 -0.29 -0.05 -0.48 -0.07 c -0.19 -0.02 -0.37 -0.03 -0.54 -0.03 c -0.52 0 -0.96 0.09 -1.32 0.26 c -0.36 0.17 -0.65 0.41 -0.87 0.71 s -0.38 0.65 -0.47 1.05 s -0.14 0.84 -0.14 1.3 v 4.67 h -2.84 v -10.36 h 2.7" stroke-linecap="round"/>
</g>
		<g transform="matrix(1 0 0 1 16.295 29.51)" id="Livello_1">
<path style="stroke: none; stroke-width: 1; stroke-dasharray: none; stroke-linecap: butt; stroke-dashoffset: 0; stroke-linejoin: miter; stroke-miterlimit: 4; is-custom-font: none; font-file-url: none; fill: rgb(255,255,255); fill-rule: nonzero; opacity: 1;" transform=" translate(-230.24, -108.65)" d="M 225.27 106.42 c 0.25 -0.68 0.62 -1.25 1.08 -1.72 c 0.47 -0.47 1.03 -0.84 1.68 -1.1 s 1.39 -0.39 2.2 -0.39 s 1.55 0.13 2.21 0.39 s 1.23 0.63 1.69 1.1 c 0.47 0.47 0.83 1.05 1.08 1.72 s 0.38 1.43 0.38 2.25 s -0.13 1.58 -0.38 2.24 c -0.25 0.67 -0.62 1.24 -1.08 1.71 c -0.47 0.47 -1.03 0.84 -1.69 1.09 s -1.4 0.38 -2.21 0.38 s -1.55 -0.13 -2.2 -0.38 c -0.65 -0.25 -1.22 -0.62 -1.68 -1.09 c -0.47 -0.47 -0.83 -1.04 -1.08 -1.71 c -0.25 -0.67 -0.38 -1.42 -0.38 -2.24 c 0 -0.82 0.13 -1.57 0.38 -2.25 M 227.86 109.89 c 0.08 0.39 0.22 0.75 0.41 1.06 c 0.19 0.32 0.45 0.57 0.77 0.75 c 0.32 0.19 0.72 0.28 1.2 0.28 s 0.88 -0.09 1.21 -0.28 s 0.59 -0.44 0.78 -0.75 s 0.33 -0.67 0.41 -1.06 c 0.08 -0.39 0.12 -0.8 0.12 -1.21 s -0.04 -0.82 -0.12 -1.22 s -0.22 -0.75 -0.41 -1.06 s -0.45 -0.56 -0.78 -0.75 s -0.73 -0.29 -1.21 -0.29 s -0.88 0.1 -1.2 0.29 s -0.58 0.44 -0.77 0.75 s -0.33 0.66 -0.41 1.06 c -0.08 0.4 -0.12 0.81 -0.12 1.22 s 0.04 0.81 0.12 1.21 Z" stroke-linecap="round"/>
</g>
		<g transform="matrix(1 0 0 1 33 27.55)" id="Livello_1">
<polyline style="stroke: none; stroke-width: 1; stroke-dasharray: none; stroke-linecap: butt; stroke-dashoffset: 0; stroke-linejoin: miter; stroke-miterlimit: 4; is-custom-font: none; font-file-url: none; fill: rgb(255,255,255); fill-rule: nonzero; opacity: 1;" points="5.265,-7.15 5.265,-4.5 -2.285,-4.5 -2.285,-1.44 4.645,-1.44 4.645,1 -2.285,1 -2.285,4.51 5.425,4.51 5.425,7.15 -5.425,7.15 -5.425,-7.15 5.265,-7.15 "/>
</g>
		<g transform="matrix(1 0 0 1 43.865 29.655)" id="Livello_1">
<path style="stroke: none; stroke-width: 1; stroke-dasharray: none; stroke-linecap: butt; stroke-dashoffset: 0; stroke-linejoin: miter; stroke-miterlimit: 4; is-custom-font: none; font-file-url: none; fill: rgb(255,255,255); fill-rule: nonzero; opacity: 1;" transform=" translate(-257.81, -108.795)" d="M 259.96 113.84 v -1.44 h -0.06 c -0.36 0.6 -0.83 1.04 -1.4 1.3 c -0.57 0.27 -1.16 0.4 -1.76 0.4 c -0.76 0 -1.38 -0.1 -1.87 -0.3 c -0.49 -0.2 -0.87 -0.48 -1.15 -0.85 s -0.48 -0.81 -0.59 -1.34 s -0.17 -1.11 -0.17 -1.75 v -6.37 h 2.84 v 5.85 c 0 0.85 0.13 1.49 0.4 1.91 s 0.74 0.63 1.42 0.63 c 0.77 0 1.33 -0.23 1.68 -0.69 s 0.52 -1.22 0.52 -2.27 v -5.43 h 2.84 v 10.36 h -2.7" stroke-linecap="round"/>
</g>
		<g transform="matrix(1 0 0 1 53.975 29.385)" id="Livello_1">
<path style="stroke: none; stroke-width: 1; stroke-dasharray: none; stroke-linecap: butt; stroke-dashoffset: 0; stroke-linejoin: miter; stroke-miterlimit: 4; is-custom-font: none; font-file-url: none; fill: rgb(255,255,255); fill-rule: nonzero; opacity: 1;" transform=" translate(-267.92, -108.525)" d="M 267.29 103.49 v 1.92 h 0.04 c 0.13 -0.32 0.31 -0.62 0.54 -0.89 c 0.23 -0.27 0.49 -0.51 0.78 -0.7 s 0.61 -0.34 0.94 -0.45 c 0.33 -0.11 0.68 -0.16 1.04 -0.16 c 0.19 0 0.39 0.03 0.62 0.1 v 2.64 c -0.13 -0.03 -0.29 -0.05 -0.48 -0.07 c -0.19 -0.02 -0.37 -0.03 -0.54 -0.03 c -0.52 0 -0.96 0.09 -1.32 0.26 c -0.36 0.17 -0.65 0.41 -0.87 0.71 s -0.38 0.65 -0.47 1.05 s -0.14 0.84 -0.14 1.3 v 4.67 h -2.84 v -10.36 h 2.7" stroke-linecap="round"/>
</g>
		<g transform="matrix(1 0 0 1 62.865 29.51)" id="Livello_1">
<path style="stroke: none; stroke-width: 1; stroke-dasharray: none; stroke-linecap: butt; stroke-dashoffset: 0; stroke-linejoin: miter; stroke-miterlimit: 4; is-custom-font: none; font-file-url: none; fill: rgb(255,255,255); fill-rule: nonzero; opacity: 1;" transform=" translate(-276.81, -108.65)" d="M 271.84 106.42 c 0.25 -0.68 0.61 -1.25 1.08 -1.72 s 1.03 -0.84 1.68 -1.1 s 1.39 -0.39 2.2 -0.39 s 1.55 0.13 2.21 0.39 s 1.23 0.63 1.69 1.1 c 0.47 0.47 0.83 1.05 1.08 1.72 s 0.38 1.43 0.38 2.25 s -0.13 1.58 -0.38 2.24 c -0.25 0.67 -0.61 1.24 -1.08 1.71 s -1.03 0.84 -1.69 1.09 s -1.4 0.38 -2.21 0.38 s -1.55 -0.13 -2.2 -0.38 c -0.65 -0.25 -1.21 -0.62 -1.68 -1.09 s -0.83 -1.04 -1.08 -1.71 c -0.25 -0.67 -0.38 -1.42 -0.38 -2.24 s 0.13 -1.57 0.38 -2.25 M 274.42 109.89 c 0.08 0.39 0.22 0.75 0.41 1.06 c 0.19 0.32 0.45 0.57 0.77 0.75 c 0.32 0.19 0.72 0.28 1.2 0.28 s 0.88 -0.09 1.21 -0.28 s 0.59 -0.44 0.78 -0.75 s 0.33 -0.67 0.41 -1.06 c 0.08 -0.39 0.12 -0.8 0.12 -1.21 s -0.04 -0.82 -0.12 -1.22 s -0.22 -0.75 -0.41 -1.06 c -0.2 -0.31 -0.45 -0.56 -0.78 -0.75 s -0.73 -0.29 -1.21 -0.29 s -0.88 0.1 -1.2 0.29 s -0.58 0.44 -0.77 0.75 s -0.33 0.66 -0.41 1.06 c -0.08 0.4 -0.12 0.81 -0.12 1.22 c 0 0.41 0.05 0.81 0.12 1.21 Z" stroke-linecap="round"/>
</g>
		<g transform="matrix(1 0 0 1 72.83 29.235)" id="Livello_1">
<rect style="stroke: none; stroke-width: 1; stroke-dasharray: none; stroke-linecap: butt; stroke-dashoffset: 0; stroke-linejoin: miter; stroke-miterlimit: 4; is-custom-font: none; font-file-url: none; fill: rgb(255,255,255); fill-rule: nonzero; opacity: 1;" x="-3.015" y="-1.225" rx="0" ry="0" width="6.03" height="2.45"/>
</g>
		<g transform="matrix(1 0 0 1 85.745 27.55)" id="Livello_1">
<polyline style="stroke: none; stroke-width: 1; stroke-dasharray: none; stroke-linecap: butt; stroke-dashoffset: 0; stroke-linejoin: miter; stroke-miterlimit: 4; is-custom-font: none; font-file-url: none; fill: rgb(255,255,255); fill-rule: nonzero; opacity: 1;" points="-3.27,-7.15 0.07,2.69 0.11,2.69 3.28,-7.15 7.7,-7.15 7.7,7.15 4.76,7.15 4.76,-2.98 4.72,-2.98 1.21,7.15 -1.21,7.15 -4.71,-2.88 -4.76,-2.88 -4.76,7.15 -7.7,7.15 -7.7,-7.15 -3.27,-7.15 "/>
</g>
		<g transform="matrix(1 0 0 1 99.3334 29.52)" id="Livello_1">
<path style="stroke: none; stroke-width: 1; stroke-dasharray: none; stroke-linecap: butt; stroke-dashoffset: 0; stroke-linejoin: miter; stroke-miterlimit: 4; is-custom-font: none; font-file-url: none; fill: rgb(255,255,255); fill-rule: nonzero; opacity: 1;" transform=" translate(-313.2784, -108.66)" d="M 311.66 111.36 c 0.43 0.41 1.04 0.62 1.84 0.62 c 0.57 0 1.07 -0.14 1.48 -0.43 c 0.41 -0.29 0.67 -0.59 0.76 -0.91 h 2.5 c -0.4 1.24 -1.02 2.13 -1.84 2.66 s -1.83 0.8 -3 0.8 c -0.82 0 -1.55 -0.13 -2.2 -0.39 s -1.21 -0.63 -1.66 -1.11 c -0.45 -0.48 -0.8 -1.05 -1.05 -1.72 s -0.37 -1.4 -0.37 -2.2 s 0.13 -1.49 0.38 -2.16 s 0.61 -1.25 1.08 -1.73 c 0.47 -0.49 1.02 -0.87 1.67 -1.15 c 0.65 -0.28 1.36 -0.42 2.15 -0.42 c 0.88 0 1.65 0.17 2.3 0.51 s 1.19 0.8 1.61 1.37 s 0.73 1.23 0.91 1.96 c 0.19 0.73 0.25 1.5 0.2 2.3 h -7.47 c 0.05 0.92 0.28 1.59 0.71 2 M 314.88 105.91 c -0.34 -0.37 -0.86 -0.56 -1.55 -0.56 c -0.45 0 -0.83 0.08 -1.13 0.23 c -0.3 0.15 -0.54 0.35 -0.72 0.57 c -0.18 0.23 -0.31 0.47 -0.38 0.72 s -0.12 0.48 -0.13 0.68 h 4.63 c -0.15 -0.72 -0.38 -1.26 -0.72 -1.64 Z" stroke-linecap="round"/>
</g>
		<g transform="matrix(1 0 0 1 110.76 27.685)" id="Livello_1">
<path style="stroke: none; stroke-width: 1; stroke-dasharray: none; stroke-linecap: butt; stroke-dashoffset: 0; stroke-linejoin: miter; stroke-miterlimit: 4; is-custom-font: none; font-file-url: none; fill: rgb(255,255,255); fill-rule: nonzero; opacity: 1;" transform=" translate(-324.705, -106.825)" d="M 327.22 112.52 c -0.33 0.56 -0.77 0.96 -1.31 1.21 s -1.15 0.37 -1.83 0.37 c -0.77 0 -1.46 -0.15 -2.04 -0.45 c -0.59 -0.3 -1.07 -0.71 -1.45 -1.22 s -0.67 -1.11 -0.86 -1.77 c -0.2 -0.67 -0.29 -1.36 -0.29 -2.08 s 0.1 -1.36 0.29 -2.01 c 0.19 -0.65 0.48 -1.22 0.86 -1.71 s 0.86 -0.89 1.43 -1.19 s 1.24 -0.45 2 -0.45 c 0.61 0 1.2 0.13 1.75 0.39 s 0.99 0.64 1.31 1.15 h 0.04 v -5.21 h 2.85 v 14.3 h -2.7 v -1.32 h -0.05 M 327.1 107.4 c -0.08 -0.39 -0.22 -0.74 -0.41 -1.04 c -0.19 -0.3 -0.44 -0.54 -0.75 -0.73 s -0.69 -0.28 -1.16 -0.28 s -0.86 0.09 -1.18 0.28 s -0.58 0.43 -0.77 0.74 s -0.33 0.66 -0.42 1.05 c -0.09 0.39 -0.13 0.81 -0.13 1.23 s 0.05 0.8 0.14 1.2 c 0.09 0.4 0.24 0.76 0.45 1.07 s 0.47 0.57 0.78 0.76 c 0.31 0.19 0.69 0.29 1.13 0.29 c 0.47 0 0.86 -0.09 1.17 -0.28 s 0.56 -0.44 0.75 -0.75 s 0.32 -0.67 0.4 -1.07 s 0.12 -0.81 0.12 -1.24 c 0 -0.42 -0.04 -0.83 -0.12 -1.23 Z" stroke-linecap="round"/>
</g>
		<g transform="matrix(1 0 0 1 119.425 27.56)" id="Livello_1">
<path style="stroke: none; stroke-width: 1; stroke-dasharray: none; stroke-linecap: butt; stroke-dashoffset: 0; stroke-linejoin: miter; stroke-miterlimit: 4; is-custom-font: none; font-file-url: none; fill: rgb(255,255,255); fill-rule: nonzero; opacity: 1;" transform=" translate(-333.37, -106.7)" d="M 334.79 101.89 h -2.84 v -2.34 h 2.84 v 2.34 Z M 331.95 103.49 h 2.84 v 10.36 h -2.84 v -10.36 Z" stroke-linecap="round"/>
</g>
		<g transform="matrix(1 0 0 1 125.225 28.025)" id="Livello_1">
<path style="stroke: none; stroke-width: 1; stroke-dasharray: none; stroke-linecap: butt; stroke-dashoffset: 0; stroke-linejoin: miter; stroke-miterlimit: 4; is-custom-font: none; font-file-url: none; fill: rgb(255,255,255); fill-rule: nonzero; opacity: 1;" transform=" translate(-339.17, -107.165)" d="M 342.49 103.49 v 1.9 h -2.08 v 5.13 c 0 0.48 0.08 0.8 0.24 0.96 s 0.48 0.24 0.96 0.24 c 0.16 0 0.31 -0.01 0.46 -0.02 c 0.15 -0.01 0.29 -0.03 0.42 -0.06 v 2.2 c -0.24 0.04 -0.51 0.07 -0.8 0.08 c -0.29 0.01 -0.58 0.02 -0.86 0.02 c -0.44 0 -0.86 -0.03 -1.25 -0.09 s -0.74 -0.18 -1.04 -0.35 s -0.54 -0.42 -0.71 -0.74 c -0.17 -0.32 -0.26 -0.74 -0.26 -1.26 v -6.11 h -1.72 v -1.9 h 1.72 v -3.1 h 2.84 v 3.1 h 2.08" stroke-linecap="round"/>
</g>
		<g transform="matrix(1 0 0 1 134.3134 29.52)" id="Livello_1">
<path style="stroke: none; stroke-width: 1; stroke-dasharray: none; stroke-linecap: butt; stroke-dashoffset: 0; stroke-linejoin: miter; stroke-miterlimit: 4; is-custom-font: none; font-file-url: none; fill: rgb(255,255,255); fill-rule: nonzero; opacity: 1;" transform=" translate(-348.2584, -108.66)" d="M 346.65 111.36 c 0.43 0.41 1.04 0.62 1.84 0.62 c 0.57 0 1.07 -0.14 1.48 -0.43 c 0.41 -0.29 0.67 -0.59 0.76 -0.91 h 2.5 c -0.4 1.24 -1.01 2.13 -1.84 2.66 s -1.83 0.8 -3 0.8 c -0.82 0 -1.55 -0.13 -2.21 -0.39 c -0.65 -0.26 -1.21 -0.63 -1.66 -1.11 c -0.45 -0.48 -0.8 -1.05 -1.05 -1.72 s -0.37 -1.4 -0.37 -2.2 s 0.13 -1.49 0.38 -2.16 s 0.61 -1.25 1.08 -1.73 c 0.47 -0.49 1.02 -0.87 1.67 -1.15 c 0.65 -0.28 1.36 -0.42 2.15 -0.42 c 0.88 0 1.65 0.17 2.3 0.51 c 0.66 0.34 1.19 0.8 1.61 1.37 s 0.72 1.23 0.91 1.96 c 0.19 0.73 0.25 1.5 0.2 2.3 h -7.47 c 0.06 0.92 0.29 1.59 0.72 2 M 349.87 105.91 c -0.34 -0.37 -0.86 -0.56 -1.55 -0.56 c -0.45 0 -0.83 0.08 -1.13 0.23 c -0.3 0.15 -0.54 0.35 -0.72 0.57 c -0.18 0.23 -0.31 0.47 -0.38 0.72 s -0.12 0.48 -0.13 0.68 h 4.63 c -0.15 -0.72 -0.38 -1.26 -0.72 -1.64 Z" stroke-linecap="round"/>
</g>
		<g transform="matrix(1 0 0 1 144.255 29.385)" id="Livello_1">
<path style="stroke: none; stroke-width: 1; stroke-dasharray: none; stroke-linecap: butt; stroke-dashoffset: 0; stroke-linejoin: miter; stroke-miterlimit: 4; is-custom-font: none; font-file-url: none; fill: rgb(255,255,255); fill-rule: nonzero; opacity: 1;" transform=" translate(-358.2, -108.525)" d="M 357.57 103.49 v 1.92 h 0.04 c 0.13 -0.32 0.31 -0.62 0.54 -0.89 c 0.23 -0.27 0.49 -0.51 0.78 -0.7 c 0.29 -0.19 0.61 -0.34 0.94 -0.45 c 0.33 -0.11 0.68 -0.16 1.04 -0.16 c 0.19 0 0.39 0.03 0.62 0.1 v 2.64 c -0.13 -0.03 -0.29 -0.05 -0.48 -0.07 c -0.19 -0.02 -0.37 -0.03 -0.54 -0.03 c -0.52 0 -0.96 0.09 -1.32 0.26 s -0.65 0.41 -0.87 0.71 s -0.38 0.65 -0.47 1.05 c -0.09 0.4 -0.14 0.84 -0.14 1.3 v 4.67 h -2.84 v -10.36 h 2.7" stroke-linecap="round"/>
</g>
		<g transform="matrix(1 0 0 1 151.805 29.385)" id="Livello_1">
<path style="stroke: none; stroke-width: 1; stroke-dasharray: none; stroke-linecap: butt; stroke-dashoffset: 0; stroke-linejoin: miter; stroke-miterlimit: 4; is-custom-font: none; font-file-url: none; fill: rgb(255,255,255); fill-rule: nonzero; opacity: 1;" transform=" translate(-365.75, -108.525)" d="M 365.12 103.49 v 1.92 h 0.04 c 0.13 -0.32 0.31 -0.62 0.54 -0.89 c 0.23 -0.27 0.49 -0.51 0.78 -0.7 c 0.29 -0.19 0.61 -0.34 0.94 -0.45 c 0.33 -0.11 0.68 -0.16 1.04 -0.16 c 0.19 0 0.39 0.03 0.62 0.1 v 2.64 c -0.13 -0.03 -0.29 -0.05 -0.48 -0.07 c -0.19 -0.02 -0.37 -0.03 -0.54 -0.03 c -0.52 0 -0.96 0.09 -1.32 0.26 s -0.65 0.41 -0.87 0.71 s -0.38 0.65 -0.47 1.05 c -0.09 0.4 -0.14 0.84 -0.14 1.3 v 4.67 h -2.84 v -10.36 h 2.7" stroke-linecap="round"/>
</g>
		<g transform="matrix(1 0 0 1 160.62 29.515)" id="Livello_1">
<path style="stroke: none; stroke-width: 1; stroke-dasharray: none; stroke-linecap: butt; stroke-dashoffset: 0; stroke-linejoin: miter; stroke-miterlimit: 4; is-custom-font: none; font-file-url: none; fill: rgb(255,255,255); fill-rule: nonzero; opacity: 1;" transform=" translate(-374.565, -108.655)" d="M 370.35 105.01 c 0.29 -0.44 0.67 -0.79 1.12 -1.06 s 0.97 -0.46 1.53 -0.57 c 0.57 -0.11 1.14 -0.17 1.71 -0.17 c 0.52 0 1.05 0.04 1.58 0.11 c 0.53 0.07 1.02 0.22 1.46 0.43 s 0.8 0.51 1.08 0.89 s 0.42 0.88 0.42 1.51 v 5.39 c 0 0.47 0.03 0.91 0.08 1.34 s 0.15 0.75 0.28 0.96 h -2.89 c -0.05 -0.16 -0.1 -0.32 -0.13 -0.49 c -0.03 -0.17 -0.06 -0.34 -0.07 -0.51 c -0.45 0.47 -0.99 0.79 -1.6 0.98 s -1.24 0.28 -1.88 0.28 c -0.49 0 -0.96 -0.06 -1.38 -0.18 c -0.43 -0.12 -0.8 -0.31 -1.12 -0.56 s -0.57 -0.57 -0.75 -0.96 c -0.18 -0.39 -0.27 -0.85 -0.27 -1.38 c 0 -0.59 0.1 -1.07 0.31 -1.45 s 0.47 -0.68 0.8 -0.91 s 0.7 -0.4 1.12 -0.51 c 0.42 -0.11 0.84 -0.2 1.27 -0.27 s 0.85 -0.12 1.26 -0.16 s 0.78 -0.1 1.1 -0.18 c 0.32 -0.08 0.57 -0.2 0.76 -0.35 s 0.27 -0.38 0.26 -0.67 c 0 -0.31 -0.05 -0.55 -0.15 -0.73 c -0.1 -0.18 -0.23 -0.32 -0.4 -0.42 s -0.36 -0.17 -0.58 -0.2 c -0.22 -0.03 -0.46 -0.05 -0.71 -0.05 c -0.56 0 -1 0.12 -1.32 0.36 s -0.51 0.64 -0.56 1.2 h -2.84 c 0.05 -0.67 0.21 -1.23 0.51 -1.67 M 375.97 109.03 c -0.18 0.06 -0.37 0.11 -0.58 0.15 s -0.42 0.07 -0.65 0.1 c -0.23 0.03 -0.45 0.06 -0.68 0.1 c -0.21 0.04 -0.42 0.09 -0.63 0.16 s -0.39 0.16 -0.54 0.27 c -0.15 0.11 -0.28 0.26 -0.37 0.43 c -0.09 0.17 -0.14 0.39 -0.14 0.66 c 0 0.25 0.05 0.47 0.14 0.64 s 0.22 0.31 0.38 0.41 c 0.16 0.1 0.35 0.17 0.56 0.21 c 0.21 0.04 0.43 0.06 0.66 0.06 c 0.56 0 0.99 -0.09 1.3 -0.28 s 0.53 -0.41 0.68 -0.67 c 0.15 -0.26 0.24 -0.52 0.27 -0.79 c 0.03 -0.27 0.05 -0.48 0.05 -0.64 v -1.06 c -0.12 0.1 -0.27 0.19 -0.45 0.25 Z" stroke-linecap="round"/>
</g>
		<g transform="matrix(1 0 0 1 171.635 29.385)" id="Livello_1">
<path style="stroke: none; stroke-width: 1; stroke-dasharray: none; stroke-linecap: butt; stroke-dashoffset: 0; stroke-linejoin: miter; stroke-miterlimit: 4; is-custom-font: none; font-file-url: none; fill: rgb(255,255,255); fill-rule: nonzero; opacity: 1;" transform=" translate(-385.58, -108.525)" d="M 383.43 103.49 v 1.44 h 0.06 c 0.36 -0.6 0.83 -1.04 1.4 -1.31 s 1.16 -0.41 1.76 -0.41 c 0.76 0 1.39 0.1 1.87 0.31 c 0.49 0.21 0.87 0.49 1.15 0.86 s 0.48 0.81 0.59 1.34 c 0.11 0.53 0.17 1.11 0.17 1.75 v 6.37 h -2.84 v -5.85 c 0 -0.85 -0.13 -1.49 -0.4 -1.91 s -0.74 -0.63 -1.42 -0.63 c -0.78 0 -1.34 0.23 -1.68 0.69 c -0.35 0.46 -0.52 1.22 -0.52 2.27 v 5.43 h -2.84 v -10.36 h 2.7" stroke-linecap="round"/>
</g>
		<g transform="matrix(1 0 0 1 182.5634 29.52)" id="Livello_1">
<path style="stroke: none; stroke-width: 1; stroke-dasharray: none; stroke-linecap: butt; stroke-dashoffset: 0; stroke-linejoin: miter; stroke-miterlimit: 4; is-custom-font: none; font-file-url: none; fill: rgb(255,255,255); fill-rule: nonzero; opacity: 1;" transform=" translate(-396.5084, -108.66)" d="M 394.9 111.36 c 0.43 0.41 1.04 0.62 1.84 0.62 c 0.57 0 1.07 -0.14 1.48 -0.43 c 0.41 -0.29 0.67 -0.59 0.76 -0.91 h 2.5 c -0.4 1.24 -1.01 2.13 -1.84 2.66 s -1.83 0.8 -3 0.8 c -0.82 0 -1.55 -0.13 -2.21 -0.39 c -0.65 -0.26 -1.21 -0.63 -1.66 -1.11 c -0.45 -0.48 -0.8 -1.05 -1.05 -1.72 s -0.37 -1.4 -0.37 -2.2 s 0.13 -1.49 0.38 -2.16 s 0.61 -1.25 1.08 -1.73 c 0.47 -0.49 1.02 -0.87 1.67 -1.15 c 0.65 -0.28 1.36 -0.42 2.15 -0.42 c 0.88 0 1.65 0.17 2.3 0.51 c 0.66 0.34 1.19 0.8 1.61 1.37 s 0.72 1.23 0.91 1.96 c 0.19 0.73 0.25 1.5 0.2 2.3 h -7.47 c 0.06 0.92 0.29 1.59 0.72 2 M 398.12 105.91 c -0.34 -0.37 -0.86 -0.56 -1.55 -0.56 c -0.45 0 -0.83 0.08 -1.13 0.23 c -0.3 0.15 -0.54 0.35 -0.72 0.57 c -0.18 0.23 -0.31 0.47 -0.38 0.72 s -0.12 0.48 -0.13 0.68 h 4.63 c -0.15 -0.72 -0.38 -1.26 -0.72 -1.64 Z" stroke-linecap="round"/>
</g>
		<g transform="matrix(1 0 0 1 194.005 29.51)" id="Livello_1">
<path style="stroke: none; stroke-width: 1; stroke-dasharray: none; stroke-linecap: butt; stroke-dashoffset: 0; stroke-linejoin: miter; stroke-miterlimit: 4; is-custom-font: none; font-file-url: none; fill: rgb(255,255,255); fill-rule: nonzero; opacity: 1;" transform=" translate(-407.95, -108.65)" d="M 402.98 106.42 c 0.25 -0.68 0.61 -1.25 1.08 -1.72 c 0.47 -0.47 1.03 -0.84 1.68 -1.1 c 0.65 -0.26 1.39 -0.39 2.2 -0.39 s 1.55 0.13 2.21 0.39 c 0.66 0.26 1.23 0.63 1.69 1.1 c 0.47 0.47 0.83 1.05 1.08 1.72 s 0.38 1.43 0.38 2.25 s -0.13 1.58 -0.38 2.24 c -0.25 0.67 -0.61 1.24 -1.08 1.71 s -1.03 0.84 -1.69 1.09 s -1.4 0.38 -2.21 0.38 s -1.55 -0.13 -2.2 -0.38 s -1.22 -0.62 -1.68 -1.09 c -0.47 -0.47 -0.83 -1.04 -1.08 -1.71 c -0.25 -0.67 -0.38 -1.42 -0.38 -2.24 c 0 -0.82 0.12 -1.57 0.38 -2.25 M 405.56 109.89 c 0.08 0.39 0.22 0.75 0.41 1.06 c 0.19 0.32 0.45 0.57 0.77 0.75 c 0.32 0.19 0.72 0.28 1.2 0.28 s 0.88 -0.09 1.21 -0.28 s 0.59 -0.44 0.78 -0.75 s 0.33 -0.67 0.41 -1.06 s 0.12 -0.8 0.12 -1.21 s -0.04 -0.82 -0.12 -1.22 s -0.22 -0.75 -0.41 -1.06 c -0.2 -0.31 -0.46 -0.56 -0.78 -0.75 c -0.33 -0.19 -0.73 -0.29 -1.21 -0.29 s -0.88 0.1 -1.2 0.29 s -0.58 0.44 -0.77 0.75 s -0.33 0.66 -0.41 1.06 c -0.08 0.4 -0.12 0.81 -0.12 1.22 s 0.04 0.81 0.12 1.21 Z" stroke-linecap="round"/>
</g>
		<g transform="matrix(1 0 0 1 -35.435 49.92)" id="Livello_1">
<path style="stroke: none; stroke-width: 1; stroke-dasharray: none; stroke-linecap: butt; stroke-dashoffset: 0; stroke-linejoin: miter; stroke-miterlimit: 4; is-custom-font: none; font-file-url: none; fill: rgb(255,255,255); fill-rule: nonzero; opacity: 1;" transform=" translate(-178.51, -129.06)" d="M 176.61 131.67 c 0.13 0.22 0.29 0.4 0.49 0.54 c 0.2 0.14 0.43 0.24 0.69 0.31 s 0.53 0.1 0.81 0.1 c 0.2 0 0.41 -0.02 0.63 -0.07 s 0.42 -0.12 0.6 -0.22 s 0.33 -0.23 0.45 -0.4 c 0.12 -0.17 0.18 -0.38 0.18 -0.63 c 0 -0.43 -0.28 -0.75 -0.85 -0.96 s -1.36 -0.43 -2.37 -0.64 c -0.41 -0.09 -0.82 -0.2 -1.21 -0.33 c -0.39 -0.13 -0.74 -0.29 -1.05 -0.5 s -0.56 -0.47 -0.74 -0.78 c -0.19 -0.31 -0.28 -0.7 -0.28 -1.15 c 0 -0.67 0.13 -1.22 0.39 -1.64 c 0.26 -0.43 0.6 -0.77 1.03 -1.01 c 0.43 -0.25 0.91 -0.42 1.44 -0.52 c 0.53 -0.1 1.08 -0.15 1.64 -0.15 s 1.1 0.05 1.63 0.16 c 0.53 0.11 1 0.29 1.41 0.54 s 0.76 0.59 1.03 1.01 s 0.44 0.95 0.49 1.59 h -2.7 c -0.04 -0.55 -0.25 -0.92 -0.62 -1.11 c -0.37 -0.19 -0.82 -0.29 -1.32 -0.29 c -0.16 0 -0.33 0.01 -0.52 0.03 s -0.36 0.06 -0.51 0.13 c -0.15 0.07 -0.28 0.16 -0.39 0.29 c -0.11 0.13 -0.16 0.3 -0.16 0.51 c 0 0.25 0.09 0.46 0.28 0.62 s 0.43 0.29 0.73 0.39 c 0.3 0.1 0.64 0.19 1.03 0.27 c 0.39 0.08 0.78 0.17 1.18 0.26 c 0.41 0.09 0.82 0.21 1.21 0.34 c 0.39 0.13 0.74 0.31 1.05 0.53 s 0.55 0.49 0.74 0.82 c 0.19 0.33 0.28 0.73 0.28 1.21 c 0 0.68 -0.14 1.25 -0.41 1.71 s -0.63 0.83 -1.07 1.11 s -0.94 0.48 -1.51 0.59 s -1.14 0.17 -1.73 0.17 s -1.19 -0.06 -1.76 -0.18 s -1.08 -0.32 -1.53 -0.6 s -0.82 -0.65 -1.1 -1.11 c -0.29 -0.46 -0.45 -1.04 -0.47 -1.73 h 2.7 c 0 0.31 0.06 0.57 0.19 0.79" stroke-linecap="round"/>
</g>
		<g transform="matrix(1 0 0 1 -25.315 50.055)" id="Livello_1">
<path style="stroke: none; stroke-width: 1; stroke-dasharray: none; stroke-linecap: butt; stroke-dashoffset: 0; stroke-linejoin: miter; stroke-miterlimit: 4; is-custom-font: none; font-file-url: none; fill: rgb(255,255,255); fill-rule: nonzero; opacity: 1;" transform=" translate(-188.63, -129.195)" d="M 190.78 134.24 v -1.44 h -0.06 c -0.36 0.6 -0.83 1.03 -1.4 1.3 s -1.16 0.4 -1.76 0.4 c -0.76 0 -1.38 -0.1 -1.87 -0.3 c -0.49 -0.2 -0.87 -0.48 -1.15 -0.85 s -0.48 -0.82 -0.59 -1.34 c -0.11 -0.53 -0.17 -1.11 -0.17 -1.75 v -6.37 h 2.84 v 5.85 c 0 0.85 0.13 1.49 0.4 1.91 s 0.74 0.63 1.42 0.63 c 0.77 0 1.33 -0.23 1.68 -0.69 s 0.52 -1.22 0.52 -2.27 v -5.43 h 2.84 v 10.36 h -2.7" stroke-linecap="round"/>
</g>
		<g transform="matrix(1 0 0 1 -16.995 47.96)" id="Livello_1">
<path style="stroke: none; stroke-width: 1; stroke-dasharray: none; stroke-linecap: butt; stroke-dashoffset: 0; stroke-linejoin: miter; stroke-miterlimit: 4; is-custom-font: none; font-file-url: none; fill: rgb(255,255,255); fill-rule: nonzero; opacity: 1;" transform=" translate(-196.95, -127.1)" d="M 198.37 122.29 h -2.84 v -2.34 h 2.84 v 2.34 Z M 195.53 123.89 h 2.84 v 10.36 h -2.84 v -10.36 Z" stroke-linecap="round"/>
</g>
		<g transform="matrix(1 0 0 1 -3.185 47.94)" id="Livello_1">
<path style="stroke: none; stroke-width: 1; stroke-dasharray: none; stroke-linecap: butt; stroke-dashoffset: 0; stroke-linejoin: miter; stroke-miterlimit: 4; is-custom-font: none; font-file-url: none; fill: rgb(255,255,255); fill-rule: nonzero; opacity: 1;" transform=" translate(-210.76, -127.08)" d="M 213.89 123.76 c -0.19 -0.3 -0.42 -0.57 -0.7 -0.79 c -0.28 -0.23 -0.6 -0.4 -0.95 -0.53 s -0.73 -0.19 -1.11 -0.19 c -0.71 0 -1.31 0.14 -1.8 0.41 s -0.89 0.64 -1.2 1.1 s -0.53 0.98 -0.67 1.57 s -0.21 1.2 -0.21 1.82 s 0.07 1.19 0.21 1.75 c 0.14 0.57 0.36 1.08 0.67 1.53 c 0.31 0.46 0.71 0.82 1.2 1.09 c 0.49 0.27 1.1 0.41 1.8 0.41 c 0.96 0 1.71 -0.29 2.25 -0.88 s 0.87 -1.36 0.99 -2.32 h 3.04 c -0.08 0.9 -0.29 1.7 -0.62 2.42 s -0.77 1.34 -1.32 1.84 c -0.55 0.51 -1.19 0.89 -1.92 1.16 c -0.74 0.27 -1.54 0.4 -2.42 0.4 c -1.1 0 -2.08 -0.19 -2.95 -0.57 c -0.88 -0.38 -1.61 -0.9 -2.21 -1.57 s -1.06 -1.45 -1.38 -2.35 s -0.48 -1.87 -0.48 -2.91 s 0.16 -2.06 0.48 -2.97 s 0.78 -1.71 1.38 -2.39 c 0.6 -0.68 1.34 -1.21 2.21 -1.6 s 1.86 -0.58 2.95 -0.58 c 0.79 0 1.53 0.11 2.23 0.34 s 1.33 0.56 1.88 0.99 c 0.55 0.43 1.01 0.97 1.37 1.61 c 0.36 0.64 0.59 1.38 0.68 2.2 h -3.05 c -0.04 -0.36 -0.16 -0.69 -0.35 -0.99" stroke-linecap="round"/>
</g>
		<g transform="matrix(1 0 0 1 9.21 49.915)" id="Livello_1">
<path style="stroke: none; stroke-width: 1; stroke-dasharray: none; stroke-linecap: butt; stroke-dashoffset: 0; stroke-linejoin: miter; stroke-miterlimit: 4; is-custom-font: none; font-file-url: none; fill: rgb(255,255,255); fill-rule: nonzero; opacity: 1;" transform=" translate(-223.155, -129.055)" d="M 218.94 125.41 c 0.29 -0.44 0.67 -0.8 1.12 -1.06 c 0.45 -0.27 0.96 -0.46 1.53 -0.57 c 0.57 -0.11 1.14 -0.17 1.71 -0.17 c 0.52 0 1.05 0.04 1.58 0.11 c 0.53 0.07 1.02 0.22 1.46 0.43 s 0.8 0.51 1.08 0.89 s 0.42 0.88 0.42 1.51 v 5.39 c 0 0.47 0.03 0.92 0.08 1.34 c 0.05 0.43 0.15 0.75 0.28 0.96 h -2.89 c -0.05 -0.16 -0.1 -0.32 -0.13 -0.49 c -0.03 -0.17 -0.06 -0.34 -0.07 -0.51 c -0.45 0.47 -0.99 0.79 -1.6 0.98 c -0.61 0.19 -1.24 0.28 -1.88 0.28 c -0.49 0 -0.96 -0.06 -1.38 -0.18 c -0.43 -0.12 -0.8 -0.31 -1.12 -0.56 s -0.57 -0.58 -0.75 -0.96 c -0.18 -0.39 -0.27 -0.85 -0.27 -1.38 c 0 -0.59 0.1 -1.07 0.31 -1.45 s 0.47 -0.68 0.8 -0.91 s 0.7 -0.4 1.12 -0.51 c 0.42 -0.11 0.84 -0.2 1.27 -0.27 c 0.43 -0.07 0.85 -0.12 1.26 -0.16 s 0.78 -0.1 1.1 -0.18 s 0.57 -0.2 0.76 -0.35 s 0.27 -0.38 0.26 -0.67 c 0 -0.31 -0.05 -0.55 -0.15 -0.73 c -0.1 -0.18 -0.23 -0.32 -0.4 -0.42 c -0.17 -0.1 -0.36 -0.17 -0.58 -0.2 s -0.46 -0.05 -0.71 -0.05 c -0.56 0 -1 0.12 -1.32 0.36 s -0.51 0.64 -0.56 1.2 h -2.84 c 0.05 -0.67 0.22 -1.23 0.51 -1.67 M 224.56 129.43 c -0.18 0.06 -0.37 0.11 -0.58 0.15 s -0.42 0.07 -0.65 0.1 c -0.23 0.03 -0.45 0.06 -0.68 0.1 c -0.21 0.04 -0.42 0.09 -0.63 0.16 s -0.39 0.16 -0.54 0.27 s -0.28 0.26 -0.37 0.43 c -0.09 0.17 -0.14 0.39 -0.14 0.66 c 0 0.25 0.05 0.47 0.14 0.64 c 0.09 0.17 0.22 0.31 0.38 0.41 s 0.35 0.17 0.56 0.21 c 0.21 0.04 0.43 0.06 0.66 0.06 c 0.56 0 0.99 -0.09 1.3 -0.28 s 0.53 -0.41 0.68 -0.67 s 0.24 -0.52 0.27 -0.79 c 0.03 -0.27 0.05 -0.48 0.05 -0.64 v -1.06 c -0.12 0.1 -0.27 0.19 -0.45 0.25 Z" stroke-linecap="round"/>
</g>
		<g transform="matrix(1 0 0 1 23.895 49.785)" id="Livello_1">
<path style="stroke: none; stroke-width: 1; stroke-dasharray: none; stroke-linecap: butt; stroke-dashoffset: 0; stroke-linejoin: miter; stroke-miterlimit: 4; is-custom-font: none; font-file-url: none; fill: rgb(255,255,255); fill-rule: nonzero; opacity: 1;" transform=" translate(-237.84, -128.925)" d="M 232.62 123.89 v 1.4 h 0.04 c 0.37 -0.53 0.82 -0.95 1.35 -1.24 c 0.53 -0.29 1.13 -0.44 1.81 -0.44 s 1.25 0.13 1.79 0.38 s 0.95 0.7 1.23 1.34 c 0.31 -0.45 0.72 -0.85 1.25 -1.2 s 1.15 -0.52 1.87 -0.52 c 0.55 0 1.05 0.07 1.52 0.2 s 0.87 0.35 1.2 0.64 c 0.33 0.29 0.59 0.68 0.78 1.15 s 0.28 1.04 0.28 1.71 v 6.93 h -2.84 v -5.87 c 0 -0.35 -0.01 -0.67 -0.04 -0.98 s -0.1 -0.57 -0.22 -0.8 c -0.12 -0.23 -0.3 -0.41 -0.53 -0.54 s -0.55 -0.2 -0.95 -0.2 s -0.73 0.08 -0.97 0.23 c -0.25 0.15 -0.44 0.35 -0.58 0.6 c -0.14 0.25 -0.23 0.53 -0.28 0.84 s -0.07 0.63 -0.07 0.95 v 5.77 h -2.84 v -5.81 c 0 -0.31 -0.01 -0.61 -0.02 -0.91 c -0.01 -0.3 -0.07 -0.58 -0.17 -0.83 s -0.27 -0.46 -0.5 -0.61 s -0.58 -0.23 -1.03 -0.23 c -0.13 0 -0.31 0.03 -0.53 0.09 s -0.43 0.17 -0.64 0.34 s -0.38 0.41 -0.53 0.72 s -0.22 0.72 -0.22 1.23 v 6.01 h -2.84 v -10.36 h 2.68" stroke-linecap="round"/>
</g>
		<g transform="matrix(1 0 0 1 39.075 48.07)" id="Livello_1">
<path style="stroke: none; stroke-width: 1; stroke-dasharray: none; stroke-linecap: butt; stroke-dashoffset: 0; stroke-linejoin: miter; stroke-miterlimit: 4; is-custom-font: none; font-file-url: none; fill: rgb(255,255,255); fill-rule: nonzero; opacity: 1;" transform=" translate(-253.02, -127.21)" d="M 250.65 119.94 v 5.21 h 0.04 c 0.35 -0.53 0.82 -0.92 1.41 -1.17 s 1.21 -0.37 1.85 -0.37 c 0.52 0 1.04 0.11 1.54 0.32 c 0.51 0.21 0.96 0.54 1.37 0.98 s 0.74 1.01 0.99 1.69 s 0.38 1.51 0.38 2.45 s -0.13 1.76 -0.38 2.45 s -0.58 1.25 -0.99 1.69 s -0.86 0.77 -1.37 0.98 c -0.51 0.21 -1.02 0.32 -1.54 0.32 c -0.76 0 -1.44 -0.12 -2.04 -0.36 s -1.05 -0.65 -1.36 -1.22 h -0.04 v 1.32 h -2.7 v -14.3 h 2.84 M 255.26 127.81 c -0.09 -0.4 -0.24 -0.75 -0.44 -1.06 s -0.45 -0.55 -0.75 -0.73 c -0.3 -0.18 -0.66 -0.27 -1.09 -0.27 s -0.77 0.09 -1.08 0.27 s -0.56 0.42 -0.76 0.73 s -0.35 0.66 -0.44 1.06 s -0.14 0.82 -0.14 1.26 s 0.05 0.84 0.14 1.24 c 0.09 0.4 0.24 0.76 0.44 1.06 c 0.2 0.31 0.45 0.55 0.76 0.73 c 0.31 0.18 0.67 0.27 1.08 0.27 c 0.43 0 0.79 -0.09 1.09 -0.27 s 0.55 -0.42 0.75 -0.73 s 0.35 -0.66 0.44 -1.06 s 0.14 -0.81 0.14 -1.24 c 0 -0.43 -0.05 -0.85 -0.14 -1.26 Z" stroke-linecap="round"/>
</g>
		<g transform="matrix(1 0 0 1 46.9 47.96)" id="Livello_1">
<path style="stroke: none; stroke-width: 1; stroke-dasharray: none; stroke-linecap: butt; stroke-dashoffset: 0; stroke-linejoin: miter; stroke-miterlimit: 4; is-custom-font: none; font-file-url: none; fill: rgb(255,255,255); fill-rule: nonzero; opacity: 1;" transform=" translate(-260.845, -127.1)" d="M 262.27 122.29 h -2.84 v -2.34 h 2.84 v 2.34 Z M 259.42 123.89 h 2.84 v 10.36 h -2.84 v -10.36 Z" stroke-linecap="round"/>
</g>
		<g transform="matrix(1 0 0 1 54.96 49.915)" id="Livello_1">
<path style="stroke: none; stroke-width: 1; stroke-dasharray: none; stroke-linecap: butt; stroke-dashoffset: 0; stroke-linejoin: miter; stroke-miterlimit: 4; is-custom-font: none; font-file-url: none; fill: rgb(255,255,255); fill-rule: nonzero; opacity: 1;" transform=" translate(-268.905, -129.055)" d="M 264.69 125.41 c 0.29 -0.44 0.67 -0.8 1.12 -1.06 c 0.45 -0.27 0.96 -0.46 1.53 -0.57 c 0.57 -0.11 1.14 -0.17 1.71 -0.17 c 0.52 0 1.05 0.04 1.58 0.11 c 0.53 0.07 1.02 0.22 1.46 0.43 s 0.8 0.51 1.08 0.89 s 0.42 0.88 0.42 1.51 v 5.39 c 0 0.47 0.03 0.92 0.08 1.34 c 0.05 0.43 0.15 0.75 0.28 0.96 h -2.89 c -0.05 -0.16 -0.1 -0.32 -0.13 -0.49 c -0.03 -0.17 -0.06 -0.34 -0.07 -0.51 c -0.45 0.47 -0.99 0.79 -1.6 0.98 c -0.61 0.19 -1.24 0.28 -1.88 0.28 c -0.49 0 -0.96 -0.06 -1.38 -0.18 c -0.43 -0.12 -0.8 -0.31 -1.12 -0.56 s -0.57 -0.58 -0.75 -0.96 c -0.18 -0.39 -0.27 -0.85 -0.27 -1.38 c 0 -0.59 0.1 -1.07 0.31 -1.45 s 0.47 -0.68 0.8 -0.91 s 0.7 -0.4 1.12 -0.51 c 0.42 -0.11 0.84 -0.2 1.27 -0.27 c 0.43 -0.07 0.85 -0.12 1.26 -0.16 s 0.78 -0.1 1.1 -0.18 s 0.57 -0.2 0.76 -0.35 s 0.27 -0.38 0.26 -0.67 c 0 -0.31 -0.05 -0.55 -0.15 -0.73 c -0.1 -0.18 -0.23 -0.32 -0.4 -0.42 c -0.17 -0.1 -0.36 -0.17 -0.58 -0.2 s -0.46 -0.05 -0.71 -0.05 c -0.56 0 -1 0.12 -1.32 0.36 s -0.51 0.64 -0.56 1.2 h -2.84 c 0.05 -0.67 0.22 -1.23 0.51 -1.67 M 270.31 129.43 c -0.18 0.06 -0.37 0.11 -0.58 0.15 s -0.43 0.07 -0.65 0.1 c -0.23 0.03 -0.45 0.06 -0.68 0.1 c -0.21 0.04 -0.42 0.09 -0.63 0.16 s -0.39 0.16 -0.54 0.27 s -0.28 0.26 -0.37 0.43 c -0.09 0.17 -0.14 0.39 -0.14 0.66 c 0 0.25 0.05 0.47 0.14 0.64 c 0.09 0.17 0.22 0.31 0.38 0.41 s 0.35 0.17 0.56 0.21 c 0.21 0.04 0.44 0.06 0.66 0.06 c 0.56 0 0.99 -0.09 1.3 -0.28 s 0.53 -0.41 0.68 -0.67 s 0.24 -0.52 0.27 -0.79 c 0.03 -0.27 0.05 -0.48 0.05 -0.64 v -1.06 c -0.12 0.1 -0.27 0.19 -0.45 0.25 Z" stroke-linecap="round"/>
</g>
		<g transform="matrix(1 0 0 1 69.14 49.785)" id="Livello_1">
<path style="stroke: none; stroke-width: 1; stroke-dasharray: none; stroke-linecap: butt; stroke-dashoffset: 0; stroke-linejoin: miter; stroke-miterlimit: 4; is-custom-font: none; font-file-url: none; fill: rgb(255,255,255); fill-rule: nonzero; opacity: 1;" transform=" translate(-283.085, -128.925)" d="M 277.87 123.89 v 1.4 h 0.04 c 0.37 -0.53 0.82 -0.95 1.35 -1.24 c 0.53 -0.29 1.13 -0.44 1.81 -0.44 s 1.25 0.13 1.79 0.38 s 0.95 0.7 1.23 1.34 c 0.31 -0.45 0.72 -0.85 1.25 -1.2 s 1.15 -0.52 1.87 -0.52 c 0.55 0 1.05 0.07 1.52 0.2 s 0.87 0.35 1.2 0.64 c 0.33 0.29 0.59 0.68 0.78 1.15 s 0.28 1.04 0.28 1.71 v 6.93 h -2.84 v -5.87 c 0 -0.35 -0.01 -0.67 -0.04 -0.98 s -0.1 -0.57 -0.22 -0.8 c -0.12 -0.23 -0.3 -0.41 -0.53 -0.54 s -0.55 -0.2 -0.95 -0.2 s -0.73 0.08 -0.97 0.23 c -0.25 0.15 -0.44 0.35 -0.58 0.6 c -0.14 0.25 -0.23 0.53 -0.28 0.84 s -0.07 0.63 -0.07 0.95 v 5.77 h -2.85 v -5.81 c 0 -0.31 -0.01 -0.61 -0.02 -0.91 c -0.01 -0.3 -0.07 -0.58 -0.17 -0.83 s -0.27 -0.46 -0.5 -0.61 s -0.58 -0.23 -1.03 -0.23 c -0.13 0 -0.31 0.03 -0.53 0.09 s -0.43 0.17 -0.64 0.34 s -0.38 0.41 -0.53 0.72 s -0.22 0.72 -0.22 1.23 v 6.01 h -2.84 v -10.36 h 2.69" stroke-linecap="round"/>
</g>
		<g transform="matrix(1 0 0 1 83.2734 49.92)" id="Livello_1">
<path style="stroke: none; stroke-width: 1; stroke-dasharray: none; stroke-linecap: butt; stroke-dashoffset: 0; stroke-linejoin: miter; stroke-miterlimit: 4; is-custom-font: none; font-file-url: none; fill: rgb(255,255,255); fill-rule: nonzero; opacity: 1;" transform=" translate(-297.2184, -129.06)" d="M 295.6 131.76 c 0.43 0.41 1.04 0.62 1.84 0.62 c 0.57 0 1.07 -0.14 1.48 -0.43 c 0.41 -0.29 0.67 -0.59 0.76 -0.91 h 2.5 c -0.4 1.24 -1.02 2.13 -1.84 2.66 c -0.83 0.53 -1.83 0.8 -3 0.8 c -0.82 0 -1.55 -0.13 -2.2 -0.39 c -0.65 -0.26 -1.21 -0.63 -1.66 -1.11 c -0.45 -0.48 -0.8 -1.05 -1.05 -1.72 s -0.37 -1.4 -0.37 -2.2 s 0.13 -1.49 0.38 -2.16 s 0.61 -1.24 1.08 -1.73 c 0.47 -0.49 1.02 -0.87 1.67 -1.15 c 0.65 -0.28 1.36 -0.42 2.15 -0.42 c 0.88 0 1.65 0.17 2.3 0.51 s 1.19 0.8 1.61 1.37 c 0.42 0.57 0.73 1.23 0.91 1.96 c 0.19 0.73 0.25 1.5 0.2 2.3 h -7.47 c 0.04 0.92 0.28 1.59 0.71 2 M 298.81 126.31 c -0.34 -0.38 -0.86 -0.56 -1.55 -0.56 c -0.45 0 -0.83 0.08 -1.13 0.23 c -0.3 0.15 -0.54 0.35 -0.72 0.57 c -0.18 0.23 -0.31 0.47 -0.38 0.72 s -0.12 0.48 -0.13 0.68 h 4.63 c -0.14 -0.72 -0.38 -1.26 -0.72 -1.64 Z" stroke-linecap="round"/>
</g>
		<g transform="matrix(1 0 0 1 94.755 49.785)" id="Livello_1">
<path style="stroke: none; stroke-width: 1; stroke-dasharray: none; stroke-linecap: butt; stroke-dashoffset: 0; stroke-linejoin: miter; stroke-miterlimit: 4; is-custom-font: none; font-file-url: none; fill: rgb(255,255,255); fill-rule: nonzero; opacity: 1;" transform=" translate(-308.7, -128.925)" d="M 306.55 123.89 v 1.44 h 0.06 c 0.36 -0.6 0.83 -1.04 1.4 -1.31 s 1.16 -0.41 1.76 -0.41 c 0.76 0 1.39 0.1 1.87 0.31 c 0.49 0.21 0.87 0.49 1.15 0.86 s 0.48 0.82 0.59 1.34 c 0.11 0.53 0.17 1.11 0.17 1.75 v 6.37 h -2.84 v -5.85 c 0 -0.85 -0.13 -1.49 -0.4 -1.91 s -0.74 -0.63 -1.42 -0.63 c -0.78 0 -1.34 0.23 -1.68 0.69 c -0.35 0.46 -0.52 1.22 -0.52 2.27 v 5.43 h -2.84 v -10.36 h 2.7" stroke-linecap="round"/>
</g>
		<g transform="matrix(1 0 0 1 103.945 48.42)" id="Livello_1">
<path style="stroke: none; stroke-width: 1; stroke-dasharray: none; stroke-linecap: butt; stroke-dashoffset: 0; stroke-linejoin: miter; stroke-miterlimit: 4; is-custom-font: none; font-file-url: none; fill: rgb(255,255,255); fill-rule: nonzero; opacity: 1;" transform=" translate(-317.89, -127.56)" d="M 321.21 123.89 v 1.9 h -2.08 v 5.13 c 0 0.48 0.08 0.8 0.24 0.96 s 0.48 0.24 0.96 0.24 c 0.16 0 0.31 -0.01 0.46 -0.02 c 0.15 -0.01 0.29 -0.03 0.42 -0.06 v 2.2 c -0.24 0.04 -0.51 0.07 -0.8 0.08 c -0.29 0.01 -0.58 0.02 -0.86 0.02 c -0.44 0 -0.86 -0.03 -1.25 -0.09 s -0.74 -0.18 -1.04 -0.35 s -0.54 -0.42 -0.71 -0.74 c -0.17 -0.32 -0.26 -0.74 -0.26 -1.26 v -6.11 h -1.72 v -1.9 h 1.72 v -3.11 h 2.84 v 3.11 h 2.08" stroke-linecap="round"/>
</g>
		<g transform="matrix(1 0 0 1 109.935 47.96)" id="Livello_1">
<path style="stroke: none; stroke-width: 1; stroke-dasharray: none; stroke-linecap: butt; stroke-dashoffset: 0; stroke-linejoin: miter; stroke-miterlimit: 4; is-custom-font: none; font-file-url: none; fill: rgb(255,255,255); fill-rule: nonzero; opacity: 1;" transform=" translate(-323.88, -127.1)" d="M 325.3 122.29 h -2.84 v -2.34 h 2.84 v 2.34 Z M 322.46 123.89 h 2.84 v 10.36 h -2.84 v -10.36 Z" stroke-linecap="round"/>
</g>
		<g transform="matrix(1 0 0 1 125.11 47.94)" id="Livello_1">
<path style="stroke: none; stroke-width: 1; stroke-dasharray: none; stroke-linecap: butt; stroke-dashoffset: 0; stroke-linejoin: miter; stroke-miterlimit: 4; is-custom-font: none; font-file-url: none; fill: rgb(255,255,255); fill-rule: nonzero; opacity: 1;" transform=" translate(-339.055, -127.08)" d="M 342.18 123.76 c -0.19 -0.3 -0.42 -0.57 -0.7 -0.79 c -0.28 -0.23 -0.6 -0.4 -0.95 -0.53 c -0.35 -0.13 -0.72 -0.19 -1.11 -0.19 c -0.71 0 -1.31 0.14 -1.8 0.41 s -0.89 0.64 -1.2 1.1 s -0.53 0.98 -0.67 1.57 c -0.14 0.59 -0.21 1.2 -0.21 1.82 s 0.07 1.19 0.21 1.75 c 0.14 0.57 0.36 1.08 0.67 1.53 c 0.31 0.46 0.71 0.82 1.2 1.09 s 1.1 0.41 1.8 0.41 c 0.96 0 1.71 -0.29 2.25 -0.88 s 0.87 -1.36 0.99 -2.32 h 3.05 c -0.08 0.9 -0.29 1.7 -0.62 2.42 s -0.77 1.34 -1.32 1.84 c -0.55 0.51 -1.19 0.89 -1.92 1.16 s -1.54 0.4 -2.42 0.4 c -1.1 0 -2.08 -0.19 -2.96 -0.57 c -0.87 -0.38 -1.61 -0.9 -2.21 -1.57 c -0.6 -0.67 -1.06 -1.45 -1.38 -2.35 s -0.48 -1.87 -0.48 -2.91 s 0.16 -2.06 0.48 -2.97 s 0.78 -1.71 1.38 -2.39 c 0.6 -0.68 1.34 -1.21 2.21 -1.6 c 0.88 -0.39 1.86 -0.58 2.96 -0.58 c 0.79 0 1.53 0.11 2.23 0.34 c 0.7 0.23 1.33 0.56 1.88 0.99 s 1.01 0.97 1.37 1.61 c 0.36 0.64 0.59 1.38 0.68 2.2 h -3.05 c -0.05 -0.36 -0.17 -0.69 -0.36 -0.99" stroke-linecap="round"/>
</g>
		<g transform="matrix(1 0 0 1 134.905 47.95)" id="Livello_1">
<rect style="stroke: none; stroke-width: 1; stroke-dasharray: none; stroke-linecap: butt; stroke-dashoffset: 0; stroke-linejoin: miter; stroke-miterlimit: 4; is-custom-font: none; font-file-url: none; fill: rgb(255,255,255); fill-rule: nonzero; opacity: 1;" x="-1.42" y="-7.15" rx="0" ry="0" width="2.84" height="14.3"/>
</g>
		<g transform="matrix(1 0 0 1 139.875 47.96)" id="Livello_1">
<path style="stroke: none; stroke-width: 1; stroke-dasharray: none; stroke-linecap: butt; stroke-dashoffset: 0; stroke-linejoin: miter; stroke-miterlimit: 4; is-custom-font: none; font-file-url: none; fill: rgb(255,255,255); fill-rule: nonzero; opacity: 1;" transform=" translate(-353.82, -127.1)" d="M 355.24 122.29 h -2.84 v -2.34 h 2.84 v 2.34 Z M 352.4 123.89 h 2.84 v 10.36 h -2.84 v -10.36 Z" stroke-linecap="round"/>
</g>
		<g transform="matrix(1 0 0 1 151.32 49.785)" id="Livello_1">
<path style="stroke: none; stroke-width: 1; stroke-dasharray: none; stroke-linecap: butt; stroke-dashoffset: 0; stroke-linejoin: miter; stroke-miterlimit: 4; is-custom-font: none; font-file-url: none; fill: rgb(255,255,255); fill-rule: nonzero; opacity: 1;" transform=" translate(-365.265, -128.925)" d="M 360.05 123.89 v 1.4 h 0.04 c 0.37 -0.53 0.82 -0.95 1.35 -1.24 c 0.53 -0.29 1.13 -0.44 1.81 -0.44 s 1.25 0.13 1.79 0.38 s 0.95 0.7 1.23 1.34 c 0.31 -0.45 0.72 -0.85 1.25 -1.2 s 1.15 -0.52 1.87 -0.52 c 0.55 0 1.05 0.07 1.52 0.2 c 0.47 0.13 0.87 0.35 1.2 0.64 s 0.59 0.68 0.78 1.15 s 0.28 1.04 0.28 1.71 v 6.93 h -2.84 v -5.87 c 0 -0.35 -0.01 -0.67 -0.04 -0.98 c -0.03 -0.31 -0.1 -0.57 -0.22 -0.8 c -0.12 -0.23 -0.3 -0.41 -0.53 -0.54 c -0.23 -0.13 -0.55 -0.2 -0.95 -0.2 s -0.72 0.08 -0.97 0.23 c -0.25 0.15 -0.44 0.35 -0.58 0.6 s -0.23 0.53 -0.28 0.84 c -0.05 0.31 -0.07 0.63 -0.07 0.95 v 5.77 h -2.85 v -5.81 c 0 -0.31 -0.01 -0.61 -0.02 -0.91 c -0.01 -0.3 -0.07 -0.58 -0.17 -0.83 s -0.27 -0.46 -0.5 -0.61 s -0.58 -0.23 -1.03 -0.23 c -0.13 0 -0.31 0.03 -0.53 0.09 c -0.22 0.06 -0.43 0.17 -0.64 0.34 c -0.21 0.17 -0.38 0.41 -0.53 0.72 s -0.22 0.72 -0.22 1.23 v 6.01 h -2.84 v -10.36 h 2.69" stroke-linecap="round"/>
</g>
		<g transform="matrix(1 0 0 1 165.89 49.915)" id="Livello_1">
<path style="stroke: none; stroke-width: 1; stroke-dasharray: none; stroke-linecap: butt; stroke-dashoffset: 0; stroke-linejoin: miter; stroke-miterlimit: 4; is-custom-font: none; font-file-url: none; fill: rgb(255,255,255); fill-rule: nonzero; opacity: 1;" transform=" translate(-379.835, -129.055)" d="M 375.61 125.41 c 0.29 -0.44 0.67 -0.8 1.12 -1.06 c 0.45 -0.27 0.97 -0.46 1.53 -0.57 c 0.57 -0.11 1.14 -0.17 1.71 -0.17 c 0.52 0 1.05 0.04 1.58 0.11 c 0.53 0.07 1.02 0.22 1.46 0.43 s 0.8 0.51 1.08 0.89 s 0.42 0.88 0.42 1.51 v 5.39 c 0 0.47 0.03 0.92 0.08 1.34 c 0.05 0.43 0.15 0.75 0.28 0.96 h -2.87 c -0.05 -0.16 -0.1 -0.32 -0.13 -0.49 c -0.03 -0.17 -0.06 -0.34 -0.07 -0.51 c -0.45 0.47 -0.99 0.79 -1.6 0.98 s -1.24 0.28 -1.88 0.28 c -0.49 0 -0.96 -0.06 -1.38 -0.18 c -0.43 -0.12 -0.8 -0.31 -1.12 -0.56 s -0.57 -0.58 -0.75 -0.96 c -0.18 -0.39 -0.27 -0.85 -0.27 -1.38 c 0 -0.59 0.1 -1.07 0.31 -1.45 s 0.47 -0.68 0.8 -0.91 s 0.7 -0.4 1.12 -0.51 c 0.42 -0.11 0.84 -0.2 1.27 -0.27 c 0.43 -0.07 0.85 -0.12 1.26 -0.16 c 0.41 -0.04 0.78 -0.1 1.1 -0.18 c 0.32 -0.08 0.57 -0.2 0.76 -0.35 s 0.27 -0.38 0.26 -0.67 c 0 -0.31 -0.05 -0.55 -0.15 -0.73 c -0.1 -0.18 -0.23 -0.32 -0.4 -0.42 c -0.17 -0.1 -0.36 -0.17 -0.58 -0.2 c -0.22 -0.03 -0.46 -0.05 -0.71 -0.05 c -0.56 0 -1 0.12 -1.32 0.36 s -0.51 0.64 -0.56 1.2 h -2.84 c 0.03 -0.67 0.2 -1.23 0.49 -1.67 M 381.23 129.43 c -0.18 0.06 -0.37 0.11 -0.58 0.15 s -0.42 0.07 -0.65 0.1 c -0.23 0.03 -0.45 0.06 -0.68 0.1 c -0.21 0.04 -0.42 0.09 -0.63 0.16 s -0.39 0.16 -0.54 0.27 c -0.15 0.11 -0.28 0.26 -0.37 0.43 c -0.09 0.17 -0.14 0.39 -0.14 0.66 c 0 0.25 0.05 0.47 0.14 0.64 s 0.22 0.31 0.38 0.41 c 0.16 0.1 0.35 0.17 0.56 0.21 c 0.21 0.04 0.43 0.06 0.66 0.06 c 0.56 0 1 -0.09 1.3 -0.28 c 0.31 -0.19 0.53 -0.41 0.68 -0.67 c 0.15 -0.26 0.24 -0.52 0.27 -0.79 c 0.03 -0.27 0.05 -0.48 0.05 -0.64 v -1.06 c -0.12 0.1 -0.27 0.19 -0.45 0.25 Z" stroke-linecap="round"/>
</g>
		<g transform="matrix(1 0 0 1 174.855 48.42)" id="Livello_1">
<path style="stroke: none; stroke-width: 1; stroke-dasharray: none; stroke-linecap: butt; stroke-dashoffset: 0; stroke-linejoin: miter; stroke-miterlimit: 4; is-custom-font: none; font-file-url: none; fill: rgb(255,255,255); fill-rule: nonzero; opacity: 1;" transform=" translate(-388.8, -127.56)" d="M 392.12 123.89 v 1.9 h -2.08 v 5.13 c 0 0.48 0.08 0.8 0.24 0.96 s 0.48 0.24 0.96 0.24 c 0.16 0 0.31 -0.01 0.46 -0.02 c 0.15 -0.01 0.29 -0.03 0.42 -0.06 v 2.2 c -0.24 0.04 -0.51 0.07 -0.8 0.08 c -0.29 0.01 -0.58 0.02 -0.86 0.02 c -0.44 0 -0.86 -0.03 -1.25 -0.09 s -0.74 -0.18 -1.04 -0.35 s -0.54 -0.42 -0.71 -0.74 c -0.17 -0.32 -0.26 -0.74 -0.26 -1.26 v -6.11 h -1.72 v -1.9 h 1.72 v -3.11 h 2.84 v 3.11 h 2.08" stroke-linecap="round"/>
</g>
		<g transform="matrix(1 0 0 1 180.835 47.96)" id="Livello_1">
<path style="stroke: none; stroke-width: 1; stroke-dasharray: none; stroke-linecap: butt; stroke-dashoffset: 0; stroke-linejoin: miter; stroke-miterlimit: 4; is-custom-font: none; font-file-url: none; fill: rgb(255,255,255); fill-rule: nonzero; opacity: 1;" transform=" translate(-394.78, -127.1)" d="M 396.2 122.29 h -2.84 v -2.34 h 2.84 v 2.34 Z M 393.36 123.89 h 2.84 v 10.36 h -2.84 v -10.36 Z" stroke-linecap="round"/>
</g>
		<g transform="matrix(1 0 0 1 188.585 49.91)" id="Livello_1">
<path style="stroke: none; stroke-width: 1; stroke-dasharray: none; stroke-linecap: butt; stroke-dashoffset: 0; stroke-linejoin: miter; stroke-miterlimit: 4; is-custom-font: none; font-file-url: none; fill: rgb(255,255,255); fill-rule: nonzero; opacity: 1;" transform=" translate(-402.53, -129.05)" d="M 402.69 125.75 c -0.45 0 -0.84 0.1 -1.14 0.31 c -0.31 0.21 -0.56 0.47 -0.75 0.8 s -0.33 0.69 -0.41 1.08 c -0.08 0.4 -0.12 0.79 -0.12 1.17 s 0.04 0.76 0.12 1.14 c 0.08 0.39 0.21 0.74 0.39 1.05 s 0.42 0.57 0.73 0.77 c 0.31 0.2 0.68 0.3 1.12 0.3 c 0.68 0 1.21 -0.19 1.57 -0.57 c 0.37 -0.38 0.6 -0.89 0.69 -1.53 h 2.74 c -0.19 1.38 -0.72 2.42 -1.6 3.14 s -2.01 1.08 -3.38 1.08 c -0.77 0 -1.49 -0.13 -2.13 -0.39 c -0.65 -0.26 -1.2 -0.62 -1.65 -1.09 s -0.81 -1.02 -1.06 -1.67 c -0.25 -0.65 -0.38 -1.36 -0.38 -2.13 s 0.12 -1.55 0.35 -2.23 c 0.23 -0.69 0.58 -1.28 1.03 -1.78 s 1.01 -0.89 1.66 -1.17 c 0.65 -0.28 1.4 -0.42 2.24 -0.42 c 0.61 0 1.2 0.08 1.77 0.24 s 1.08 0.4 1.52 0.73 s 0.81 0.73 1.09 1.22 s 0.44 1.06 0.48 1.73 h -2.78 c -0.18 -1.18 -0.88 -1.78 -2.1 -1.78" stroke-linecap="round"/>
</g>
		<g transform="matrix(1 0 0 1 196.6 47.96)" id="Livello_1">
<path style="stroke: none; stroke-width: 1; stroke-dasharray: none; stroke-linecap: butt; stroke-dashoffset: 0; stroke-linejoin: miter; stroke-miterlimit: 4; is-custom-font: none; font-file-url: none; fill: rgb(255,255,255); fill-rule: nonzero; opacity: 1;" transform=" translate(-410.545, -127.1)" d="M 411.97 122.29 h -2.84 v -2.34 h 2.84 v 2.34 Z M 409.12 123.89 h 2.84 v 10.36 h -2.84 v -10.36 Z" stroke-linecap="round"/>
</g>
</g>
</g>
</svg>