<?xml version="1.0" encoding="utf-8" ?>
<svg xmlns="http://www.w3.org/2000/svg" xmlns:xlink="http://www.w3.org/1999/xlink" width="3725" height="1241">
	<path fill="#C40202" d="M631.011 106.009L1242.25 106C1243.15 107.427 1243.68 108.732 1243.82 110.417C1245.12 126.493 1244 143.548 1244.01 159.7L1244.01 261.341L1244 866.93L1244.01 1007.31C1244.01 1016.9 1245.55 1047.11 1243.62 1054.99C1243.35 1056.12 1242.9 1057.05 1242.25 1058L631.006 1057.99C631.013 1041.25 631.754 1024.14 630.76 1007.44C630.876 1006.01 631.119 1004.57 631.311 1003.14C634.651 1000.7 640.453 1001.83 644.428 1002L984.906 1001.99C1041.76 1001.99 1098.73 1002.79 1155.57 1001.97L1163.42 1002.01L1188.31 1002.09C1186.69 970.657 1188 938.616 1188 907.114L1188 725.624L1188 169L631.003 168.997L631.011 106.009Z"/>
	<path fill="#C22323" d="M630.76 1007.44C630.876 1006.01 631.119 1004.57 631.311 1003.14C634.651 1000.7 640.453 1001.83 644.428 1002L984.906 1001.99C1041.76 1001.99 1098.73 1002.79 1155.57 1001.97L1163.42 1002.01L1188.31 1002.09L1187.85 1006.06C1182.04 1010.43 1169.87 1008.03 1162.83 1007.97L1156.18 1008.08C1135.25 1007.46 1114.14 1007.99 1093.2 1007.99L970.906 1007.98L643.817 1008.1L630.76 1007.44Z"/>
	<path fill="#C40202" d="M305.996 356.997L578.155 356.997C586.24 356.997 638.504 355.705 642.525 357.031C643.06 357.207 643.454 357.67 643.918 357.989L644.053 363.082L644 451L495.08 450.998C469.828 450.996 444.273 451.821 419.051 450.887L418.993 457.021L419 556.998L537.912 556.942C548.268 556.938 571.365 555.226 580.554 557.361C580.911 559.376 581.087 561.182 581.058 563.229L580.999 650.999L474.617 650.997C456.148 650.996 437.489 651.571 419.051 650.887L418.993 657.012C418.973 694.59 417.823 732.536 419.249 770.069L644.002 769.999L644 858L424.408 858.009C386.996 858.011 349.496 857.478 312.096 858.053C309.701 858.041 308.009 858.438 306.004 856.98L305.996 356.997Z"/>
	<path fill="#2C55B3" d="M724.997 356.998L1050 357.002L1050 858.004L725 858L725 807.5L725 770L937.999 770L937.99 651L775 651L774.997 556.999L937.99 556.999L937.99 451L725 451L724.997 356.998Z"/>
	<path d="M2148.48 283.5C2153.12 283.041 2157.68 282.886 2162.35 283.022C2173.49 283.347 2190.98 282.019 2199.27 291.137C2200.65 292.659 2201.56 294.291 2202.28 296.197C2211.8 321.149 2220.32 346.625 2229.39 371.759L2290.2 540.433L2336.69 669.253C2344.69 691.433 2353.34 713.549 2360.63 735.958C2362.52 741.749 2364.47 747.982 2364.14 754.127C2364.01 756.426 2363.77 756.855 2361.94 758.368C2353.62 765.24 2321.44 763.238 2310.69 761.777C2308.17 761.435 2304.69 760.899 2302.78 759.099C2294.39 751.194 2270.58 675.037 2265.15 659.44C2263.04 653.363 2260.65 642.181 2256.61 637.491C2254.25 634.747 2178.54 635.989 2168.75 636C2156.96 635.997 2065.43 634.524 2060.54 636.67C2053.98 639.546 2025.94 750.721 2014.75 758.241C2004.88 764.877 1979.57 763.842 1968.02 761.732C1963.46 760.899 1959.43 759.673 1956.67 755.679C1955.21 751.204 1957.6 743.146 1959 738.689C1968.22 709.394 1980.14 680.602 1990.48 651.645L2067.11 439.086L2104.81 334.525C2108.9 323.175 2114.36 303.112 2119.53 293.334C2121.61 289.407 2126.9 287.765 2130.58 285.642C2135.45 282.831 2142.35 284.618 2147.89 283.616C2148.09 283.581 2148.28 283.539 2148.48 283.5ZM2157.75 585C2184.68 585.028 2212.79 586.536 2239.58 584.49C2238.76 580.306 2236.31 575.479 2234.98 571.285C2228.28 550.142 2220.54 529.294 2213.19 508.37C2195.41 457.758 2178.69 406.609 2160.03 356.329C2159.02 353.609 2158.5 351.283 2156.1 349.497C2156.08 349.672 2156.07 349.848 2156.05 350.023C2154.95 360.056 2144.57 384.742 2140.8 395.658L2095.86 525.846C2090.1 542.533 2079.17 567.893 2076.38 584.414C2084.43 586.671 2144.46 585.008 2157.75 585Z"/>
	<path fill="#2C55B3" d="M112 138L168 138L167.999 715.993L168.004 903.577C168.008 936.243 169.417 969.502 167.682 1002.09L181.05 1002L388.593 1001.97C423.194 1001.97 458.482 1000.43 492.966 1002.14C494.556 1003.95 494.06 1005.68 494.049 1008L494 1058L112 1058L112 138Z"/>
	<path fill="#3A5EB2" d="M181.05 1002L388.593 1001.97C423.194 1001.97 458.482 1000.43 492.966 1002.14C494.556 1003.95 494.06 1005.68 494.049 1008L180.831 1007.96C176.439 1008.15 172.005 1009.1 168.32 1006.45L167.682 1002.09L181.05 1002Z"/>
	<path d="M1486.57 286.497C1500.33 284.952 1515.14 285.985 1529.04 285.979L1609.82 285.973L1685.51 285.996C1698.01 286.003 1711.41 284.991 1723.78 286.495C1729.84 292.248 1731.49 299.126 1731.84 307.323C1732.19 315.345 1732.45 328.592 1726.56 334.447C1724.72 336.265 1722.38 337.525 1719.82 337.892C1707.24 339.69 1679.2 338.05 1664.75 338.045L1532.25 338C1532.93 339.084 1533.49 340.257 1533.73 341.524C1535.65 351.808 1534.05 376.587 1534.06 388.118C1534.08 419.045 1535.46 450.664 1533.9 481.522C1533.79 483.68 1533.41 485.154 1532.25 487C1550.2 486.991 1693.52 484.887 1698.08 488.821C1703.37 493.38 1705.03 499.709 1705.42 506.434C1705.95 515.619 1706.8 528.085 1700.06 535.149C1698.59 536.691 1696.97 537.569 1694.85 537.871C1681.92 539.716 1660.31 538.055 1646.62 538.05L1532.25 538C1532.93 539.087 1533.5 540.259 1533.73 541.529C1535.06 548.876 1534.94 604.202 1532.25 608.5C1532.93 609.588 1533.5 610.759 1533.73 612.033C1535.53 622.341 1534.09 635.404 1534.1 645.922C1534.12 664.879 1535.47 684.733 1533.83 703.543C1533.68 705.243 1533.15 706.555 1532.25 708L1658.64 707.977C1678.88 707.949 1702.13 706.032 1722.06 708.606C1725.94 709.107 1728.75 709.578 1731.05 713.053C1736.57 721.397 1736.03 741.795 1733.5 751.117C1732.64 754.264 1730.63 756.753 1727.82 758.365C1724.74 760.124 1721.04 760.775 1717.54 761.008C1708.39 761.616 1698.77 760.979 1689.58 760.982L1628.85 761.012L1545.98 761.041C1526.94 761.046 1504.49 763.412 1486.08 758.722C1480.34 757.259 1477.05 754.843 1474.08 749.67C1471.87 745.817 1471.24 742.633 1471.1 738.238C1469.97 702.422 1470.99 666.218 1470.98 630.362L1471 419.222C1471 402.112 1469.3 309.833 1471.54 302.586C1474.26 293.834 1478.85 290.806 1486.57 286.497Z"/>
	<path d="M2708.48 279.5C2709.57 279.345 2710.61 279.207 2711.71 279.144C2746.94 277.128 2804.99 283.931 2831.74 309.135C2837.06 314.15 2838.65 319.714 2838.89 326.895C2839.2 336.139 2841.25 355.613 2834.13 362.366C2831.64 364.732 2829 365.087 2825.84 364.111C2816.3 361.169 2806.56 354.104 2797.78 349.242C2777.44 337.969 2751.93 330.93 2728.61 330.883C2708.11 330.841 2682.88 336.425 2668.08 351.514C2654.35 365.513 2650.06 382.062 2650.27 401.087C2650.89 457.636 2734.35 482.995 2776.24 504.225C2796.11 514.296 2815.69 526.137 2831.56 541.931C2854.69 564.935 2866.07 594.687 2866.05 627.12C2866.04 663.83 2853.74 697.759 2827.41 723.826C2792.59 758.298 2744.91 767.282 2697.75 767C2665.61 767.603 2623.44 757.055 2595.85 740.625C2587.23 735.49 2578.11 728.628 2575.67 718.349C2573.41 708.822 2572.29 686.332 2578.17 677.827C2579.33 676.139 2581.23 674.532 2583.28 674.067C2586.43 673.349 2590.74 675.082 2593.62 676.332C2600.75 679.422 2607.62 683.992 2614.41 687.806C2626.01 694.323 2638.64 700.514 2651.26 704.747C2675.15 712.761 2702.39 715.661 2727.38 712.066C2749.4 708.9 2772.6 698.84 2786.01 680.519C2797.96 664.212 2802.38 641.926 2799.12 622.108C2791.88 578.131 2741.84 559.535 2706.58 542.915C2684.67 532.589 2661.98 522.239 2642.24 508.09C2614.98 488.557 2593.24 461.324 2587.81 427.493C2582.39 393.697 2587.64 358.77 2608.06 330.724C2625.59 306.648 2653.36 291.028 2682 283.957C2690.59 281.835 2699.73 280.895 2708.48 279.5Z"/>
	<path d="M3075.71 286.5C3076.48 286.376 3077.26 286.275 3078.04 286.196C3091.4 284.793 3106.11 285.981 3119.61 285.978L3205.76 285.963L3342.82 285.962C3365.9 285.964 3389.49 284.968 3412.52 286.075C3414.31 286.161 3415.48 286.671 3416.82 287.886C3421.41 292.059 3422.74 298.433 3422.93 304.32C3423.25 314.416 3424.93 328.668 3417.56 336.544C3408.65 341.393 3295.14 339.02 3276.25 339C3276.93 340.081 3277.51 341.25 3277.73 342.518C3279.12 350.504 3278.01 360.531 3278.02 368.74L3278.04 429.439L3278.04 554.553C3278.03 575.911 3278.63 597.464 3277.93 618.803C3277.85 621.448 3277.69 623.22 3276.25 625.5C3277.2 626.897 3277.67 628.238 3277.81 629.921C3279.45 649.751 3278.06 670.933 3278.05 690.9C3278.04 709.552 3279.99 732.974 3277.18 750.922C3276.64 754.366 3276.33 756.283 3273.34 758.325C3263.75 764.884 3238.75 763.846 3227.66 761.312C3222.01 760.02 3215.81 757.216 3213.99 751.163C3212.58 746.501 3214 689.401 3214 680.207L3214.05 456.139C3214.05 419.839 3215.71 380.204 3213.9 344.486C3213.79 342.325 3213.41 340.849 3212.25 339L3123.87 339.075C3109.7 339.122 3093.51 340.661 3079.54 338.698C3077.49 338.411 3075.95 337.783 3074.4 336.388C3069.5 331.994 3068.9 323.423 3068.7 317.336C3068.36 307.267 3068.52 294.214 3075.71 286.5Z"/>
	<path d="M2913.48 923.5C2914.3 923.395 2915.12 923.324 2915.95 923.29C2928.38 922.72 2942.36 926.341 2951.46 935.073C2962.21 945.39 2965.36 961.036 2965.56 975.401C2965.79 991.381 2962.5 1007.98 2950.84 1019.69C2941.48 1029.08 2928.81 1033.03 2915.75 1033C2905 1033.42 2893.76 1031.55 2884.66 1025.51C2874.88 1019.02 2869.34 1008.67 2867.08 997.351C2863.59 979.949 2864.96 957.754 2875.15 942.883C2885.72 927.467 2896.68 926.517 2913.48 923.5ZM2919.07 1015C2926.67 1013.73 2931.71 1011.45 2936.3 1005.05C2943.96 994.335 2944.55 977.971 2942.3 965.461C2940.87 957.503 2937.55 949.944 2930.71 945.23C2924.14 940.707 2917.13 940.576 2909.48 941.5C2901.65 943.879 2896.77 947.436 2892.77 954.722C2886.44 966.265 2886.18 983.872 2889.89 996.279C2891.98 1003.26 2895.99 1009.1 2902.5 1012.58C2907.84 1015.43 2913.18 1015.15 2919.07 1015Z"/>
	<path d="M2987.57 925.5C2988.2 925.411 2988.83 925.334 2989.46 925.284C2996.17 924.753 3009.16 923.539 3014.73 927.5C3024.49 934.437 3039.14 994.914 3044.35 999.495C3051.48 987.767 3066.28 934.155 3072.55 929.186C3078.59 924.398 3089.84 923.821 3097.1 925.031C3099.74 925.47 3101.94 926.288 3103.4 928.59C3105.37 931.702 3105.83 936.438 3106.06 940.036C3106.48 946.768 3106.83 1023.71 3105.95 1027.35C3105.52 1029.12 3104.99 1029.58 3103.42 1030.33C3099.09 1032.41 3091.67 1032.39 3087.3 1030.65C3079.75 1021.93 3089.74 961.966 3083.81 946.498L3084.02 945.635C3076.87 964.318 3070.51 983.314 3063.88 1002.19C3061 1010.41 3058.4 1021.94 3053.59 1029.13C3052.29 1031.08 3050.03 1031.01 3047.83 1031.45C3046.1 1031.8 3044.29 1032.18 3042.52 1032C3040.46 1031.78 3035.22 1030.8 3033.78 1029.25C3029.6 1024.78 3010.77 964.387 3006.47 952.963C3005.45 950.269 3005.09 946.547 3003.19 944.366C3001.91 955.627 3005.17 1024.81 3002.04 1029.69C3000.16 1030.44 2998.24 1031.16 2996.23 1031.49C2992.11 1032.18 2986.91 1031.78 2983.42 1029.34C2981.07 1011.31 2982.93 981.972 2982.97 962.725C2982.99 952.686 2981.7 940.797 2983.11 930.959C2983.51 928.163 2985.54 927.127 2987.57 925.5Z"/>
	<path d="M1448.75 925.497C1454.34 924.844 1462.81 923.884 1468.08 926.116C1475.72 941.04 1482.67 988.648 1488.12 1008.09L1489.03 1008.28C1490.25 1004.88 1490.62 1001.4 1491.43 997.895C1493.24 990.043 1506.99 927.86 1510.25 926.271C1514.29 924.295 1524.7 924.379 1528.86 925.693C1535.95 927.934 1546.51 997.368 1552.16 1008.29C1552.82 1007.87 1553.64 1007.64 1554.16 1007.04C1554.26 1006.93 1567.6 933.89 1572.83 926.241C1576.62 924.563 1581.94 924.758 1586.07 924.998C1588.89 925.163 1589.86 925.517 1591.75 927.589C1592.11 930.728 1590.63 932.53 1588.98 935L1589.69 937.581C1584.98 958.669 1578.66 979.38 1573.02 1000.22C1571.01 1007.65 1570.34 1015.71 1567.63 1022.9C1566.54 1025.8 1564.96 1028.58 1562.28 1030.27C1557.7 1033.16 1545.82 1032.22 1540.72 1030.84C1532.97 1028.74 1527.93 991.979 1526.03 984.097C1525.27 980.916 1523.53 978.469 1522.66 975.445C1521.33 970.784 1521.83 965.433 1519.48 961.134C1512.1 968.171 1509.08 1022.21 1499.26 1030.41C1495.11 1031.2 1486.41 1033.5 1482.49 1031.49C1479.43 1029.92 1476.55 1031.26 1473.64 1028.81C1468.13 1016.97 1465.44 999.336 1462.11 986.457C1457.55 968.829 1451.54 950.546 1448.35 932.649C1447.9 930.124 1447.96 927.948 1448.75 925.497Z"/>
	<path d="M3322.57 925.5C3326.23 925.086 3330.1 924.798 3333.78 924.905C3337.24 925.007 3345.01 925.958 3347.28 928.678C3347.47 928.91 3347.64 929.161 3347.82 929.401C3359.6 944.954 3374.8 979.914 3384.49 998.462L3385.8 998.079C3388.77 984.039 3380.57 938.159 3386.16 928.039C3387.14 926.253 3388.63 925.54 3390.58 925.143C3393.7 924.504 3400.18 924.527 3402.81 926.462C3404.47 927.682 3405.01 929.11 3405.25 931.139C3406.32 939.968 3404.91 950.905 3404.93 959.992C3404.96 980.365 3406.59 1001.76 3404.93 1022.01C3404.73 1024.44 3404.4 1027.01 3402.61 1028.83C3399.61 1031.87 3395.7 1031.14 3391.75 1031L3380.09 1031C3379.71 1029.69 3379.98 1030.1 3379.23 1029.21C3366.33 1013.9 3344.76 959.248 3335.47 950.944C3336.58 952.909 3336.88 954.45 3337.02 956.683C3337.34 962.195 3337.7 1025.16 3337.37 1026.51C3336.96 1028.21 3333.12 1030.75 3331.52 1031.54C3327.59 1033.47 3322.72 1031.22 3318.9 1029.93C3316.82 1025.63 3317.16 941.106 3318.1 930.522C3318.3 928.231 3320.88 926.746 3322.57 925.5Z"/>
	<path d="M1892.57 925.499C1905.85 923.625 1937.01 922.943 1948.11 930.588C1955.23 935.493 1960.39 941.748 1961.91 950.435C1963.34 958.645 1960.6 965.457 1955.94 972.073C1952.41 977.078 1947.53 979.288 1942.24 982.038C1945.55 985.105 1950.28 988.654 1952.51 992.573C1956.15 998.965 1968.29 1023.08 1966.05 1030.1C1963.98 1031.66 1962.23 1032.23 1959.63 1032.26C1952.96 1032.32 1947.09 1031.85 1942.21 1027.01L1942.55 1025.04C1939.2 1015 1933.99 997.545 1925.97 990.54C1922.08 987.144 1913.9 987.94 1909 987.992C1909.09 988.348 1909.19 988.701 1909.27 989.058C1910.58 994.716 1911.39 1026.01 1908.97 1029.99C1905.96 1030.9 1903.06 1031.57 1899.92 1031.84C1896.07 1032.16 1892.5 1032.27 1889.4 1029.64C1887.99 1012 1888.93 993.753 1888.92 976.017C1888.91 961.579 1887.95 946.354 1889.15 931.988C1889.45 928.454 1890.02 927.769 1892.57 925.499ZM1908.25 972C1914.26 972.051 1928.45 973.421 1932.87 968.79C1933.32 968.329 1933.41 968.086 1933.76 967.501C1936.93 965.962 1938.89 962.216 1939.89 958.936C1940.78 955.999 1940.08 952.673 1938.47 950.119C1935.77 945.87 1930.36 943.113 1925.53 942.157C1920.6 941.182 1913.45 941.794 1908.48 942.499C1910.96 947.498 1911.41 964.589 1909.38 969.77C1909.07 970.563 1908.7 971.279 1908.25 972Z"/>
	<path d="M3244.71 925.5C3250.41 925.005 3264.14 923.249 3269.07 926.231C3271.27 927.561 3303.91 1018.95 3305.19 1026.45C3305.53 1028.42 3305.78 1028.93 3304.68 1030.55C3299.95 1031.88 3294.11 1033.83 3289.18 1032.53C3280.35 1030.21 3279.64 1015.05 3275.43 1007.97C3272.79 1006.39 3268.76 1006.98 3265.75 1007C3256.79 1006.92 3244.97 1005.38 3236.39 1007.72C3232.39 1013.43 3231.92 1022.04 3228.96 1028.5C3228.28 1029.98 3226.08 1031.02 3224.59 1031.48C3220.97 1032.62 3215.16 1032.98 3211.8 1030.99C3210.24 1030.06 3209.13 1028.85 3208.97 1027C3208.55 1022.29 3241.09 929.34 3244.71 925.5ZM3254.75 990C3258.82 990.022 3265.96 991.005 3269.54 989.236C3269.33 984.966 3258.25 949.781 3255.79 947.624C3255.04 946.965 3255.01 947.009 3254.12 946.5C3254.82 957.483 3241.1 979.937 3241.55 989.708C3245.97 990.085 3250.32 990.074 3254.75 990Z"/>
	<path d="M2091.71 925.499C2098.75 924.491 2108.94 923.929 2115.67 926.1C2117.83 927.843 2118.83 929.795 2119.89 932.289C2128.92 953.489 2135.32 976.859 2142.67 998.748C2145.34 1006.7 2149.51 1014.49 2151.6 1022.47C2152.32 1025.22 2153.16 1028.21 2151.67 1030.72C2147.15 1031.97 2142.36 1033.45 2137.63 1032.48C2126.9 1030.28 2127.74 1015.84 2122.41 1008.26C2119.6 1006.55 2117.96 1006.93 2114.75 1007C2104.92 1006.93 2093.19 1005.56 2083.59 1007.66C2080.04 1012.42 2079.38 1020.1 2077.36 1025.71C2076.48 1028.16 2075.38 1030.4 2072.8 1031.34C2069 1032.72 2061.53 1033 2058.1 1030.69C2056.87 1029.86 2056.05 1028.83 2055.79 1027.37C2055.28 1024.45 2088.14 930.224 2091.71 925.499ZM2102.75 990C2107.35 990.018 2113.35 990.776 2117.74 989.549C2117.84 988.228 2118.12 987.963 2117.34 986.846C2111.96 979.215 2107.68 948.816 2100.97 947.498C2101.85 955.259 2091.79 981.082 2088.23 989.551C2092.95 990.458 2097.96 990.081 2102.75 990Z"/>
	<path d="M2505.71 925.499C2512 924.587 2524.07 923.495 2529.83 926.275C2534.1 928.331 2562.48 1012.93 2565.87 1023.44C2566.72 1026.06 2567.18 1028.06 2565.94 1030.56C2561.67 1031.85 2557.2 1033.23 2552.69 1032.53C2540.33 1030.63 2543.34 1015.94 2536.97 1008.59C2534.88 1006.17 2531.65 1006.97 2528.75 1007C2519.53 1006.98 2509.07 1005.8 2500.01 1007.13C2493.9 1008.02 2493.71 1024.29 2489.92 1029.33C2485.96 1031.76 2481.26 1032.73 2476.66 1032.06C2473.28 1031.58 2471.99 1030.45 2470.07 1027.91C2469.96 1026.86 2469.83 1025.68 2470.02 1024.65C2470.5 1022.07 2472.93 1019.02 2473.86 1016.36C2476.26 1009.55 2477.6 1002.34 2479.81 995.454C2481.01 991.69 2483.48 988.612 2484.78 984.886C2488.99 972.823 2499.56 933.514 2505.71 925.499Z"/>
	<path fill="white" d="M2516.24 947.499C2517.2 948.236 2518.01 949.026 2518.56 950.126C2521.41 955.833 2531.7 985.904 2530.39 990.312L2516.75 990.312L2500.49 990.312C2506.4 984.99 2514.19 956.339 2516.24 947.499Z"/>
	<path d="M3132.71 925.5C3136 925.014 3139.39 925.042 3142.71 924.946C3158.86 924.479 3180.03 923.466 3192.5 935.557C3198.54 941.42 3201.53 949.512 3201.54 957.866C3201.55 967.421 3198.01 976.906 3191.1 983.597C3181.48 992.911 3169.46 994.282 3156.75 994C3154.58 993.9 3153.26 993.87 3151.3 994.867C3146.7 1003.18 3151.71 1015.71 3149.94 1025C3149.46 1027.53 3148.46 1029.88 3146.15 1031.24C3141.44 1033.99 3135.4 1031.89 3130.6 1030.52C3128.05 1027.23 3129.03 1021.09 3129 1016.89L3128.85 958.428C3128.84 949.954 3127.53 938.649 3129.46 930.5C3130.06 927.948 3130.91 927.331 3132.71 925.5ZM3148.25 978C3154.41 978.047 3167.05 979.316 3171.6 974.414C3172.1 973.872 3172.07 973.685 3172.26 973C3176.27 969.851 3178.41 965.641 3179.12 960.591C3179.7 956.474 3178.46 952.718 3175.92 949.475C3172.56 945.183 3166.9 942.452 3161.52 941.952C3157.44 941.573 3152.53 941.965 3148.48 942.5C3150.79 947.14 3151.42 970.754 3149.38 975.807C3149.07 976.58 3148.69 977.296 3148.25 978Z"/>
	<path d="M2665.71 925.5C2673.97 924.257 2716.49 923.024 2722.19 926.267C2723.7 928.634 2724.65 930.895 2724.96 933.687C2725.18 935.787 2724.86 937.479 2723.39 939.072C2717.8 945.136 2690.09 942.058 2682.25 942C2682.89 942.96 2683.36 943.888 2683.64 945.022C2684.9 950.108 2685.09 963.461 2682.25 968C2691.14 968.157 2707.5 965.141 2715.15 969.072C2716.87 969.96 2718.19 971.281 2718.77 973.147C2719.7 976.125 2718.76 980.748 2717.51 983.498C2706.67 985.602 2693.37 984.071 2682.25 984C2682.74 984.826 2683.2 985.59 2683.49 986.511C2684.83 990.767 2684.42 996.635 2682.25 1000.5C2682.82 1001.46 2683.24 1002.47 2683.56 1003.53C2684.64 1007.13 2684.17 1010.69 2682.5 1014C2690.09 1014.05 2715.69 1011.89 2721.39 1014.95C2723.58 1016.15 2725.14 1018.22 2725.69 1020.65C2726.25 1023.01 2725.83 1025.63 2724.44 1027.63C2723.22 1029.37 2721.39 1030.59 2719.29 1030.9C2712.73 1031.89 2668.12 1032.38 2664.56 1029.14C2662.63 1027.37 2662.31 1021.5 2662.12 1018.97C2660.85 1001.69 2661.84 983.66 2661.87 966.309C2661.88 955.372 2660.4 941.505 2662.55 930.88C2662.99 928.716 2664.3 927.128 2665.71 925.5Z"/>
	<path d="M2239.71 925.499C2256.46 923.042 2278.9 924.954 2296.25 925C2296.61 925.562 2296.74 925.714 2296.99 926.282C2299.08 931.034 2298.26 937.297 2296.5 942L2255.25 942C2255.89 942.96 2256.36 943.888 2256.64 945.022C2257.9 950.108 2258.09 963.461 2255.25 968C2263.94 968.152 2283.55 964.845 2290.28 970.126C2292.23 971.661 2293.19 974.025 2293.21 976.481C2293.23 978.32 2292.54 980.247 2291.16 981.495C2285.08 986.982 2263.28 984.072 2255.25 984C2255.74 984.826 2256.2 985.59 2256.49 986.511C2257.83 990.767 2257.42 996.635 2255.25 1000.5C2255.82 1001.46 2256.24 1002.47 2256.56 1003.53C2257.64 1007.13 2257.17 1010.69 2255.5 1014C2264.08 1014 2285.33 1012.44 2292.04 1013.93C2294.55 1014.49 2296.89 1015.95 2298.25 1018.17C2299.57 1020.32 2300 1022.9 2299.26 1025.32C2298.59 1027.5 2297.04 1029.29 2294.98 1030.26C2291.46 1031.94 2243.56 1031.86 2239.06 1030.32C2235.87 1024.61 2235.97 1017.39 2235.91 1011L2235.87 956.585C2235.88 948.628 2234.72 938.196 2236.48 930.546C2237.07 927.96 2237.89 927.357 2239.71 925.499Z"/>
	<path d="M1610.57 925.498C1620.54 924.016 1657.03 923.564 1666.69 926.022C1668.37 928.11 1668.94 931.737 1669.05 934.436C1669.14 936.518 1668.63 937.891 1667.21 939.384C1661.83 945.03 1633.83 942.056 1626.25 942C1626.89 942.96 1627.36 943.888 1627.64 945.022C1628.9 950.108 1629.09 963.461 1626.25 968C1635.7 968.164 1648.62 965.656 1657.49 968.321C1659.2 968.835 1661.54 969.878 1662.4 971.576C1664.32 975.406 1662.88 980.199 1661.51 984L1626.25 984C1626.74 984.826 1627.2 985.59 1627.49 986.511C1628.83 990.767 1628.42 996.635 1626.25 1000.5C1626.82 1001.46 1627.24 1002.47 1627.56 1003.53C1628.64 1007.13 1628.17 1010.69 1626.5 1014C1637.86 1014.22 1652.47 1011.29 1663.2 1014.41C1665.03 1014.94 1667.56 1016.12 1668.45 1017.92C1670.4 1021.85 1668.93 1027.1 1667.5 1031C1655.48 1031.07 1617.71 1033.29 1608.65 1029.66C1605.54 1019.95 1605.99 945.833 1607.15 931.988C1607.44 928.453 1608.02 927.769 1610.57 925.498Z"/>
	<path d="M1986.57 925.499C1997.04 923.936 2031.63 923.831 2042.01 925.44C2043.01 926.311 2043.96 927.235 2044.47 928.49C2046.11 932.563 2044.95 938.035 2043.5 942L2002.25 942C2002.89 942.96 2003.36 943.888 2003.64 945.022C2004.9 950.108 2005.09 963.461 2002.25 968L2037.25 968C2037.74 968.824 2038.2 969.591 2038.49 970.512C2039.83 974.789 2039.38 980.1 2037.25 984L2002.25 984C2002.74 984.826 2003.2 985.59 2003.49 986.511C2004.83 990.767 2004.42 996.635 2002.25 1000.5C2002.82 1001.46 2003.24 1002.47 2003.56 1003.53C2004.64 1007.13 2004.17 1010.69 2002.5 1014L2043.25 1014C2043.76 1014.83 2044.21 1015.57 2044.49 1016.51C2045.81 1020.97 2045.52 1026.95 2043.25 1031C2026.16 1031.04 2008.6 1031.97 1991.56 1031.17C1989.88 1031.09 1986.95 1031.06 1985.86 1029.76C1981.34 1024.4 1982.25 942.954 1983.25 931.547C1983.51 928.495 1984.33 927.391 1986.57 925.499Z"/>
	<path d="M2344.62 923.501C2344.84 923.476 2345.06 923.441 2345.28 923.427C2351.67 923.025 2365.94 924.461 2370.61 929.258C2372.98 931.695 2374.14 934.593 2374.05 937.982C2373.97 941.068 2373.66 943.787 2371.39 946.058C2364.88 947.702 2357.34 940.458 2350.57 939.675C2346.44 939.198 2340.99 941.246 2337.8 943.894C2335.71 945.629 2334.52 947.9 2334.44 950.628C2334.07 964.84 2363.05 970.468 2372.55 979.924C2377.58 984.931 2379.97 990.957 2379.98 998.036C2380 1007.04 2376.68 1016.54 2370.15 1022.88C2361.38 1031.39 2349.47 1033.11 2337.75 1033C2332.2 1033.24 2322.61 1031.4 2317.91 1028.5C2314.64 1026.49 2311.97 1023.88 2311.12 1019.99C2310.38 1016.58 2310.53 1010.44 2312.45 1007.51C2320.4 1007.16 2329.22 1015.97 2337.74 1016.16C2342.76 1016.26 2351.04 1014.67 2354.68 1010.95C2355.79 1007.55 2357.66 1003.3 2357.13 999.682C2355.66 989.661 2330.76 982.869 2323.28 977.166C2317.35 972.647 2314.1 966.631 2313.16 959.265C2312.15 951.355 2312.76 942.257 2317.89 935.779C2324.01 928.06 2335.19 924.553 2344.62 923.501Z"/>
	<path d="M1716.62 923.501C1717.56 923.392 1718.43 923.382 1719.37 923.446C1726.83 923.949 1738.29 924.559 1743.53 930.534C1743.98 931.263 1744.03 931.291 1744.37 932.229C1745.83 936.23 1746.66 941.294 1744.5 944.976C1737.72 947.703 1729.64 941.246 1723.02 940.018C1719.19 939.307 1712.48 940.818 1709.43 943.265C1707.24 945.023 1705.35 948.988 1705.31 951.749C1705.18 962.322 1734.84 971.533 1742.42 978.868C1748.17 984.444 1751.23 991.548 1751.17 999.574C1751.11 1007.09 1748.18 1017.11 1742.67 1022.49C1733.08 1031.82 1718.55 1033.2 1705.87 1033C1702 1031.85 1697.9 1031.49 1693.98 1030.45C1689.62 1029.3 1685.84 1026.87 1683.66 1022.79C1681.74 1019.2 1681.07 1013.18 1682.76 1009.27C1683.63 1007.27 1685.19 1007.89 1686.97 1008.36C1706.85 1013.53 1701.53 1019.91 1724.24 1012.59C1726.52 1009.52 1730.57 1005.33 1729.81 1001.24C1727.97 991.311 1704.34 983.642 1696.63 977.969C1689.94 973.055 1684.65 965.98 1683.59 957.577C1682.65 950.121 1685.86 940.827 1690.4 934.971C1696.67 926.882 1707.06 924.841 1716.62 923.501Z"/>
	<path d="M2814.48 924.5C2824.7 923.092 2839.89 922.958 2848.62 928.99C2852 931.325 2854.17 934.716 2854.9 938.758C2855.52 942.248 2855.66 946.769 2853.55 949.731C2846.87 951.664 2834.31 939.272 2823.03 941.469C2816.6 942.721 2810.74 947.535 2807.16 952.848C2799.86 963.658 2799.06 980.246 2801.69 992.651C2803.22 999.885 2808.17 1007.35 2814.48 1011.29C2820.38 1014.97 2830.52 1015.55 2837.05 1013.77C2840.19 1012.92 2846.83 1009.67 2848.26 1007C2849.68 1006.61 2851.1 1006.41 2852.55 1006.18L2854.24 1007.49C2856.01 1011.65 2856.75 1015.38 2854.88 1019.75C2852.73 1024.76 2848.11 1028.06 2843.16 1029.97C2830.92 1034.7 2814.58 1034.08 2802.69 1028.61C2792.28 1023.83 2784.9 1014.96 2781.1 1004.26C2775.2 987.702 2775.56 965.883 2783.34 949.966C2790.18 935.974 2800.33 929.45 2814.48 924.5Z"/>
	<path d="M3418.75 925.5C3424.39 924.993 3430.58 924.289 3436.16 925.45C3437.81 925.794 3439.27 925.944 3440.45 927.273C3448.97 936.821 3453.12 959.508 3460.47 970.537C3462.79 967.934 3463.13 962.739 3464.49 959.406C3468.21 950.3 3478.95 934.416 3479.07 925C3485.42 924.837 3496.13 923.231 3501.43 927.115C3499.89 934.48 3486.17 963.238 3480.71 967.502C3480.77 967.729 3480.87 967.95 3480.89 968.183C3481.51 973.553 3473.67 983.203 3471.76 988.611C3467.98 999.37 3474.93 1021.04 3469.96 1029.44C3468.58 1029.63 3467.14 1029.77 3465.93 1030.51C3464.62 1031.31 3463.61 1032.23 3461.99 1032.31C3459.33 1032.43 3451.09 1030.76 3449.27 1029.04C3446.43 1016.87 3452 1002.28 3448.49 990.423C3444.81 977.976 3416.39 933.776 3418.75 925.5Z"/>
	<path d="M2570.71 925.5C2571.24 925.42 2571.77 925.351 2572.31 925.294C2580.82 924.338 2644.75 923.611 2648.4 926.51C2649.86 929.08 2651.14 931.863 2651.2 934.885C2651.23 936.919 2649.56 939.611 2648.12 940.947C2643.02 945.703 2626.26 943.012 2619.25 943C2619.93 944.087 2620.5 945.258 2620.73 946.529C2622.02 953.595 2622.26 998.701 2619.25 1003.5C2621.74 1007.32 2622.22 1017.97 2621.5 1022.66C2621.03 1025.67 2619.69 1028.98 2617.07 1030.73C2612.98 1033.48 2607.65 1031.8 2603.23 1030.86C2602.35 1030.67 2600.86 1030.21 2600.19 1029.56C2594.29 1023.76 2604.42 954.68 2597.25 943L2568.25 943C2570.97 938.952 2570.29 930.426 2570.71 925.5Z"/>
	<path d="M2386.76 925.499C2395.64 924.161 2405.63 924.936 2414.61 924.94L2464.25 925C2464.77 925.833 2465.22 926.55 2465.49 927.509C2466.79 932.158 2466.68 938.781 2464.25 943L2435.25 943C2435.93 944.087 2436.5 945.258 2436.73 946.529C2438.03 953.669 2438.29 999.657 2435.25 1004.5C2437.57 1008.17 2438.22 1018.42 2437.52 1022.72C2437.03 1025.75 2435.73 1028.99 2433.08 1030.75C2428.98 1033.47 2423.65 1031.79 2419.23 1030.85C2418.35 1030.66 2416.85 1030.21 2416.19 1029.55C2410.29 1023.76 2420.42 954.678 2413.25 943L2384.25 943C2384.33 942.833 2384.41 942.664 2384.5 942.5C2387.25 937.363 2385.21 931.113 2386.76 925.499Z"/>
	<path d="M1758.75 925.499C1768.55 924.041 1829.52 923.114 1835.77 926.344C1837.37 928.586 1838.02 929.304 1838.18 932.131C1838.36 935.066 1837.75 938.845 1835.54 940.977C1830.58 945.765 1813.2 943.02 1806.25 943C1806.93 944.087 1807.5 945.258 1807.73 946.529C1809.03 953.669 1809.29 999.657 1806.25 1004.5C1808.69 1008.26 1808.96 1017.3 1808.7 1021.88C1808.52 1024.99 1807.28 1028.58 1804.75 1030.54C1800.7 1033.65 1794.81 1031.89 1790.29 1030.87C1789.96 1030.79 1788.23 1030.36 1788.06 1030.18C1782.39 1024.54 1792.39 954.638 1785.25 943C1777.87 942.954 1769.1 944.454 1761.99 942.385C1760.26 941.883 1758.06 940.731 1757.24 939.019C1755.29 934.946 1757.34 929.486 1758.75 925.499Z"/>
	<path d="M2166.71 925.499C2172.38 924.84 2180.27 923.917 2185.51 926.653C2185.93 927.603 2186.23 928.344 2186.43 929.368C2188.1 938.135 2188.41 1007.98 2185.25 1013C2195.55 1013.17 2213.71 1009.58 2221.8 1016.08C2223.61 1018.63 2223.4 1021.13 2223.19 1024.09C2222.92 1027.82 2221.98 1028.67 2219.25 1031C2204.42 1031.04 2182.59 1033.07 2168.58 1030.44C2167.21 1029.23 2166.82 1028.1 2166.38 1026.36C2164.67 1019.67 2163.54 933.55 2165.25 927.993C2165.48 927.235 2166.29 926.213 2166.71 925.499Z"/>
</svg>
