<svg xmlns="http://www.w3.org/2000/svg" xmlns:xlink="http://www.w3.org/1999/xlink" version="1.1" width="1080" height="1080" viewBox="0 0 1080 1080" xml:space="preserve">
<desc>Created with Fabric.js 3.5.0</desc>
<defs>
</defs>
<rect x="0" y="0" width="100%" height="100%" fill="#000000"/>
<g transform="matrix(2.9273 0 0 2.9273 540.0017 491.0478)" id="487191">
<g style="" vector-effect="non-scaling-stroke">
		<g transform="matrix(1 0 0 1 -123.3696 -0.0006)" id="Path_1">
<path style="stroke: none; stroke-width: 1; stroke-dasharray: none; stroke-linecap: butt; stroke-dashoffset: 0; stroke-linejoin: miter; stroke-miterlimit: 4; is-custom-font: none; font-file-url: none; fill: rgb(255,255,255); fill-rule: evenodd; opacity: 1;" transform=" translate(-28.0004, -28.0004)" d="M 24.122 52.193 L 36.064 31.46 l -8.074 0 L 32 24.5 l 18.972 0 l -4.02 6.98 l -6.858 -0.02 L 27.99 52.512 a 24.5 24.5 0 1 0 0 -49 a 22.715 22.715 0 0 0 -2.89 0.18 L 13.058 24.5 H 27.99 L 23.943 31.46 H 5 L 20.454 4.706 a 24.488 24.488 0 0 0 3.668 47.487 M 27.99 0 A 28 28 0 1 1 0 27.971 A 28.065 28.065 0 0 1 27.99 0" stroke-linecap="round"/>
</g>
		<g transform="matrix(1 0 0 1 35.0121 -0.0034)" id="Path_2">
<path style="stroke: none; stroke-width: 1; stroke-dasharray: none; stroke-linecap: butt; stroke-dashoffset: 0; stroke-linejoin: miter; stroke-miterlimit: 4; is-custom-font: none; font-file-url: none; fill: rgb(255,255,255); fill-rule: nonzero; opacity: 1;" transform=" translate(-284.8711, -53.8036)" d="M 385.964 53.748 c 0.713 -3.287 3.029 -6.655 6.9 -6.655 s 4.722 3.367 4.009 6.655 c -0.73 3.368 -2.941 6.762 -6.919 6.762 s -4.717 -3.394 -3.986 -6.762 m -4.062 0 c -1.24 5.719 1.178 9.706 7.41 9.706 c 6.148 0 10.4 -4.067 11.62 -9.706 s -1.341 -9.595 -7.434 -9.595 c -6.176 0 -10.355 3.875 -11.6 9.595 M 365.15 63.129 h 3.9 l 1.681 -7.75 h 1.252 c 1.641 0 2.027 0.534 2.281 1.924 l 1.073 5.827 h 4.34 l -1.533 -7.3 c -0.21 -0.829 -0.6 -1.844 -1.642 -1.924 l 0.012 -0.054 a 5.71 5.71 0 0 0 4.946 -4.329 c 1.125 -5.185 -3.884 -5.051 -8.058 -5.051 h -4.2 Z m 7.3 -15.715 h 1.28 c 1.948 0 4.077 0.187 3.59 2.432 c -0.5 2.325 -2.76 2.592 -4.68 2.592 h -1.28 Z M 349.042 63.129 h 6.789 c 2.448 0 6.995 -0.695 8.015 -5.4 c 0.5 -2.3 -0.939 -4.009 -3.529 -4.25 l 0.012 -0.054 a 5.581 5.581 0 0 0 4.772 -4.169 c 0.887 -4.089 -2.718 -4.784 -5.222 -4.784 h -6.789 Z m 7.3 -15.715 h 1.5 c 1.78 0 3.721 0.16 3.251 2.325 c -0.417 1.925 -2.524 2.272 -4.165 2.272 h -1.586 Z m -1.6 7.376 h 1.836 c 1.948 0 3.925 0.374 3.4 2.806 c -0.47 2.165 -2.76 2.592 -4.569 2.592 h -1.836 Z m -23.078 1.6 c -1.084 5 1.417 7.06 6.4 7.06 s 8.376 -2.063 9.46 -7.06 l 2.585 -11.92 h -3.9 L 343.88 55.244 c -0.69 3.18 -2.2 5.265 -5.176 5.265 s -3.582 -2.085 -2.893 -5.265 l 2.337 -10.771 h -3.9 Z m -16.425 -2.646 c 0.713 -3.287 3.029 -6.655 6.9 -6.655 s 4.722 3.367 4.009 6.655 c -0.73 3.368 -2.941 6.762 -6.919 6.762 s -4.717 -3.394 -3.986 -6.762 m -4.062 0 c -1.24 5.719 1.178 9.706 7.41 9.706 c 6.148 0 10.4 -4.067 11.62 -9.706 s -1.341 -9.595 -7.434 -9.595 c -6.176 0 -10.355 3.875 -11.6 9.595 m -10.242 9.381 h 3.9 l 3.409 -15.715 h 5.564 l 0.637 -2.94 H 299.421 l -0.638 2.94 h 5.564 Z M 282.2 53.32 c 2.369 -1.176 4.272 -2.378 4.828 -4.944 c 0.655 -3.02 -1.95 -4.223 -4.676 -4.223 s -6.206 1.417 -6.82 4.249 c -0.464 2.138 0.518 3.127 1.724 4.49 c -3.36 1.256 -4.716 2.887 -5.2 5.131 c -0.76 3.5 1.91 5.43 5.75 5.43 a 9.285 9.285 0 0 0 5.716 -1.982 l 0.948 1.657 h 4.785 l -2.666 -3.742 A 13.224 13.224 0 0 0 290.449 53 h -3.394 a 7.944 7.944 0 0 1 -2.105 4.063 Z M 280.448 51.4 c -0.595 -0.721 -1.488 -1.6 -1.262 -2.646 a 2.6 2.6 0 0 1 2.655 -1.978 c 1.113 0 2.009 0.615 1.725 1.924 c -0.238 1.1 -2.039 2.218 -3.117 2.7 m 1.682 8.152 a 5.869 5.869 0 0 1 -3.638 1.122 c -1.808 0 -3.04 -1.122 -2.686 -2.753 c 0.319 -1.47 1.6 -2.352 3.014 -2.993 Z m -38 3.581 h 3.728 l 3.026 -13.951 h 0.056 l 4.4 13.951 H 260.1 l 4.046 -18.655 h -3.728 L 257.39 58.425 h -0.056 L 252.96 44.474 h -4.785 Z m -14.439 0 h 11.518 l 0.637 -2.94 h -7.623 l 1.136 -5.239 h 6.928 l 0.637 -2.94 H 236 l 1 -4.6 h 7.567 l 0.638 -2.94 H 233.735 Z m 0.688 -18.307 a 13.846 13.846 0 0 0 -4.5 -0.668 c -3.422 0 -7.119 1.523 -8.023 5.693 c -1.339 6.174 7.493 4.7 6.722 8.258 c -0.365 1.684 -2.5 2.405 -3.972 2.405 a 8.237 8.237 0 0 1 -4.147 -1.149 l -1.092 3.367 a 16 16 0 0 0 4.823 0.726 c 3.923 0 7.627 -1.554 8.513 -5.644 c 1.356 -6.254 -7.453 -4.891 -6.751 -8.125 a 3.439 3.439 0 0 1 3.623 -2.592 a 9.154 9.154 0 0 1 3.776 0.8 Z M 199.948 63.129 h 3.895 l 1.681 -7.75 h 1.252 c 1.641 0 2.027 0.534 2.281 1.924 l 1.073 5.827 h 4.34 l -1.533 -7.3 c -0.21 -0.829 -0.6 -1.844 -1.641 -1.924 l 0.012 -0.054 a 5.71 5.71 0 0 0 4.946 -4.329 c 1.125 -5.185 -3.884 -5.051 -8.058 -5.051 h -4.2 Z m 7.3 -15.715 h 1.28 c 1.948 0 4.077 0.187 3.59 2.432 c -0.5 2.325 -2.76 2.592 -4.68 2.592 h -1.279 Z M 180.139 63.129 h 4.034 l 2.625 -4.276 h 7.873 l 0.742 4.276 h 4.312 l -3.576 -18.655 h -4.4 Z m 14.085 -7.216 h -5.676 l 4.479 -7.7 h 0.056 Z M 168.51 63.129 h 11.435 l 0.638 -2.94 h -7.54 l 3.409 -15.715 h -3.895 Z" stroke-linecap="round"/>
</g>
</g>
</g>
</svg>