<svg xmlns="http://www.w3.org/2000/svg" xmlns:xlink="http://www.w3.org/1999/xlink" version="1.1" width="1080" height="1080" viewBox="0 0 1080 1080" xml:space="preserve">
<desc>Created with Fabric.js 3.5.0</desc>
<defs>
</defs>
<rect x="0" y="0" width="100%" height="100%" fill="#000000"/>
<g transform="matrix(0.3312 0 0 0.3312 539.9787 539.9952)" id="385880">
<path style="stroke: none; stroke-width: 1; stroke-dasharray: none; stroke-linecap: butt; stroke-dashoffset: 0; stroke-linejoin: miter; stroke-miterlimit: 4; is-custom-font: none; font-file-url: none; fill: rgb(255,255,255); fill-rule: evenodd; opacity: 1;" vector-effect="non-scaling-stroke" transform=" translate(-1141.24, -255.325)" d="M 398.42 0 l 0 133.31 l -264.85 264.37 l -133.57 0 l 398.42 -397.68 z m 819.28 0 l -104.37 0 l -106.03 284.85 l -106.03 -284.85 l -104.36 0 l 0 397.68 l 88.29 0 l 0 -257.13 l 87.3 257.13 c 23.2 0 46.41 0 69.61 0 l 87.3 -257.13 l 0 257.13 l 88.29 0 l 0 -397.68 z m 502.62 123.96 l -86.34 0 l 0 386.69 l 86.34 0 l 0 -151.2 c 22.2 30.78 45.06 45.55 89.74 45.55 c 71.56 0 126.84 -58.95 126.84 -144.14 c 0 -85.18 -55.28 -144.13 -126.84 -144.13 c -44.68 0 -67.54 14.77 -89.74 45.55 l 0 -38.32 z m 64.19 208.34 c 35.47 0 62.87 -29.22 62.87 -71.44 c 0 -42.22 -27.4 -71.44 -62.87 -71.44 c -38.01 0 -67.38 23.8 -67.38 71.44 c 0 47.65 29.37 71.44 67.38 71.44 z m 411.63 -208.34 l 86.34 0 l 0 273.72 l -86.34 0 l 0 -38.23 c -22.19 30.78 -45.06 45.55 -89.74 45.55 c -71.56 0 -126.83 -58.95 -126.83 -144.14 c 0 -85.18 55.27 -144.13 126.83 -144.13 c 44.68 0 67.55 14.77 89.74 45.55 l 0 -38.32 z m -64.19 208.34 c -35.47 0 -62.86 -29.22 -62.86 -71.44 c 0 -42.22 27.39 -71.44 62.86 -71.44 c 38.02 0 67.38 23.8 67.38 71.44 c 0 47.65 -29.36 71.44 -67.38 71.44 z m -644.07 -208.34 l 86.34 0 l 0 273.72 l -86.34 0 l 0 -38.23 c -22.19 30.78 -45.06 45.55 -89.74 45.55 c -71.56 0 -126.84 -58.95 -126.84 -144.14 c 0 -85.18 55.28 -144.13 126.84 -144.13 c 44.68 0 67.55 14.77 89.74 45.55 l 0 -38.32 z m -64.19 208.34 c -35.47 0 -62.86 -29.22 -62.86 -71.44 c 0 -42.22 27.39 -71.44 62.86 -71.44 c 38.01 0 67.38 23.8 67.38 71.44 c 0 47.65 -29.37 71.44 -67.38 71.44 z m -761.45 -66.95 l 0 132.33 l -132.57 0 l 132.57 -132.33 z m 0 -265.35 l 0 133.31 l -264.86 264.37 l -133.56 0 l 398.42 -397.68 z" stroke-linecap="round"/>
</g>
</svg>