<?xml version="1.0" encoding="UTF-8"?>
<svg xmlns="http://www.w3.org/2000/svg" xmlns:xlink="http://www.w3.org/1999/xlink" viewBox="0 0 1000 1000">
  <defs>
    <style>
      .cls-1 {
        fill: #945821;
      }

      .cls-1, .cls-2, .cls-3, .cls-4, .cls-5, .cls-6, .cls-7, .cls-8, .cls-9, .cls-10, .cls-11, .cls-12, .cls-13, .cls-14, .cls-15, .cls-16, .cls-17, .cls-18, .cls-19, .cls-20, .cls-21, .cls-22, .cls-23, .cls-24, .cls-25, .cls-26, .cls-27, .cls-28, .cls-29, .cls-30, .cls-31, .cls-32, .cls-33, .cls-34, .cls-35, .cls-36, .cls-37, .cls-38, .cls-39 {
        stroke-width: 0px;
      }

      .cls-40 {
        clip-path: url(#clippath-11);
      }

      .cls-2 {
        fill: #d38a27;
      }

      .cls-3 {
        fill: url(#linear-gradient);
      }

      .cls-4 {
        fill: #3e803d;
      }

      .cls-5 {
        fill: #06062c;
      }

      .cls-6 {
        fill: #b5dcbf;
      }

      .cls-7 {
        fill: #abdef5;
      }

      .cls-41 {
        clip-path: url(#clippath-2);
      }

      .cls-42 {
        clip-path: url(#clippath-13);
      }

      .cls-43 {
        isolation: isolate;
      }

      .cls-9 {
        fill: #fcc8ab;
      }

      .cls-44 {
        clip-path: url(#clippath-6);
      }

      .cls-10 {
        fill: #2a3885;
      }

      .cls-11 {
        fill: #e82128;
      }

      .cls-12 {
        fill: #2c2e6d;
      }

      .cls-13 {
        fill: url(#linear-gradient-5);
      }

      .cls-14 {
        fill: none;
      }

      .cls-15 {
        fill: #2f739d;
      }

      .cls-45 {
        clip-path: url(#clippath-7);
      }

      .cls-16 {
        fill: #4a8cc9;
      }

      .cls-17 {
        fill: #f7a527;
      }

      .cls-46 {
        clip-path: url(#clippath-1);
      }

      .cls-47 {
        clip-path: url(#clippath-4);
      }

      .cls-18 {
        fill: #981c20;
      }

      .cls-48 {
        clip-path: url(#clippath-12);
      }

      .cls-19 {
        fill: #c57028;
      }

      .cls-20 {
        fill: #ce8ebc;
      }

      .cls-21 {
        fill: url(#linear-gradient-2);
      }

      .cls-22 {
        fill: #d76828;
      }

      .cls-23 {
        fill: #d65527;
      }

      .cls-24 {
        fill: #0b6893;
      }

      .cls-25 {
        fill: #0470b7;
      }

      .cls-26 {
        fill: url(#linear-gradient-3);
      }

      .cls-49 {
        clip-path: url(#clippath-9);
      }

      .cls-50 {
        clip-path: url(#clippath);
      }

      .cls-27 {
        fill: #c02128;
      }

      .cls-28 {
        fill: #057345;
      }

      .cls-29 {
        fill: #dd8726;
      }

      .cls-30 {
        fill: #3e7da8;
      }

      .cls-51 {
        clip-path: url(#clippath-3);
      }

      .cls-31 {
        fill: #003e21;
      }

      .cls-32 {
        fill: #c98b27;
      }

      .cls-52 {
        clip-path: url(#clippath-8);
      }

      .cls-53 {
        clip-path: url(#clippath-14);
      }

      .cls-54 {
        clip-path: url(#clippath-5);
      }

      .cls-33 {
        fill: #56c2d6;
      }

      .cls-55 {
        clip-path: url(#clippath-10);
      }

      .cls-34 {
        fill: #831618;
      }

      .cls-35 {
        fill: #1b204a;
      }

      .cls-36 {
        fill: url(#linear-gradient-4);
      }

      .cls-56 {
        mix-blend-mode: multiply;
      }

      .cls-37 {
        fill: #f39124;
      }

      .cls-38 {
        fill: #ffe5ca;
      }

      .cls-39 {
        fill: #3c6530;
      }
    </style>
    <clipPath id="clippath">
      <path class="cls-14" d="M300.2,491.84c6.75,22,11.75,43.99,18.28,48.74,20.13,14.62,60.57,1.08,84.47,18.45,22.65,16.46,17.51,72.51,38.32,74.97,21.49,2.54,19.32-29.05,26.34-53.82,6.01-21.17,14.61-47.05,35.32-77.7-7.34-9.86-18.64-22.03-35.66-34.39-12.58-9.14-27.57-15.68-42.93-20.3-35.27-10.12-62.38-10.36-84.26-9.55-.52.04-1.04.09-1.51.14-.02-.02-.04-.04-.05-.06-23.4,1.17-49.42,10.67-56.68-4.08,3.28,10,11.47,35.16,18.36,57.6"/>
    </clipPath>
    <clipPath id="clippath-1">
      <path class="cls-14" d="M535.4,468.07c-12.58,9.14-23.44,21.37-32.57,34.55-20.52,30.42-29.13,56.12-35.12,77.18-.12.5-.24,1.01-.34,1.48-.03,0-.05.02-.08.03-6.12,22.61-5.12,50.3-21.39,52.64,10.53-.03,36.98-.04,60.45.34,23.02.38,45.47,2.42,52-2.32,20.12-14.62,19.75-57.27,43.65-74.64,10.96-7.96,28.73-6.87,45.14-5.78,17.51,1.16,33.48,2.32,38-7.5,9.06-19.65-21.66-27.35-43.04-41.68-18.27-12.25-40.23-28.43-62.98-57.6-11.64,3.93-26.71,10.92-43.72,23.29"/>
    </clipPath>
    <clipPath id="clippath-2">
      <path class="cls-14" d="M371.98,251.74c-18.84,13.22-38.21,24.77-40.7,32.44-7.69,23.66,17.68,57.94,8.56,86.04-8.65,26.62-63.55,39.07-59.46,59.61,4.22,21.22,33.6,9.39,59.32,8.42,21.99-.83,49.26-.64,84.81,9.58,7.11-10.02,15.18-24.53,21.69-44.54,4.81-14.79,6.4-31.07,6.04-47.1-1.28-36.67-9.42-62.52-16.95-83.09-.2-.47-.41-.96-.6-1.4.02-.02.03-.05.04-.07-8.34-21.89-25.42-43.71-13.64-55.16-8.5,6.21-29.89,21.77-49.11,35.26"/>
    </clipPath>
    <clipPath id="clippath-3">
      <path class="cls-14" d="M622.05,312.38c-17.3,13.59-39.47,29.47-74.25,42.1.14,12.29,2.14,28.77,8.64,48.78,4.8,14.79,13.08,28.89,22.8,41.66,22.59,28.91,44.37,45.04,62.55,57.25.44.27.89.54,1.3.78,0,.03,0,.05,0,.08,19.62,12.81,46.25,20.41,43.46,36.61,3.23-10.02,11.39-35.18,19.01-57.39,7.47-21.77,16.35-42.49,13.86-50.17-7.68-23.66-48.36-36.48-57.49-64.58-8.65-26.62,28.45-68.96,13.07-83.18-3.22-2.98-6.48-4.25-9.8-4.25-13.05,0-27.01,19.63-43.14,32.31"/>
    </clipPath>
    <clipPath id="clippath-4">
      <path class="cls-14" d="M424.82,213.72c-18.87,10.57,1.46,34.86,10.32,59.02,7.58,20.65,15.83,46.65,17.09,83.62,11.73,3.67,28.02,6.86,49.06,6.86,15.55,0,31.52-3.51,46.67-8.81,34.48-12.54,56.55-28.28,73.78-41.8.39-.34.79-.68,1.15-1,.03,0,.05,0,.08.02,18.24-14.7,33.71-37.68,48.25-30.02-8.53-6.16-29.94-21.7-48.71-35.81-18.4-13.83-35.36-28.69-43.43-28.69-24.88,0-49.64,34.72-79.18,34.72-25.32,0-51.29-39.55-69.55-39.55-1.93,0-3.78.44-5.53,1.42"/>
    </clipPath>
    <clipPath id="clippath-5">
      <rect class="cls-14" x="417.05" y="212.3" width="254.17" height="150.93"/>
    </clipPath>
    <clipPath id="clippath-6">
      <path class="cls-14" d="M424.82,213.72c-18.88,10.57,1.45,34.86,10.32,59.02,7.58,20.65,15.83,46.65,17.09,83.62,11.73,3.67,28.02,6.86,49.06,6.86,15.55,0,31.52-3.51,46.66-8.81,34.48-12.54,56.55-28.28,73.78-41.8.39-.34.79-.68,1.15-1,.03,0,.05.01.08.02,18.24-14.7,33.71-37.68,48.25-30.02-8.53-6.16-29.94-21.7-48.71-35.81-18.4-13.83-35.36-28.69-43.43-28.69-24.88,0-49.64,34.72-79.18,34.72-25.32,0-51.29-39.55-69.54-39.55-1.93,0-3.78.44-5.53,1.42"/>
    </clipPath>
    <linearGradient id="linear-gradient" x1="8504.84" y1="6993.65" x2="8506.14" y2="6993.65" gradientTransform="translate(-1381081.39 -1680011.51) rotate(90) scale(197.55 -197.55)" gradientUnits="userSpaceOnUse">
      <stop offset="0" stop-color="#2d313d"/>
      <stop offset=".09" stop-color="#2d313d"/>
      <stop offset=".13" stop-color="#313540"/>
      <stop offset=".18" stop-color="#3d414c"/>
      <stop offset=".23" stop-color="#52555f"/>
      <stop offset=".27" stop-color="#6f7179"/>
      <stop offset=".32" stop-color="#94969c"/>
      <stop offset=".37" stop-color="#c1c2c6"/>
      <stop offset=".41" stop-color="#f6f6f7"/>
      <stop offset=".42" stop-color="#fff"/>
      <stop offset="1" stop-color="#fff"/>
    </linearGradient>
    <clipPath id="clippath-7">
      <rect class="cls-14" x="280.15" y="216.48" width="172.13" height="231.35"/>
    </clipPath>
    <clipPath id="clippath-8">
      <path class="cls-14" d="M371.98,251.74c-18.84,13.23-38.21,24.77-40.7,32.44-7.69,23.66,17.68,57.94,8.55,86.04-8.33,25.65-59.6,38.14-59.68,57.39v.09c0,.7.07,1.41.22,2.13,4.22,21.22,33.6,9.39,59.32,8.42,21.99-.83,49.26-.64,84.81,9.58,7.11-10.02,15.18-24.53,21.69-44.54,4.33-13.34,6.05-27.88,6.09-42.36v-.89c0-1.29-.02-2.57-.05-3.85-1.28-36.67-9.42-62.52-16.95-83.09-.2-.47-.4-.96-.6-1.4.02-.02.03-.05.04-.07-8.34-21.89-25.42-43.7-13.64-55.16-8.5,6.21-29.89,21.77-49.11,35.26"/>
    </clipPath>
    <linearGradient id="linear-gradient-2" x1="8550.86" y1="7038.76" x2="8552.16" y2="7038.76" gradientTransform="translate(-1689019.02 1390864.68) scale(197.55 -197.55)" gradientUnits="userSpaceOnUse">
      <stop offset="0" stop-color="#4e1f18"/>
      <stop offset=".09" stop-color="#4e1f18"/>
      <stop offset=".13" stop-color="#51231c"/>
      <stop offset=".17" stop-color="#5a2f28"/>
      <stop offset=".22" stop-color="#6b433e"/>
      <stop offset=".26" stop-color="#81605b"/>
      <stop offset=".31" stop-color="#9f8581"/>
      <stop offset=".36" stop-color="#c2b2b0"/>
      <stop offset=".4" stop-color="#ece7e6"/>
      <stop offset=".42" stop-color="#fff"/>
      <stop offset="1" stop-color="#fff"/>
    </linearGradient>
    <clipPath id="clippath-9">
      <rect class="cls-14" x="281.84" y="434.24" width="221.09" height="199.9"/>
    </clipPath>
    <clipPath id="clippath-10">
      <path class="cls-14" d="M281.84,434.24c3.28,10,11.47,35.16,18.36,57.6,6.75,22,11.75,43.99,18.28,48.74,20.13,14.62,60.57,1.08,84.47,18.45,22.65,16.45,17.52,72.51,38.32,74.97,21.48,2.54,19.32-29.05,26.34-53.82,6.01-21.16,14.61-47.04,35.32-77.7h0c-7.33-9.87-18.64-22.03-35.66-34.39-12.58-9.14-27.57-15.69-42.93-20.3-35.27-10.12-62.38-10.36-84.26-9.55-.52.04-1.04.09-1.51.13-.02-.02-.04-.04-.05-.06-23.4,1.17-49.42,10.67-56.68-4.08Z"/>
    </clipPath>
    <linearGradient id="linear-gradient-3" x1="8607.88" y1="7008.85" x2="8609.17" y2="7008.85" gradientTransform="translate(1385015.96 1701164.63) rotate(-90) scale(197.55 -197.55)" gradientUnits="userSpaceOnUse">
      <stop offset="0" stop-color="#183b46"/>
      <stop offset=".09" stop-color="#183b46"/>
      <stop offset=".13" stop-color="#1c3e49"/>
      <stop offset=".17" stop-color="#294953"/>
      <stop offset=".22" stop-color="#3e5b64"/>
      <stop offset=".26" stop-color="#5c747c"/>
      <stop offset=".31" stop-color="#82959b"/>
      <stop offset=".36" stop-color="#b1bdc0"/>
      <stop offset=".4" stop-color="#e7ebec"/>
      <stop offset=".42" stop-color="#fff"/>
      <stop offset="1" stop-color="#fff"/>
    </linearGradient>
    <clipPath id="clippath-11">
      <rect class="cls-14" x="445.91" y="444.78" width="240.87" height="190.28"/>
    </clipPath>
    <clipPath id="clippath-12">
      <path class="cls-14" d="M535.4,468.07c-12.58,9.14-23.44,21.37-32.57,34.56-20.52,30.42-29.13,56.12-35.12,77.18-.12.5-.24,1.01-.34,1.48-.03,0-.05.02-.08.03-6.12,22.61-5.12,50.3-21.39,52.64,10.53-.03,36.98-.04,60.45.34,23.02.38,45.47,2.42,52-2.32,20.12-14.62,19.75-57.27,43.65-74.63,10.96-7.96,28.73-6.87,45.14-5.78,17.51,1.16,33.48,2.32,38-7.49,1.09-2.36,1.6-4.55,1.63-6.59v-.32c-.18-14.79-25.99-22.24-44.67-34.77-18.27-12.25-40.23-28.43-62.98-57.6-11.64,3.93-26.7,10.92-43.73,23.29"/>
    </clipPath>
    <linearGradient id="linear-gradient-4" x1="8597.09" y1="6945.3" x2="8598.39" y2="6945.3" gradientTransform="translate(1699071 -1371526.84) rotate(-180) scale(197.55 -197.55)" gradientUnits="userSpaceOnUse">
      <stop offset="0" stop-color="#413936"/>
      <stop offset=".09" stop-color="#413936"/>
      <stop offset=".13" stop-color="#453d3a"/>
      <stop offset=".18" stop-color="#504946"/>
      <stop offset=".23" stop-color="#645e5b"/>
      <stop offset=".28" stop-color="#807b79"/>
      <stop offset=".33" stop-color="#a4a09f"/>
      <stop offset=".37" stop-color="#cfcdcc"/>
      <stop offset=".42" stop-color="#fff"/>
      <stop offset="1" stop-color="#fff"/>
    </linearGradient>
    <clipPath id="clippath-13">
      <rect class="cls-14" x="547.8" y="280.07" width="172.05" height="259.57"/>
    </clipPath>
    <clipPath id="clippath-14">
      <path class="cls-14" d="M622.05,312.38c-17.3,13.59-39.47,29.47-74.25,42.1.14,12.29,2.14,28.77,8.64,48.78,4.81,14.79,13.08,28.89,22.8,41.66,22.59,28.91,44.37,45.04,62.56,57.25.44.27.89.54,1.3.78,0,.03,0,.05,0,.08,19.62,12.81,46.25,20.41,43.46,36.61,3.23-10.02,11.39-35.18,19-57.39,6.57-19.15,14.23-37.48,14.29-46.85v-.2c0-1.2-.14-2.24-.43-3.12-7.69-23.66-48.36-36.48-57.49-64.57-8.65-26.63,28.45-68.96,13.07-83.18-3.22-2.98-6.48-4.25-9.8-4.25-13.05,0-27.01,19.63-43.14,32.31"/>
    </clipPath>
    <linearGradient id="linear-gradient-5" x1="8533.41" y1="6935.95" x2="8534.71" y2="6935.95" gradientTransform="translate(1686572.29 -1369810.78) rotate(-180) scale(197.55 -197.55)" gradientUnits="userSpaceOnUse">
      <stop offset="0" stop-color="#2d3d36"/>
      <stop offset=".09" stop-color="#2d3d36"/>
      <stop offset=".13" stop-color="#31403a"/>
      <stop offset=".18" stop-color="#3d4c46"/>
      <stop offset=".23" stop-color="#525f5a"/>
      <stop offset=".27" stop-color="#707b76"/>
      <stop offset=".32" stop-color="#969e9a"/>
      <stop offset=".37" stop-color="#c4c9c7"/>
      <stop offset=".42" stop-color="#fafbfa"/>
      <stop offset=".42" stop-color="#fff"/>
      <stop offset="1" stop-color="#fff"/>
    </linearGradient>
  </defs>
  <g class="cls-43">
    <g id="Layer_2" data-name="Layer 2">
      <g>
        <path class="cls-7" d="M340.08,438.24c-.51.04-1.04.09-1.51.13-.02-.02-.04-.04-.05-.06-23.4,1.17-49.42,10.67-56.68-4.08,3.28,10,11.47,35.16,18.36,57.6,6.76,22,11.75,43.99,18.28,48.74,20.13,14.62,60.57,1.08,84.47,18.45,22.65,16.45,17.52,72.51,38.32,74.97,21.48,2.54,19.31-29.05,26.34-53.82,6-21.16,14.61-47.04,35.32-77.7-7.34-9.86-18.64-22.02-35.66-34.39-12.58-9.14-27.57-15.69-42.93-20.3-35.27-10.12-62.37-10.36-84.26-9.55"/>
        <g class="cls-50">
          <polygon class="cls-24" points="339.45 496.87 339.45 519.23 344.86 524.65 347.43 524.65 347.43 491.46 344.86 491.46 339.45 496.87"/>
          <rect class="cls-24" x="348.45" y="630.73" width="15.39" height="33.19"/>
          <polygon class="cls-24" points="339.45 531.69 339.45 554.05 344.86 559.47 347.43 559.47 347.43 526.28 344.86 526.28 339.45 531.69"/>
          <polygon class="cls-24" points="330.07 595.91 330.07 629.1 332.43 629.1 337.85 623.68 337.85 601.32 332.43 595.91 330.07 595.91"/>
          <polygon class="cls-24" points="339.45 427.24 339.45 449.6 344.86 455.01 347.43 455.01 347.43 421.83 344.86 421.83 339.45 427.24"/>
          <rect class="cls-24" x="348.45" y="526.28" width="15.39" height="33.19"/>
          <rect class="cls-24" x="348.45" y="595.91" width="15.39" height="33.19"/>
          <rect class="cls-24" x="348.45" y="491.46" width="15.39" height="33.19"/>
          <rect class="cls-24" x="348.45" y="561.09" width="15.39" height="33.19"/>
          <polygon class="cls-24" points="330.07 561.09 330.07 594.28 332.43 594.28 337.85 588.87 337.85 566.51 332.43 561.09 330.07 561.09"/>
          <polygon class="cls-24" points="339.45 566.51 339.45 588.87 344.86 594.28 347.43 594.28 347.43 561.09 344.86 561.09 339.45 566.51"/>
          <polygon class="cls-24" points="330.07 491.46 330.07 524.65 332.43 524.65 337.85 519.23 337.85 496.87 332.43 491.46 330.07 491.46"/>
          <rect class="cls-24" x="348.45" y="456.64" width="15.39" height="33.19"/>
          <polygon class="cls-24" points="330.07 456.64 330.07 489.83 332.43 489.83 337.85 484.42 337.85 462.06 332.43 456.64 330.07 456.64"/>
          <polygon class="cls-24" points="330.07 526.28 330.07 559.47 332.43 559.47 337.85 554.05 337.85 531.69 332.43 526.28 330.07 526.28"/>
          <polygon class="cls-24" points="330.07 421.83 330.07 455.02 332.43 455.02 337.85 449.6 337.85 427.24 332.43 421.83 330.07 421.83"/>
          <polygon class="cls-24" points="339.45 601.32 339.45 623.68 344.86 629.1 347.43 629.1 347.43 595.91 344.86 595.91 339.45 601.32"/>
          <polygon class="cls-24" points="339.45 636.14 339.45 658.5 344.86 663.91 347.43 663.91 347.43 630.73 344.86 630.73 339.45 636.14"/>
          <polygon class="cls-24" points="339.45 462.06 339.45 484.42 344.86 489.83 347.43 489.83 347.43 456.65 344.86 456.65 339.45 462.06"/>
          <polygon class="cls-24" points="374.23 462.06 374.23 484.42 379.65 489.83 382.21 489.83 382.21 456.65 379.65 456.65 374.23 462.06"/>
          <polygon class="cls-24" points="374.23 427.24 374.23 449.6 379.65 455.01 382.21 455.01 382.21 421.83 379.65 421.83 374.23 427.24"/>
          <polygon class="cls-24" points="374.23 531.69 374.23 554.05 379.65 559.47 382.21 559.47 382.21 526.28 379.65 526.28 374.23 531.69"/>
          <polygon class="cls-24" points="374.23 566.51 374.23 588.87 379.65 594.28 382.21 594.28 382.21 561.09 379.65 561.09 374.23 566.51"/>
          <rect class="cls-24" x="383.23" y="595.91" width="15.39" height="33.19"/>
          <rect class="cls-24" x="383.23" y="630.73" width="15.39" height="33.19"/>
          <rect class="cls-24" x="383.23" y="561.09" width="15.39" height="33.19"/>
          <polygon class="cls-24" points="374.23 601.32 374.23 623.68 379.65 629.1 382.21 629.1 382.21 595.91 379.65 595.91 374.23 601.32"/>
          <polygon class="cls-24" points="364.86 421.83 364.86 455.02 367.22 455.02 372.63 449.6 372.63 427.24 367.22 421.83 364.86 421.83"/>
          <polygon class="cls-24" points="364.86 561.09 364.86 594.28 367.22 594.28 372.63 588.87 372.63 566.51 367.22 561.09 364.86 561.09"/>
          <polygon class="cls-24" points="364.86 595.91 364.86 629.1 367.22 629.1 372.63 623.68 372.63 601.32 367.22 595.91 364.86 595.91"/>
          <polygon class="cls-24" points="364.86 630.73 364.86 663.91 367.22 663.91 372.63 658.5 372.63 636.14 367.22 630.73 364.86 630.73"/>
          <polygon class="cls-24" points="364.86 526.28 364.86 559.47 367.22 559.47 372.63 554.05 372.63 531.69 367.22 526.28 364.86 526.28"/>
          <polygon class="cls-24" points="374.23 636.14 374.23 658.5 379.65 663.91 382.21 663.91 382.21 630.73 379.65 630.73 374.23 636.14"/>
          <polygon class="cls-24" points="364.86 491.46 364.86 524.65 367.22 524.65 372.63 519.23 372.63 496.87 367.22 491.46 364.86 491.46"/>
          <rect class="cls-24" x="348.45" y="421.83" width="15.39" height="33.19"/>
          <polygon class="cls-24" points="364.86 456.64 364.86 489.83 367.22 489.83 372.63 484.42 372.63 462.06 367.22 456.64 364.86 456.64"/>
          <rect class="cls-24" x="383.23" y="526.28" width="15.39" height="33.19"/>
          <rect class="cls-24" x="278.88" y="491.46" width="15.39" height="33.19"/>
          <rect class="cls-24" x="278.88" y="526.28" width="15.39" height="33.19"/>
          <polygon class="cls-24" points="330.07 630.73 330.07 663.91 332.43 663.91 337.85 658.5 337.85 636.14 332.43 630.73 330.07 630.73"/>
          <rect class="cls-24" x="278.88" y="561.09" width="15.39" height="33.19"/>
          <rect class="cls-24" x="278.88" y="421.83" width="15.39" height="33.19"/>
          <polygon class="cls-24" points="295.29 595.91 295.29 629.1 297.65 629.1 303.06 623.68 303.06 601.32 297.65 595.91 295.29 595.91"/>
          <polygon class="cls-24" points="295.29 561.09 295.29 594.28 297.65 594.28 303.06 588.87 303.06 566.51 297.65 561.09 295.29 561.09"/>
          <polygon class="cls-24" points="295.29 630.73 295.29 663.91 297.65 663.91 303.06 658.5 303.06 636.14 297.65 630.73 295.29 630.73"/>
          <rect class="cls-24" x="278.88" y="595.91" width="15.39" height="33.19"/>
          <rect class="cls-24" x="278.88" y="630.73" width="15.39" height="33.19"/>
          <polygon class="cls-24" points="295.29 526.28 295.29 559.47 297.65 559.47 303.06 554.05 303.06 531.69 297.65 526.28 295.29 526.28"/>
          <rect class="cls-24" x="278.88" y="456.64" width="15.39" height="33.19"/>
          <rect class="cls-24" x="313.66" y="526.28" width="15.39" height="33.19"/>
          <rect class="cls-24" x="313.66" y="561.09" width="15.39" height="33.19"/>
          <rect class="cls-24" x="313.66" y="595.91" width="15.39" height="33.19"/>
          <rect class="cls-24" x="313.66" y="630.73" width="15.39" height="33.19"/>
          <rect class="cls-24" x="313.66" y="421.83" width="15.39" height="33.19"/>
          <polygon class="cls-24" points="304.66 427.24 304.66 449.6 310.08 455.01 312.64 455.01 312.64 421.83 310.08 421.83 304.66 427.24"/>
          <polygon class="cls-24" points="295.29 491.46 295.29 524.65 297.65 524.65 303.06 519.23 303.06 496.87 297.65 491.46 295.29 491.46"/>
          <rect class="cls-24" x="313.66" y="491.46" width="15.39" height="33.19"/>
          <rect class="cls-24" x="313.66" y="456.64" width="15.39" height="33.19"/>
          <polygon class="cls-24" points="295.29 421.83 295.29 455.02 297.65 455.02 303.06 449.6 303.06 427.24 297.65 421.83 295.29 421.83"/>
          <polygon class="cls-24" points="304.66 601.32 304.66 623.68 310.08 629.1 312.64 629.1 312.64 595.91 310.08 595.91 304.66 601.32"/>
          <polygon class="cls-24" points="304.66 636.14 304.66 658.5 310.08 663.91 312.64 663.91 312.64 630.73 310.08 630.73 304.66 636.14"/>
          <polygon class="cls-24" points="304.66 462.06 304.66 484.42 310.08 489.83 312.64 489.83 312.64 456.65 310.08 456.65 304.66 462.06"/>
          <polygon class="cls-24" points="295.29 456.64 295.29 489.83 297.65 489.83 303.06 484.42 303.06 462.06 297.65 456.64 295.29 456.64"/>
          <polygon class="cls-24" points="304.66 496.87 304.66 519.23 310.08 524.65 312.64 524.65 312.64 491.46 310.08 491.46 304.66 496.87"/>
          <polygon class="cls-24" points="304.66 566.51 304.66 588.87 310.08 594.28 312.64 594.28 312.64 561.09 310.08 561.09 304.66 566.51"/>
          <polygon class="cls-24" points="304.66 531.69 304.66 554.05 310.08 559.47 312.64 559.47 312.64 526.28 310.08 526.28 304.66 531.69"/>
          <polygon class="cls-24" points="374.23 496.87 374.23 519.23 379.65 524.65 382.21 524.65 382.21 491.46 379.65 491.46 374.23 496.87"/>
          <polygon class="cls-24" points="469.21 526.28 469.21 559.47 471.58 559.47 476.99 554.05 476.99 531.69 471.58 526.28 469.21 526.28"/>
          <polygon class="cls-24" points="469.21 491.46 469.21 524.65 471.58 524.65 476.99 519.23 476.99 496.87 471.58 491.46 469.21 491.46"/>
          <polygon class="cls-24" points="469.21 595.91 469.21 629.1 471.58 629.1 476.99 623.68 476.99 601.32 471.58 595.91 469.21 595.91"/>
          <polygon class="cls-24" points="469.21 456.64 469.21 489.83 471.58 489.83 476.99 484.42 476.99 462.06 471.58 456.64 469.21 456.64"/>
          <polygon class="cls-24" points="478.59 531.69 478.59 554.05 484 559.47 486.57 559.47 486.57 526.28 484 526.28 478.59 531.69"/>
          <polygon class="cls-24" points="478.59 566.51 478.59 588.87 484 594.28 486.57 594.28 486.57 561.09 484 561.09 478.59 566.51"/>
          <polygon class="cls-24" points="469.21 421.83 469.21 455.02 471.58 455.02 476.99 449.6 476.99 427.24 471.58 421.83 469.21 421.83"/>
          <polygon class="cls-24" points="478.59 601.32 478.59 623.68 484 629.1 486.57 629.1 486.57 595.91 484 595.91 478.59 601.32"/>
          <polygon class="cls-24" points="478.59 636.14 478.59 658.5 484 663.91 486.57 663.91 486.57 630.73 484 630.73 478.59 636.14"/>
          <polygon class="cls-24" points="469.21 561.09 469.21 594.28 471.58 594.28 476.99 588.87 476.99 566.51 471.58 561.09 469.21 561.09"/>
          <rect class="cls-24" x="452.81" y="526.28" width="15.39" height="33.19"/>
          <polygon class="cls-24" points="469.21 630.73 469.21 663.91 471.58 663.91 476.99 658.5 476.99 636.14 471.58 630.73 469.21 630.73"/>
          <rect class="cls-24" x="452.81" y="595.91" width="15.39" height="33.19"/>
          <rect class="cls-24" x="452.81" y="630.73" width="15.39" height="33.19"/>
          <rect class="cls-24" x="452.81" y="561.09" width="15.39" height="33.19"/>
          <rect class="cls-24" x="452.81" y="491.46" width="15.39" height="33.19"/>
          <polygon class="cls-24" points="443.8 427.24 443.8 449.6 449.22 455.01 451.78 455.01 451.78 421.83 449.22 421.83 443.8 427.24"/>
          <rect class="cls-24" x="452.81" y="456.64" width="15.39" height="33.19"/>
          <rect class="cls-24" x="452.81" y="421.83" width="15.39" height="33.19"/>
          <polygon class="cls-24" points="504 561.09 504 594.28 506.36 594.28 511.78 588.87 511.78 566.51 506.36 561.09 504 561.09"/>
          <polygon class="cls-24" points="504 595.91 504 629.1 506.36 629.1 511.78 623.68 511.78 601.32 506.36 595.91 504 595.91"/>
          <polygon class="cls-24" points="504 526.28 504 559.47 506.36 559.47 511.78 554.05 511.78 531.69 506.36 526.28 504 526.28"/>
          <rect class="cls-24" x="487.59" y="421.83" width="15.39" height="33.19"/>
          <polygon class="cls-24" points="504 630.73 504 663.91 506.36 663.91 511.78 658.5 511.78 636.14 506.36 630.73 504 630.73"/>
          <polygon class="cls-24" points="506.36 421.83 504 421.83 504 455.02 506.36 455.02 511.78 449.6 511.78 427.24 506.36 421.83"/>
          <polygon class="cls-24" points="504 491.46 504 524.65 506.36 524.65 511.78 519.23 511.78 496.87 506.36 491.46 504 491.46"/>
          <polygon class="cls-24" points="504 456.64 504 489.83 506.36 489.83 511.78 484.42 511.78 462.06 506.36 456.64 504 456.64"/>
          <rect class="cls-24" x="487.59" y="595.91" width="15.39" height="33.19"/>
          <polygon class="cls-24" points="478.59 496.87 478.59 519.23 484 524.65 486.57 524.65 486.57 491.46 484 491.46 478.59 496.87"/>
          <rect class="cls-24" x="487.59" y="456.64" width="15.39" height="33.19"/>
          <polygon class="cls-24" points="478.59 427.24 478.59 449.6 484 455.01 486.57 455.01 486.57 421.83 484 421.83 478.59 427.24"/>
          <polygon class="cls-24" points="478.59 462.06 478.59 484.42 484 489.83 486.57 489.83 486.57 456.65 484 456.65 478.59 462.06"/>
          <rect class="cls-24" x="487.59" y="630.73" width="15.39" height="33.19"/>
          <rect class="cls-24" x="487.59" y="561.09" width="15.39" height="33.19"/>
          <rect class="cls-24" x="487.59" y="491.46" width="15.39" height="33.19"/>
          <rect class="cls-24" x="487.59" y="526.28" width="15.39" height="33.19"/>
          <polygon class="cls-24" points="443.8 601.32 443.8 623.68 449.22 629.1 451.78 629.1 451.78 595.91 449.22 595.91 443.8 601.32"/>
          <polygon class="cls-24" points="409.02 601.32 409.02 623.68 414.43 629.1 417 629.1 417 595.91 414.43 595.91 409.02 601.32"/>
          <polygon class="cls-24" points="409.02 531.69 409.02 554.05 414.43 559.47 417 559.47 417 526.28 414.43 526.28 409.02 531.69"/>
          <rect class="cls-24" x="418.02" y="595.91" width="15.39" height="33.19"/>
          <polygon class="cls-24" points="409.02 636.14 409.02 658.5 414.43 663.91 417 663.91 417 630.73 414.43 630.73 409.02 636.14"/>
          <polygon class="cls-24" points="409.02 462.06 409.02 484.42 414.43 489.83 417 489.83 417 456.65 414.43 456.65 409.02 462.06"/>
          <polygon class="cls-24" points="409.02 427.24 409.02 449.6 414.43 455.01 417 455.01 417 421.83 414.43 421.83 409.02 427.24"/>
          <rect class="cls-24" x="418.02" y="630.73" width="15.39" height="33.19"/>
          <polygon class="cls-24" points="409.02 496.87 409.02 519.23 414.43 524.65 417 524.65 417 491.46 414.43 491.46 409.02 496.87"/>
          <polygon class="cls-24" points="399.64 421.83 399.64 455.02 402 455.02 407.42 449.6 407.42 427.24 402 421.83 399.64 421.83"/>
          <polygon class="cls-24" points="409.02 566.51 409.02 588.87 414.43 594.28 417 594.28 417 561.09 414.43 561.09 409.02 566.51"/>
          <polygon class="cls-24" points="399.64 630.73 399.64 663.91 402 663.91 407.42 658.5 407.42 636.14 402 630.73 399.64 630.73"/>
          <rect class="cls-24" x="383.23" y="421.83" width="15.39" height="33.19"/>
          <polygon class="cls-24" points="399.64 456.64 399.64 489.83 402 489.83 407.42 484.42 407.42 462.06 402 456.64 399.64 456.64"/>
          <polygon class="cls-24" points="399.64 595.91 399.64 629.1 402 629.1 407.42 623.68 407.42 601.32 402 595.91 399.64 595.91"/>
          <rect class="cls-24" x="383.23" y="456.64" width="15.39" height="33.19"/>
          <polygon class="cls-24" points="399.64 491.46 399.64 524.65 402 524.65 407.42 519.23 407.42 496.87 402 491.46 399.64 491.46"/>
          <polygon class="cls-24" points="399.64 561.09 399.64 594.28 402 594.28 407.42 588.87 407.42 566.51 402 561.09 399.64 561.09"/>
          <polygon class="cls-24" points="399.64 526.28 399.64 559.47 402 559.47 407.42 554.05 407.42 531.69 402 526.28 399.64 526.28"/>
          <rect class="cls-24" x="418.02" y="491.46" width="15.39" height="33.19"/>
          <polygon class="cls-24" points="443.8 636.14 443.8 658.5 449.22 663.91 451.78 663.91 451.78 630.73 449.22 630.73 443.8 636.14"/>
          <rect class="cls-24" x="418.02" y="561.09" width="15.39" height="33.19"/>
          <polygon class="cls-24" points="434.43 456.64 434.43 489.83 436.79 489.83 442.2 484.42 442.2 462.06 436.79 456.64 434.43 456.64"/>
          <rect class="cls-24" x="383.23" y="491.46" width="15.39" height="33.19"/>
          <polygon class="cls-24" points="443.8 531.69 443.8 554.05 449.22 559.47 451.78 559.47 451.78 526.28 449.22 526.28 443.8 531.69"/>
          <polygon class="cls-24" points="443.8 496.87 443.8 519.23 449.22 524.65 451.78 524.65 451.78 491.46 449.22 491.46 443.8 496.87"/>
          <polygon class="cls-24" points="434.43 491.46 434.43 524.65 436.79 524.65 442.2 519.23 442.2 496.87 436.79 491.46 434.43 491.46"/>
          <polygon class="cls-24" points="443.8 566.51 443.8 588.87 449.22 594.28 451.78 594.28 451.78 561.09 449.22 561.09 443.8 566.51"/>
          <polygon class="cls-24" points="434.43 421.83 434.43 455.02 436.79 455.02 442.2 449.6 442.2 427.24 436.79 421.83 434.43 421.83"/>
          <polygon class="cls-24" points="443.8 462.06 443.8 484.42 449.22 489.83 451.78 489.83 451.78 456.65 449.22 456.65 443.8 462.06"/>
          <rect class="cls-24" x="418.02" y="456.64" width="15.39" height="33.19"/>
          <rect class="cls-24" x="418.02" y="421.83" width="15.39" height="33.19"/>
          <rect class="cls-24" x="418.02" y="526.28" width="15.39" height="33.19"/>
          <polygon class="cls-24" points="434.43 526.28 434.43 559.47 436.79 559.47 442.2 554.05 442.2 531.69 436.79 526.28 434.43 526.28"/>
          <polygon class="cls-24" points="434.43 561.09 434.43 594.28 436.79 594.28 442.2 588.87 442.2 566.51 436.79 561.09 434.43 561.09"/>
          <polygon class="cls-24" points="434.43 630.73 434.43 663.91 436.79 663.91 442.2 658.5 442.2 636.14 436.79 630.73 434.43 630.73"/>
          <polygon class="cls-24" points="434.43 595.91 434.43 629.1 436.79 629.1 442.2 623.68 442.2 601.32 436.79 595.91 434.43 595.91"/>
        </g>
        <path class="cls-38" d="M467.71,579.81c-.12.5-.24,1.01-.34,1.48-.03,0-.05.02-.08.03-6.12,22.61-5.12,50.3-21.39,52.64,10.52-.02,36.98-.04,60.45.34,23.01.38,45.47,2.43,52-2.32,20.12-14.62,19.75-57.27,43.65-74.63,22.65-16.45,74.37,5.75,83.14-13.28,9.06-19.65-21.66-27.35-43.04-41.68-18.27-12.25-40.23-28.43-62.98-57.61-11.64,3.93-26.7,10.92-43.72,23.29-12.58,9.14-23.44,21.37-32.57,34.55-20.52,30.42-29.13,56.12-35.12,77.18"/>
        <g class="cls-46">
          <path class="cls-30" d="M523.4,607c.76-3.52,7.37-34.51,7.32-38.75-.05-5.14-6.41-13.52-7.2-14.24-.63-.58-1.6-.53-2.17.11-.57.64-.52,1.62.1,2.2,1.01.98,6.02,8.25,6.19,11.84,0,.05,0,.09,0,.14.04,2.93-4.3,24.3-7.24,37.99-.4,1.37-5.06,17.3-6.4,29.4,1.05,0,2.08,0,3.11,0,1.41-12.04,6.2-28.36,6.26-28.57l.03-.12Z"/>
          <path class="cls-5" d="M531.3,599.37c2.32-10.12,5.52-23.96,5.15-29.71-.47-7.39-1.39-15.51-6.47-18.2-4.18-2.21-13.06-1.94-17.83-1.79-.55.02-1.02.03-1.39.04-3.71.07-16.11,4.88-20.51,8.87-.73.66-1.71,1.5-2.85,2.47-5.5,4.7-13.82,11.81-16.79,18.16-1.44,3.07-3.33,5.8-5.17,8.1-.41,2.05-.8,4.05-1.16,6.02,2.74-2.86,6.56-7.32,9.11-12.78,2.68-5.73,11.01-12.85,15.99-17.11,1.15-.99,2.15-1.84,2.91-2.53,3.97-3.6,15.75-8.03,18.51-8.08.38,0,.87-.02,1.43-.04,3.84-.12,12.85-.39,16.31,1.44,3.97,2.1,4.55,11.24,4.83,15.63,0,.05,0,.1,0,.16.26,5.4-2.95,19.37-5.09,28.65-.6,2.59-1.11,4.83-1.48,6.57-1.33,6.24-3.11,19.99-4.16,30.46,1.04,0,2.08,0,3.09,0,1.04-10.31,2.78-23.71,4.08-29.81.37-1.71.88-3.94,1.47-6.52"/>
          <path class="cls-29" d="M481.03,562.57c8.7-5.29,18.88-11.84,18.98-11.91.72-.46.93-1.43.47-2.15-.46-.73-1.41-.94-2.13-.48-.1.07-10.25,6.6-18.92,11.87-3.25,1.98-6.73,5.9-9.95,10.21-.79,2.89-1.5,5.73-2.16,8.52,4.12-6.29,9.26-13.37,13.69-16.06"/>
          <path class="cls-24" d="M497.72,547.12c8.45-1.44,23.07-1.67,23.22-1.67.1,0,13.49.2,15.25,7.56,2.12,8.91,3.43,24.35,2.46,28.98-1.06,5.05-8.63,31.42-8.71,31.69-.24.83.23,1.69,1.05,1.94.82.24,1.67-.24,1.91-1.06.31-1.09,7.67-26.75,8.76-31.91,1.15-5.47-.42-21.75-2.47-30.37-2.32-9.72-17.6-9.94-18.25-9.95-.64,0-15.04.24-23.71,1.71-6.67,1.14-17.58,7.52-22.9,10.82-.61,1.69-1.2,3.37-1.75,5.05.22-.24.4-.45.52-.57,1.72-1.12,16.84-10.88,24.65-12.21"/>
          <path class="cls-16" d="M547.36,578.55c-.04-1.5-.07-3.13-.1-4.84-.18-11.06-.4-24.81-5.58-30.22-5.76-6.02-14.32-8.96-24.09-8.27-9.42.66-23.64,3.88-27.71,5.05-2.05.59-7.1,3.07-12.07,5.74-.65,1.52-1.27,3.04-1.86,4.56,5.63-3.15,12.44-6.63,14.77-7.29,3.98-1.14,17.89-4.29,27.09-4.94,8.98-.63,16.48,1.9,21.67,7.33,4.33,4.52,4.55,18.15,4.71,28.1.03,1.72.05,3.37.1,4.88.24,8.08-3.23,21.2-10.3,39.02-2.35,5.93-4.07,11.9-5.18,18.05,1.07,0,2.12,0,3.14,0,1.08-5.74,2.69-11.33,4.9-16.88,7.23-18.22,10.77-31.77,10.52-40.28"/>
          <path class="cls-34" d="M549.45,604.02c1.09-7.17,2.22-14.59,3.58-19,2.92-9.48-.61-31.45-1.76-37.96-1.82-10.3-9.3-14.14-14.77-16.14-5.55-2.03-22.85-.16-29.05.52-4.98.55-17.32,3.71-26.08,6.59-.61,1.29-1.21,2.58-1.8,3.87,8.67-2.92,23.13-6.8,28.21-7.36,8.96-.98,23.47-2.23,27.67-.69,5.15,1.88,11.26,5.14,12.78,13.75,2.31,13.05,4,29.48,1.85,36.48-1.43,4.63-2.57,12.16-3.68,19.45-.92,6.02-1.78,11.71-2.68,14.87-.95,3.32-2.78,10.34-4.6,17.31,1.12,0,2.18,0,3.18,0,1.74-6.68,3.47-13.28,4.37-16.44.96-3.35,1.84-9.14,2.77-15.26"/>
          <path class="cls-19" d="M542.77,614.78c.23-.83-.25-1.69-1.07-1.92-.82-.23-1.67.25-1.9,1.08-.01.04-1.13,4.08-2.46,7.47-.7,1.8-2.42,8.66-3.71,14.31,1.09,0,2.14,0,3.17,0,1.2-5.21,2.7-11.34,3.41-13.16,1.38-3.54,2.51-7.61,2.56-7.78"/>
          <path class="cls-28" d="M558.21,593.71l.03-.2c.11-1.29,2.59-31.72.87-38.99-1.7-7.17-5.04-21.26-10.79-25.23-5.27-3.64-19-8.73-25-9.01-3.79-.17-12.18,1.47-18.32,2.4-2.86.43-5.33.81-6.15.85-1.2.06-5.65.57-10.69,1.19-.61,1.12-1.21,2.24-1.81,3.37,5.86-.73,11.4-1.38,12.64-1.44.97-.05,3.27-.4,6.45-.88,5.67-.86,14.24-2.52,17.72-2.36,4.97.23,18.24,4.9,23.41,8.47,4.77,3.29,8.05,17.09,9.53,23.38,1.28,5.41-.05,27.09-.94,37.9-.37,1.7-5.22,24.09-6.19,28.55-.51,2.33-2.01,8.15-3.66,14.04,1.19,0,2.26,0,3.2,0,1.6-5.81,3.02-11.33,3.47-13.38,1.01-4.64,6.22-28.65,6.22-28.65"/>
          <path class="cls-24" d="M500.41,531.03c3.44-.79,11.87-1.68,16.4-2.16l1.75-.19c3.35-.36,9.68.12,9.75.13.85.07,1.59-.58,1.65-1.44.06-.86-.57-1.61-1.42-1.68-.27-.02-6.68-.51-10.31-.12l-1.75.19c-4.59.48-13.14,1.39-16.76,2.22-2.25.52-8.82,1.57-14.63,2.5-.59,1.14-1.16,2.29-1.73,3.44.71-.12,1.43-.23,2.16-.34,6.15-.99,12.52-2.01,14.88-2.55"/>
          <path class="cls-24" d="M538.25,521.22c.83.18,1.65-.36,1.83-1.2.18-.84-.35-1.67-1.18-1.85-1.96-.42-19.46-3.03-23.28-2.51-2.5.34-10.29,1.19-23.06,1.42-.63,1.05-1.26,2.1-1.87,3.15,10.22-.17,21.88-1.01,25.34-1.48,2.49-.33,15.03.91,22.23,2.47"/>
          <path class="cls-11" d="M514.47,513.68c6.79-.13,21.31,1.84,25.85,3.85,4.49,1.99,9.83,9.4,13.45,14.81,3.82,5.7,7.14,17.79,7.55,20.25.3,1.79.18,14.14.03,22-.02.86.66,1.58,1.51,1.59.85.02,1.55-.67,1.57-1.53.04-2.03.37-19.94-.07-22.59-.5-2.95-3.97-15.41-8.04-21.48-4.16-6.2-9.59-13.62-14.76-15.91-4.97-2.21-19.98-4.25-27.15-4.11-2.39.05-6.88.07-11.64.09-2.07,0-4.19.02-6.27.03-.67,1.04-1.33,2.09-1.97,3.13,2.75-.02,5.6-.03,8.26-.04,4.77-.02,9.27-.04,11.69-.09"/>
          <path class="cls-11" d="M575.64,607.94c.29-1.16,7.09-28.62,7.37-42.24.27-12.84-7.5-30.1-15.17-39.37-7.63-9.24-18.13-20.66-24.81-22.64-6.12-1.81-26.5-6.86-36.83-6.94-.57.76-1.15,1.51-1.72,2.27-.21.29-.41.58-.62.87.47,0,.93-.02,1.35-.03,9.57-.28,30.73,4.98,36.95,6.82,4.56,1.35,13.06,9.24,23.32,21.65,7.14,8.64,14.69,25.36,14.45,37.3-.27,13.27-6.99,40.39-7.27,41.54l-.09.36c-.85,3.42-2.35,9.44-3.64,16.14,1.96-3.1,3.74-6.59,5.36-10.18.49-2.06.93-3.83,1.27-5.19l.09-.36Z"/>
          <path class="cls-5" d="M586.47,550.98c-3.22-10.98-11.56-23.99-12.5-25.44-2.69-4.15-13.63-17.75-22.3-23.82-7.87-5.52-24.94-9.24-36.23-11.71l-2.28-.5c-.35-.08-.7-.13-1.05-.2-.76.92-1.53,1.84-2.27,2.77.88.13,1.77.29,2.67.48l2.29.5c10.38,2.27,27.75,6.06,35.12,11.22,7.93,5.56,18.65,18.62,21.48,22.97,3.32,5.11,9.61,16.04,12.12,24.61,2.66,9.08,1.88,23.25,1.46,30.86-.03.51-.08,1.13-.14,1.8,1.01-2.66,2.17-5.44,3.53-8.21.29-7.88.24-18.03-1.9-25.34"/>
          <path class="cls-32" d="M570.73,489.94c-9.14-6.52-20.62-14.35-28.32-17.14-2.69-.97-6.83-2.31-11.09-3.65-.9.8-1.78,1.62-2.65,2.44,4.82,1.5,9.69,3.06,12.71,4.16,7.35,2.66,18.6,10.35,27.58,16.75,7.88,5.62,21.11,23.71,24.03,30.63,2.86,6.77,6.88,32.59,6.4,36.49-.04.31-.05.69-.06,1.07,1-.96,2.04-1.88,3.14-2.74-.32-7.65-3.85-29.4-6.65-36.03-3.12-7.39-16.69-25.96-25.09-31.95"/>
          <path class="cls-11" d="M581.03,497.75c.59.62,1.57.63,2.18.02.61-.6.62-1.59.02-2.21-.28-.29-7.01-7.23-14.7-12.6-6.79-4.74-24.17-15.01-32.12-18.17-.32.26-.64.51-.96.78-.61.51-1.18,1.03-1.78,1.54,5.93,1.76,25.23,12.92,33.11,18.42,7.44,5.2,14.18,12.15,14.25,12.22"/>
          <path class="cls-15" d="M585.73,491.15c-6.79-9.61-23.79-22.06-32.95-26.99-2.59-1.39-6.03-2.94-9.71-4.48-.98.7-1.95,1.43-2.92,2.16,4.24,1.75,8.29,3.52,11.18,5.07,9.09,4.89,25.62,17.17,31.89,26.05,6.24,8.84,16.28,34.59,18.26,41.93.79,2.93,2.74,11.21,4.32,20.69.91-.57,1.87-1.09,2.85-1.58-1.58-9.19-3.43-17.07-4.2-19.94-2.09-7.71-12.19-33.66-18.73-42.92"/>
          <path class="cls-19" d="M601.86,514.37c-2.02-4.51-3.92-8.77-4.9-11.52l-.42-1.18c-2.49-7.04-6.65-18.82-15.8-24.87-9.12-6.03-21.16-14.26-21.29-14.35-.7-.48-1.66-.29-2.14.42-.19.29-.28.62-.26.95.02.47.26.93.68,1.22.12.08,12.18,8.33,21.32,14.38,8.28,5.47,12.23,16.64,14.58,23.31l.42,1.19c1.02,2.86,2.95,7.17,5,11.74,2.71,6.07,5.79,12.95,7,17.07,1.24,4.23,3.34,14.74,4.81,22.48.94-.41,1.92-.79,2.92-1.12-1.45-7.67-3.53-17.98-4.78-22.25-1.26-4.33-4.25-11.01-7.14-17.47"/>
          <path class="cls-5" d="M605.61,495.96c-1.2-1.14-3.15-3.74-5.4-6.74-3.74-4.99-8.4-11.2-13.17-15.59-8.25-7.59-21.93-14.96-31.13-16.78-1.72-.34-3.78-.97-6-1.77-1.09.68-2.17,1.39-3.25,2.11,3.17,1.22,6.22,2.23,8.66,2.71,8.59,1.7,21.89,8.9,29.65,16.04,4.56,4.19,9.12,10.27,12.78,15.16,2.43,3.25,4.36,5.81,5.75,7.14,3.2,3.03,16.03,25.03,17.92,37.26.69,4.47.97,11.35,1.02,16.65,1-.08,2.03-.13,3.08-.15-.06-5.38-.35-12.37-1.06-16.98-2.02-13.07-15.39-35.77-18.86-39.06"/>
          <path class="cls-22" d="M611.73,491.41c-.72-1.3-1.4-2.54-2.04-3.7-5.09-9.36-12.26-17.53-23.22-26.52-8.79-7.2-15.76-11.82-21.57-14.3-1.29.61-2.57,1.23-3.84,1.88,5.97,1.92,13.46,6.65,23.47,14.85,10.64,8.72,17.57,16.61,22.46,25.6.63,1.16,1.32,2.41,2.04,3.72,5.45,9.86,12.91,23.36,16.34,36.88,1.68,6.64,2.62,15.61,3.05,22.11,1.01.02,2.05.05,3.09.09-.43-6.74-1.4-16.02-3.16-22.97-3.53-13.92-11.1-27.62-16.64-37.63"/>
          <path class="cls-11" d="M582.83,466.79c2.7,2.42,15.94,17.45,17.75,20.34.45.73,1.4.94,2.12.48.72-.46.93-1.43.48-2.15-1.94-3.11-15.44-18.44-18.31-21.01-3.01-2.7-17.58-9.58-24.76-11.34-1.22-.3-2.71-.83-4.34-1.5-1.12.63-2.24,1.28-3.36,1.94,2.63,1.18,5.08,2.13,6.97,2.59,6.99,1.71,21.01,8.47,23.44,10.65"/>
          <path class="cls-25" d="M613.97,480.91c-.81-.72-1.63-1.43-2.43-2.18-7.84-7.3-15.45-14.76-22.54-23.39-5.45-3.83-11.49-7.32-18.11-10.46-.25-.12-.51-.25-.77-.38-1.22.54-2.43,1.09-3.63,1.66,1.06.55,2.1,1.07,3.09,1.54,17.78,8.42,30.74,18.94,39.64,32.16,11.83,17.58,17.42,31.24,21.37,52.21,1.32,7.02,2.01,14.31,2.42,19.66,1.02.05,2.06.1,3.1.15-.42-5.55-1.11-13.06-2.5-20.4-3.74-19.82-9.17-34.32-19.64-50.58"/>
          <path class="cls-27" d="M585.25,450.66c-1.59-2.04-3.14-4.12-4.66-6.23-1.51-.86-2.95-1.69-4.33-2.49-1.23.48-2.45.96-3.66,1.47,3.43,2.01,7.38,4.25,11.66,6.68.33.18.66.38.99.56"/>
          <path class="cls-11" d="M624.42,489.29c-2-1.52-3.99-3.11-5.98-4.76.3.54.94,2.17,1.25,2.72,7.63,13.79,12.24,30.65,13.87,37.26,1.4,5.71,3.64,18.12,5.43,27.48,1.05.06,2.11.13,3.17.19-1.83-9.56-4.15-22.49-5.62-28.42-1.48-6.01-5.75-21.42-12.12-34.47"/>
          <path class="cls-37" d="M635.05,496.78c-1.46-.97-2.93-1.98-4.41-3.02,2.16,5.43,3.94,12.06,4.94,17.82,2.34,13.45,5.22,29.69,7.54,40.64,1.06.06,2.13.13,3.19.19-2.35-10.96-5.31-27.59-7.7-41.37-.75-4.29-1.94-9.63-3.57-14.27"/>
          <path class="cls-10" d="M642.13,501.45c-1.26-.78-2.53-1.57-3.81-2.39,2.44,8.06,7.26,36.36,8.93,47.45.2,1.33.58,4.26.85,5.95,1.05.06,2.1.12,3.14.17-.3-1.85-.71-4.99-.95-6.59-1.3-8.7-5.43-33.37-8.16-44.59"/>
          <path class="cls-2" d="M658.28,520.02c-.1-1.41-.54-5.07-1.08-9.12-1.1-.6-2.22-1.21-3.35-1.84.63,4.57,1.21,9.18,1.36,11.19.15,2.04,1.52,11.8,3.11,23.1.38,2.69,1.04,7.49,1.42,10.22,1.05.01,2.08,0,3.11-.01-.4-2.87-1.08-7.82-1.48-10.65-1.52-10.78-2.95-20.96-3.09-22.89"/>
          <path class="cls-35" d="M666.03,536.19c.73-6.1.41-13.71-.75-20.97-1.13-.6-2.28-1.21-3.46-1.84,1.44,7.64,1.94,15.92,1.15,22.43-.52,4.33-.1,12.13.48,17.53,1.05-.02,2.08-.07,3.09-.12-.57-5.28-1-12.94-.51-17.03"/>
          <path class="cls-4" d="M672.68,519.18c-.97-.53-1.98-1.07-3.01-1.62-.01.35,0,.71-.04,1.05-.59,7.4-1.16,23.56-.62,34.5,1.05-.09,2.07-.2,3.06-.34-.46-9.39-.16-23.83.6-33.59"/>
          <path class="cls-23" d="M680.85,523.98c-.07-.05-.13-.1-.2-.15-.49-.34-1.01-.67-1.55-1-.4-.24-.84-.49-1.26-.73,1.2,7.53,2.05,18.38,2.51,28.01,1.09-.46,2.1-.99,3.01-1.6-.41-8.11-1.15-17.45-2.08-24.22-.14-.1-.28-.2-.43-.31"/>
          <path class="cls-5" d="M687.39,537.92c-.22-2.75-.44-5.52-.7-8.22-.58-.94-1.29-1.89-2.21-2.8h0c-.35-.34-.72-.67-1.12-1.01,0,0,0,0,0,0-.06-.05-.12-.09-.17-.14.47,3.95.81,8.22,1.15,12.43.2,2.53.41,5.11.64,7.62,1.18-1.11,2.1-2.42,2.74-3.96-.11-1.31-.21-2.61-.32-3.91"/>
          <path class="cls-11" d="M516.58,565.43c-4.03-4.62-7.8-2.59-11.14-.8-.26.14-.53.29-.8.43-3.17,1.67-12.59,11.19-21.38,20.27l-1.2,1.24c-3.57,3.67-6.39,9.2-7.54,14.78-.52,2.53-1.86,6.64-3.03,10.28-1.2,3.7-1.94,6.03-2.11,7.16-.27,1.9-5.36,13.34-7.46,16.82,1.14,0,2.32,0,3.53,0,2.53-4.78,6.67-14.2,6.98-16.37.13-.93,1.08-3.83,1.98-6.64,1.2-3.71,2.56-7.91,3.12-10.61,1.02-4.95,3.6-10.02,6.72-13.23l1.2-1.24c4.31-4.46,17.44-18.02,20.61-19.69.28-.15.55-.29.82-.44,3.53-1.9,5.06-2.56,7.39.11,2.12,2.43-.04,10.24-2.95,16.46-1.13,2.43-5.54,10.81-10.76,17.32-5.4,6.73-10.68,17.23-12.28,21.92-1.27,3.75-.78,8.55-.09,12.45,1.04,0,2.08,0,3.13,0-.68-3.65-1.24-8.19-.14-11.44,1.55-4.57,6.77-14.75,11.75-20.96,5.44-6.78,9.9-15.26,11.16-17.95,2.08-4.45,6.48-15.28,2.48-19.87"/>
          <path class="cls-17" d="M524.65,568.08c-.17-3.63-.61-7.41-3.73-10.21-3.03-2.71-6.45-5.08-11.96-1.75-2.62,1.59-7.99,5.88-13.18,10.02-3.77,3.02-7.34,5.86-8.97,6.95-.64.43-15.66,10.53-17.47,18.79-1.4,6.39-4.04,19.06-4.15,20.16-1.47,8.89-9.77,22.21-11.02,23.54,1.21,0,2.53,0,3.93,0,3.33-4.65,8.71-15.35,10.14-23.05l.02-.12c.01-.13,2.71-13.5,4.1-19.87,1.14-5.19,10.51-13.09,16.15-16.86,1.74-1.16,5.19-3.92,9.18-7.11,4.88-3.9,10.4-8.31,12.86-9.8,3.47-2.1,5.3-1.31,8.34,1.41,2.03,1.82,2.51,4.22,2.7,8.02.14,2.84-1.75,16.22-2.51,21.28-.55,1.89-8.41,28.58-11.92,39.32-.71,2.17-1.18,4.48-1.5,6.84,1.04,0,2.08,0,3.12,0,.29-2.04.7-4.03,1.3-5.86,3.63-11.12,11.89-39.23,11.97-39.51l.05-.21c.11-.75,2.74-18.26,2.56-22.01"/>
          <path class="cls-18" d="M484.6,627.59c.23-.95.46-2.03.71-3.17.83-3.83,1.85-8.59,3.61-11.84,6.03-11.13,6.8-12.12,9.38-15.39.84-1.08,1.87-2.39,3.32-4.35l.86-1.15c2.08-2.77,3.72-4.96,7.26-12.37,1.39-2.9,2.56-6.07.7-7.61-.57-.46-2.3-1.9-7.95,2.54-1.76,1.38-7.37,7-9.84,9.85-2.36,2.73-2.54,3.11-5.55,9.43l-.87,1.83c-.37.79-.05,1.73.72,2.11.77.38,1.71.05,2.08-.73l.87-1.83c2.95-6.2,3-6.31,5.09-8.72,2.33-2.69,7.79-8.16,9.41-9.44,1.91-1.5,3.18-2.13,3.85-2.35-.09.56-.39,1.63-1.3,3.54-3.41,7.12-4.89,9.1-6.94,11.83l-.87,1.17c-1.43,1.93-2.44,3.22-3.27,4.28-2.63,3.35-3.51,4.47-9.67,15.84-1.97,3.64-3.05,8.66-3.92,12.68-.24,1.12-.47,2.17-.69,3.1-.62,2.54-.76,5.95-.7,8.8,1.06,0,2.1,0,3.13,0-.06-2.61.05-5.8.59-8.05"/>
          <path class="cls-12" d="M476.23,632.78l.48-1.26c1.68-4.37,3.77-9.81,4.4-14.31l.27-1.93c.56-3.95,1.04-7.37,1.53-11.95.09-.87-.52-1.65-1.38-1.74-.85-.1-1.63.53-1.72,1.4-.49,4.53-.97,7.92-1.52,11.85l-.27,1.93c-.58,4.14-2.59,9.39-4.21,13.6l-.49,1.27c-.5,1.32-.96,2.69-1.36,3.98,1.11,0,2.19,0,3.27,0,.31-.94.64-1.91.99-2.84"/>
          <path class="cls-5" d="M574.8,552.95c-.24-.94-.44-1.74-.58-2.77-.52-3.98-2.54-8.85-4.32-11.91-1.91-3.28-10.12-10.92-11.05-11.79-.04-.03-.08-.04-.12-.07-1.95-3.32-3.95-6.4-5.68-8.59-6.25-7.93-17.1-10.84-21.08-10.95-1.62-.05-7.47-.53-13.66-1.04-6.31-.52-13.2-1.09-17.7-1.37-.69,1-1.35,2-2.02,3.01,4.22.22,12.52.91,19.47,1.48,6.5.54,12.12,1,13.82,1.05,3.94.11,13.49,3.09,18.76,9.78,5.8,7.35,13.5,23,13.8,25.69l.11.99c2.48,21.42,2.19,27.01,1.8,28.44-.52,1.9-2.55,10.45-4.89,20.35-3.04,12.87-6.83,28.88-7.69,31.71-.38,1.27-1.1,4.52-1.96,8.79.71,0,1.1,0,1.11,0,.71,0,1.4-.08,2.09-.21.76-3.75,1.38-6.58,1.71-7.67.89-2.92,4.52-18.32,7.74-31.9,2.24-9.46,4.35-18.4,4.86-20.24.82-2.97.26-12.67-1.71-29.64l-.11-.98c-.17-1.54-1.67-5.16-3.76-9.39,1.57,1.67,2.91,3.21,3.46,4.16,1.91,3.29,3.52,7.7,3.91,10.72.16,1.22.4,2.15.65,3.15.5,1.95,1.06,4.16,1.06,9.46,0,10.01-1.35,19.77-4.03,28.98-3.18,10.95-3.81,13.48-3.84,13.59-.21.85.3,1.7,1.13,1.92.13.03.26.05.38.05.7,0,1.33-.48,1.51-1.19,0-.02.66-2.62,3.8-13.46,2.76-9.51,4.16-19.56,4.16-29.88,0-5.7-.62-8.12-1.16-10.25"/>
          <path class="cls-34" d="M564.68,629.39c.37-7.54,1.43-14.75,1.45-14.86.13-.86-.46-1.67-1.3-1.8-.87-.14-1.65.46-1.78,1.32-.08.52-1.44,9.74-1.6,18.41,1.12-.88,2.19-1.91,3.23-3.07"/>
          <path class="cls-24" d="M588.09,535.64c-3.35-7.56-13.92-23.65-17.32-26.9l-.67-.65c-3.56-3.45-11.9-11.52-22.85-16.12-11.48-4.81-27.03-7.13-27.68-7.23-.88-.13-1.65.47-1.77,1.34-.12.86.47,1.67,1.32,1.79.16.02,15.83,2.36,26.94,7.02,10.41,4.37,18.46,12.16,21.89,15.48l.68.66c2.8,2.69,13.32,18.46,16.62,25.9,2.78,6.27,4.92,23.79,5.94,32.21.07.58.13,1.11.2,1.62.82-1.35,1.71-2.68,2.65-3.98-1.17-9.53-3.18-24.89-5.95-31.15"/>
          <path class="cls-18" d="M619.44,552.86c-.1-8.04-2.08-22.11-4.22-28.09-1.67-4.66-6.08-11.48-9.62-16.95-1.93-2.97-3.74-5.78-4.19-6.88-.33-.81-1.24-1.19-2.03-.85-.8.33-1.17,1.26-.84,2.06.56,1.37,2.28,4.03,4.46,7.4,3.27,5.06,7.75,11.98,9.3,16.3,2.09,5.84,4.04,20.06,4.04,27.63.06-.01.12-.04.18-.05.95-.23,1.93-.41,2.93-.57"/>
          <path class="cls-20" d="M654.22,533.82c-.81-5.73-1.09-7.65-2.17-12.56-1.15-5.22-2.64-11.41-3.58-15.27-1.24-.72-2.5-1.46-3.76-2.22.62,2.5,2.76,11.21,4.3,18.18,1.06,4.79,1.33,6.68,2.13,12.32.5,3.55,1.51,10.44,2.79,18.81,1.06.04,2.12.08,3.17.1-1.33-8.68-2.37-15.74-2.88-19.36"/>
          <path class="cls-1" d="M595.29,541.45c-2.14-12.39-11.75-32.33-22.11-41.12-9.81-8.32-33.22-23.29-42.45-25.34-1.23-.27-2.76-.67-4.45-1.14-.86.83-1.68,1.68-2.52,2.53,2.43.7,4.61,1.28,6.3,1.66,2.81.62,7.41,2.75,12.62,5.61-1.63-.21-3.3-.4-4.84-.5-3.04-.21-10.16-3.15-15.44-5.39-.78.81-1.54,1.63-2.3,2.45,6.16,2.62,13.75,5.83,17.53,6.09,4.75.33,11.1,1.47,12.64,1.76,7.82,4.78,15.84,10.35,20.92,14.66,9.85,8.36,19.01,27.4,21.06,39.26,1.47,8.5,2.71,17.03,2.55,23.78.95-1.24,1.96-2.43,3.04-3.58-.22-5.84-1.17-12.75-2.55-20.74"/>
          <path class="cls-39" d="M674.76,552.21c.08-.02.17-.03.26-.04h0c.97-.21,1.89-.45,2.78-.73-.05-.83-.08-3.4-.09-4-.04-5.08-.68-18.21-.7-18.76-.04-.86-.76-1.53-1.61-1.48-.85.04-1.51.77-1.46,1.63,0,.14.65,13.62.7,18.63,0,.81.05,3.62.13,4.75"/>
          <path class="cls-19" d="M499.72,635.66c.09-4.84,1.28-12.38,2.49-16.21.84-2.64,2.91-5.5,4.73-8.02,1.14-1.58,2.22-3.06,2.95-4.41.92-1.71,5.48-13.84,6-15.22.31-.82-.1-1.73-.9-2.04-.81-.31-1.71.1-2.01.91-2,5.33-5.21,13.68-5.83,14.83-.63,1.16-1.64,2.57-2.72,4.06-1.97,2.71-4.2,5.79-5.19,8.92-1.19,3.75-2.54,11.74-2.64,17.17,1.06,0,2.09,0,3.11,0"/>
        </g>
        <path class="cls-9" d="M435.28,273.11c-.2-.47-.4-.96-.59-1.4.02-.02.02-.05.04-.07-8.34-21.89-25.42-43.7-13.64-55.16-8.5,6.21-29.89,21.77-49.11,35.26-18.84,13.23-38.21,24.77-40.7,32.44-7.69,23.66,17.68,57.94,8.55,86.04-8.65,26.63-63.55,39.07-59.46,59.61,4.22,21.22,33.6,9.39,59.32,8.42,21.98-.83,49.25-.64,84.81,9.58,7.11-10.02,15.18-24.53,21.69-44.54,4.8-14.79,6.4-31.06,6.04-47.1-1.28-36.67-9.42-62.52-16.96-83.08"/>
        <g class="cls-41">
          <path class="cls-11" d="M408.74,303.49c-.16-.26-.32-.54-.49-.8,1.45.35,2.97.54,4.53.53,10.36-.06,18.73-8.53,18.68-18.89,0-1.56-.21-3.07-.58-4.52.28.18.58.34.86.51.12.08.25.15.37.22.28.16.55.32.83.47.45.25.91.49,1.37.73.1.05.19.1.3.14.22.11.43.22.64.32.07.69.11,1.39.11,2.1.07,12.51-10.05,22.74-22.56,22.81-.71,0-1.41-.03-2.11-.09-.11-.22-.23-.45-.35-.67-.03-.08-.07-.15-.11-.23-.25-.48-.5-.94-.77-1.41-.14-.25-.29-.5-.44-.75-.1-.16-.19-.32-.29-.47M371.85,353.21h0c-.08,0-.17,0-.25.01-14.93.08-27.14-11.99-27.23-26.93,0-.08,0-.17,0-.25h0c-1.27.45-2.56.85-3.88,1.18.57,16.36,13.86,29.5,30.22,29.88.32-1.32.71-2.62,1.14-3.9M377.81,365.82c.79-18.11,15.27-32.76,33.38-33.76-.12-.84-.22-1.69-.29-2.55-.04-.45-.09-.89-.11-1.34-19.95,1.19-35.91,17.32-36.87,37.29.5.02,1,.06,1.5.1.8.07,1.6.15,2.39.25M374,348.06c.05-.09.09-.18.13-.28.24-.47.48-.93.74-1.38.15-.27.31-.54.46-.81.08-.13.16-.27.24-.4.17-.28.34-.56.51-.84h0c-1.45.37-2.96.57-4.52.58-10.36.06-18.83-8.32-18.89-18.68,0-1.56.18-3.07.53-4.52h0c-.26.16-.52.32-.79.48-.17.1-.33.21-.5.3-.24.15-.49.29-.73.44-.47.26-.95.52-1.43.77-.07.03-.14.07-.21.1-.23.12-.46.24-.69.35-.06.69-.1,1.4-.09,2.11.07,12.51,10.31,22.63,22.82,22.56.71,0,1.41-.04,2.1-.11.1-.22.21-.44.32-.65M412.83,311.52c-.08,0-.17,0-.25,0,.45,1.27.85,2.57,1.18,3.88,16.36-.57,29.5-13.86,29.88-30.22-1.32-.32-2.62-.7-3.9-1.14,0,.08,0,.17,0,.25.09,14.93-11.99,27.14-26.92,27.23M315.34,284.99c-.04-7.93,6.37-14.43,14.31-14.47,7.93-.05,14.43,6.38,14.47,14.31.05,7.94-6.38,14.43-14.31,14.48-7.94.04-14.43-6.38-14.47-14.31M319.25,284.97c.03,5.78,4.77,10.46,10.55,10.43,5.78-.03,10.46-4.77,10.43-10.55-.03-5.78-4.76-10.46-10.55-10.43-5.78.03-10.46,4.76-10.43,10.55M412.76,298.83c-7.93.04-14.43-6.38-14.47-14.31-.05-7.94,6.38-14.43,14.31-14.48,7.93-.05,14.43,6.38,14.47,14.31.05,7.94-6.38,14.43-14.31,14.48M423.16,284.38c-.03-5.78-4.76-10.46-10.55-10.43-5.78.03-10.46,4.76-10.43,10.55.03,5.78,4.76,10.46,10.55,10.43,5.78-.03,10.46-4.77,10.43-10.55M373.26,288.27c-.07.85-.15,1.7-.27,2.54h0c18.11.79,32.76,15.27,33.75,33.38t0,0c.89-.13,1.79-.23,2.7-.31.4-.03.79-.07,1.19-.1-1.19-19.95-17.33-35.91-37.29-36.87-.02.45-.06.9-.09,1.35M369.06,282.43c.02-.45.06-.89.09-1.33.07-.86.15-1.71.27-2.56h0c-18.11-.79-32.76-15.28-33.76-33.38h0c-.79.11-1.59.2-2.39.28-.5.05-1,.1-1.5.12,1.19,19.96,17.32,35.91,37.29,36.87M329.84,303.69c-1.56.01-3.07-.18-4.53-.52.17.26.33.53.49.8.09.16.19.32.29.47.15.25.3.5.44.75.26.47.52.94.77,1.41.04.07.08.15.11.23.12.22.23.45.34.67.69.06,1.4.1,2.11.09,12.51-.07,22.63-10.31,22.56-22.81,0-.71-.04-1.41-.11-2.1-.21-.1-.43-.21-.64-.32-.1-.05-.2-.1-.3-.15-.46-.24-.92-.48-1.37-.73-.28-.15-.55-.31-.83-.47-.13-.07-.25-.15-.38-.22-.29-.17-.58-.33-.86-.51.37,1.45.58,2.96.58,4.52.06,10.36-8.32,18.83-18.68,18.89M357.05,326.22c-.04-7.94,6.38-14.43,14.31-14.47,7.94-.05,14.43,6.37,14.48,14.31.05,7.94-6.38,14.43-14.31,14.47-7.94.05-14.43-6.38-14.48-14.31M360.95,326.2c.03,5.78,4.77,10.46,10.55,10.43,5.78-.03,10.46-4.77,10.43-10.55-.03-5.78-4.76-10.46-10.55-10.43-5.78.03-10.46,4.76-10.43,10.55M329.89,311.98c-.08,0-.17,0-.25,0,.45,1.27.85,2.56,1.18,3.88,16.36-.57,29.5-13.86,29.88-30.22-1.32-.32-2.62-.7-3.9-1.14,0,.08,0,.17,0,.25.08,14.93-11.99,27.14-26.93,27.23M371.03,299.07h0c.09,0,.17,0,.25,0,14.93-.08,27.15,12,27.23,26.93,0,.09,0,.17,0,.25h0c1.27-.45,2.56-.85,3.88-1.18-.57-16.36-13.86-29.5-30.22-29.88-.32,1.33-.7,2.62-1.14,3.9M368.88,304.24c-.04.08-.08.16-.12.24-.24.48-.49.95-.75,1.42-.14.26-.28.5-.43.75-.09.17-.19.33-.29.49-.16.27-.32.53-.48.8h0c1.45-.37,2.96-.57,4.52-.58,10.36-.06,18.83,8.32,18.89,18.68,0,1.56-.18,3.07-.53,4.52h0c.28-.17.57-.35.86-.52.12-.08.25-.15.37-.22.27-.17.55-.33.82-.48.45-.26.91-.5,1.36-.75.1-.05.2-.1.29-.15.21-.11.43-.22.64-.32.06-.7.09-1.39.09-2.1-.07-12.51-10.31-22.63-22.82-22.56-.71,0-1.41.05-2.1.12-.11.22-.22.45-.33.67M365.07,286.47c-.79,18.11-15.27,32.76-33.38,33.76.12.83.22,1.68.29,2.53.04.45.09.9.11,1.36,19.95-1.19,35.91-17.33,36.87-37.29-.4-.02-.79-.05-1.19-.08-.91-.06-1.82-.15-2.71-.27M410.32,245.24c-19.95,1.19-35.9,17.32-36.87,37.29.51.02,1,.06,1.5.1.8.07,1.6.15,2.39.25.79-18.11,15.28-32.76,33.38-33.76-.12-.84-.22-1.69-.29-2.55-.04-.44-.08-.89-.11-1.33M412.55,261.75c-12.51.07-22.63,10.31-22.56,22.81,0,.71.04,1.41.11,2.1.23.11.46.22.69.34.08.04.15.08.22.11.48.24.96.5,1.43.76.24.13.49.28.73.42.17.1.35.2.52.3.26.15.53.31.78.47-.37-1.45-.57-2.96-.58-4.52-.06-10.36,8.32-18.83,18.67-18.89,1.56,0,3.07.17,4.53.53-.18-.28-.34-.56-.51-.84-.08-.13-.16-.26-.24-.4-.16-.27-.32-.54-.47-.81-.26-.45-.51-.91-.75-1.37-.04-.09-.09-.19-.14-.27-.11-.22-.22-.43-.33-.65-.69-.06-1.39-.09-2.1-.09M381.71,283.71c1.32.32,2.62.7,3.9,1.14,0-.08,0-.17,0-.26-.08-14.93,11.99-27.15,26.92-27.23.08,0,.17,0,.25,0-.45-1.26-.85-2.57-1.18-3.88-16.36.57-29.5,13.86-29.88,30.22M414.17,236.81c.12.84.22,1.68.29,2.53.04.45.08.9.11,1.36,19.95-1.19,35.91-17.33,36.87-37.29-.4-.02-.79-.05-1.19-.08-.91-.07-1.82-.15-2.71-.28-.79,18.11-15.28,32.76-33.38,33.76M406.28,241.25s0,0,0,0c.89-.13,1.79-.23,2.7-.31.4-.03.79-.07,1.19-.09-1.19-19.95-17.33-35.91-37.29-36.87-.02.45-.06.9-.1,1.35-.07.85-.15,1.7-.26,2.54h0c18.11.79,32.76,15.28,33.75,33.38M398.75,367.46c-.05-7.94,6.38-14.43,14.31-14.48,7.94-.04,14.43,6.38,14.48,14.31.04,7.93-6.38,14.43-14.31,14.47-7.94.05-14.43-6.38-14.48-14.31M402.66,367.44c.03,5.78,4.76,10.46,10.55,10.43,5.78-.03,10.46-4.76,10.43-10.55-.03-5.78-4.77-10.46-10.55-10.43-5.78.03-10.46,4.77-10.43,10.55M337.62,336.51c-.82-2.68-2.65-5.5-2.81-8.42-.79.12-.27.2-1.07.28-.5.05-1,.09-1.5.12,1.19,19.95,17.32,35.91,37.29,36.87.02-.45.06-.89.09-1.33.06-.86.15-1.72.27-2.56h0c-15.2-.66-27.96-10.97-32.26-24.97M330.12,353.45c7.94-.04,14.43,6.38,14.48,14.31.05,7.94-6.38,14.43-14.31,14.48-7.94.05-14.43-6.38-14.48-14.31-.04-7.94,6.38-14.43,14.31-14.48M319.72,367.91c.03,5.78,4.76,10.46,10.55,10.43,5.78-.03,10.46-4.76,10.43-10.55-.03-5.78-4.76-10.46-10.55-10.43-5.78.03-10.46,4.77-10.43,10.55M409.92,406.82c.4-.03.79-.07,1.19-.09-1.19-19.95-17.33-35.91-37.29-36.87-.02.45-.06.9-.1,1.35-.07.85-.15,1.7-.26,2.54h0c18.11.79,32.76,15.28,33.76,33.38h0c.89-.13,1.79-.23,2.7-.31M454.3,311.28c7.93-.05,14.43,6.37,14.47,14.31.05,7.94-6.38,14.43-14.31,14.47-7.94.05-14.43-6.38-14.48-14.31-.04-7.94,6.38-14.43,14.31-14.48M454.32,315.19c-5.78.03-10.46,4.76-10.43,10.55.03,5.78,4.76,10.46,10.55,10.43,5.78-.03,10.46-4.77,10.43-10.55-.03-5.78-4.76-10.46-10.55-10.43M436.13,321.24c-.26.17-.52.33-.79.49-.17.1-.33.21-.5.3-.25.15-.49.29-.74.43-.47.27-.95.52-1.43.78-.07.04-.14.07-.21.1-.23.12-.46.24-.69.35-.06.69-.1,1.4-.09,2.1.07,12.51,10.31,22.63,22.82,22.56.71,0,1.41-.04,2.1-.11.1-.22.21-.43.32-.65.05-.09.09-.18.13-.27.24-.47.48-.93.74-1.39.15-.27.31-.54.46-.81.08-.14.16-.27.24-.4.17-.28.34-.56.52-.84h-.01c-1.45.37-2.96.57-4.52.58-10.36.06-18.83-8.32-18.89-18.68,0-1.56.18-3.07.53-4.52h0ZM416.21,244.97c-.5.05-1,.09-1.5.12,1.19,19.95,17.32,35.91,37.29,36.87.02-.45.06-.89.09-1.33.07-.86.15-1.71.27-2.56h0c-18.11-.79-32.76-15.27-33.76-33.38h0c-.79.11-1.59.2-2.39.28M374.6,430.73c.24-.47.48-.93.74-1.38.15-.27.31-.54.46-.81.08-.14.16-.27.24-.4.17-.28.34-.57.51-.84h0c-1.45.37-2.96.57-4.52.58-10.36.06-18.83-8.32-18.89-18.68,0-1.56.18-3.07.53-4.53h0c-.26.16-.52.32-.79.48-.17.1-.33.2-.5.3-.24.15-.49.29-.73.43-.47.27-.95.53-1.43.78-.07.04-.14.07-.21.1-.23.12-.46.24-.69.35-.06.7-.09,1.4-.09,2.11.07,12.51,10.31,22.63,22.82,22.56.71,0,1.41-.05,2.1-.12.1-.22.21-.43.32-.65.05-.09.09-.18.13-.28M372.06,436.16c-14.93.09-27.15-11.99-27.23-26.92,0-.08,0-.17,0-.25h0c-1.27.45-2.56.84-3.88,1.18.57,16.36,13.86,29.5,30.22,29.88.32-1.32.7-2.62,1.14-3.89h0c-.09,0-.17,0-.25,0M390.16,413.51c.28-.18.57-.36.85-.53.12-.08.25-.15.37-.23.27-.16.55-.33.82-.48.45-.26.9-.5,1.36-.74.1-.05.2-.1.29-.15.21-.11.42-.22.64-.33.06-.69.09-1.39.09-2.1-.07-12.51-10.31-22.63-22.81-22.56-.71,0-1.41.04-2.11.11-.11.23-.22.45-.33.67-.04.08-.08.16-.12.24-.24.48-.49.95-.75,1.42-.14.25-.29.5-.43.75-.09.16-.19.33-.29.49l-.48.8s0,0,0,0c1.45-.37,2.96-.57,4.52-.58,10.36-.06,18.83,8.32,18.89,18.67,0,1.56-.18,3.07-.53,4.53,0,0,0,0,0,0M398.98,409.19c1.27-.45,2.56-.85,3.88-1.19-.57-16.36-13.86-29.5-30.22-29.88-.32,1.32-.7,2.62-1.14,3.89h0c.09,0,.17,0,.25,0,14.93-.08,27.15,11.99,27.23,26.92,0,.08,0,.17,0,.25h0ZM288.82,382.48c14.93-.08,27.15,11.99,27.23,26.92,0,.08,0,.17,0,.25h0c1.27-.45,2.56-.85,3.88-1.18-.57-16.36-13.86-29.5-30.22-29.88-.32,1.32-.7,2.62-1.14,3.89h0c.08,0,.17,0,.25,0M357.51,409.16c-.05-7.93,6.38-14.43,14.31-14.47,7.93-.05,14.43,6.38,14.47,14.31.04,7.94-6.38,14.43-14.31,14.48-7.94.04-14.43-6.38-14.48-14.31M361.42,409.14c.03,5.78,4.76,10.46,10.55,10.43,5.78-.03,10.46-4.76,10.43-10.55-.03-5.78-4.77-10.46-10.55-10.43-5.78.03-10.46,4.76-10.43,10.55M440.45,408.7c-.04-7.93,6.38-14.43,14.31-14.47,7.93-.05,14.43,6.38,14.47,14.31.05,7.94-6.38,14.43-14.31,14.47-7.94.05-14.43-6.37-14.48-14.31M444.36,408.67c.03,5.78,4.77,10.46,10.55,10.43,5.78-.03,10.46-4.76,10.43-10.55-.03-5.78-4.76-10.46-10.55-10.43-5.78.03-10.46,4.76-10.43,10.55M288.86,390.77c10.36-.06,18.83,8.32,18.89,18.67,0,1.56-.18,3.07-.53,4.53,0,0,0,0,0,0,.28-.18.57-.36.86-.53.12-.08.25-.15.37-.23.27-.16.55-.33.82-.48.45-.26.9-.51,1.36-.74.09-.05.19-.1.29-.15.21-.11.42-.22.64-.33.06-.69.1-1.39.09-2.1-.07-12.51-10.31-22.63-22.82-22.56-.71,0-1.41.04-2.1.11-.11.23-.22.45-.33.68-.04.08-.08.16-.12.24-.24.48-.49.95-.75,1.42-.14.25-.28.5-.43.75-.1.16-.19.33-.29.49-.16.27-.32.54-.49.8,0,0,0,0,0,0,1.45-.37,2.96-.57,4.52-.58M324.28,407.59h0c.89-.12,1.79-.22,2.7-.3.4-.03.79-.08,1.19-.1-1.19-19.95-17.32-35.91-37.29-36.87-.02.45-.06.9-.1,1.35-.07.85-.15,1.7-.27,2.53h0c18.11.79,32.76,15.28,33.76,33.38M457.54,430.26c.24-.47.48-.93.74-1.39.15-.28.31-.54.46-.81.08-.14.16-.27.24-.4.17-.28.34-.57.52-.84h-.01c-1.45.37-2.96.57-4.52.58-10.36.06-18.83-8.32-18.89-18.68,0-1.56.18-3.07.53-4.52h0c-.26.16-.52.31-.79.48-.17.1-.33.21-.5.3-.25.15-.49.29-.74.43-.47.27-.95.53-1.43.78-.07.04-.14.07-.21.1-.23.12-.46.24-.69.35-.06.7-.1,1.4-.09,2.1.07,12.51,10.31,22.63,22.82,22.56.71,0,1.41-.05,2.1-.12.1-.22.21-.43.32-.65.05-.09.09-.18.13-.27M289.12,436.63c-14.93.09-27.14-11.99-27.23-26.92,0-.08,0-.17,0-.25h0c-1.27.45-2.56.84-3.88,1.18.57,16.36,13.86,29.5,30.22,29.88.32-1.32.71-2.62,1.15-3.89h0c-.08,0-.17,0-.25,0M455,435.69c-14.93.08-27.14-11.99-27.23-26.92,0-.08,0-.17,0-.25h0c-1.27.45-2.56.84-3.88,1.18.57,16.36,13.86,29.5,30.22,29.88.32-1.32.7-2.62,1.14-3.89h0c-.09,0-.17,0-.26,0M370.86,224.42c10.36-.06,18.83,8.32,18.89,18.68,0,1.56-.18,3.07-.53,4.52h0c.28-.17.57-.35.86-.52.12-.08.25-.15.37-.23.27-.16.55-.32.83-.48.45-.26.9-.5,1.36-.74.09-.05.19-.1.29-.15.22-.11.43-.22.64-.32.06-.7.1-1.39.09-2.1-.07-12.51-10.31-22.63-22.82-22.56-.71,0-1.41.05-2.1.12-.11.22-.22.45-.33.67-.04.08-.08.16-.12.24-.24.48-.49.95-.75,1.41-.14.26-.28.5-.43.75-.09.17-.19.33-.29.5-.16.27-.32.54-.48.8h0c1.45-.37,2.96-.57,4.52-.58M356.58,243.29c-.04-7.94,6.38-14.43,14.31-14.48,7.93-.05,14.43,6.38,14.47,14.31.05,7.93-6.38,14.43-14.31,14.47-7.94.05-14.43-6.38-14.48-14.31M360.48,243.26c.03,5.78,4.77,10.46,10.55,10.43,5.78-.03,10.46-4.76,10.43-10.55-.03-5.78-4.76-10.46-10.55-10.43-5.78.03-10.46,4.76-10.43,10.55M291.66,431.2c.24-.47.49-.93.74-1.38.15-.27.31-.54.46-.81.08-.14.16-.27.23-.4.17-.28.34-.57.52-.85h-.01c-1.45.37-2.96.57-4.52.58-10.36.06-18.83-8.32-18.89-18.68,0-1.56.18-3.07.53-4.52h0c-.26.16-.52.32-.79.48-.16.1-.33.2-.5.3-.25.15-.49.29-.74.44-.47.26-.94.52-1.43.77-.07.04-.14.07-.21.1-.23.12-.46.24-.69.35-.06.7-.09,1.4-.09,2.1.07,12.51,10.31,22.63,22.82,22.56.71,0,1.41-.05,2.1-.11.1-.22.21-.44.32-.65.05-.09.09-.18.13-.28M451.9,286.35c-.4-.02-.79-.05-1.19-.08-.91-.06-1.81-.15-2.71-.27-.79,18.11-15.27,32.76-33.38,33.76.12.84.22,1.68.29,2.53.04.45.09.9.11,1.36,19.96-1.19,35.91-17.33,36.87-37.29M413.04,348.6c1.56,0,3.07.18,4.53.52-.18-.27-.34-.56-.52-.84-.08-.13-.16-.26-.24-.4-.16-.26-.32-.53-.47-.8-.26-.45-.51-.91-.75-1.38-.05-.09-.09-.18-.14-.27-.11-.22-.22-.43-.33-.65-.69-.06-1.4-.1-2.11-.09-12.51.07-22.63,10.31-22.56,22.82,0,.71.04,1.41.11,2.1.23.11.46.22.68.34.07.03.15.07.22.11.48.24.96.5,1.43.76.25.14.49.28.73.42.17.1.34.21.52.31.26.15.52.3.78.46-.37-1.44-.57-2.96-.58-4.52-.06-10.36,8.32-18.83,18.68-18.89M371.1,265.89c.71,0,1.41-.04,2.11-.11.1-.22.21-.44.32-.65.04-.09.09-.19.14-.28.23-.47.48-.93.73-1.39.15-.27.31-.54.46-.81.08-.13.16-.27.23-.4.17-.29.34-.57.51-.85,0,0,0,0,0,0-1.45.37-2.96.57-4.52.58-10.36.06-18.83-8.32-18.89-18.67,0-1.56.18-3.07.53-4.53t0,0c-.26.16-.52.33-.79.49-.17.1-.33.2-.5.3-.24.14-.49.29-.74.43-.47.27-.94.53-1.42.78-.07.04-.14.07-.21.11-.23.12-.46.24-.69.35-.06.69-.09,1.39-.09,2.11.07,12.51,10.31,22.63,22.81,22.56M454.79,352.74h0c-.09,0-.17,0-.25,0-14.93.09-27.15-11.99-27.23-26.92,0-.09,0-.17,0-.25h0c-1.27.45-2.56.84-3.88,1.18.57,16.36,13.86,29.5,30.22,29.88.32-1.33.7-2.62,1.14-3.9M426.83,242.89c0-.08,0-.17,0-.25h0c-1.27.45-2.56.84-3.88,1.18.57,16.36,13.86,29.5,30.22,29.88.32-1.32.7-2.62,1.14-3.89h0c-.09,0-.17,0-.25,0-14.93.09-27.15-11.99-27.23-26.92M370.82,216.13c14.93-.08,27.15,11.99,27.23,26.93,0,.08,0,.17,0,.25h0c1.27-.45,2.56-.85,3.88-1.19-.57-16.36-13.86-29.5-30.22-29.88-.32,1.32-.7,2.62-1.14,3.89h0c.09,0,.17,0,.25,0M370.24,274.17c.32-1.32.7-2.62,1.14-3.89h0c-.09,0-.17,0-.26,0-14.93.09-27.14-11.99-27.23-26.92,0-.08,0-.17,0-.25h0c-1.27.45-2.56.85-3.88,1.18.57,16.36,13.86,29.5,30.22,29.88M274.57,409.63c-.05-7.94,6.38-14.43,14.31-14.48,7.94-.04,14.43,6.38,14.47,14.31.04,7.94-6.37,14.43-14.31,14.47-7.93.05-14.43-6.37-14.47-14.31M278.48,409.61c.03,5.78,4.76,10.46,10.55,10.43,5.78-.03,10.46-4.76,10.43-10.55-.03-5.78-4.76-10.46-10.55-10.43-5.78.03-10.46,4.76-10.43,10.55M412.99,340.3c.08,0,.17,0,.25,0-.45-1.27-.85-2.56-1.18-3.88-16.36.57-29.5,13.86-29.88,30.22,1.32.32,2.62.7,3.9,1.14,0-.08-.01-.17-.01-.25-.08-14.93,11.99-27.14,26.92-27.23M330.59,436.39c-7.93.05-14.36,6.54-14.31,14.48l3.91-.02c-.03-5.78,4.65-10.51,10.43-10.55,5.78-.03,10.52,4.65,10.55,10.43l3.91-.02c-.04-7.94-6.54-14.36-14.47-14.31M330.57,432.01c1.56,0,3.07.18,4.52.53-.18-.27-.34-.56-.52-.84-.08-.13-.16-.26-.24-.4-.16-.26-.32-.53-.47-.8-.26-.45-.51-.91-.75-1.38-.05-.09-.09-.18-.14-.27-.11-.22-.22-.43-.33-.65-.69-.06-1.39-.1-2.11-.09-12.51.07-22.63,10.31-22.56,22.82h0s3.91-.02,3.91-.02h0c-.06-10.36,8.32-18.83,18.68-18.89M330.52,423.71c.08,0,.17,0,.25,0-.45-1.27-.85-2.56-1.18-3.88-16.36.57-29.5,13.86-29.88,30.22,1.06.26,2.11.56,3.15.89h.74c-.09-14.93,11.99-27.15,26.92-27.23M413.46,423.24c.08,0,.17,0,.25,0-.45-1.27-.85-2.56-1.18-3.88-16.36.57-29.5,13.86-29.88,30.22,1.06.26,2.11.56,3.14.89h.74c-.09-14.93,11.99-27.15,26.92-27.23M413.53,435.93c-7.94.04-14.36,6.54-14.31,14.47l3.91-.02c-.03-5.78,4.65-10.52,10.43-10.55,5.78-.03,10.51,4.65,10.55,10.43l3.91-.02c-.05-7.94-6.54-14.36-14.47-14.31M413.51,431.54c1.56,0,3.07.18,4.52.53-.17-.27-.34-.56-.51-.84-.08-.13-.16-.26-.24-.39-.16-.27-.32-.54-.47-.81-.26-.46-.51-.92-.75-1.38-.05-.09-.09-.18-.14-.27-.11-.22-.22-.43-.33-.65-.69-.06-1.4-.1-2.1-.09-12.51.07-22.63,10.31-22.56,22.82h0s3.9-.02,3.9-.02h0c-.06-10.36,8.32-18.83,18.68-18.89M496.47,435.46c-7.94.04-14.36,6.54-14.31,14.47l3.9-.02c-.03-5.78,4.65-10.52,10.43-10.55l-.02-3.9ZM496.4,422.78v-.74c-.35-1.03-.66-2.07-.93-3.14-16.36.57-29.5,13.86-29.88,30.22,1.07.26,2.11.56,3.14.89h.74c-.08-14.93,11.99-27.15,26.92-27.23M496.45,431.07l-.02-3.91c-12.51.07-22.63,10.31-22.56,22.81l3.91-.02c-.06-10.36,8.32-18.83,18.67-18.89M413.27,390.07c12.51-.07,22.63-10.31,22.56-22.81,0-.71-.04-1.41-.11-2.1-.22-.1-.43-.21-.64-.32-.1-.05-.2-.09-.3-.15-.46-.23-.92-.48-1.37-.72-.28-.15-.55-.31-.83-.47-.12-.07-.25-.15-.37-.22-.29-.17-.58-.34-.86-.51.37,1.45.57,2.96.58,4.52.06,10.36-8.32,18.83-18.67,18.89-1.56,0-3.07-.18-4.53-.53.17.26.32.53.49.8.1.15.19.31.29.48.15.25.3.5.44.75.26.46.52.94.77,1.41.04.08.08.15.12.23.12.23.23.45.35.68.69.06,1.39.09,2.1.09M444.11,368.11c-1.32-.32-2.62-.7-3.9-1.14,0,.08,0,.17,0,.25.09,14.93-11.99,27.14-26.92,27.23-.08,0-.17,0-.25,0,.45,1.27.85,2.56,1.18,3.88,16.36-.57,29.5-13.85,29.88-30.22M336.59,411.04h0c-.79.11-1.58.2-2.39.28-.5.05-1,.09-1.5.12,1.19,19.95,17.33,35.91,37.29,36.87.02-.45.06-.89.09-1.33.07-.86.15-1.71.27-2.56h0c-18.11-.79-32.76-15.27-33.76-33.38M494.6,414.54c-.12-.84-.22-1.69-.29-2.55-.04-.45-.08-.89-.11-1.33-19.95,1.19-35.91,17.32-36.87,37.29.51.02,1.01.06,1.5.1.8.07,1.6.15,2.39.25.79-18.11,15.28-32.76,33.38-33.76M332.56,407.05c19.95-1.19,35.9-17.32,36.87-37.29-.4-.02-.79-.05-1.19-.08-.91-.06-1.81-.15-2.71-.27-.79,18.11-15.28,32.76-33.38,33.76.12.83.21,1.68.29,2.53.04.45.08.9.11,1.35M415.5,406.58c19.95-1.19,35.91-17.32,36.87-37.29-.4-.02-.79-.05-1.19-.08-.91-.07-1.81-.15-2.71-.27-.79,18.11-15.28,32.76-33.38,33.76.12.83.22,1.68.29,2.53.04.45.08.9.11,1.35M419.53,410.57h0c-.79.11-1.58.2-2.38.28-.5.05-1,.09-1.5.12,1.19,19.95,17.33,35.91,37.29,36.87.02-.44.06-.89.09-1.33.07-.86.15-1.71.27-2.56h0c-18.11-.79-32.76-15.28-33.76-33.38M411.66,415c-.12-.84-.22-1.69-.29-2.55-.04-.45-.09-.89-.11-1.33-19.95,1.19-35.91,17.32-36.87,37.29.5.02,1,.06,1.5.1.8.07,1.6.15,2.39.25.79-18.11,15.27-32.76,33.38-33.76M361.17,368.58c-1.32-.32-2.62-.7-3.9-1.14,0,.08,0,.17,0,.25.08,14.93-11.99,27.15-26.92,27.23-.08,0-.17,0-.25,0,.45,1.27.85,2.56,1.18,3.88,16.36-.57,29.5-13.85,29.88-30.22M328.72,415.47c-.12-.84-.22-1.69-.29-2.55-.04-.45-.08-.88-.11-1.34-19.95,1.19-35.91,17.32-36.87,37.29.51.02,1,.06,1.5.1.8.07,1.6.15,2.39.25.79-18.12,15.27-32.77,33.38-33.76M326.56,387.38c.15.25.3.5.44.75.26.46.52.94.77,1.41.04.08.08.15.12.23.12.23.23.45.35.68.69.06,1.39.09,2.1.09,12.51-.07,22.63-10.31,22.56-22.82,0-.71-.04-1.41-.11-2.1-.22-.1-.43-.21-.64-.32-.1-.05-.2-.09-.3-.14-.46-.23-.92-.48-1.37-.73-.28-.15-.56-.32-.83-.47-.12-.08-.25-.15-.37-.22-.29-.17-.58-.33-.86-.51.37,1.45.57,2.96.58,4.52.06,10.36-8.32,18.83-18.68,18.89-1.56,0-3.07-.18-4.53-.53.17.26.33.53.49.8.1.16.19.31.29.48M253.65,411.51h0c-.79.11-1.58.2-2.39.28-.5.05-1,.09-1.5.12,1.19,19.95,17.33,35.91,37.29,36.87.02-.45.06-.89.09-1.33.07-.86.15-1.71.27-2.56h0c-18.11-.79-32.77-15.27-33.76-33.38M412.36,228.57c-.08,0-.17,0-.25,0,.45,1.27.85,2.57,1.18,3.88,16.36-.57,29.5-13.86,29.88-30.22-1.06-.26-2.11-.56-3.15-.89h-.74c.08,14.94-11.99,27.15-26.93,27.23M408.56,221.03c.15.25.3.5.44.75.26.46.52.94.77,1.41.04.07.08.15.12.23.12.22.23.45.34.67.69.06,1.39.1,2.11.09,12.51-.07,22.63-10.31,22.56-22.82l-3.91.02c.06,10.36-8.32,18.83-18.67,18.89-1.56,0-3.08-.18-4.53-.52.17.26.33.53.49.8l.29.48ZM453.21,364.94c.06-1.3.12-2.59.15-3.89l-.54-.04h0c-18.11-.79-32.76-15.28-33.76-33.38-.79.12-1.59.2-2.39.28-.5.05-1,.09-1.5.12,1.19,19.95,17.32,35.91,37.29,36.87l.75.04Z"/>
        </g>
        <path class="cls-6" d="M641.79,502.17c.44.27.89.54,1.3.78,0,.02,0,.05,0,.08,19.62,12.8,46.25,20.41,43.46,36.61,3.23-10.02,11.39-35.18,19-57.39,7.47-21.77,16.35-42.5,13.86-50.17-7.69-23.66-48.36-36.48-57.49-64.58-8.65-26.62,28.45-68.96,13.07-83.18-15.89-14.68-32.71,12.15-52.94,28.06-17.3,13.59-39.47,29.47-74.25,42.1.14,12.29,2.14,28.77,8.64,48.78,4.81,14.79,13.08,28.89,22.8,41.66,22.59,28.91,44.37,45.04,62.56,57.25"/>
        <g class="cls-51">
          <path class="cls-31" d="M585.39,426.04c.13.59,13.61,54.42,17.99,70.42-13.06-20.88-20.71-45.53-17.99-70.42"/>
          <path class="cls-31" d="M586.03,392.77c3.43,17.34,27.23,82.76,32.78,91.71-13.01-12.67-37-53.62-32.78-91.71"/>
          <path class="cls-31" d="M589.28,372.17c3.94,23.81,12.1,39.24,28.68,70.96.02.04,10.78,20.04,10.78,20.04.17-.08-.35.07-.18.15-.09-.16-.3-.5-.4-.66.05.04.58.49.62.55.08.15-.29.22-.17.17-17.63-12.74-43.43-54.07-39.33-91.21"/>
          <path class="cls-31" d="M591.48,359.06c4.57,22.25,33.84,62.41,47.31,84.15-23.78-20.4-50.27-53.08-47.31-84.15"/>
          <path class="cls-31" d="M594.39,345.58c4.31,20.72,32.65,50.68,52.67,82.99-23.15-20.06-55.3-52.82-52.67-82.99"/>
          <path class="cls-31" d="M597.26,334.74c4.26,19.57,34.34,39.58,60.11,79.5-27.35-23.77-62.07-53.33-60.11-79.5"/>
          <path class="cls-31" d="M600.33,326.21c3.95,16.58,43.29,32.67,67.76,71.44-34.32-29.21-69.01-50.88-67.76-71.44"/>
          <path class="cls-31" d="M602.73,317.81c2.17,8.15,12.28,10.2,32.31,22.21,15.29,9.18,32.78,25.13,43.05,41.18-39.78-33.41-75.95-47.73-75.37-63.39"/>
          <path class="cls-31" d="M604.69,311.23s.09,1,1.14,2.05c7.15,6.47,51.07,3.09,81.74,50.35-34.19-29.78-57.77-33.82-76.96-45.28-7.09-4.15-5.93-7.13-5.93-7.13"/>
          <path class="cls-31" d="M607.26,306.5s-.29,1.35,3.68,1.42c6.9.15,54.44-9.5,87.28,40.36-17.09-14.99-27.96-22.29-51.36-30.29-23.05-7.93-39.69-7.11-39.6-11.49"/>
          <path class="cls-31" d="M608.46,300.9s-.62.81,4.39-.98c40.3-14.33,72.44-.93,94.78,32.79-25.89-23.08-51.38-34.93-89.04-31.99-5,.44-9.18.99-9.98.46-.2-.16-.13-.31-.15-.29"/>
          <path class="cls-31" d="M610.03,294.97c23.16-20.63,70.66-25.47,105.95,24.06-23.84-21.14-45.52-34.12-79.69-30.69-11.67,1.2-21.17,4.07-26.26,6.63"/>
          <path class="cls-31" d="M575.06,409.23c-6.37,15.93-16,34.32-38.7,51.67,17.01-29.49,25.17-38.83,38.7-51.67"/>
          <path class="cls-31" d="M578.89,388.08c-17.49,39.14-51.14,54.37-57.97,56.01,7.25-4.49,8.23-6.7,57.97-56.01"/>
          <path class="cls-31" d="M581.59,371.2c-12.23,26.1-38.8,47.38-71.58,52.97.08.28-.18-.36-.12-.3.12-.03.83-.12.95-.13-.01,0-.82.42-.83.43.06.06-.18-.58-.1-.31,49.45-29.24,61.39-41.52,71.68-52.66"/>
          <path class="cls-31" d="M583.63,358.43c-13.45,27.63-48.2,38.33-78.67,42.48,27.42-13.76,62.38-25.77,78.67-42.48"/>
          <path class="cls-31" d="M587.45,344.41c-13.11,26.45-51.54,34.94-81.64,39.13,20.65-10.36,66.92-24.14,81.64-39.13"/>
          <path class="cls-31" d="M589.35,333.56c-11.03,21.77-46.43,26.81-85.05,32.09,39.97-19.09,70.57-17.58,85.05-32.09"/>
          <path class="cls-31" d="M616.59,254.52c-18.38,47.42-29.09,92.18-35.51,139.43-1.22,8.98-2.88,18.34-4.84,27.19-5.11,23.1-6.49,50.15-2.53,76.36,4.42-24.83,6.36-50.86,6.83-69.71.49-19.59,2.79-39.72,6.75-58.91,7.86-37.97,19-74.36,34.66-112.29l-5.36-2.07Z"/>
          <path class="cls-31" d="M687.94,445.89c15.53-6.53,79.87-22.56,89.89-22.94-16.93-3.53-62.05-.67-89.89,22.94"/>
          <path class="cls-31" d="M673.4,459.44c20.9-9.57,37.43-11.34,71.32-15.13.04,0,21.56-2.15,21.56-2.15.02.18-.13-.32.02-.22-.18.01-.55.03-.73.04.06.02.7.19.76.19.17-.02.02-.35.04-.23-19.45-7.15-65.83-5.51-92.98,17.5"/>
          <path class="cls-31" d="M664.22,468.15c20.01-8.24,67.31-6.5,91.65-7.44-28.77-7.92-68.69-11.44-91.65,7.44"/>
          <path class="cls-31" d="M655.12,477.63c18.66-7.63,57.41-1.19,93.59-2.59-28.17-7.6-71.16-15.55-93.59,2.59"/>
          <path class="cls-31" d="M648.08,485.67c17.73-7.05,49.54,6.05,94.8,5.15-33.33-8.94-75.17-20.63-94.8-5.15"/>
          <path class="cls-31" d="M642.98,492.63c15.2-5.71,48.86,16.8,92.5,15.49-41.34-11.55-76.93-27.41-92.5-15.49"/>
          <path class="cls-31" d="M637.62,499c7.59-2.62,14.59,4.27,34.75,13.69,15.39,7.19,37.3,12.51,55.45,12.08-47.57-13.63-78.13-34.57-90.19-25.78"/>
          <path class="cls-31" d="M695.1,428.47c9.19-13.52,18.58-30.91,20.2-58.08-14.23,29.14-17.27,40.56-20.2,58.08"/>
          <path class="cls-31" d="M680.44,442.76c21.6-34.65,15.71-69.34,13.37-75.61.32,8.12-.91,10.07-13.37,75.61"/>
          <path class="cls-31" d="M668.53,453.88c14.1-23.55,16.77-55.87,3.72-84.74.26-.09-.38.05-.3.07.04.11.34.72.4.83,0-.01-.1-.87-.1-.88.08.02-.56.17-.3.08,3.24,54.63-.11,70.59-3.43,84.65"/>
          <path class="cls-31" d="M659.55,462.29c14.66-25.33,4.61-58.48-8.34-84.75,3.73,28.99,12.86,62.99,8.34,84.75"/>
          <path class="cls-31" d="M650.5,472.77c13.91-24.44.8-58-11.92-84,2.81,21.82,15.93,64.4,11.92,84"/>
          <path class="cls-31" d="M642.94,480.05c11.32-20.3-3.55-50.95-19.94-84.26,6.21,41.73,23.69,65.1,19.94,84.26"/>
          <path class="cls-31" d="M635.97,488.21c8.79-16.31-9.08-42.38-28.93-81.85,6.21,44.16,31.95,64.95,28.93,81.85"/>
          <path class="cls-31" d="M630.18,494.27c6.45-12.7-17.04-32.49-39.84-77.46,3,20.54,12.52,39.4,25.59,55.07,9.84,11.74,15.29,15.6,14.26,22.39"/>
          <path class="cls-31" d="M595.03,543.65c27.67-39.76,57.32-72.06,91.22-102.29,6.44-5.74,12.95-12.04,18.9-18.3,15.52-16.33,36.15-31.82,58.96-42.66-17.26,16.71-36.78,32.1-51.42,42.51-15.21,10.82-29.89,23.35-42.93,36.7-25.81,26.42-48.61,54.6-70.24,87.16l-4.48-3.13Z"/>
        </g>
        <path class="cls-5" d="M621.74,312.62c.39-.34.79-.68,1.15-1,.03,0,.05.01.08.02,18.24-14.7,33.71-37.68,48.25-30.02-8.53-6.16-29.94-21.7-48.71-35.81-18.4-13.83-35.36-28.69-43.43-28.69-24.88,0-49.64,34.72-79.18,34.72-27.99,0-56.79-48.37-75.07-38.13-18.88,10.57,1.45,34.86,10.32,59.02,7.58,20.65,15.83,46.65,17.1,83.62,11.73,3.67,28.02,6.86,49.06,6.86,15.55,0,31.52-3.52,46.66-8.81,34.48-12.55,56.55-28.28,73.78-41.8"/>
        <g class="cls-47">
          <path class="cls-33" d="M652.12,269.28c-.09.09-.14.21-.14.34v1.45c-.86.33-1.42,1.15-1.42,2.07,0,1.23,1,2.23,2.23,2.23s2.23-1,2.23-2.23-.9-2.13-2.06-2.22v-1.1l1.22-1.22c-.26-.19-.53-.38-.79-.58l-1.25,1.25Z"/>
          <path class="cls-33" d="M643.8,268.65v2.32c-1.01.22-1.75,1.13-1.75,2.17,0,1.23,1,2.23,2.23,2.23s2.23-1,2.23-2.23c0-1.04-.74-1.94-1.74-2.17v-2.12l4.11-4.11c-.26-.19-.53-.38-.79-.58l-4.15,4.15c-.09.09-.14.21-.14.34"/>
          <path class="cls-33" d="M639.3,291.14c-.23-.98-1.11-1.71-2.16-1.71-1.23,0-2.23,1-2.23,2.23s1,2.23,2.23,2.23c1.05,0,1.93-.73,2.16-1.71h3.99c.36-.35.71-.69,1.06-1.03h-5.05Z"/>
          <path class="cls-33" d="M469.59,357.13c.09.09.21.14.34.14h18.02c.13,0,.25-.05.34-.14l5.35-5.35c.09-.09.14-.21.14-.34v-6.78l21.83-21.83h29.71l6.04,6.04c.09.09.21.14.34.14h30.94c.13,0,.26-.05.34-.14l18.93-18.93c.41.38.95.6,1.51.6,1.23,0,2.23-1,2.23-2.23s-1-2.23-2.23-2.23-2.23,1-2.23,2.23c0,.28.05.55.16.82l-18.91,18.91h-30.54l-6.04-6.04c-.09-.09-.21-.14-.34-.14h-30.11c-.13,0-.25.05-.34.14l-22.12,22.12c-.09.09-.14.21-.14.34v6.78l-5.07,5.07h-17.62l-3.92-3.92c-.09-.09-.21-.14-.34-.14h-16.53c0,.32,0,.65,0,.97h16.32l3.92,3.92Z"/>
          <path class="cls-33" d="M473.19,352.05c.09.09.21.14.34.14h12.13c.13,0,.25-.05.34-.14l3.28-3.29c.09-.09.14-.21.14-.34v-7.01l25.17-25.17h15.5c.13,0,.25-.05.34-.14l3.32-3.32h21.47l3.82,3.82c.09.09.21.14.34.14h20.43c.13,0,.25-.05.34-.14l5.75-5.75c.09-.09.14-.21.14-.34v-7.17l5.33-5.33c.37.26.8.39,1.25.39,1.23,0,2.23-1,2.23-2.23s-1-2.23-2.23-2.23-2.23,1-2.23,2.23c0,.4.11.79.31,1.14l-5.49,5.49c-.09.09-.14.22-.14.34v7.17l-5.46,5.46h-20.02l-3.82-3.82c-.09-.09-.21-.14-.34-.14h-21.87c-.13,0-.25.05-.34.14l-3.32,3.32h-15.5c-.13,0-.25.05-.34.14l-25.45,25.45c-.09.09-.14.21-.14.34v7.01l-3,3h-11.72l-2.23-2.23c-.09-.09-.21-.14-.34-.14h-21.91c.01.32.02.65.03.97h21.68l2.23,2.23Z"/>
          <path class="cls-33" d="M458.09,340.4h27.44c.13,0,.25-.05.34-.14l27.46-27.46h14.06c.13,0,.25-.05.34-.14l5.16-5.16h.73c.22,1.01,1.13,1.75,2.17,1.75,1.23,0,2.23-1,2.23-2.23s-1-2.23-2.23-2.23c-1.04,0-1.94.74-2.17,1.74h-.94c-.13,0-.25.05-.34.14l-5.15,5.16h-14.06c-.13,0-.25.05-.34.14l-27.46,27.46h-27.03l-9.11-9.26c.04.5.09,1,.13,1.5l8.43,8.58c.09.09.21.14.34.14"/>
          <path class="cls-33" d="M459.85,336.07h25c.13,0,.25-.05.34-.14l34.47-34.46c.38.27.82.42,1.28.42,1.23,0,2.23-1,2.23-2.23s-1-2.23-2.23-2.23-2.23,1-2.23,2.23c0,.39.1.76.29,1.1l-34.35,34.35h-24.59l-11.56-11.71c.06.51.12,1.03.18,1.55l10.84,10.98c.09.09.21.14.34.14"/>
          <path class="cls-33" d="M459.74,314.32s.02.02.04.02h23.01l2.12,2.12c.09.09.21.15.34.15h6.12c.13,0,.25-.05.34-.15l3.69-3.68c.39.29.85.45,1.33.45,1.23,0,2.23-1,2.23-2.23s-1-2.23-2.23-2.23-2.23,1-2.23,2.23c0,.36.09.72.27,1.04l-3.6,3.59h-5.72l-2.12-2.12c-.09-.09-.21-.14-.34-.14h-22.99c-.34-.32-.66-.62-.97-.91l.92.92-.2.95Z"/>
          <path class="cls-33" d="M461.74,311.34c.09.09.21.14.34.14h23.66c.22,1,1.13,1.74,2.17,1.74,1.23,0,2.23-1,2.23-2.23s-1-2.23-2.23-2.23c-1.04,0-1.94.74-2.17,1.75h-23.46l-7.2-7.2c-.09-.09-.21-.14-.34-.14h-12.92c.05.2.11.4.16.61.03.12.06.24.08.36h12.48l7.2,7.2Z"/>
          <path class="cls-33" d="M459.39,314.2c.09.09.21.14.34.14v-.02c-.12-.01-.23-.05-.32-.14-3.18-3.36-6.59-7.04-7.1-7.45-.22.02-8.94.04-9.67.06.01.07.03.14.04.21h9.5l7.2,7.2Z"/>
          <path class="cls-33" d="M452.87,306.55c.16,0,.2.05.33.15l.23.33c.82.74,2.41,2.4,5.59,5.42l-6.28-6.28c-.09-.09-.21-.14-.34-.14h-9.91c.04.18.08.36.12.53,1.03,0,10.04,0,10.27-.01"/>
          <path class="cls-33" d="M453.2,306.71c-.13-.1-.17-.15-.33-.15-.22,0-9.24,0-10.27.01.02.08.03.15.05.23.73-.02,9.45-.04,9.67-.06.51.4,3.91,4.08,7.1,7.45.08.09.2.13.32.14l.2-.95-.92-.92c-3.18-3.01-4.77-4.68-5.59-5.41l-.23-.33Z"/>
          <path class="cls-33" d="M462.92,308.49c.09.09.21.14.34.14h16.54c.13,0,.25-.05.34-.14l2.06-2.05h18.13l2.34,2.34c-.28.38-.43.83-.43,1.3,0,1.23,1,2.23,2.23,2.23s2.23-1,2.23-2.23-1-2.23-2.23-2.23c-.38,0-.74.1-1.08.28l-2.52-2.52c-.09-.09-.21-.14-.34-.14h-18.53c-.13,0-.25.05-.34.14l-2.06,2.06h-16.13l-7.09-7.09c-.09-.09-.21-.14-.34-.14h-14.91c.08.32.17.65.25.97h14.46l7.09,7.09Z"/>
          <path class="cls-33" d="M480.7,303.07c.09.09.21.14.34.14h31.03c.13,0,.25-.05.34-.14l9.57-9.57c.39.3.87.47,1.36.47,1.23,0,2.23-1,2.23-2.23s-1-2.23-2.23-2.23-2.23,1-2.23,2.23c0,.35.08.69.25,1.01l-9.5,9.5h-30.63l-4.6-4.6c-.09-.09-.21-.14-.34-.14h-35.97c.07.26.15.5.22.76l.06.21h35.49l4.6,4.6Z"/>
          <path class="cls-33" d="M456.21,267.45l7.97-7.97h17.59l4.36,4.36c.09.09.21.14.34.14h12.34l3.71,3.71c.09.09.21.14.34.14h2.79c.13,0,.25-.05.34-.14l2.62-2.62h7.66l5.14,5.13c-.19.34-.29.71-.29,1.09,0,1.23,1,2.23,2.23,2.23s2.23-1,2.23-2.23-1-2.23-2.23-2.23c-.46,0-.91.15-1.29.42l-5.24-5.24c-.09-.09-.21-.14-.34-.14h-8.06c-.13,0-.25.05-.34.14l-2.62,2.62h-2.39l-3.71-3.71c-.09-.09-.21-.14-.34-.14h-12.34l-4.36-4.36c-.09-.09-.21-.14-.34-.14h-17.99c-.13,0-.25.05-.34.14l-7.97,7.97h-26.81c.15.32.29.65.43.97h26.58c.13,0,.25-.05.34-.14"/>
          <path class="cls-33" d="M481.32,292.85l1.65-1.65c.36.23.77.35,1.19.35,1.23,0,2.23-1,2.23-2.23s-1-2.23-2.23-2.23-2.23,1-2.23,2.23c0,.42.12.83.35,1.19l-1.51,1.51h-42.08c.1.31.2.61.3.91,0,.02.01.04.02.06h41.97c.13,0,.25-.05.34-.14"/>
          <path class="cls-33" d="M477.33,289.95l3.73-3.73h9.87l1.48,1.47c-.47.42-.73,1.01-.73,1.64,0,1.23,1,2.23,2.23,2.23s2.23-1,2.23-2.23-1-2.23-2.23-2.23c-.2,0-.41.03-.62.1l-1.81-1.81c-.09-.09-.21-.14-.34-.14h-10.27c-.13,0-.25.05-.34.14l-3.73,3.73h-39.03c.11.32.21.65.31.97h38.92c.13,0,.25-.05.34-.14"/>
          <path class="cls-33" d="M468.85,287.44l1.52-1.52c.36.23.76.34,1.18.34,1.23,0,2.23-1,2.23-2.23s-1-2.23-2.23-2.23-2.23,1-2.23,2.23c0,.43.12.84.36,1.2l-1.37,1.37h-31.4c.11.32.23.64.34.97h31.26c.13,0,.25-.05.34-.14"/>
          <path class="cls-33" d="M465.58,284.38l4.44-4.44h8.45c.13,0,.25-.05.34-.14l3.39-3.39h8.12l2.01,2.01c-.42.42-.65.98-.65,1.56,0,1.23,1,2.23,2.23,2.23s2.23-1,2.23-2.23-1-2.23-2.23-2.23c-.26,0-.51.04-.75.13l-2.3-2.3c-.09-.09-.21-.14-.34-.14h-8.52c-.13,0-.25.05-.34.14l-3.39,3.39h-8.45c-.13,0-.25.05-.34.14l-4.44,4.44h-29.22,0c.12.32.22.65.34.97h29.08c.13,0,.25-.05.34-.14"/>
          <path class="cls-33" d="M463.63,281.42l5.02-5.02h8.19c.13,0,.25-.05.34-.14l2.98-2.98h15.04l5.51,5.51c-.23.36-.35.77-.35,1.19,0,1.23,1,2.23,2.23,2.23s2.23-1,2.23-2.23-1-2.23-2.23-2.23c-.42,0-.83.12-1.19.35l-5.66-5.65c-.09-.09-.21-.14-.34-.14h-15.44c-.13,0-.25.05-.34.14l-2.98,2.98h-8.19c-.13,0-.25.05-.34.14l-5.02,5.02h-28.38c.12.32.25.64.37.97h28.21c.13,0,.25-.05.34-.14"/>
          <path class="cls-33" d="M463.37,277.74l6.63-6.63h2.35c.22,1,1.13,1.74,2.17,1.74,1.23,0,2.23-1,2.23-2.23s-1-2.23-2.23-2.23c-1.04,0-1.94.74-2.17,1.74h-2.55c-.13,0-.25.05-.34.14l-6.63,6.63h-29.57c.13.32.27.64.4.97h29.37c.13,0,.25-.05.34-.14"/>
          <path class="cls-33" d="M462.08,274.05l7.24-7.25h9.32l3.69,3.69c.09.09.21.14.34.14h13.41l5.08,5.08c.09.09.21.14.34.14h6.71l2.93,2.93c-.23.36-.35.77-.35,1.19,0,1.23,1,2.23,2.23,2.23s2.23-1,2.23-2.23-1-2.23-2.23-2.23c-.42,0-.83.12-1.19.35l-3.08-3.07c-.09-.09-.21-.14-.34-.14h-6.71l-5.08-5.08c-.09-.09-.21-.14-.34-.14h-13.41l-3.69-3.69c-.09-.09-.21-.14-.34-.14h-9.72c-.13,0-.25.05-.34.14l-7.25,7.24h-29.8c.09.21.17.4.26.61.05.12.1.24.15.36h29.59c.13,0,.25-.05.34-.14"/>
          <path class="cls-33" d="M457.79,270.8l7.65-7.65h14.41l3.97,3.97c.09.09.21.14.34.14h13.02l4.38,4.38c.09.09.21.14.34.14h7.2c.23,1,1.13,1.74,2.17,1.74,1.23,0,2.23-1,2.23-2.23s-1-2.23-2.23-2.23c-1.04,0-1.94.74-2.17,1.74h-7l-4.38-4.38c-.09-.09-.21-.14-.34-.14h-13.02l-3.97-3.97c-.09-.09-.21-.14-.34-.14h-14.81c-.13,0-.25.05-.34.14l-7.65,7.65h-26.9s.02.04.02.06c.13.3.26.61.39.91h26.69c.13,0,.25-.05.34-.14"/>
          <path class="cls-33" d="M527.62,245.85v33.09l-2.63,2.37c-.42-.47-1.01-.73-1.64-.73-1.23,0-2.23,1-2.23,2.23s1,2.23,2.23,2.23,2.23-1,2.23-2.23c0-.21-.03-.42-.1-.64l2.95-2.66c.1-.09.16-.22.16-.36v-33.51c0-.13-.05-.25-.14-.34l-1.89-2.06c-.29.16-.58.33-.88.49l1.95,2.11Z"/>
          <path class="cls-33" d="M452.53,257.82l11.29-11.29h23.77c-.47-.31-.95-.64-1.42-.97h-22.55c-.13,0-.25.05-.34.14l-11.29,11.29h-26.35c.1.22.21.43.31.65.05.11.1.22.16.33h26.08c.13,0,.25-.05.34-.14"/>
          <path class="cls-33" d="M530.76,244.81v48.1c0,.13.05.25.14.34l3.01,3.01c-.23.36-.36.77-.36,1.19,0,1.23,1,2.23,2.23,2.23s2.23-1,2.23-2.23-1-2.23-2.23-2.23c-.42,0-.83.12-1.19.35l-2.87-2.86v-48.1c0-.13-.05-.25-.14-.34l-2.7-2.72c-.29.17-.58.34-.86.51l2.73,2.75Z"/>
          <path class="cls-33" d="M450.36,254.43l11.02-11.02h21.83c-.42-.32-.84-.64-1.26-.97h-20.77c-.13,0-.25.05-.34.14l-11.03,11.02h-25.83c.15.3.29.59.44.89.01.03.03.05.04.08h25.55c.13,0,.25-.05.34-.14"/>
          <path class="cls-33" d="M423.98,253.6h0c.15.3.29.58.44.89-.15-.3-.29-.59-.44-.89"/>
          <path class="cls-33" d="M536.97,277.67c0,.13.05.25.14.34l4.44,4.44c.09.09.21.14.34.14h9.26l3.45,3.45v6.26l-8.8,8.8c-.09.09-.14.21-.14.34v5.01c0,.13.05.25.14.34l1.7,1.7c.09.09.21.14.34.14h7.04l4.76,4.76c.09.09.21.14.34.14h11.28c.13,0,.25-.05.34-.14l4.58-4.58c.38.27.82.42,1.28.42,1.23,0,2.23-1,2.23-2.23s-1-2.23-2.23-2.23-2.23,1-2.23,2.23c0,.38.1.76.29,1.1l-4.47,4.47h-10.88l-4.76-4.76c-.09-.09-.22-.14-.34-.14h-7.04l-1.42-1.41v-4.61l8.8-8.8c.09-.09.14-.21.14-.34v-6.66c0-.13-.05-.25-.14-.34l-3.74-3.74c-.09-.09-.21-.14-.34-.14h-9.26l-4.16-4.16v-36.71c0-.13-.05-.25-.12-.31l-2.29-3.4c-.27.18-.54.37-.81.55l2.25,3.34v36.73Z"/>
          <path class="cls-33" d="M552.09,268.61c-.41-.38-.94-.59-1.5-.59-1.23,0-2.23,1-2.23,2.23s1,2.23,2.23,2.23,2.23-1,2.23-2.23c0-.28-.05-.56-.16-.83l.74-.75c.09-.09.14-.21.14-.34v-44.23s0,0,0,0c-.33.2-.65.41-.97.61v43.42l-.48.48Z"/>
          <path class="cls-33" d="M557.72,238.38l6.16,6.16v9.55c-1,.23-1.74,1.13-1.74,2.17,0,1.23,1,2.23,2.23,2.23s2.23-1,2.23-2.23c0-1.04-.74-1.94-1.75-2.17v-9.75c0-.13-.05-.25-.14-.34l-6.16-6.16v-16.64c-.32.18-.64.37-.97.56v16.28c0,.13.05.25.14.34"/>
          <path class="cls-33" d="M589.8,262l-10.59,10.59h-5.77c-.13,0-.25.05-.34.14l-5.35,5.35c-.09.09-.14.21-.14.34v16.8l-1.74,1.74c-.41-.38-.95-.6-1.51-.6-1.23,0-2.23,1-2.23,2.23s1,2.23,2.23,2.23,2.23-1,2.23-2.23c0-.28-.06-.55-.16-.82l2-2c.09-.09.14-.22.14-.34v-16.8l5.06-5.06h5.77c.13,0,.25-.05.34-.14l10.87-10.87c.09-.09.14-.21.14-.34v-14.1c0-.13-.05-.25-.14-.34l-28.49-28.49c-.31.14-.62.3-.93.44l28.59,28.59v13.7Z"/>
          <path class="cls-33" d="M599.44,251.65v25.74l-3.04,3.04c-.09.09-.14.21-.14.34v21.2l-2.14,2.15c-.41-.37-.93-.57-1.48-.57-1.23,0-2.23,1-2.23,2.23s1,2.23,2.23,2.23,2.23-1,2.23-2.23c0-.29-.06-.57-.18-.85l2.4-2.4c.09-.09.14-.21.14-.34v-21.2l3.04-3.04c.09-.09.14-.21.14-.34v-25.74l13.07-13.06c-.27-.2-.53-.39-.79-.58l-13.1,13.1c-.09.09-.14.21-.14.34"/>
          <path class="cls-33" d="M616.22,242.26v31.14l-10.25,10.25c-.09.09-.14.21-.14.34v3.88c-1,.23-1.75,1.13-1.75,2.17,0,1.23,1,2.23,2.23,2.23s2.23-1,2.23-2.23c0-1.04-.74-1.94-1.74-2.17v-3.68l10.25-10.25c.09-.09.14-.21.14-.34v-31.14l.55-.55c-.26-.19-.53-.39-.79-.58l-.58.58c-.09.09-.14.21-.14.34"/>
          <path class="cls-33" d="M603.15,324.25c-1.04,0-1.94.74-2.17,1.74h-10.36c-.13,0-.25.05-.34.14l-6.29,6.29h-40.8c-.13,0-.25.05-.34.14l-2.25,2.25c-.4-.32-.88-.49-1.39-.49-1.23,0-2.23,1-2.23,2.23s1,2.23,2.23,2.23,2.23-1,2.23-2.23c0-.34-.08-.66-.23-.97l2.19-2.19h40.8c.13,0,.25-.05.34-.14l6.29-6.29h10.16c.13.57.49,1.04.96,1.35,1.12-.76,2.25-1.53,3.34-2.31-.22-.99-1.07-1.75-2.13-1.75"/>
          <path class="cls-33" d="M470.58,324.48c1.23,0,2.23-1,2.23-2.23s-1-2.23-2.23-2.23c-1.05,0-1.94.72-2.17,1.74h-22.07c.05.32.09.65.13.97h21.93c.22,1.01,1.13,1.75,2.17,1.75"/>
          <path class="cls-33" d="M470.58,301.43c-1.23,0-2.23,1-2.23,2.23s1,2.23,2.23,2.23,2.23-1,2.23-2.23-1-2.23-2.23-2.23"/>
          <path class="cls-33" d="M442.65,309.98h9.02l6.95,6.95h22.78c.13,0,.25.05.34.14l5.9,5.9h1.54c.23-1,1.13-1.74,2.17-1.74,1.23,0,2.23,1,2.23,2.23s-1,2.23-2.23,2.23c-1.04,0-1.94-.74-2.17-1.74h-1.74c-.13,0-.25-.05-.34-.14l-5.9-5.9h-22.78c-.13,0-.25-.05-.34-.14l-6.86-6.95h-7.2l-1.37-.83Z"/>
          <path class="cls-33" d="M481.34,297.6c-.23.36-.35.77-.35,1.19,0,1.23,1,2.23,2.23,2.23s2.23-1,2.23-2.23-1-2.23-2.23-2.23c-.42,0-.83.12-1.19.36l-2.12-2.13c-.09-.09-.21-.14-.34-.14h-40.06c.1.32.19.65.28.97h39.57l1.98,1.98Z"/>
          <path class="cls-33" d="M446.45,216.82h-27.16c-.23.21-.56.54-.93.97h30.07c-.66-.35-1.32-.67-1.98-.97"/>
          <path class="cls-33" d="M618.27,279.76c0,1.23,1,2.23,2.23,2.23s2.23-1,2.23-2.23c0-1.04-.74-1.94-1.74-2.17v-33.3c-.33-.24-.65-.47-.97-.71v34.01c-1.01.23-1.74,1.13-1.74,2.17"/>
          <path class="cls-33" d="M593.48,263.45l-12.66,12.65h-4.81c-.13,0-.25.05-.34.14l-4.91,4.91c-.09.09-.14.21-.14.34v19.25l-4.7,4.7c-.42-.41-.98-.65-1.56-.65-1.23,0-2.23,1-2.23,2.23s1,2.23,2.23,2.23,2.23-1,2.23-2.23c0-.25-.04-.51-.13-.75l4.98-4.99c.09-.09.14-.21.14-.34v-19.25l4.62-4.62h4.81c.13,0,.25-.05.34-.14l12.94-12.94c.09-.09.14-.21.14-.34v-25.4c0-.13-.05-.25-.14-.34l-22.4-22.39c-.37.08-.74.17-1.1.27l22.68,22.67v25Z"/>
          <path class="cls-33" d="M622.03,288.12c-.42-.4-.96-.62-1.53-.62-1.23,0-2.23,1-2.23,2.23s1,2.23,2.23,2.23,2.23-1,2.23-2.23c0-.27-.05-.53-.15-.79l2.34-2.34c.09-.09.14-.21.14-.34v-38.97c-.33-.24-.65-.47-.97-.71v39.48l-2.07,2.07Z"/>
          <path class="cls-33" d="M625.4,292.44c0,1.23,1,2.23,2.23,2.23s2.23-1,2.23-2.23c0-1.04-.74-1.94-1.74-2.17v-40.75c-.32-.24-.65-.47-.97-.71v41.46c-1,.23-1.74,1.13-1.74,2.17"/>
          <path class="cls-33" d="M616.34,312.81c-.36-.23-.77-.35-1.19-.35-1.23,0-2.23,1-2.23,2.23s1,2.23,2.23,2.23,2.23-1,2.23-2.23c0-.42-.12-.83-.35-1.19l15.78-15.78c.09-.09.14-.21.14-.34v-45.98c-.33-.24-.65-.47-.97-.71v46.49l-15.64,15.64Z"/>
          <path class="cls-33" d="M540.38,274.69l4.67,4.67c.09.09.21.14.34.14h8.57c.4.27,2,1.91,3.68,3.77v12.76l-4.96,4.96c-.39-.31-.87-.48-1.37-.48-1.23,0-2.23,1-2.23,2.23s1,2.23,2.23,2.23,2.23-1,2.23-2.23c0-.34-.08-.67-.24-.99l5.17-5.17c.09-.09.14-.22.14-.34v-13.14c0-.12-.04-.23-.12-.32-3.8-4.22-4.19-4.22-4.43-4.22h-8.47l-4.39-4.39v-41.66c-.13.1-.27.2-.4.29-.18.13-.38.27-.57.41v41.17c0,.13.05.25.14.34"/>
          <path class="cls-33" d="M454.6,236.43c1.23,0,2.23-1,2.23-2.23s-1-2.23-2.23-2.23c-.98,0-1.81.65-2.11,1.53h-37.23c.07.34.13.68.22,1.03h36.93c.16,1.07,1.08,1.9,2.19,1.9"/>
          <path class="cls-33" d="M542.8,271.86l3.34,3.34c.09.09.21.14.34.14h9.93l4.83,4.83v5.48c0,.13.05.25.14.34l1.11,1.11c-.23.36-.35.77-.35,1.19,0,1.23,1,2.23,2.23,2.23s2.23-1,2.23-2.23-1-2.23-2.23-2.23c-.42,0-.83.12-1.19.35l-.96-.96v-5.48c0-.13-.05-.25-.14-.34l-5.12-5.12c-.09-.09-.22-.14-.34-.14h-9.93l-3.05-3.05v-40.57c-.33.23-.65.46-.97.69v40.08c0,.13.05.25.14.34"/>
          <path class="cls-33" d="M444.22,248.52c1.23,0,2.23-1,2.23-2.23s-1-2.23-2.23-2.23c-1.04,0-1.94.74-2.17,1.74h-21.92c.1.21.2.41.31.62.06.12.11.23.17.35h21.45c.23,1,1.13,1.74,2.17,1.74"/>
          <path class="cls-33" d="M420.43,246.43c.06.12.11.23.17.34-.06-.12-.11-.23-.17-.34"/>
          <path class="cls-33" d="M420.13,245.81h0c.1.21.2.41.3.62-.1-.21-.2-.41-.3-.62"/>
          <path class="cls-33" d="M523.35,304.79c-1.23,0-2.23,1-2.23,2.23s1,2.23,2.23,2.23,2.23-1,2.23-2.23-1-2.23-2.23-2.23"/>
          <path class="cls-33" d="M512.96,336.8c1.01-.23,1.74-1.13,1.74-2.17,0-1.23-1-2.23-2.23-2.23s-2.23,1-2.23,2.23c0,1.04.74,1.94,1.74,2.17v8.73c0,.13.05.25.14.34l5.62,5.62c.09.09.21.14.34.14h26.89c.22,1.01,1.13,1.74,2.17,1.74,1.23,0,2.23-1,2.23-2.23s-1-2.23-2.23-2.23c-1.04,0-1.94.74-2.17,1.74h-26.69l-5.34-5.34v-8.54Z"/>
          <path class="cls-33" d="M474.52,346.15c1.23,0,2.23-1,2.23-2.23s-1-2.23-2.23-2.23c-1.04,0-1.94.74-2.17,1.75h-23.34c.02.32.04.64.06.97h23.28c.23,1,1.13,1.74,2.17,1.74"/>
          <path class="cls-33" d="M484.84,341.69c-1.23,0-2.23,1-2.23,2.23s1,2.23,2.23,2.23,2.23-1,2.23-2.23-1-2.23-2.23-2.23"/>
          <path class="cls-33" d="M509.62,353.12c1.01-.23,1.75-1.13,1.75-2.17,0-1.23-1-2.23-2.23-2.23s-2.23,1-2.23,2.23c0,1.04.74,1.94,1.75,2.17v8.74c0,.13.05.25.14.34l1.13,1.13c.42-.04.85-.06,1.27-.1l-1.57-1.57v-8.53Z"/>
          <path class="cls-33" d="M613.15,241.64v20.72l-10.89,10.89v24.73l4.26,4.26c-.13.28-.2.59-.2.91,0,1.23,1,2.23,2.23,2.23s2.23-1,2.23-2.23-1-2.23-2.23-2.23c-.53,0-1.01.19-1.39.5l-3.87-3.87v-23.88l10.89-10.89v-20.72l1.59-1.59c-.28-.2-.56-.41-.84-.62l-1.63,1.63-.15.15Z"/>
          <path class="cls-33" d="M504.31,258.95c-.43,0-.83.13-1.16.34l-5.26-5.26h-31.02c-.23-.98-1.11-1.71-2.16-1.71-1.23,0-2.23,1-2.23,2.23s1,2.23,2.23,2.23c1.05,0,1.93-.73,2.16-1.72h30.59l4.95,4.96c-.21.34-.34.73-.34,1.16,0,1.23,1,2.23,2.23,2.23s2.23-1,2.23-2.23-1-2.23-2.23-2.23"/>
          <path class="cls-33" d="M592.32,281.78c-1.23,0-2.23,1-2.23,2.23,0,.43.13.83.35,1.18l-4.25,4.24c-.34-.21-.75-.34-1.18-.34-1.23,0-2.23,1-2.23,2.23s1,2.23,2.23,2.23,2.23-1,2.23-2.23c0-.42-.13-.81-.33-1.15l4.26-4.26c.34.21.73.33,1.15.33,1.23,0,2.23-1,2.23-2.23s-1-2.23-2.23-2.23"/>
          <path class="cls-33" d="M644.47,286.89c-.23-.98-1.11-1.71-2.16-1.71-1.23,0-2.23,1-2.23,2.23s1,2.23,2.23,2.23c1.05,0,1.93-.73,2.16-1.71h4.2c.36-.34.74-.7,1.09-1.03h-5.29Z"/>
          <path class="cls-33" d="M666.7,280.53l1.58-1.58c-.27-.2-.55-.4-.84-.62l-2.2,2.2c.5-.03.99-.03,1.46,0"/>
          <path class="cls-33" d="M565.95,343.91c0-1.23-1-2.23-2.23-2.23s-2.22,1-2.22,2.23,1,2.23,2.22,2.23c.43,0,.82-.13,1.16-.34l2.71,2.71c.34-.14.68-.29,1.03-.43l-3.01-3c.21-.34.34-.74.34-1.16"/>
          <path class="cls-33" d="M503.49,358v-11.71c.98-.23,1.71-1.11,1.71-2.16,0-1.23-1-2.23-2.23-2.23s-2.23,1-2.23,2.23c0,1.05.73,1.93,1.71,2.16v10.68h-4.51l-6.82,6.82c.47.02.93.04,1.4.06l5.85-5.85h5.11Z"/>
          <path class="cls-33" d="M642.33,280.65c-.17.31-.27.66-.27,1.04,0,1.23,1,2.23,2.23,2.23s2.23-1,2.23-2.23-1-2.23-2.23-2.23c-.48,0-.92.15-1.28.41l-3.46-3.47v-18.52c-.34-.25-.69-.5-1.03-.75v19.7l3.82,3.82Z"/>
          <path class="cls-33" d="M608.68,311.95l6.89-6.89c.34.21.74.34,1.16.34,1.23,0,2.23-1,2.23-2.23s-1-2.23-2.23-2.23-2.23,1-2.23,2.23c0,.43.13.82.34,1.16l-7.19,7.19v9.06l3.66,3.66c.28-.21.56-.41.84-.62l-3.47-3.47v-8.2Z"/>
          <path class="cls-33" d="M577.99,295.49v-7.79l13.09-13.09c.35.22.75.35,1.19.35,1.23,0,2.23-1,2.23-2.23s-1-2.23-2.23-2.23-2.23,1-2.23,2.23c0,.42.12.8.32,1.14l-13.25,13.25-.15.15v8.22c-.98.23-1.71,1.11-1.71,2.16,0,1.23,1,2.23,2.23,2.23s2.23-1,2.23-2.23c0-1.05-.73-1.93-1.71-2.16"/>
          <path class="cls-33" d="M597.75,243.12c0,1.23,1,2.23,2.23,2.23s2.23-1,2.23-2.23c0-1.05-.73-1.93-1.71-2.16v-14.92c-.35-.26-.69-.51-1.03-.76v15.68c-.98.23-1.71,1.11-1.71,2.16"/>
          <path class="cls-33" d="M574.83,245.37l-8.57-8.57c.21-.34.33-.74.33-1.16,0-1.23-1-2.23-2.23-2.23s-2.23,1-2.23,2.23,1,2.23,2.23,2.23c.43,0,.83-.13,1.16-.34l8.28,8.27v17.89l-8.32,8.32c-.33-.2-.71-.31-1.12-.31-1.23,0-2.23,1-2.23,2.23s1,2.23,2.23,2.23,2.23-1,2.23-2.23c0-.44-.13-.86-.36-1.21l8.6-8.6v-18.75Z"/>
          <path class="cls-33" d="M522.85,258.57h-9.62l-8.72-8.64c-.45.05-.9.08-1.35.1l9.64,9.57h11.04l.02-.5c.19-6.5.22-18.62.16-20.44-.34.16-.68.32-1.02.48.03,2.65-.07,16.04-.16,19.44"/>
          <path class="cls-33" d="M456.45,225.45h-41.52c-.05.33-.08.68-.12,1.03h42.99c-.45-.35-.91-.69-1.36-1.03"/>
          <path class="cls-33" d="M533.56,242.25v37.06c0,.13.05.25.14.34l8.99,9c.09.09.21.14.34.14h3.03c.22,1.01,1.13,1.74,2.17,1.74,1.23,0,2.23-1,2.23-2.23s-1-2.23-2.23-2.23c-1.04,0-1.94.74-2.17,1.75h-2.83l-8.71-8.71v-37.03c0-.13-.05-.25-.12-.31l-1.63-2.67c-.27.18-.55.36-.82.53l1.6,2.63Z"/>
          <path class="cls-33" d="M449.97,220.88h-33.63c-.16.33-.31.67-.45,1.03h35.62c-.52-.35-1.03-.7-1.55-1.03"/>
          <path class="cls-33" d="M417.42,240.21c.03.07.07.15.11.22h14.43c.16,1.07,1.08,1.9,2.2,1.9,1.23,0,2.23-1,2.23-2.23s-1-2.23-2.23-2.23c-.98,0-1.81.64-2.11,1.53h-14.94c.11.27.19.53.31.81"/>
          <path class="cls-33" d="M417.42,240.21c.03.07.07.15.11.22-.03-.07-.07-.15-.11-.22"/>
          <path class="cls-33" d="M560.22,336.25l-7.08,7.08h-30.46c-.23-.98-1.11-1.71-2.16-1.71-1.23,0-2.23,1-2.23,2.23s1,2.23,2.23,2.23c1.05,0,1.93-.73,2.16-1.71h30.89l7.08-7.08h22.7v3.98c.34-.18.68-.36,1.03-.53v-4.48h-24.16Z"/>
          <path class="cls-33" d="M652.89,279.46c-1.23,0-2.23,1-2.23,2.23s1,2.23,2.23,2.23,2.23-1,2.23-2.23c0-.43-.13-.82-.34-1.16l6.62-6.62c-.28-.2-.56-.41-.84-.62l-6.51,6.51c-.34-.21-.74-.34-1.16-.34"/>
        </g>
        <g>
          <g class="cls-56">
            <g class="cls-54">
              <g class="cls-44">
                <rect class="cls-3" x="415.69" y="135.9" width="245.77" height="303.72" transform="translate(56.63 662.74) rotate(-66)"/>
              </g>
            </g>
          </g>
          <g class="cls-56">
            <g class="cls-45">
              <g class="cls-52">
                <rect class="cls-21" x="221.47" y="191.33" width="289.5" height="284.88" transform="translate(-126.87 382.59) rotate(-48)"/>
              </g>
            </g>
          </g>
          <g class="cls-56">
            <g class="cls-49">
              <g class="cls-55">
                <rect class="cls-26" x="246.07" y="392.52" width="292.62" height="285.74" transform="translate(-215.13 267.92) rotate(-30)"/>
              </g>
            </g>
          </g>
          <g class="cls-56">
            <g class="cls-40">
              <g class="cls-48">
                <rect class="cls-36" x="428.59" y="421.84" width="275.52" height="237.83" transform="translate(-100.05 129.57) rotate(-12)"/>
              </g>
            </g>
          </g>
          <g class="cls-56">
            <g class="cls-42">
              <g class="cls-53">
                <rect class="cls-13" x="495.76" y="310.74" width="276.13" height="198.24" transform="translate(159.96 997.37) rotate(-84)"/>
              </g>
            </g>
          </g>
          <path class="cls-8" d="M611.51,704.59c4.13,0,7.49-3.36,7.49-7.49s-3.36-7.49-7.49-7.49-7.49,3.36-7.49,7.49,3.36,7.49,7.49,7.49"/>
          <path class="cls-8" d="M553.14,772.42c-4.13,0-7.49,3.36-7.49,7.49s3.36,7.49,7.49,7.49,7.49-3.36,7.49-7.49-3.36-7.49-7.49-7.49"/>
          <path class="cls-8" d="M534.91,772.42c-4.13,0-7.49,3.36-7.49,7.49s3.36,7.49,7.49,7.49,7.49-3.36,7.49-7.49-3.36-7.49-7.49-7.49"/>
          <path class="cls-8" d="M411.72,707.88c-15.92,0-27.92,12.33-27.92,28.68,0,7.03,2.27,13.54,6.45,18.64h-27.41v32.21h11.33v-22.2h36.11c.48.02.96.03,1.44.03,1.29,0,2.53-.08,3.7-.24,0,0,.01,0,.02,0h0s.05,0,.07,0h0c.17-.02.34-.04.52-.07.32-.04.64-.1.95-.16l.44-.08c.7-.15,1.62-.36,2.51-.64.39-.12.8-.26,1.3-.43.31-.11.62-.23.91-.35,10.63-4.2,17.5-14.68,17.5-26.71,0-16.35-12-28.68-27.91-28.68M429.06,736.56c0,10.52-7.46,18.46-17.34,18.46s-17.34-7.93-17.34-18.46,7.45-18.46,17.34-18.46,17.34,7.93,17.34,18.46"/>
          <path class="cls-8" d="M606.26,755.2h-45.62v-43.24h-11.33v43.24h-45.49c2.1-5.83,3.16-12.09,3.16-18.64,0-11.79-6.37-21.89-16.62-26.35-3.53-1.54-7.33-2.33-11.3-2.33-15.91,0-27.91,12.33-27.91,28.68,0,7.97,2.94,15.3,8.27,20.65,2.65,2.64,5.75,4.68,9.22,6.05.3.12.6.23,1.04.39.39.13.8.27,1.18.39.9.29,1.82.49,2.57.65l.39.07c.31.06.62.11.96.16.19.03.38.06.52.07,1.14.14,2.28.22,3.4.22h6.66c-7.29,7.6-17.32,11.75-28.54,11.75h-1.28v10.74h1.28c17.72,0,33.03-8.19,42.11-22.49h118.65v-53.25h-11.32v43.24ZM496.4,736.56c0,.32,0,.63-.03.95v.08c-.12,6.25-1.47,12.12-4.01,17.44h-13.3c-9.89,0-17.34-7.94-17.34-18.47s7.45-18.45,17.34-18.45,17.34,7.93,17.34,18.45"/>
        </g>
      </g>
    </g>
  </g>
</svg>