<?xml version="1.0" encoding="utf-8"?>
<!-- Generator: Adobe Illustrator 26.0.1, SVG Export Plug-In . SVG Version: 6.00 Build 0)  -->
<svg version="1.1" id="Layer_1" xmlns="http://www.w3.org/2000/svg" xmlns:xlink="http://www.w3.org/1999/xlink" x="0px" y="0px"
	 viewBox="0 0 1000 1000" style="enable-background:new 0 0 1000 1000;" xml:space="preserve">
<style type="text/css">
	.st0{fill-rule:evenodd;clip-rule:evenodd;fill:#006DB4;}
	.st1{fill-rule:evenodd;clip-rule:evenodd;fill:#F7B82A;}
</style>
<path class="st0" d="M439.3,521.7l-6.1,6.3c-7.1,6.9-13.6,7.8-19.3,2.1c-5.9-5.9-5-12.4,1.9-19.3l6.3-6.3c7.1-7.1,13.6-7.7,19.3-2.1
	C447.1,508.1,446.4,514.6,439.3,521.7L439.3,521.7z M343,330c6.1,7.7,6.1,9.8-2.7,16.5l-62.4,47.1c-1.9,1.5-2.5,4,1.7,4h88.8
	c21.4,0,25.1,4.8,25.1,25.1v25.6c0,5.2,1.7,8.8,8.4,8.8h55.5c6.7,0,8.4-3.6,8.4-8.8v-38.5c0-10.9,2.7-12.1,12.6-12.1
	c9.8,0,12.6,1.3,12.6,12.1v38.5c0,23.5-5.9,29.3-29.3,29.3H151.8c1.7-15.1,15.1-20.5,32.9-20.5h176.1c5.5,0,7.5-1.5,7.5-6.7v-25.5
	c0-4.6-1.3-6.7-7.5-6.7H263c-16.3,0-21.2-8.8-21.2-16.3c0-6.9,5-12.8,11.7-17.8l73.1-55.5C335.4,321.9,336.9,322.3,343,330L343,330z
	 M516,338.4c0-10.9,2.7-12.2,12.6-12.2c9.8,0,12.6,1.3,12.6,12.2v109.9c0,5.2,1.7,8.8,8.4,8.8h81.7c6.9,0,8.4-3.6,8.4-8.8v-38.5
	c0-10.9,2.7-12.1,12.6-12.1c9.8,0,12.6,1.3,12.6,12.1v38.5c0,5.2,1.7,8.8,8.4,8.8h55.5c6.9,0,8.4-3.6,8.4-8.8v-38.5
	c0-10.9,2.7-12.1,12.6-12.1c9.8,0,12.6,1.3,12.6,12.1v38.5c0,5.2,1.7,8.8,8.4,8.8h41.9c6.9,0,8.4-3.6,8.4-8.8v-38.5
	c0-10.9,2.7-12.1,12.6-12.1c9.8,0,12.6,1.3,12.6,12.1v38.5c0,23.5-5.9,29.3-29.3,29.3H545.3c-23.5,0-29.3-5.9-29.3-29.3V338.4
	L516,338.4z"/>
<path class="st1" d="M730.7,664.2c0-29.7,26.9-68.6,79.3-68.6c6,0,8,4,8,9.3v26c0,7.3-0.7,9.6-9.1,9.6c-8.4,0-9.1-2.2-9.1-9.6v-13.5
	c0-2.4-0.4-2.9-1.3-2.9c-28,0-48.6,29.1-48.6,42c0,2,0.2,3.1,4.9,3.1h67.7c12.7,0,23.1,4,24.6,16.7H743.8
	C736.2,676.2,730.7,674,730.7,664.2L730.7,664.2z M700.3,667.1v-52c0-1.1-0.4-1.3-2-1.3h-3.8c-7.5,0-9.8-2-9.8-8.7
	c0-6.7,2.2-8.7,9.8-8.7h15.8c5.3,0,8.7,2.2,8.7,8.2v62.4c0,8.4-2.4,9.8-9.3,9.8C702.5,676.9,700.3,675.6,700.3,667.1L700.3,667.1z
	 M608.3,676.2c-17.3,0-22-4.7-22-21.8v-115c0-8.4,2.4-9.5,10-9.5c7.5,0,10,1.1,10,9.5v115c0,3.3,0.9,5.1,4.9,5.1h51.3
	c4.7,0,4.9-1.1,4.9-3.1c0-8.4-11.8-32.2-47.7-43.3c-6.2-1.8-6.9-5.3-4.9-11.1c2.4-6.7,6.4-6.4,11.6-5.1
	c42.4,12.4,60.4,40.2,60.4,67.3c0,9.8-5.8,12-13.1,12H608.3L608.3,676.2z M484.7,676.2c-7.3,0-13.1-2.2-13.1-12
	c0-41.3,45.3-68.6,62.6-68.6c6,0,8,4,8,9.3v26c0,7.3-0.4,9.6-9.1,9.6c-8.4,0-9.1-2.2-9.1-9.6v-13.3c0-0.4,0-0.7-0.4-0.7
	c-7.3,0-32.6,21.8-32.6,39.5c0,2,0.2,3.1,4.9,3.1h51.9c4,0,4.9-1.8,4.9-5.1v-70.4c0-8.4,2.4-9.8,10-9.8c7.5,0,10,1.3,10,9.8v70.4
	c0,17.1-4.7,21.8-22,21.8H484.7L484.7,676.2z M712.9,574.8l-4.2,4.2c-5.8,5.8-10.9,6.2-15.3,1.8c-4.7-4.7-4-9.8,1.6-15.3l4.2-4.4
	c5.8-5.6,10.9-6.2,15.3-1.6C719.1,563.9,718.5,569,712.9,574.8L712.9,574.8z M443.4,676.2c15.3,0,18.9-3.8,18.9-18.9v-8.7
	c0-15.1-3.1-18.9-18.9-18.9h-50.6c-0.7,0-1.1-0.2-1.1-0.9c0-2,21.5-15.3,62.4-16.2c6.2-0.2,7.8-2.9,7.3-8.9c-0.2-5.1-2-8.2-9.6-8.2
	c-54.2,0-85,26.4-85,40.6c0,6.2,3.6,10.2,17.7,10.2h53.6c4,0,4.4,0.9,4.4,3.8v5.5c0,3.1-0.9,3.8-4.4,3.8h-71.9
	c-12.7,0-23.1,4-24.4,16.7H443.4L443.4,676.2z"/>
</svg>
