<svg width="156" height="48" viewBox="0 0 156 48" fill="none" xmlns="http://www.w3.org/2000/svg">
  <path fill-rule="evenodd" clip-rule="evenodd" d="M74.9227 19.9663H67.4302C66.5546 19.9663 66.3883 20.0119 66.3883 20.7878V21.0926C66.3883 21.5399 66.6497 21.6549 67.2876 21.7735C67.2876 21.7735 72.0383 22.6425 72.583 22.7356C75.4199 23.2759 75.9865 24.3548 75.9865 26.6549V28.6265C75.9865 31.5381 74.6631 32.9219 70.4791 32.8981C67.2876 32.8981 62.1092 32.5239 62.1092 32.5239L62.1585 29.1431H69.9362C71.2596 29.1431 71.7074 28.9076 71.7074 27.9218V27.2172C71.7074 26.8667 71.638 26.5381 71.0933 26.445C70.5266 26.3263 66.933 25.6929 66.5546 25.6217C63.4582 25.0832 61.9922 24.8714 61.9922 21.9378V20.4355C61.9922 17.5019 63.4106 16.2113 67.5947 16.2113C70.7862 16.2113 74.9702 16.5873 74.9702 16.5873L74.9227 19.9663Z" fill="white"/>
  <path fill-rule="evenodd" clip-rule="evenodd" d="M83.6901 25.5027H87.7316L86.0536 19.6374H85.3681L83.6901 25.5027ZM88.6784 29.046H82.767L81.6794 32.7773H77C77 32.7773 81.7288 17.9926 82.0596 17.0069C82.2479 16.3734 82.3192 16.3497 83.1691 16.3497H88.2763C89.1281 16.3497 89.1975 16.3734 89.3858 17.0069C89.6947 17.9926 94.4217 32.7773 94.4217 32.7773H89.7642L88.6784 29.046Z" fill="white"/>
  <path d="M96.4023 16.3536H100.681V32.7812H96.4023V16.3536Z" fill="white"/>
  <path d="M108.174 24.517V19.8236H112.31C113.54 19.8236 114.014 20.4096 114.014 21.4666V22.8758C114.014 23.9072 113.54 24.517 112.31 24.517H108.174ZM113.643 16.3515H103.896V32.7773H108.174V27.9909H113.469C116.661 27.9909 118.293 26.1599 118.293 23.7192V20.5976C118.293 18.2007 116.719 16.4154 113.643 16.3515Z" fill="white"/>
  <path d="M133.464 16.3497H120.908V32.7773H133.438V29.0935H125.191V26.253H132.21V22.686H125.191V19.8236H133.464V16.3497Z" fill="white"/>
  <path d="M155.438 16.3497H150.028C149.79 16.3497 149.743 16.5614 149.743 16.5614L146.034 26.3242H145.844L142.133 16.5614C142.133 16.5614 142.084 16.3497 141.85 16.3497H136.436V32.7773H140.715V23.8598H140.949L143.859 32.4725C143.859 32.4725 143.93 32.7773 144.235 32.7773H147.662C147.948 32.7773 148.017 32.4725 148.017 32.4725L150.925 23.8598H151.161V32.7773H155.438V16.3497Z" fill="white"/>
  <path d="M10.9961 17.8859V26.0221L38.8185 31.3672V23.2309L10.9961 17.8859Z" fill="#E98300"/>
  <path d="M8.2895 36.8877H0V49.25H23.6822V40.9823H8.2895V36.8877ZM41.453 23.7295V40.9276L26.1316 40.9823V49.25H49.8138V25.3451L41.453 23.7295ZM23.6822 -0.0001297H0V23.9011L8.2895 25.4911V8.19818H23.6822V-0.0001297ZM49.8138 -0.0001297H26.1316V8.19818H41.453V12.2964H49.8138V-0.0001297Z" fill="white"/>
</svg>
