<?xml version="1.0" encoding="utf-8"?>
<!-- Generator: Adobe Illustrator 22.1.0, SVG Export Plug-In . SVG Version: 6.00 Build 0)  -->
<svg version="1.1" id="Layer_1" xmlns="http://www.w3.org/2000/svg" xmlns:xlink="http://www.w3.org/1999/xlink" x="0px" y="0px"
	 viewBox="0 0 1000 1000" style="enable-background:new 0 0 1000 1000;" xml:space="preserve">
<style type="text/css">
	.st0{fill:url(#SVGID_1_);}
	.st1{fill:url(#SVGID_2_);}
	.st2{fill:url(#SVGID_3_);}
	.st3{fill:url(#SVGID_4_);}
	.st4{fill:url(#SVGID_5_);}
	.st5{fill:#1D3E72;}
	.st6{fill:#E8F5FA;}
	.st7{fill:#AEDBF2;}
	.st8{fill:url(#SVGID_6_);}
	.st9{fill:#2E8842;}
	.st10{fill:url(#SVGID_7_);}
</style>
<g>
	<linearGradient id="SVGID_1_" gradientUnits="userSpaceOnUse" x1="448.4205" y1="361.183" x2="448.5277" y2="361.183">
		<stop  offset="0" style="stop-color:#1C8140"/>
		<stop  offset="0.5226" style="stop-color:#5EAD46"/>
		<stop  offset="1" style="stop-color:#1C8140"/>
	</linearGradient>
	<path class="st0" d="M448.5,361.3c0-0.1-0.1-0.1-0.1-0.2C448.5,361.1,448.5,361.2,448.5,361.3z"/>
	<linearGradient id="SVGID_2_" gradientUnits="userSpaceOnUse" x1="291.3523" y1="346.1616" x2="626.7841" y2="346.1616">
		<stop  offset="0" style="stop-color:#1C8140"/>
		<stop  offset="0.5226" style="stop-color:#5EAD46"/>
		<stop  offset="1" style="stop-color:#1C8140"/>
	</linearGradient>
	<path class="st1" d="M626.8,274c-38.8,56.8-146.9,4.9-240.4,35.7s-95,106.3-95,106.3c-0.3,4.2,3.5,1.7,3.5,1.7
		c29-42.7,144.8-68.8,152.5-58.2C447.4,359.4,587.9,339.3,626.8,274z"/>
	<linearGradient id="SVGID_3_" gradientUnits="userSpaceOnUse" x1="448.5277" y1="362.118" x2="448.8703" y2="362.118">
		<stop  offset="0" style="stop-color:#1C8140"/>
		<stop  offset="0.5226" style="stop-color:#5EAD46"/>
		<stop  offset="1" style="stop-color:#1C8140"/>
	</linearGradient>
	<path class="st2" d="M448.9,362.9L448.9,362.9c0-0.5-0.1-1.1-0.3-1.7C448.8,361.9,448.9,362.4,448.9,362.9z"/>
	<linearGradient id="SVGID_4_" gradientUnits="userSpaceOnUse" x1="447.4281" y1="360.2387" x2="448.4205" y2="360.2387">
		<stop  offset="0" style="stop-color:#1C8140"/>
		<stop  offset="0.5226" style="stop-color:#5EAD46"/>
		<stop  offset="1" style="stop-color:#1C8140"/>
	</linearGradient>
	<path class="st3" d="M448.4,361.1c-0.2-0.5-0.6-1.1-1-1.7C447.9,360,448.2,360.5,448.4,361.1z"/>
</g>
<linearGradient id="SVGID_5_" gradientUnits="userSpaceOnUse" x1="573.8361" y1="343.1688" x2="393.0678" y2="411.8984">
	<stop  offset="0" style="stop-color:#5EAD46"/>
	<stop  offset="1" style="stop-color:#1C8140"/>
</linearGradient>
<path class="st4" d="M626.8,274c0,0,1.4,3,0.9,8.9c-14.7,19.4-60.9,64.7-178.8,80.1h0c-0.1,7.3-24.5,8.8-64.6,30.7
	c-26.8,14.7-38.8,27.5-44.2,35.6c-3.8,5.8-1.2,13.8,5.4,15.9c21.9,7.3,78.3,5.4,149.2-23c88.3-35.3,119-105.6,127.6-122.5
	C631,282.8,626.8,274,626.8,274z"/>
<path class="st5" d="M744,422c-1-4.3-6.3-5.9-9.4-2.7c-7.1,7.3-12.9,19-12.9,19c11.1,47.1,3.5,78.6,3.5,78.6
	c-13.7,53.2-54.8,71.1-54.8,71.1c25.2-63.6,12.5-97.7-4-112.3c-17.8-15.8-72.3-20.7-98.4,25.4c-28.5,50.3-16.5,88.5,8,105.9
	c24.5,17.4,64.3,6.4,64.3,6.4c-10.4,15.8-37.2,38.8-79.3,42.8c-42.1,4-70.3-16.5-70.3-16.5l-2.4,2.5c0,0,30.4,30,90.4,21.5
	s83.3-59,83.3-59C765.8,557.4,750.7,451.8,744,422z M669,533.6c-0.9,25.1-8.5,45.3-13.5,56c-2.6,5.6-7.5,9.7-13.4,11.2
	c-48.2,12.8-67.2-14-66.5-43.5c0.7-31.3,30.4-76.7,55.3-77.7C655.9,478.7,670.4,495.7,669,533.6z"/>
<path class="st5" d="M496.3,548.2c0,0-17.4,38.1-41.2,50.1c-23.8,12-38.6,14.6-48-8.9s7.5-63.3,24.7-82.9
	c17.2-19.5,40-33.2,64.5-22.1c24.5,11.1,18.1,56.3,12.2,71.3s-37.2,83.6-118.9,85c-81.7,1.4-112.7-32.7-123.1-76.3
	c-10.4-43.5,20.2-156.6,169.9-200.1c0,0-95.7,5.6-166.3,102c0,0-33.5,41.3-26.5,109.1c7.1,67.8,108,118.6,199.1,74.1
	c91.1-44.5,100.6-148.6,60-175.8c-40.6-27.2-97.4,10.2-112.3,48.4s-13.4,94.3,36.7,93.2c50.1-1.1,71.3-59,72.4-65.3
	C499.7,550.1,500.3,545.9,496.3,548.2z"/>
<ellipse transform="matrix(0.4613 -0.8872 0.8872 0.4613 -13.3875 844.5109)" class="st5" cx="688.8" cy="433.3" rx="9.7" ry="7.2"/>
<ellipse transform="matrix(0.4613 -0.8872 0.8872 0.4613 -113.1923 684.7703)" class="st5" cx="507.3" cy="435.6" rx="8.7" ry="6.4"/>
<ellipse transform="matrix(0.4613 -0.8872 0.8872 0.4613 -130.8321 696.4662)" class="st5" cx="508.1" cy="456" rx="8.7" ry="6.4"/>
<ellipse transform="matrix(0.4613 -0.8872 0.8872 0.4613 -134.6957 675.8776)" class="st5" cx="489.2" cy="448.9" rx="8.7" ry="6.4"/>
<path class="st6" d="M886.9,370.1c-56.3-165.6-274.7-241-487.8-168.6S59,467,115.3,632.6c56.3,165.6,274.7,241,487.8,168.6
	S943.2,535.7,886.9,370.1z M594.4,779.7c-208.7,71-419.6,5.9-471.1-145.4c-51.5-151.3,76-331.5,284.7-402.5
	c208.7-71,419.6-5.9,471.1,145.4C930.5,528.5,803.1,708.7,594.4,779.7z"/>
<g>
	<path class="st7" d="M402.5,211.8c212.7-72.4,429.4-1.1,484.6,159.1c-0.1-0.3-0.2-0.5-0.2-0.8c-56.3-165.6-274.7-241-487.8-168.6
		S59,467,115.3,632.6c0.1,0.3,0.2,0.5,0.3,0.8C61.5,472.8,189.8,284.2,402.5,211.8z"/>
	<path class="st7" d="M898.8,424.6C913.3,571.9,790.7,729.3,600.6,794c-190,64.7-383.3,14.7-461.6-110.9
		c79.7,129.7,274,182.8,464,118.1C793.1,736.5,914.7,576,898.8,424.6z"/>
</g>
<linearGradient id="SVGID_6_" gradientUnits="userSpaceOnUse" x1="291.3743" y1="357.5832" x2="450.347" y2="357.5832">
	<stop  offset="0" style="stop-color:#90C580"/>
	<stop  offset="1" style="stop-color:#90C580;stop-opacity:0"/>
</linearGradient>
<path class="st8" d="M450.3,299.3c-21.4,0.7-43.1,3.5-64,10.3c-93.6,30.7-95,106.3-95,106.3S300.5,322.8,450.3,299.3z"/>
<path class="st9" d="M473.6,421.9c-98.4,28.3-125.1,18.1-135,11.3c-0.9,5,1.8,10.3,7,12c21.9,7.3,78.3,5.4,149.2-23
	c88.3-35.3,119-105.6,127.6-122.5c8.6-16.9,4.4-25.8,4.4-25.8S593.9,387.3,473.6,421.9z"/>
<linearGradient id="SVGID_7_" gradientUnits="userSpaceOnUse" x1="447.4281" y1="318.453" x2="627.7895" y2="318.453">
	<stop  offset="0" style="stop-color:#86BC42"/>
	<stop  offset="1" style="stop-color:#A8C63A"/>
</linearGradient>
<path class="st10" d="M447.4,359.4c1,1.3,1.5,2.5,1.4,3.5h0c117.9-15.4,164.1-60.7,178.8-80.1c0.5-5.9-0.9-8.9-0.9-8.9
	C587.9,339.3,447.4,359.4,447.4,359.4z"/>
</svg>
