<?xml version="1.0" encoding="utf-8"?>
<!-- Generator: Adobe Illustrator 26.0.1, SVG Export Plug-In . SVG Version: 6.00 Build 0)  -->
<svg version="1.1" id="Layer_1" xmlns="http://www.w3.org/2000/svg" xmlns:xlink="http://www.w3.org/1999/xlink" x="0px" y="0px"
	 viewBox="0 0 208.4 195.4" style="enable-background:new 0 0 208.4 195.4;" xml:space="preserve">
<style type="text/css">
	.st0{fill:#FF6B0D;}
	.st1{fill:#F5B321;}
	.st2{fill:#00B5E3;}
	.st3{fill:#85BD00;}
	.st4{fill:#E34585;}
	.st5{fill:#1C4972;}
</style>
<g>
	<path id="Fill-1" class="st0" d="M128.1,83.6c0,0.4,0.3,0.7,0.7,0.7c0.4,0,0.7-0.3,0.7-0.7s-0.3-0.7-0.7-0.7
		C128.4,82.9,128.1,83.2,128.1,83.6"/>
	<path id="Fill-3" class="st1" d="M109.2,64.8c0.4,0,0.7-0.3,0.7-0.7c0-0.4-0.3-0.7-0.7-0.7c-0.4,0-0.7,0.3-0.7,0.7
		C108.5,64.5,108.8,64.8,109.2,64.8"/>
	<path id="Fill-5" class="st2" d="M66,98.4c-0.6,0.5-1.2,1.2-1.7,2l0.5,9.3c0,0.2,0.2,0.3,0.4,0.3c0,0,0,0,0.1,0
		c0.1,0,0.2-0.1,0.2-0.3L66,98.4z"/>
	<path id="Fill-7" class="st2" d="M71,95.3c-0.7,0.3-1.4,0.6-2,0.9l0.6,11.8c0,0.2,0.2,0.3,0.4,0.3c0,0,0.1,0,0.1,0
		c0.1,0,0.2-0.1,0.2-0.3L71,95.3z"/>
	<path id="Fill-9" class="st2" d="M76,93.4c-0.1,0.1-0.2,0.1-0.3,0.2c-0.6,0.4-1.2,0.6-1.8,0.9l0.7,12.4c0,0.2,0.2,0.3,0.4,0.3
		c0,0,0,0,0,0c0.1,0,0.2-0.1,0.2-0.3L76,93.4z"/>
	<path id="Fill-11" class="st3" d="M79.3,88.7c-0.3,0.4-0.5,0.7-0.7,1.1l0.8,16.1c0,0.2,0.2,0.3,0.4,0.3c0,0,0.1,0,0.1,0
		c0.1,0,0.2-0.1,0.2-0.3L81,87.6C80.3,87.8,79.7,88.2,79.3,88.7"/>
	<path id="Fill-13" class="st3" d="M85.6,87c-0.6,0.1-1.4,0.1-2.2,0.2l0.8,17.8c0,0.2,0.2,0.3,0.3,0.3c0.1,0,0.2,0,0.2,0
		c0.1,0,0.3-0.1,0.3-0.3l0.8-18C85.8,87,85.7,87,85.6,87"/>
	<path id="Fill-15" class="st3" d="M89.2,84.3c-0.3,0.4-0.6,0.8-0.9,1.1l0.8,19c0,0.2,0.2,0.3,0.3,0.3c0.1,0,0.2,0,0.3,0
		c0.1,0,0.3-0.1,0.3-0.3l0.9-21.3C90.4,83.3,89.8,83.5,89.2,84.3"/>
	<path id="Fill-17" class="st1" d="M95.2,75.5c0,0-1.4,1.6-2.2,3.2l1,25.2c0,0.2,0.2,0.3,0.3,0.3c0.1,0,0.2,0,0.3,0
		c0.2,0,0.3-0.1,0.3-0.3l1.1-29.2C95.6,75.1,95.4,75.3,95.2,75.5"/>
	<path id="Fill-19" class="st1" d="M97.7,72.8l1.1,30.9c0,0.2,0.1,0.3,0.3,0.3c0.1,0,0.3,0,0.4,0c0.2,0,0.3-0.1,0.3-0.3l1.2-33.4
		C100.1,70.7,98.9,71.7,97.7,72.8"/>
	<path id="Fill-21" class="st1" d="M105.9,69.4c-0.2,0-0.4,0-0.6-0.1c-1-0.1-1.7,0.1-2.7,0.4c0,0,0,0,0,0l1.1,33.8
		c0,0.2,0.1,0.3,0.3,0.3c0.1,0,0.2,0,0.3,0c0,0,0.1,0,0.1,0c0.2,0,0.3-0.1,0.3-0.3L105.9,69.4C105.9,69.4,105.9,69.4,105.9,69.4"/>
	<path id="Fill-23" class="st1" d="M107.4,69.4l1.3,34.3c0,0.2,0.1,0.3,0.3,0.3c0.1,0,0.2,0,0.3,0c0.2,0,0.3-0.1,0.3-0.3l1.2-34.4
		C109.9,69.2,108.6,69.3,107.4,69.4"/>
	<path id="Fill-25" class="st1" d="M115.5,78.9c-0.9-3.1-0.6-1.9-1.4-4.9c-0.4-1.5-0.9-2.6-1.6-3.5l1.3,33.3c0,0.2,0.1,0.3,0.3,0.3
		c0.1,0,0.2,0,0.3,0c0.2,0,0.3-0.1,0.3-0.3l0.9-24.7C115.5,79.1,115.5,79,115.5,78.9"/>
	<path id="Fill-27" class="st0" d="M119.5,84.5c-0.6-0.8-1.3-1.4-1.9-2.1l1,22c0,0.1,0.1,0.3,0.3,0.3c0.1,0,0.1,0,0.2,0
		c0.2,0,0.3-0.1,0.3-0.3l0.8-19C120,85.1,119.8,84.8,119.5,84.5"/>
	<path id="Fill-29" class="st0" d="M123,87.2c-0.2,0-0.3-0.1-0.4-0.1l0.8,17.8c0,0.1,0.1,0.3,0.3,0.3c0.1,0,0.1,0,0.2,0
		c0.2,0,0.3-0.1,0.3-0.3l0.8-17.6C124.3,87.3,123.6,87.3,123,87.2"/>
	<path id="Fill-31" class="st0" d="M129.4,88.8c-0.4-0.6-1.1-0.9-1.9-1.1l0.8,18c0,0.1,0.1,0.3,0.2,0.3c0.1,0,0.1,0,0.2,0
		c0.2,0,0.3-0.1,0.4-0.3l0.8-16.3C129.7,89.3,129.6,89.1,129.4,88.8"/>
	<path id="Fill-33" class="st4" d="M133.2,93.7c-0.3-0.2-0.5-0.3-0.7-0.5l0.8,13.6c0,0.1,0.1,0.2,0.2,0.3c0,0,0,0,0.1,0
		c0.2,0,0.4-0.1,0.4-0.3l0.7-12.3C134.2,94.3,133.7,94,133.2,93.7"/>
	<path id="Fill-35" class="st4" d="M137.4,95.4l0.7,12.6c0,0.1,0.1,0.2,0.2,0.3c0,0,0.1,0,0.1,0c0.2,0.1,0.4-0.1,0.4-0.3l0.6-11.6
		C138.8,96.1,138.2,95.8,137.4,95.4"/>
	<path id="Fill-37" class="st4" d="M144.2,100.9c-0.6-0.9-1.1-1.7-1.7-2.3l0.6,11c0,0.1,0.1,0.2,0.2,0.3c0,0,0.1,0,0.1,0
		c0.2,0.1,0.4-0.1,0.4-0.3L144.2,100.9z"/>
	<path id="Fill-39" class="st2" d="M71.1,88.2c0,0.6-0.5,1.1-1.1,1.1c-0.6,0-1.1-0.5-1.1-1.1c0-0.6,0.5-1.1,1.1-1.1
		C70.6,87.1,71.1,87.6,71.1,88.2"/>
	<path id="Fill-41" class="st3" d="M85.6,81.6c0,0.6-0.5,1.1-1.1,1.1c-0.6,0-1.1-0.5-1.1-1.1c0-0.6,0.5-1.1,1.1-1.1
		C85.1,80.5,85.6,81,85.6,81.6"/>
	<path id="Fill-43" class="st1" d="M105.3,61.3c0,0.6-0.5,1.1-1.1,1.1c-0.6,0-1.1-0.5-1.1-1.1s0.5-1.1,1.1-1.1
		C104.8,60.2,105.3,60.7,105.3,61.3"/>
	<path id="Fill-45" class="st0" d="M124.8,81.1c0,0.6-0.5,1.1-1.1,1.1c-0.6,0-1.1-0.5-1.1-1.1c0-0.6,0.5-1.1,1.1-1.1
		C124.4,80.1,124.8,80.6,124.8,81.1"/>
	<path id="Fill-47" class="st4" d="M139.6,90c0,0.6-0.5,1.1-1.1,1.1s-1.1-0.5-1.1-1.1c0-0.6,0.5-1.1,1.1-1.1S139.6,89.4,139.6,90"/>
	<path id="Fill-49" class="st5" d="M85.4,135.1c-0.3,0-0.6,0-0.9,0c-3.6,0-6.6-2-8.8-4.9c-0.9,0.3-1.9,0.5-3,0.5
		c-4.7,0-8.4-3.6-8.4-8.3c0-4.8,3.8-8.3,8.4-8.3c4.7,0,8.4,3.5,8.4,8.3c0,3.1-1.6,5.6-3.9,7.1c2,2.3,4.5,4,7.5,4
		c0.6,0,1.3,0,2.2-0.1C86.9,134.3,86.2,135,85.4,135.1 M79.1,122.4c0-3.8-2.7-6.6-6.5-6.6c-3.7,0-6.5,2.9-6.5,6.6
		c0,3.7,2.7,6.6,6.5,6.6C76.4,129.1,79.1,125.9,79.1,122.4 M84.1,129v-9.5h0.1c0.9,0,1.5,0.7,1.5,1.5v9.5h-0.2
		C84.8,130.5,84.1,129.8,84.1,129 M88.6,124.8c0-3.1,2.3-5.7,5.5-5.7c1.6,0,3.3,0.7,4.2,1.8v-6.5h0.1c0.9,0,1.6,0.7,1.6,1.6v14.6h0
		c-0.9,0-1.6-0.7-1.6-1.7c-0.9,1.3-2.6,2-4.2,2C90.9,130.8,88.6,128.1,88.6,124.8 M98.3,124.8c0-2.5-1.6-4.1-3.9-4.1
		c-2.4,0-4,1.9-4,4.1c0,2.5,1.7,4.4,4,4.4C96.7,129.2,98.3,127.4,98.3,124.8 M102.8,124.8c0-3.1,2.3-5.7,5.5-5.7
		c1.6,0,3.3,0.7,4.2,1.8v-6.5h0.1c0.9,0,1.6,0.7,1.6,1.6v14.6h0c-0.9,0-1.6-0.7-1.6-1.7c-0.9,1.3-2.6,2-4.2,2
		C105,130.8,102.8,128.1,102.8,124.8 M112.5,124.8c0-2.5-1.6-4.1-3.9-4.1c-2.4,0-4,1.9-4,4.1c0,2.5,1.7,4.4,4,4.4
		C110.9,129.2,112.5,127.4,112.5,124.8 M117.7,129v-9.5h0.1c0.9,0,1.5,0.7,1.5,1.5v9.5h-0.2C118.4,130.5,117.7,129.8,117.7,129
		 M121.3,133.6v-0.1c1.2,0.2,2,0.2,2.7-0.3c0.6-0.3,1.3-1.6,2.1-3.3l-4.5-10.5h0.6c1.1,0,1.4,0.4,1.6,1l3.2,7.6l3.6-8.5h1.8
		l-5.6,12.8c-0.8,1.8-2.2,2.9-3.8,2.9h-0.1C122,135.1,121.3,134.4,121.3,133.6 M132.8,124.8c0-3.1,2.3-5.7,5.5-5.7
		c1.6,0,3.3,0.7,4.2,1.8v-1.5h1.7v11.1h0c-0.9,0-1.6-0.7-1.6-1.7c-0.9,1.3-2.6,2-4.2,2C135,130.8,132.8,128,132.8,124.8
		 M142.5,124.8c0-2.5-1.6-4.1-3.9-4.1c-2.4,0-4,1.9-4,4.1c0,2.4,1.7,4.4,4,4.4C140.9,129.2,142.5,127.3,142.5,124.8 M85,114.4
		c-0.6,0-1.1,0.5-1.1,1.1c0,0.6,0.5,1.1,1.1,1.1c0.6,0,1.1-0.5,1.1-1.1C86.1,114.9,85.6,114.4,85,114.4 M118.5,114.4
		c-0.6,0-1.1,0.5-1.1,1.1c0,0.6,0.5,1.1,1.1,1.1c0.6,0,1.1-0.5,1.1-1.1C119.6,114.9,119.1,114.4,118.5,114.4"/>
</g>
</svg>
