<?xml version="1.0" encoding="utf-8"?>
<!-- Generator: Adobe Illustrator 28.1.0, SVG Export Plug-In . SVG Version: 6.00 Build 0)  -->
<svg version="1.1" id="Layer_1" xmlns="http://www.w3.org/2000/svg" xmlns:xlink="http://www.w3.org/1999/xlink" x="0px" y="0px"
	 viewBox="0 0 1000 1000" style="enable-background:new 0 0 1000 1000;" xml:space="preserve">
<style type="text/css">
	.st0{fill:#3D3935;}
	.st1{fill:#007690;}
</style>
<g>
	<path class="st0" d="M413.3,537.6l1-4.8c2.3,0.9,4.8,1.4,7.2,1.5c3.1,0,4.6-1,4.6-3.2c0.1-1-0.4-1.9-1.2-2.5
		c-1.3-0.8-2.7-1.4-4.2-1.8c-2.1-0.6-3.9-1.7-5.5-3.1c-1.3-1.4-2-3.2-1.9-5.1c-0.1-2.2,0.8-4.4,2.5-5.9c1.7-1.4,4-2.1,7-2.1
		c2.5-0.1,5.1,0.4,7.4,1.4l-1.1,4.7c-1.9-0.8-3.9-1.2-6-1.2c-2.8,0-4.1,1-4.1,2.9c-0.1,0.9,0.3,1.7,0.9,2.3c1.1,0.7,2.3,1.3,3.5,1.7
		c1.3,0.5,2.4,0.9,3.3,1.3c0.9,0.4,1.8,1,2.5,1.6c0.8,0.6,1.4,1.5,1.8,2.4c0.4,1.1,0.6,2.2,0.6,3.4c0.1,2.3-0.9,4.5-2.7,6
		c-2.1,1.5-4.7,2.2-7.3,2.1C418.8,539.2,415.9,538.7,413.3,537.6"/>
	<path class="st0" d="M452.8,538.7l-1.7-6.1H441c-0.5,1.8-1.1,3.9-1.7,6.1h-5.8c3.2-11.5,6.3-20.7,9.6-27.6h5.9
		c3.3,7.1,6.5,16.3,9.6,27.6H452.8z M446.1,517.1c-1.5,3.5-2.7,7.1-3.7,10.8h7.4C448.7,524.2,447.5,520.6,446.1,517.1"/>
	<path class="st0" d="M459.6,527.8v-16.6h5.6v16.2c0,4.6,1.8,6.9,5.3,6.9s5.3-2.3,5.3-6.9v-16.2h5.6v16.6c0,3.7-0.9,6.5-2.8,8.5
		c-1.9,2-4.6,2.9-8.1,2.9c-3.5,0-6.3-1-8.1-2.9C460.5,534.3,459.6,531.5,459.6,527.8"/>
	<path class="st0" d="M487,538.7v-27.6h9.2c4.2,0,7.5,1.2,10,3.7s3.7,5.8,3.7,10c0,4.3-1.2,7.7-3.7,10.2c-2.5,2.5-5.8,3.7-10,3.7
		H487z M496.1,515.9h-3.4v18h3.4c5.4,0,8-3,8-9.1C504.1,518.9,501.4,515.9,496.1,515.9"/>
	<rect x="514.2" y="511.1" class="st0" width="5.6" height="27.6"/>
	<path class="st0" d="M551.8,538.7l-1.6-6.1h-10.2c-0.5,1.8-1.1,3.9-1.7,6.1h-5.8c3.2-11.5,6.4-20.7,9.6-27.6h5.9
		c3.3,7.1,6.6,16.3,9.6,27.6H551.8z M545,517.1c-1.5,3.5-2.7,7.1-3.7,10.8h7.4C547.7,524.2,546.5,520.6,545,517.1"/>
	<path class="st0" d="M568.4,528.5h-1.7v10.3H561v-27.6h8.1c3.4,0,6.1,0.7,8,2.1c1.9,1.4,3,3.7,2.9,6.1c0,4-1.8,6.4-5.5,7.4
		c1.2,0.5,2.3,1.7,3.3,3.7l4,8.4h-6.1l-3.8-7.8c-0.3-0.7-0.9-1.4-1.5-1.9C569.9,528.6,569.2,528.4,568.4,528.5 M568.9,515.9h-2.2
		v7.8h2.2c3.6,0,5.4-1.3,5.4-3.9c0.1-1.2-0.4-2.3-1.3-3C571.6,516.1,570.2,515.8,568.9,515.9"/>
	<path class="st0" d="M602.6,538.7l-1.7-6.1h-10.2c-0.5,1.8-1.1,3.9-1.7,6.1h-5.8c3.2-11.5,6.3-20.7,9.6-27.6h5.9
		c3.3,7.1,6.6,16.3,9.6,27.6H602.6z M595.9,517.1c-1.5,3.5-2.7,7.1-3.8,10.8h7.4C598.6,524.2,597.4,520.6,595.9,517.1"/>
	<path class="st0" d="M621.2,538.7h-9.3v-27.6h8.5c3.2,0,5.7,0.6,7.5,1.8c1.8,1.2,2.8,3.2,2.7,5.3c0.1,2.3-1,4.5-3,5.7
		c2.6,1.1,4.2,3.7,4.1,6.6c0,2.7-0.9,4.7-2.7,6.1S624.5,538.7,621.2,538.7 M617.3,515.9v6.7h4c2.4,0,3.6-1.2,3.6-3.5
		c0-2.1-1.5-3.2-4.5-3.2L617.3,515.9z M617.3,526.8v7.1h3.4c1.4,0.1,2.7-0.2,3.9-0.8c0.9-0.6,1.4-1.6,1.3-2.6c0-2.4-1.6-3.6-4.8-3.6
		L617.3,526.8z"/>
	<rect x="635.8" y="511.1" class="st0" width="5.6" height="27.6"/>
	<path class="st0" d="M664.1,538.7l-1.7-6.1h-10.2c-0.6,1.8-1.1,3.9-1.7,6.1h-5.8c3.2-11.5,6.3-20.7,9.6-27.6h5.9
		c3.3,7.1,6.6,16.3,9.6,27.6H664.1z M657.4,517.1c-1.5,3.5-2.7,7.1-3.7,10.8h7.3C660,524.2,658.8,520.6,657.4,517.1"/>
	<path class="st0" d="M689.9,528.5h-1.7v10.3h-5.7v-27.6h8.1c3.4,0,6.1,0.7,8,2.1c1.9,1.4,3,3.7,2.9,6.1c0,4-1.8,6.4-5.5,7.4
		c1.2,0.5,2.3,1.7,3.3,3.7l4,8.4h-6.1l-3.8-7.8c-0.3-0.7-0.9-1.4-1.5-1.9C691.4,528.6,690.7,528.4,689.9,528.5 M690.4,515.9h-2.2
		v7.8h2.2c3.6,0,5.4-1.3,5.4-3.9c0.1-1.2-0.4-2.3-1.3-3C693.2,516.1,691.8,515.8,690.4,515.9"/>
	<path class="st0" d="M724.2,538.7l-1.7-6.1h-10.2c-0.6,1.8-1.1,3.9-1.7,6.1h-5.8c3.2-11.5,6.3-20.7,9.6-27.6h5.9
		c3.3,7.1,6.6,16.3,9.6,27.6H724.2z M717.4,517.1c-1.5,3.5-2.7,7.1-3.7,10.8h7.4C720.1,524.2,718.9,520.6,717.4,517.1"/>
	<rect x="733.4" y="511.1" class="st0" width="5.6" height="27.6"/>
	<polygon class="st0" points="744.7,538.7 744.7,511.1 750.4,511.1 750.4,533.9 761.5,533.9 761.5,538.7 	"/>
	<path class="st0" d="M787.6,533.4c0.8-2.5,1.7-5.8,2.7-10c1-4.2,1.7-8.3,2.3-12.3h5.8c-1.9,11.4-4.3,20.6-7.5,27.6h-6.2
		c-2.2-5.6-3.9-11.3-5.1-17.2c-1.3,5.9-3,11.6-5.2,17.2h-6.2c-1.7-4.2-3.2-8.6-4.3-13c-1.3-5-2.3-9.8-3.1-14.6h5.7
		c0.6,4,1.4,8.1,2.3,12.4c0.7,3.4,1.6,6.7,2.7,9.9c1.2-3.4,2.3-6.8,3.1-10.3c1-4,1.8-8,2.4-12h5c0.6,4.1,1.4,8.1,2.4,12.1
		C785.3,526.7,786.4,530.1,787.6,533.4"/>
	<path class="st0" d="M816.7,538.7l-1.7-6.1h-10.2c-0.5,1.8-1.1,3.9-1.7,6.1h-5.8c3.2-11.5,6.3-20.7,9.6-27.6h5.9
		c3.3,7.1,6.5,16.3,9.6,27.6H816.7z M810,517.1c-1.5,3.5-2.7,7.1-3.7,10.8h7.4C812.6,524.2,811.4,520.6,810,517.1"/>
	<path class="st0" d="M831.4,538.7h-5.6v-11c-4.5-6.4-7.5-11.9-9.1-16.6h5.8c1.6,4.2,3.7,8.2,6.2,12c2.5-3.8,4.5-7.8,6.1-12h5.8
		c-1.7,4.7-4.8,10.3-9.2,16.6V538.7z"/>
	<path class="st0" d="M842.3,537.6l1-4.8c2.3,0.9,4.8,1.4,7.2,1.5c3,0,4.6-1,4.6-3.2c0.1-1-0.4-2-1.2-2.5c-1.3-0.8-2.7-1.4-4.2-1.8
		c-2.1-0.6-3.9-1.7-5.5-3.1c-1.3-1.4-2-3.2-1.9-5.1c-0.1-2.2,0.8-4.4,2.5-5.9c1.7-1.4,4-2.1,7-2.1c2.5-0.1,5.1,0.4,7.4,1.4l-1.1,4.7
		c-1.9-0.8-3.9-1.2-6-1.2c-2.8,0-4.1,1-4.1,2.9c-0.1,0.9,0.3,1.7,0.9,2.3c1.1,0.7,2.3,1.3,3.5,1.7c1.3,0.5,2.4,0.9,3.3,1.3
		c0.9,0.4,1.8,1,2.5,1.6c0.8,0.6,1.4,1.5,1.8,2.4c0.4,1.1,0.6,2.2,0.6,3.4c0.1,2.3-0.9,4.6-2.7,6c-2.1,1.5-4.7,2.2-7.2,2.1
		C847.9,539.2,845,538.7,842.3,537.6"/>
	<polygon class="st1" points="211.6,537.3 236.8,537.3 260.4,460.7 251.9,460.7 	"/>
	<polygon class="st1" points="272.5,460.7 264,460.7 287.6,537.3 312.8,537.3 	"/>
	<path class="st0" d="M142.7,522.4v14.8h42.2c12.6-0.1,22.8-10.4,22.7-23c-0.1-12.6-10.4-22.8-23-22.7h-22.7c-4.4,0-8-3.5-8-7.9
		c0,0,0,0,0,0v-0.2c0-4.4,3.5-7.9,7.9-7.9c0,0,0,0,0,0h38v-14.8h-38.5c-12.6,0.3-22.6,10.8-22.3,23.4c0.3,12.3,10.3,22.2,22.6,22.3
		h22.7c4.4,0,8,3.5,8,7.9c0,0,0,0,0,0v0.2c0,4.4-3.6,7.9-7.9,7.9H142.7z"/>
	<path class="st0" d="M324.8,537.3h14.5c0.1,0,0.2-0.1,0.2-0.2c0,0,0,0,0,0v-61.4c0-0.1,0.1-0.2,0.2-0.2l0,0h25.7
		c4.5,0,8.1,3.7,8.1,8.1c0,4.4-3.6,7.9-7.9,7.9h-18c-0.1,0-0.2,0.1-0.2,0.2c0,0,0,0.1,0,0.1l25.7,45.2c0,0.1,0.1,0.1,0.2,0.1h16
		c0.1,0,0.2-0.1,0.2-0.2c0,0,0-0.1,0-0.1l-17-29.5l-0.8-1.5c-0.1-0.1,0-0.2,0.1-0.3c0,0,0,0,0,0l1.6-0.6
		c11.9-4.2,18.1-17.3,13.9-29.2c-3-8.6-10.9-14.5-20-15.2c-0.4,0-0.8,0-1.2,0h-41.2c-0.1,0-0.2,0.1-0.2,0.2c0,0,0,0,0,0v76.3
		C324.6,537.2,324.7,537.3,324.8,537.3"/>
	<polygon class="st0" points="426.4,465.3 429.5,468.2 433.1,464.5 429.4,460.8 426.4,463.8 423.3,460.8 419.6,464.5 423.4,468.2 	
		"/>
	<path class="st0" d="M421.4,487c-2.3,0-3.6-1.2-3.6-3.2c0-3.1,2.7-5.6,7.6-6.5v6.5c0,0.8,0.1,1.6,0.2,2.3
		C424.2,486.7,422.8,487,421.4,487 M433.1,492.1h3.3c5.8,0,8.8-3.1,8.8-7.9c0-2.7-0.4-5.7-1.2-11.5h-5c0.9,5.6,1.2,8.4,1.2,10.6
		c0,2.2-0.9,3.4-3.8,3.4h-3.3c-2.1,0-2.7-1-2.7-2.8v-13.4h-5v2.2c-9.3,1.5-12.5,7.1-12.5,11.5c0,4.8,3.3,7.8,8.4,7.8
		c2.2,0,4-0.8,6.2-2C428.7,491.4,430.6,492.1,433.1,492.1"/>
	<polygon class="st0" points="439,497.4 436,494.5 432.3,498.2 436.1,501.9 439,499.1 442,501.9 445.7,498.2 441.9,494.5 	"/>
	<path class="st0" d="M454.7,472.8c2.7,5.6,4.2,10.3,4.2,11.8c0,1.7-1.2,2.3-4.1,2.3c-2.2,0-4.4-0.4-6.6-1l-1,5
		c2.8,0.8,5.7,1.2,8.7,1.2c5.2,0,7.9-2.5,7.9-6.8c0-2.7-1.6-7.5-4-12.5L454.7,472.8z"/>
	<path class="st0" d="M499.7,485.9c-1.5-2.7-3.3-5.3-5.3-7.7c1.5-0.7,3.1-1,4.7-1.1c3.1,0,4.9,1.4,4.9,3.4S502.4,484.7,499.7,485.9
		 M477.9,487c-4,0-6.2-1.5-6.2-4.6c0-2.8,1.9-4.7,4.3-4.7s3.7,1.5,3.9,4.6c0.1,1.5,0.2,2.9,0.3,4.7C479.6,486.9,478.9,487,477.9,487
		 M551.5,483.4c0,2.4-0.9,3.4-3.8,3.4c-1.7,0-3.3-0.4-4.7-1.2c0.6-2.7,0.9-5.5,0.9-8.3v-2.8h-4.7v2.8c0,3.8-0.2,6.2-0.9,7.6
		c-0.6,1.3-1.7,1.9-3.5,1.9c-1.4,0-2.7-0.3-3.9-0.9c0.7-2.8,1-5.7,1-8.6h-4.7c0,3.8-0.2,6.2-0.9,7.6c-0.6,1.3-1.7,1.9-3.4,1.9
		c-1.5,0-2.9-0.4-4.2-1c0.7-2.8,1-5.6,0.9-8.4h-4.7c0,3.8-0.2,6.2-0.9,7.6c-0.5,1.3-1.7,2-3,1.9l0,0h0c-1.8,0-3.5-0.1-5.3-0.3
		c2.1-1.8,3.4-4.4,3.5-7.2c0-4.1-3.7-7.3-9.3-7.3c-3.5,0-7.9,1.6-12.4,4.6l2.1,4.2c0.4-0.2,0.8-0.4,1.1-0.6c1.7,1.9,3.3,4,4.5,6.3
		c-2.6,0.3-5.2,0.5-7.8,0.4H485c0-2.2-0.1-3.6-0.2-5c-0.3-6-3.7-9.4-8.7-9.4c-5.3,0-9.3,4.3-9.3,10c0,5.9,4.1,9.6,10.4,9.6h2.7
		c-0.9,2.5-4.2,4-9.8,4v4.5c9.9,0,14.1-3.5,14.8-8.6h2.3c6.1,0,9-0.4,13.1-2.2c3.3,1.5,6.8,2.3,10.4,2.2h0l0,0
		c2.3,0.1,4.4-0.9,5.9-2.6c2.6,1.8,4.3,2.6,6.4,2.6c2.2,0.1,4.3-0.8,5.8-2.5c2.5,1.7,4.2,2.5,6.2,2.5c2.3,0.1,4.6-0.9,6.1-2.7
		c1.7,1.7,4,2.7,6.4,2.7l0,0c5.8,0,8.8-3.1,8.8-7.8v-21.1h-5L551.5,483.4z"/>
	<rect x="562.9" y="463.2" class="st0" width="5" height="28.9"/>
	<polygon class="st0" points="594.6,465.3 597.7,468.2 601.3,464.5 597.6,460.8 594.6,463.8 591.5,460.8 587.8,464.5 591.6,468.2 	
		"/>
	<polygon class="st0" points="607.2,497.4 604.3,494.5 600.6,498.2 604.3,501.9 607.2,499.1 610.2,501.9 613.9,498.2 610.2,494.5 	
		"/>
	<path class="st0" d="M589.6,487c-2.3,0-3.6-1.2-3.6-3.2c0-3.1,2.7-5.6,7.6-6.5v6.5c0,0.8,0.1,1.6,0.2,2.3
		C592.4,486.7,591,487,589.6,487 M601.3,492.1h3.3c5.8,0,8.8-3.1,8.8-7.9c0-2.7-0.4-5.7-1.2-11.5h-5c0.9,5.6,1.2,8.4,1.2,10.6
		c0,2.2-0.9,3.4-3.8,3.4h-3.3c-2.1,0-2.7-1-2.7-2.8v-13.4h-5v2.2c-9.3,1.5-12.5,7.1-12.5,11.5c0,4.8,3.3,7.8,8.4,7.8
		c2.2,0,4-0.8,6.2-2C597,491.4,598.8,492.1,601.3,492.1"/>
	<path class="st0" d="M635.5,492.1h3.3c5.8,0,8.8-3.1,8.8-7.9c0-2.7-0.4-5.7-1.2-11.5h-5c0.9,5.6,1.2,8.4,1.2,10.6
		c0,2.2-0.9,3.4-3.8,3.4h-3.3c-2.1,0-3.5-1.2-4.2-3.4c-0.9-2.7-1.5-6.6-2.1-10.6H624c0.7,4.2,1.6,8.3,2.9,12.4l0.5,1.2
		c-3.6,0.7-7.3,0.6-10.9-0.5l-1,5c2.2,0.8,4.6,1.2,7,1.2c2.6,0,5.1-0.7,7.2-2.2C631.3,491.4,633.4,492.2,635.5,492.1"/>
	<polygon class="st0" points="641.4,497.4 638.4,494.5 634.7,498.2 638.5,501.9 641.4,499.1 644.3,501.9 648,498.2 644.3,494.5 	"/>
	<path class="st0" d="M698.6,483.4c0,2.4-0.9,3.4-3.8,3.4c-2.4,0-3.7-0.6-4.3-1.5l1.2-0.2l1.4-5.1c-7.3-1.8-10-7.5-16-7.5
		c-2,0.1-3.9,0.6-5.6,1.6l1.4,4.5c1.3-0.6,2.6-0.9,4-0.9c3.5,0,5.5,2.5,10,4.7c-4.7,1.8-7.8,4.4-17.1,4.4l0,0
		c-2.1,0-3.5-1.2-4.2-3.4c-0.9-2.7-1.5-6.6-2.1-10.6h-5.2c0.6,4.2,1.6,8.3,2.8,12.4l0.5,1.2c-1.5,0.3-3.1,0.5-4.7,0.4
		c-2.1,0-4.2-0.3-6.2-1l-1,5c2.2,0.8,4.6,1.2,7,1.2c2.6,0,5.1-0.7,7.2-2.2c1.5,1.4,3.6,2.2,5.7,2.2l0,0c10.6,0,12.2-3.7,17.6-5.8
		c0.5,3.8,3.1,5.8,7.5,5.8c5.8,0,8.8-3.1,8.8-7.8v-21.1h-5L698.6,483.4z"/>
	<rect x="710" y="463.2" class="st0" width="5" height="28.9"/>
	<path class="st0" d="M742.9,486.9c-2.1,0-4.1-0.1-6.1-0.2c7.1-7.8,9.8-10.4,13.3-10.4c2.7,0,4.7,1.8,4.7,4.3
		C754.7,484.2,750.1,486.9,742.9,486.9 M751,470.9c-4.2,0-7.6,2.3-13.7,9c0.6-2.5,1-5.1,1.1-7.7v-8.9h-5v21.2
		c-0.4,0.6-0.9,1.1-1.4,1.6c-1.2-0.2-2.4-0.4-3.6-0.6l-1,4.9c4.9,1.2,10,1.8,15.1,1.8c11.1,0,17.3-4.9,17.3-12.3
		C759.7,474.7,756.1,470.9,751,470.9"/>
	<polygon class="st0" points="829.6,466.3 825.9,462.6 822.2,466.3 825.9,470 	"/>
	<path class="st0" d="M796.5,486.9h-6.2c6.9-7.7,9.8-10.7,13.3-10.7c2.4-0.2,4.5,1.7,4.6,4.1c0,0.1,0,0.2,0,0.3
		C808.2,484.2,803.5,486.9,796.5,486.9 M773.8,487c-4,0-6.2-1.5-6.2-4.6c0-2.8,1.9-4.7,4.3-4.7c2.3,0,3.7,1.5,3.9,4.6
		c0.1,1.5,0.2,2.9,0.3,4.7C775.5,487,774.9,487,773.8,487 M844.7,483.4c0,2.4-0.9,3.4-3.8,3.4c-2.4,0-3.7-0.6-4.3-1.5l1.3-0.2
		l1.4-5.1c-7.3-1.8-10-7.5-16-7.5c-2,0.1-3.9,0.6-5.6,1.6l1.4,4.5c1.3-0.6,2.6-0.9,4-0.9c3.5,0,5.5,2.5,10,4.7
		c-4.7,1.8-7.9,4.4-17.1,4.4h0c-1.5,0-2.9-0.3-4.3-1c1.2-1.8,1.8-3.9,1.8-6.1c0.2-4.7-3.5-8.7-8.2-8.9c-0.2,0-0.3,0-0.5,0
		c-4,0-7.6,2.4-13.4,9c0.6-2.6,1-5.2,1.1-7.8v-8.9h-5.1v21.5c-0.6,0.7-1.1,1.4-1.7,2.2H781c0-2.2-0.1-3.6-0.2-5
		c-0.3-6-3.7-9.4-8.7-9.4c-5.3,0-9.3,4.3-9.3,10c0,5.9,4.1,9.6,10.4,9.6h2.7c-0.9,2.5-4.2,4-9.8,4v4.5c9.9,0,14.1-3.5,14.8-8.6h15.9
		c4.9,0,9-1.2,11.8-3.3c2.2,2.2,4.7,3.3,7,3.3h0c10.6,0,12.2-3.7,17.6-5.8c0.5,3.8,3.1,5.8,7.5,5.8c5.8,0,8.8-3.1,8.8-7.8v-21h-5
		L844.7,483.4z"/>
	<rect x="856.2" y="463.2" class="st0" width="5" height="28.9"/>
</g>
</svg>
