<?xml version="1.0" encoding="utf-8"?>
<!-- Generator: Adobe Illustrator 28.1.0, SVG Export Plug-In . SVG Version: 6.00 Build 0)  -->
<svg version="1.1" id="Layer_1" xmlns="http://www.w3.org/2000/svg" xmlns:xlink="http://www.w3.org/1999/xlink" x="0px" y="0px"
	 viewBox="0 0 1000 1000" style="enable-background:new 0 0 1000 1000;" xml:space="preserve">
<style type="text/css">
	.st0{clip-path:url(#SVGID_00000055693455261367418270000003709175773301634993_);}
	.st1{clip-path:url(#SVGID_00000080181100724110975710000004503961758594219447_);}
	.st2{clip-path:url(#SVGID_00000097499231591584400590000016811368762654699187_);}
	.st3{clip-path:url(#SVGID_00000127017155953830133880000003196490494105467305_);}
	.st4{fill:#9A791D;}
	.st5{fill:#B1881B;}
	.st6{fill:#AC8C34;}
	.st7{fill:#C29E3D;}
	.st8{fill:#C1921C;}
	.st9{fill:#CB991B;}
	.st10{fill:#D1AE45;}
	.st11{fill:#DAB94E;}
	.st12{fill:#B79944;}
	.st13{fill:#CDB155;}
	.st14{fill:#C1A34F;}
	.st15{fill:#D3C069;}
	.st16{fill:#DCC565;}
	.st17{fill:#E5D273;}
	.st18{fill:#E5D47C;}
	.st19{fill:#EDE28B;}
	.st20{fill:#C2A651;}
	.st21{fill:#C0A44F;}
	.st22{fill:#D6C46F;}
	.st23{fill:#D4C16C;}
	.st24{fill:#B99F49;}
	.st25{fill:#CFBC65;}
	.st26{fill:#E8D885;}
	.st27{fill:#E4D882;}
	.st28{fill:#EFE992;}
	.st29{fill:#EFE691;}
	.st30{fill:#E0D07B;}
	.st31{fill:#EADE88;}
	.st32{fill:#A58F35;}
	.st33{fill:#BEAA53;}
	.st34{fill:#927F23;}
	.st35{fill:#8B771C;}
	.st36{fill:#B0973D;}
	.st37{fill:#AB9137;}
	.st38{fill:#D3BF65;}
	.st39{fill:#DFCB72;}
	.st40{fill:#C5AC51;}
	.st41{fill:#C2A54A;}
	.st42{fill:#D3B65D;}
	.st43{fill:#CFAE54;}
	.st44{fill:#8B731A;}
	.st45{fill:#AA8D34;}
	.st46{fill:#8F6F1B;}
	.st47{fill:#AD8C37;}
	.st48{fill:#C2A146;}
	.st49{fill:#CEAD51;}
	.st50{fill:#C5A44A;}
	.st51{fill:#D2B357;}
	.st52{fill:#946D1B;}
	.st53{fill:#B5903D;}
	.st54{fill:#9B6C1C;}
	.st55{fill:#BB9642;}
	.st56{fill:#CCAD53;}
	.st57{fill:#DAC161;}
	.st58{fill:#D5B95C;}
	.st59{fill:#E2CE6C;}
	.st60{fill:#9F6C1E;}
	.st61{fill:#C29945;}
	.st62{fill:#DCBE60;}
	.st63{fill:#EBD571;}
	.st64{fill:#9E6E1F;}
	.st65{fill:#C39A46;}
	.st66{fill:#DEBB63;}
	.st67{fill:#F1D272;}
	.st68{fill:#CF9C1E;}
	.st69{fill:#C3931F;}
	.st70{fill:#DCBB50;}
	.st71{fill:#D9B650;}
	.st72{fill:#B08524;}
	.st73{fill:#9C7829;}
	.st74{fill:#CAA74C;}
	.st75{fill:#BD9747;}
	.st76{fill:#E8D775;}
	.st77{fill:#E4D074;}
	.st78{fill:#F1E790;}
	.st79{fill:#F0E08A;}
	.st80{fill:#DFC169;}
	.st81{fill:#D9B15E;}
	.st82{fill:#EDD47C;}
	.st83{fill:#F2ED98;}
	.st84{fill:#F2E995;}
	.st85{fill:#F3E692;}
	.st86{fill:#F1E490;}
	.st87{fill:#EEE38F;}
	.st88{fill:#EBDE87;}
	.st89{fill:#F2D981;}
	.st90{fill:#EBD17B;}
	.st91{fill:#E2CE75;}
	.st92{fill:#E1CA74;}
	.st93{fill:#D8BA61;}
	.st94{fill:#D5B459;}
	.st95{fill:#D6B75F;}
	.st96{fill:#D1B059;}
	.st97{fill:#DFBF6B;}
	.st98{fill:#D1AC5C;}
	.st99{fill:#CCA35A;}
	.st100{fill:#D3B255;}
	.st101{fill:#D1AD57;}
	.st102{fill:#D7B95A;}
	.st103{fill:#CBA556;}
	.st104{fill:#C79C54;}
	.st105{fill:#C99E56;}
	.st106{fill:#D1AC5B;}
	.st107{fill:#DDC763;}
	.st108{fill:#E8D66F;}
	.st109{fill:#DDC166;}
	.st110{fill:#E9D370;}
	.st111{fill:#EDDA73;}
	.st112{fill:#F1DB74;}
	.st113{fill:#F2DA74;}
	.st114{fill:#F7DB77;}
	.st115{fill:#F6D974;}
	.st116{fill:#F8DA78;}
	.st117{fill:#F5D774;}
	.st118{fill:#F2D572;}
	.st119{fill:#EECC69;}
	.st120{fill:#E2C05C;}
	.st121{fill:#906F2B;}
	.st122{fill:#91702B;}
	.st123{fill:#B88F43;}
	.st124{fill:#B68D3E;}
	.st125{fill:#937228;}
	.st126{fill:#B28936;}
	.st127{fill:#D3A754;}
	.st128{fill:#E6B85C;}
	.st129{fill:#CA9C41;}
	.st130{fill:#D8A747;}
	.st131{fill:#ECBB61;}
	.st132{fill:#E4B55D;}
	.st133{fill:#DDAC4A;}
	.st134{fill:#D6A548;}
	.st135{fill:#D6A558;}
	.st136{fill:#C6994F;}
	.st137{fill:#C89840;}
	.st138{fill:#BC8A3B;}
	.st139{fill:#BE904C;}
	.st140{fill:#C2934E;}
	.st141{fill:#C89C54;}
	.st142{fill:#B4833A;}
	.st143{fill:#B9873A;}
	.st144{fill:#BE8E40;}
	.st145{fill:#D9B160;}
	.st146{fill:#ECCA6D;}
	.st147{fill:#F1D271;}
	.st148{fill:#D2A751;}
	.st149{fill:#E7BF60;}
	.st150{fill:#EFCA67;}
	.st151{fill:#F3D673;}
	.st152{fill:#F1D270;}
	.st153{fill:#F1CD69;}
	.st154{fill:#EDC963;}
	.st155{fill:#E5C663;}
	.st156{fill:#D5B451;}
	.st157{fill:#DDB955;}
	.st158{fill:#C4A141;}
	.st159{clip-path:url(#SVGID_00000095311617211533450740000003402846670456371588_);}
	.st160{clip-path:url(#SVGID_00000023268036564503895460000003034727514376729023_);}
	.st161{clip-path:url(#SVGID_00000102513058897450085760000000245330737642301590_);}
	.st162{clip-path:url(#SVGID_00000091696297952089050860000014417533865062198670_);}
	.st163{clip-path:url(#SVGID_00000114032666087614855710000006408059536889615004_);}
	.st164{clip-path:url(#SVGID_00000041268634643102675590000011655000841516195761_);}
	.st165{clip-path:url(#SVGID_00000161621899539955349180000014038691094067837625_);}
	.st166{clip-path:url(#SVGID_00000146489059659636786370000001245632331224504704_);}
	.st167{clip-path:url(#SVGID_00000143578060467743170010000008106944432199414148_);}
	.st168{clip-path:url(#SVGID_00000103959999844279662630000018130997784517928348_);}
	.st169{clip-path:url(#SVGID_00000067213121773702159400000014258027044493440684_);}
	.st170{clip-path:url(#SVGID_00000136412640742865416590000003641295818305946758_);}
	.st171{clip-path:url(#SVGID_00000116199924289245337250000017562552466214966718_);}
	.st172{clip-path:url(#SVGID_00000042700741802873208990000008374254014540998025_);}
	.st173{clip-path:url(#SVGID_00000169518331350446956760000002134379184449466550_);}
	.st174{clip-path:url(#SVGID_00000140735217913755226220000011332868343993873323_);}
	.st175{clip-path:url(#SVGID_00000089546609740249756130000007144071380802281653_);}
	.st176{fill:#786147;}
	.st177{clip-path:url(#SVGID_00000170964411157072762530000017184866848585494936_);}
	.st178{clip-path:url(#SVGID_00000107574439455556492090000013000803875610699173_);}
	.st179{clip-path:url(#SVGID_00000054944461246641398130000013233223565658772360_);}
	.st180{clip-path:url(#SVGID_00000151541247441909985430000005677764691446101901_);}
	.st181{clip-path:url(#SVGID_00000068660962508591016720000017530573664079551385_);}
	.st182{clip-path:url(#SVGID_00000140707718484131182560000010454020021783373726_);}
	.st183{clip-path:url(#SVGID_00000094604298310186165400000002876405017256396931_);}
	.st184{clip-path:url(#SVGID_00000110445841681001669880000009912566907122655108_);}
	.st185{clip-path:url(#SVGID_00000045610192808598987450000016555639757315777408_);}
	.st186{clip-path:url(#SVGID_00000093137712748040944470000011754726106324219027_);}
	.st187{clip-path:url(#SVGID_00000119803993140009052010000007590575019876658570_);}
	.st188{clip-path:url(#SVGID_00000157304344287542416770000018120029948840599979_);}
	.st189{fill:#00263E;}
	.st190{fill:url(#SVGID_00000040568911844544670160000012227942847428726962_);}
	.st191{fill:url(#SVGID_00000052786194708924618870000001438429944701621930_);}
	.st192{fill:url(#SVGID_00000052090314044201338330000006267136425315716492_);}
</style>
<g>
	<g>
		<g>
			<path d="M499.1,603.1c0,2.7-2.1,4.8-4.7,4.8H483h-30.1v-4.8H464v-32h8.5l1,0.7v31.3h11.4c2.7,0,4.8-2.1,4.8-4.7v-51.1
				c0-5.5-1.4-6.4-3.7-7.4v-1.3l12.2-5.4l1,0.7v69.2H499.1z"/>
			<path d="M703.5,595.9v-62l-1-0.7l-12.2,5.4v1.3c2.3,1,3.7,1.9,3.7,7.4v48.7c0,6.8-0.6,9.6-3.8,10.7v1.4h17v-1.4
				C704.1,605.6,703.5,602.7,703.5,595.9L703.5,595.9z"/>
			<path d="M650.9,619c0-3-2.2-5.3-5.2-5.3c-2.9,0-5.2,2.3-5.2,5.3c0,2.9,2.3,5.2,5.2,5.2C648.6,624.2,650.9,621.9,650.9,619z"/>
			<path d="M475.8,560.4v-3.8c0,0-8.7,3-10.6-3.1c0,0-1.2-3.5,1.4-6.1c1.8-1.8,4.8-1.8,8.4,0.5l1.5-1.1c-2.3-1.8-4.9-2.9-7.9-2.9
				c-5.6,0-9.1,3.5-9.1,9.1c0,0-0.1,4.2,3.5,6.4l-4.7,1.2v2.5c2.9-1.2,6.7-1.9,10.8-2.3C471.3,560.5,473.6,560.4,475.8,560.4
				L475.8,560.4z"/>
			<path d="M652.5,608h24c2.7,0,4.7-2.2,4.7-4.8v-69.2l-1-0.7l-12.2,5.4v1.3c2.3,1,3.7,1.9,3.7,7.4v51.1c0,2.7-2.2,4.7-4.8,4.7h-9.4
				c-2.7,0-4.7-2.1-4.7-4.7v-31.8l-1-0.7l-12.2,5.4v1.3c2.3,1,3.7,1.9,3.7,7.4l-0.1,18.4c0,2.7-2.1,4.7-4.7,4.7h-13.3l-20.8-28.3
				c-6.8-9.4-13.7-12-21.9-6.2c-3.4,2.4-6,6.6-7.6,11.3l1.1,1.6c1.2-3.2,3-5.7,5.1-7.3c6-4.3,10.2-1.1,16.1,7.2l16.2,21.7h-52.8
				v-36.5l-1-0.7l-12.2,5.4v1.3c2.3,1,3.7,1.9,3.7,7.4v25.9c0,16.3-8.1,22.4-20.3,22.4h-0.1v1.9c1.2,0.2,2.4,0.2,3.7,0.2
				c12.2,0,24.8-5.4,26.1-22.4h78.4c3.1,0,4.4-0.3,6.8-1.3C648.1,607.6,649.4,607.9,652.5,608L652.5,608z"/>
			<path d="M525.1,606.6c-3.1-1-3.8-3.9-3.8-10.7v-62l-1-0.7l-12.2,5.4v1.3c2.3,1,3.7,1.9,3.7,7.4v48.7c0,6.8-0.6,9.6-3.8,10.7v1.4
				h17V606.6z"/>
			<path d="M424.5,574.8l20.8,28.3v4.8H322.5c-1.3,17-13.8,22.4-26.1,22.4c-1.3,0-2.5-0.1-3.7-0.2v-1.9h0.1
				c12.2,0,20.3-6.1,20.3-22.4l0.1-25.9c0-5.5-1.4-6.4-3.7-7.4v-1.3l12.2-5.4l1,0.7v36.7H339v-12.6c0-24.4,20.6-23,20.6-23
				c11,0.2,20.5,7.1,20.5,7.1v28.5h53.5l-16.2-21.7c-5.9-8.3-10.1-11.4-16.1-7.2c-2.2,1.5-3.9,4-5.1,7.3L395,580
				c1.7-4.8,4.3-8.9,7.6-11.3C410.8,562.8,417.8,565.3,424.5,574.8L424.5,574.8z M369.6,575.7c-6-3.5-10.1-3.5-10.1-3.5
				s-10.1-1.4-10.1,15.1v15.8h20.1L369.6,575.7L369.6,575.7z"/>
			<path d="M616.4,683.4v-49.6l-0.8-0.6l-10.8,4.7v1.1c2,0.9,3.3,1.7,3.3,6.5v37.9c0,6-0.6,8.5-3.4,9.4v1.2h15v-1.2
				C617,691.9,616.4,689.4,616.4,683.4z"/>
			<path d="M454.5,699c-2.6,0-4.6,2-4.6,4.7c0,2.6,2,4.6,4.6,4.6s4.6-2,4.6-4.6C459.1,701,457.2,699,454.5,699z"/>
			<path d="M533,662.6v28.9c0,17-11.7,22.3-23,22.3c-1.1,0-2.2-0.1-3.2-0.2v-1.7h0.1c10.7,0,17.9-5.5,17.9-19.9c0,0-3.5,2.2-7.9,2.1
				c0,0-16.2,0.9-16.2-18.9c0-19.2,16.2-18.2,16.2-18.2C525.5,657.1,533,662.6,533,662.6L533,662.6z M524.7,663.5
				c-4.7-2.7-7.9-2.7-7.9-2.7s-8-1.2-8,11.9v5.4c0,13.1,8,11.9,8,11.9s3.2,0,7.9-2.7V663.5z"/>
			<path d="M492.2,633.1l0.8,0.6v56c0,2.3-1.8,4.3-4.2,4.3h-21.6c-2.7,0-3.9-0.2-6-1.1c-2.1,0.9-3.2,1.1-6,1.1h-46.4
				c-2.7,0-4.4-2.1-4.4-2.1s-3.5,2.2-7.9,2.1c0,0-16.2,0.9-16.2-18.9c0-19.2,16.2-18.2,16.2-18.2c8.7,0.2,16.2,5.6,16.2,5.6v27.2
				h42.7c2.3,0,4.2-1.8,4.2-4.2v-16.2c0-4.8-1.2-5.6-3.2-6.5v-1.1l10.8-4.7l0.8,0.6v28c0,2.3,1.8,4.2,4.2,4.2h8.3
				c2.3,0,4.2-1.8,4.2-4.2v-40c0-4.8-1.2-5.6-3.3-6.5v-1.1L492.2,633.1z M404.4,663.5c-4.7-2.7-7.9-2.7-7.9-2.7s-8-1.2-8,11.9v5.4
				c0,13.1,8,11.9,8,11.9s3.2,0,7.9-2.7V663.5z"/>
			<path d="M584.2,637.9v1.1c2,0.9,3.2,1.7,3.2,6.5v40c0,2.3-1.9,4.2-4.2,4.2h-9.5c-2.3,0-4.2-1.8-4.2-4.2v-13.4
				c0-10-4.7-15.2-14.5-15.2c-5.3,0-10,1.9-13.9,5.1l1,0.8c2.8-1.9,5.7-2.7,8.6-2.7c6,0,10.2,3.1,10.4,11.2v14.3
				c0,2.3-1.8,4.2-4.2,4.2H541v4.3h19.9c2.7,0,3.9-0.2,6-1.1c2.1,0.9,3.2,1.1,6,1.1h18.7c2.3,0,4.2-1.9,4.2-4.3v-56l-0.8-0.6
				L584.2,637.9z"/>
			<path d="M466.8,699c-2.6,0-4.6,2-4.6,4.7c0,2.6,2,4.6,4.6,4.6s4.6-2,4.6-4.6C471.4,701,469.6,699,466.8,699z"/>
			<path d="M392.8,652.8c2.6,0,4.6-2,4.6-4.6c0-2.7-1.9-4.7-4.6-4.7c-2.6,0-4.6,2-4.6,4.7C388.2,650.7,390.2,652.8,392.8,652.8z"/>
			<path d="M400.5,648.2c0,2.6,2,4.6,4.6,4.6s4.6-2,4.6-4.6c0-2.7-1.9-4.7-4.6-4.7C402.6,643.5,400.5,645.5,400.5,648.2z"/>
		</g>
	</g>
	<g>
		<g>
			<g>
				
					<linearGradient id="SVGID_00000181798597667639421700000016092074968258254010_" gradientUnits="userSpaceOnUse" x1="1231.4347" y1="7715.187" x2="1401.4795" y2="7888.644" gradientTransform="matrix(1 0 0 -1 -817.5 8199)">
					<stop  offset="0" style="stop-color:#F6E2C7"/>
					<stop  offset="1" style="stop-color:#B39868"/>
				</linearGradient>
				
					<path id="SVGID_00000179611822160916326770000010188063469374386099_" style="fill:url(#SVGID_00000181798597667639421700000016092074968258254010_);" d="
					M400.7,448.2c12.9,4.7,26.3,14.8,26.6,33.3c2.6,2.2,5.2,4.2,8,6.1c-0.1-2-0.2-4-0.2-6c-0.3-24-18.7-38.3-38.9-43
					C397.7,442,399.1,445.1,400.7,448.2 M389,383.4c2.1,1.9,4.1,4,6.1,6c2.1,2.2,4,4,5.6,5.3c5.8,4.8,13,6.1,20,7.4
					c7.6,1.4,14.1,2.6,17.5,7.9c1.9,2.9,2.1,6.1,2.3,9.6c0.2,3.8,0.6,8.2,3.1,12.6c3.2,5.8,6.5,8.6,9.4,11.3c2.1,1.9,4,3.6,6.2,6.5
					c0.2,0.2,16.1,21.4,5.5,37.7c-0.9,1.4-1.8,2.1-2.7,2.3c-1.5,0.2-3.4-1.2-4-1.9c-3.3-3.4-6.9-18.7-8.3-28.3v-0.2
					c-3.1-16.1-18.2-22.6-30.4-27.9l-2-0.9c-11.8-5.2-23.3-11.3-28.3-21.3c0.6,5.3,1.6,10.7,2.9,15.7c6.3,5.3,14.2,9.3,22.2,12.8
					l2,0.9c11.5,5,23.5,10.2,25.8,22.1c0.7,4.5,4.3,26.2,10.5,32.6c0.5,0.5,4.3,4.2,9.4,4.2c0.3,0,0.6,0,1-0.1
					c2.3-0.2,5.7-1.5,8.5-5.7c5.7-8.8,6.4-19.7,2.2-31.7c-3.1-8.6-7.8-14.9-8-15.1c-2.7-3.5-5.1-5.7-7.3-7.5
					c-2.8-2.5-5.2-4.6-7.8-9.3c-1.6-2.9-1.9-5.9-2.1-9.3c-0.2-4-0.6-8.7-3.6-13.3c-5.2-8.1-14.1-9.7-22.7-11.3
					c-6.3-1.1-12.2-2.3-16.5-5.7c-1.2-1-3-2.8-4.9-4.8c-3.2-3.3-6.7-6.9-10.2-9.4C389.8,377.4,389.3,380.4,389,383.4 M534.9,378.9
					c-3.1,10.9,2.1,22.6,6.5,27.9c3.3,4,7,7.1,10.7,10.2c0.8,0.6,1.6,1.4,2.4,2c7,6.1,11.5,13.9,14.4,25.4c2.7,10.8,5.2,21,5.8,31.9
					c0,0.4,0,0.9,0.1,1.4c2.6-2.4,5-4.9,7.3-7.5c-1-9.4-3.2-18.3-5.6-27.7c-3.3-13.2-8.5-22.3-16.9-29.5c-0.8-0.7-1.7-1.4-2.5-2.1
					c-3.5-2.9-6.8-5.7-9.6-9.1c-3.4-4-7.1-13.2-4.9-20.8v-0.1c0.6-2.3,2.8-5.9,7.6-5.9c0.2,0,0.3,0,0.5,0c3.8,0.2,9.8,3.5,16.3,17.8
					l0.2,0.5c13.1,28.2,25.7,38.2,35.2,43.1c1-2.4,1.8-4.9,2.6-7.5c-8.4-4.6-19.1-13.9-30.7-38.9l-0.2-0.4
					c-6.6-14.4-14.4-21.9-23-22.4c-0.3,0-0.6,0-0.9,0C541.7,367.2,536.4,373.2,534.9,378.9 M396.5,354.7c5.4,0.8,10.9,1.6,16,3.2
					c17.8,5.6,27.8,16,34.2,35.9c3.3,10.3,9.3,19.5,16.7,25.9c3.3,2.8,7,4.7,10.7,6.4c2.3,1.1,4.4,2.1,6.4,3.4
					c9,5.7,14.5,16.6,13.6,27.1c-0.6,8.7-5,16.6-9.6,25.1c-0.9,1.7-1.9,3.4-2.7,5c-2.7,5-5.6,11.4-6.9,18.3c2.5,0.6,5.1,1,7.7,1.5
					c1-4.8,3-10.1,6.2-16.1c0.9-1.6,1.8-3.3,2.7-4.9c4.8-8.8,9.8-17.8,10.6-28.3c1-13.4-6-27.2-17.3-34.3c-2.3-1.5-4.8-2.7-7.1-3.8
					c-3.3-1.6-6.5-3.1-9-5.2c-6.5-5.5-11.5-13.5-14.4-22.4c-5.1-15.7-13.6-32.9-39.2-40.9c-4.9-1.5-10.1-2.4-14.9-3.1
					C398.7,349.7,397.6,352.1,396.5,354.7 M425.2,314.4c9,8.2,17.8,18.1,21.8,29.9c1.2,3.7,2,7.6,2.8,11.7
					c1.4,6.7,2.7,13.6,6.3,19.9c6.1,10.7,16.8,16.8,27.1,22.7c9.8,5.6,19.1,10.9,24.1,19.5c6.1,10.3,4.8,22.9,3.5,36.1
					c-1.3,13.4-2.7,27.2,3.6,39.5c1.9,3.8,4.5,7.2,6.9,10.3c0.2,0.3,0.6,0.7,0.8,1c2.7-0.6,5.5-1.3,8.2-2.1
					c-0.9-1.3-1.9-2.5-2.7-3.7c-2.3-3.1-4.6-6-6.2-9.2c-5.2-10.3-4-22.4-2.7-35.1c1.4-13.9,2.8-28.3-4.5-40.9
					c-6.1-10.5-16.7-16.6-27-22.4c-9.9-5.7-19.2-11-24.2-19.8c-3-5.2-4.2-11.2-5.4-17.6c-0.8-4.2-1.7-8.5-3.1-12.7
					c-4.4-13.1-13.6-23.6-23.1-32.5C429.2,310.9,427.1,312.6,425.2,314.4 M565.5,328.2c4,7.6,20.5,27.3,30.3,34.2
					c0.3,0.2,0.7,0.6,1.3,1c3,2.2,6.1,4.3,9,6.2c-1-4.1-2.3-8.2-3.9-12.1c-0.2-0.2-0.4-0.3-0.6-0.5c-0.6-0.4-1-0.8-1.4-1
					c-8.6-6.1-24.3-24.8-27.9-31.4c-2.7-5.1-4.5-10.2-6-15.3c-3.1-2.4-6.5-4.8-9.9-6.8C558.6,310.8,560.9,319.5,565.5,328.2
					 M448.6,298.3c3.5,6.5,7.2,12.8,11.1,19c1.9,3,3.9,5.8,6.8,8.1c3,2.3,6.4,3.5,9.6,4.7c2.3,0.8,4.5,1.6,6.4,2.7
					c7.1,4.4,8.7,13.2,10.6,23.3c1.4,7.7,2.8,15.6,6.9,22.2c3.1,5,7.4,8.9,11.6,12.6c5,4.4,9.7,8.6,11.6,14.1c0.6,1.5,1,3.4,1.5,5.2
					c0.6,2.4,1.1,4.8,2,7.1c3.2,8.4,10.3,12.1,14.4,14.3l0.4,0.2c16.3,8.7,13.6,22.8,10.4,39.1c-1.3,6.6-2.7,13.6-2.3,19.9
					c0.1,1.5,0.2,2.9,0.5,4.1c2.5-1.3,4.9-2.7,7.3-4.2c0-0.1,0-0.2,0-0.2c-0.2-5.4,1-11.5,2.3-18.1c3.1-16.1,7-36-14.4-47.5
					l-0.5-0.2c-3.8-2-8.6-4.5-10.8-10.3c-0.6-1.8-1.2-3.9-1.7-6.1c-0.5-2-1-4.1-1.6-6c-2.6-7.5-8.3-12.5-13.8-17.4
					c-4-3.5-7.7-6.8-10.2-10.8c-3.3-5.4-4.6-12.6-5.9-19.5c-2-11-4-22.4-14.1-28.6c-2.6-1.6-5.2-2.5-7.9-3.5c-2.7-1-5.4-1.9-7.4-3.5
					c-1.9-1.5-3.5-3.8-5-6.1c-3.8-5.8-7.3-11.9-10.7-18C453.3,296,451,297.1,448.6,298.3 M540.3,325.1L540.3,325.1
					c1.5,6.1,3,12.4,6.1,18.3c3.6,6.7,9.2,12.8,17.3,18.9c4.1,3.1,8.4,5.8,12.6,8.5c7.4,4.7,14.4,9.1,20.2,15
					c5.1,5.2,9.3,11.5,12.7,19.2c0.2-2.7,0.3-5.4,0.3-8.2c0-2.7-0.1-5.2-0.2-7.8c-2.1-3.1-4.4-6-7.2-8.7
					c-6.5-6.5-14.1-11.4-21.6-16.1c-4-2.6-8.3-5.2-12.1-8.2c-7.2-5.3-12-10.7-15-16.3c-2.6-4.9-4-10.5-5.4-16.4v-0.1
					c-2.2-8.8-4.8-19.8-9.8-29.8c-3.6-1.4-7.3-2.5-11-3.6C533.7,299.6,537,311.7,540.3,325.1 M495.9,286.3c0.4,0.6,0.8,1.1,1.3,1.7
					c2.7,3.4,5.9,6.4,9,9.3c5.9,5.5,11.5,10.7,12.4,17.5c0.2,1.9,0.2,3.8,0.2,5.9c-0.1,1.5-0.1,3,0,4.5c0.2,5.7,3.4,11.3,6.5,16.7
					c5.7,10,6.7,13.6,2.5,16.6c-1.6,1.1-3.3,1-4.5,0.8c-2.3-0.5-4.4-2-5.7-4c-1.9-3.2-2.7-7.2-3.4-11.4c-0.3-1.8-0.6-3.6-1-5.4
					c-3.1-13.2-10.5-24-20.3-29.8c-2.8-1.7-5.2-3-7.3-4.1c-9.3-5.1-10.1-5.6-12.3-15.1c-2.6,0.6-5.1,1.3-7.5,2.1
					c3,12.3,5.7,14.1,16.1,19.9c2,1.1,4.4,2.4,7.1,4c8,4.7,14.1,13.7,16.6,24.8c0.4,1.6,0.6,3.2,1,5c0.8,4.8,1.7,9.6,4.4,14.1
					c2.3,3.9,6.3,6.7,10.7,7.6c1,0.2,2.1,0.3,3.1,0.3c2.7,0,5.3-0.8,7.5-2.3c10.7-7.4,4.4-18.7-0.2-26.8c-2.6-4.6-5.2-9.4-5.5-13.2
					c-0.1-1.3,0-2.6,0-4c0.1-2.3,0.2-4.8-0.2-7.3c-1.5-9.5-8.2-15.9-14.9-22c-1.8-1.7-3.6-3.3-5.2-5c-2.5-0.2-5-0.2-7.5-0.2
					C497.9,286.3,496.9,286.3,495.9,286.3"/>
			</g>
		</g>
	</g>
</g>
</svg>
