<svg xmlns="http://www.w3.org/2000/svg" viewBox="340 250 80 80">
  <style>
    .st0{fill:#1B74BB;}
    .st1{fill:#3D823F;}
    .st2{fill:#675EA7;}
  </style>

  <g>
    <path class="st0" d="M356.91,277.46c0-1.23,1-2.23,2.23-2.23h25.98l0,0L374,264.43c-1.36-1.32-3.19-2.06-5.09-2.06h-25.7
    l0.65,25.03c0.05,1.83,0.78,3.57,2.05,4.89l10.9,11.27l0.09-0.09V277.46z"></path>

    <path class="st1" d="M373.15,317.2h21.81l-14.19-13.74h-23.86l-0.09,0.09l11.04,11.41C369.24,316.39,371.15,317.2,373.15,317.2z"></path>

    <path class="st2" d="M398.24,312.52v-21.47c0-1.97-0.8-3.86-2.21-5.24l-10.89-10.58v24.59L398.24,312.52z"></path>
  </g>
</svg>