<?xml version="1.0" encoding="UTF-8" standalone="no"?>
<svg
   width="1321"
   height="794"
   viewBox="0 0 1321 794"
   version="1.1"
   id="svg4"
   sodipodi:docname="SymbolSVG.svg"
   xmlns:inkscape="http://www.inkscape.org/namespaces/inkscape"
   xmlns:sodipodi="http://sodipodi.sourceforge.net/DTD/sodipodi-0.dtd"
   xmlns="http://www.w3.org/2000/svg"
   xmlns:svg="http://www.w3.org/2000/svg">
  <defs
     id="defs4" />
  <sodipodi:namedview
     id="namedview4"
     pagecolor="#ffffff"
     bordercolor="#000000"
     borderopacity="0.25"
     inkscape:showpageshadow="2"
     inkscape:pageopacity="0.0"
     inkscape:pagecheckerboard="0"
     inkscape:deskcolor="#d1d1d1" />
  <g
     id="g4">
    <path
       d="M 519.43 405.29 C519.33,480.53 518.98,542.35 518.65,542.68 C518.12,543.21 452.65,477.43 420.30,443.87 C401.69,424.56 394.44,411.55 388.33,386.50 C386.78,380.12 386.60,367.61 386.28,245.25 L 385.93 111.00 L 517.36 111.00 L 527.93 111.00 C641.70,111.00 654.33,111.00 665.92,114.48 C667.72,115.02 669.49,115.65 671.61,116.37 C680.66,119.45 687.89,123.15 696.68,129.21 C706.16,135.73 811.49,242.29 810.64,244.49 C810.14,245.79 793.30,246.00 674.79,246.24 L 539.50 246.50 L 535.50 248.67 C529.95,251.67 524.51,257.58 521.86,263.50 L 519.61 268.50 Z"
       fill="rgb(4,115,197)"
       id="path1" />
    <path
       d="M 907.83 679.12 C908.27,680.27 692.74,680.03 683.50,678.87 C666.80,676.76 650.29,670.56 635.78,660.95 C629.66,656.90 604.83,632.28 545.97,571.89 L 520.03 545.28 L 526.16 544.64 C529.54,544.29 587.02,544.00 653.92,544.00 L 775.54 544.00 L 841.52 611.12 C877.81,648.03 907.65,678.63 907.83,679.12 Z"
       fill="rgb(56,162,89)"
       id="path2" />
    <path
       d="M 946.77 511.00 C946.93,566.83 946.94,618.69 946.78,626.26 L 946.50 640.01 L 880.25 573.75 L 814.00 507.49 L 814.00 246.56 L 820.59 253.03 C851.15,283.05 925.43,359.71 928.88,364.81 C935.29,374.26 939.68,384.27 943.25,397.56 L 946.47 409.50 Z"
       fill="rgb(122,86,187)"
       id="path3" />
    <path
       d="M 0.00 397.00 L 0.00 0.00 L 660.50 0.00 L 1321.00 0.00 L 1321.00 397.00 L 1321.00 794.00 L 660.50 794.00 L 0.00 794.00 L 0.00 397.00 ZM 907.83 679.12 C907.65,678.63 877.81,648.03 841.52,611.12 L 775.54 544.00 L 653.92 544.00 C587.02,544.00 529.54,544.29 526.16,544.64 L 520.03 545.28 L 545.97 571.89 C604.83,632.28 629.66,656.90 635.78,660.95 C650.29,670.56 666.80,676.76 683.50,678.87 C692.74,680.03 908.27,680.27 907.83,679.12 ZM 946.77 511.00 L 946.47 409.50 L 943.25 397.56 C939.68,384.27 935.29,374.26 928.88,364.81 C925.43,359.71 851.15,283.05 820.59,253.03 L 814.00 246.56 L 814.00 377.03 L 814.00 507.49 L 880.25 573.75 L 946.50 640.01 L 946.78 626.26 C946.94,618.69 946.93,566.83 946.77,511.00 ZM 519.43 405.29 L 519.61 268.50 L 521.86 263.50 C524.51,257.58 529.95,251.67 535.50,248.67 L 539.50 246.50 L 674.79 246.24 C793.30,246.00 810.14,245.79 810.64,244.49 C811.49,242.29 706.16,135.73 696.68,129.21 C687.89,123.15 680.66,119.45 671.61,116.37 C655.41,110.86 659.54,111.00 517.36,111.00 L 385.93 111.00 L 386.28 245.25 C386.60,367.61 386.78,380.12 388.33,386.50 C394.44,411.55 401.69,424.56 420.30,443.87 C452.65,477.43 518.12,543.21 518.65,542.68 C518.98,542.35 519.33,480.53 519.43,405.29 Z"
       fill="rgb(254,254,254)"
       id="path4" />
  </g>
</svg>
