<svg xml:space="preserve" style="max-height: 500px" viewBox="329.61124752475246 250.97004800000002 181.00039603960397 89.29199999999999" y="0px" x="0px" xmlns:xlink="http://www.w3.org/1999/xlink" xmlns="http://www.w3.org/2000/svg" id="Layer_1" version="1.1" width="181.00039603960397" height="89.29199999999999">
<style type="text/css">
	.st0{fill:#1B74BB;}
	.st1{fill:#3D823F;}
	.st2{fill:#675EA7;}
	.st3{fill:#211E1F;}
	.st4{fill:#010101;}
</style>
<g>
	<g>
		<g>
			<path d="M356.91,277.46c0-1.23,1-2.23,2.23-2.23h25.98l0,0L374,264.43c-1.36-1.32-3.19-2.06-5.09-2.06h-25.7&#10;&#9;&#9;&#9;&#9;l0.65,25.03c0.05,1.83,0.78,3.57,2.05,4.89l10.9,11.27l0.09-0.09V277.46z" class="st0"/>
		</g>
		<g>
			<path d="M373.15,317.2h21.81l-14.19-13.74h-23.86l-0.09,0.09l11.04,11.41C369.24,316.39,371.15,317.2,373.15,317.2z" class="st1"/>
		</g>
		<g>
			<path d="M398.24,312.52v-21.47c0-1.97-0.8-3.86-2.21-5.24l-10.89-10.58v24.59L398.24,312.52z" class="st2"/>
		</g>
		<g>
			<polygon points="385.13,275.24 385.13,275.23 385.12,275.24" class="st0"/>
		</g>
	</g>
	<g>
		<g>
			<path d="M478.04,282.56h17.07v-4h-17.39c-3.83,0-6.93,3.1-6.93,6.94v12.08c0,3.83,3.1,6.94,6.93,6.94h17.39v-4&#10;&#9;&#9;&#9;&#9;h-17.07c-1.62,0-2.93-1.32-2.93-2.94V285.5C475.11,283.87,476.42,282.56,478.04,282.56z" class="st3"/>
		</g>
		<g>
			<polygon points="461.61,299.03 445.81,279.09 444.89,279.09 440.58,279.09 440.58,304.52 444.89,304.52 444.89,285 &#10;&#9;&#9;&#9;&#9;461.05,304.52 461.61,304.52 462.22,304.52 465.92,304.52 465.92,279.09 461.61,279.09" class="st3"/>
		</g>
		<g>
			<path d="M435.71,296.66v-10.24c0-4.34-3.52-7.86-7.86-7.86H415.9c-4.34,0-7.86,3.52-7.86,7.86v10.24&#10;&#9;&#9;&#9;&#9;c0,4.34,3.52,7.86,7.86,7.86h11.95c1.24,0,2.4-0.29,3.44-0.8l3.3,3.48l2.88-2.68l-3.19-3.36&#10;&#9;&#9;&#9;&#9;C435.18,299.88,435.71,298.33,435.71,296.66z M431.71,298.39l-3.44-3.69l-2.88,2.68l2.93,3.15h-16.46v-13.77&#10;&#9;&#9;&#9;&#9;c0-2.32,1.87-4.19,4.18-4.19h15.67V298.39z" class="st3"/>
		</g>
	</g>
	<g>
		<g>
			<rect height="5.51" width="0.83" class="st3" y="311.03" x="437.16"/>
		</g>
	</g>
	<g>
		<g>
			<path d="M429.84,318.4l-0.14-0.82c0.93-0.15,1.45-0.6,1.74-1.02h-0.14c-0.85-0.02-2.28-0.38-2.28-1.64&#10;&#9;&#9;&#9;&#9;c0-0.67,0.28-1.22,0.77-1.49c0.56-0.32,1.3-0.25,2.02,0.2c0.63,0.43,0.94,1.23,0.82,2.1h2.66v-4.7h0.83v5.53h-3.73&#10;&#9;&#9;&#9;&#9;C432.02,317.38,431.21,318.18,429.84,318.4z M430.56,314.07c-0.14,0-0.26,0.03-0.37,0.09c-0.23,0.13-0.35,0.4-0.35,0.76&#10;&#9;&#9;&#9;&#9;c0,0.75,1.44,0.81,1.45,0.81h0.49c0.11-0.59-0.06-1.15-0.43-1.4C431.08,314.16,430.8,314.07,430.56,314.07z" class="st3"/>
		</g>
	</g>
	<g>
		<g>
			<path d="M481.96,310.59l-1.87,2.84l0.27,0.24c0,0,0.44,0.39,1.07,0.9c0.26,0.21,0.43,0.54,0.37,0.7&#10;&#9;&#9;&#9;&#9;c-0.06,0.18-0.5,0.39-1.5,0.39h-6.67v-3.03h-0.83v0.16c-0.69,0.21-2.21,0.8-2.21,2.05c0,0.37,0.14,0.68,0.42,0.89&#10;&#9;&#9;&#9;&#9;c0.32,0.24,0.76,0.32,1.18,0.32c0.22,0,0.43-0.02,0.62-0.05v0.5h7.5c1.29,0,2.06-0.32,2.29-0.95c0.21-0.6-0.16-1.25-0.63-1.63&#10;&#9;&#9;&#9;&#9;c-0.32-0.26-0.58-0.48-0.77-0.64l1.47-2.23L481.96,310.59z M471.52,315.07c-0.05-0.04-0.09-0.09-0.09-0.23&#10;&#9;&#9;&#9;&#9;c0-0.54,0.78-0.95,1.37-1.17v1.48C472.32,315.23,471.75,315.25,471.52,315.07z" class="st3"/>
		</g>
		<g>
			<path d="M472.11,312.01c0.2,0,0.35-0.17,0.35-0.39s-0.16-0.39-0.35-0.39s-0.35,0.17-0.35,0.39&#10;&#9;&#9;&#9;&#9;S471.91,312.01,472.11,312.01z" class="st3"/>
		</g>
		<g>
			<path d="M473.31,312.01c0.2,0,0.35-0.17,0.35-0.39s-0.16-0.39-0.35-0.39s-0.35,0.17-0.35,0.39&#10;&#9;&#9;&#9;&#9;S473.11,312.01,473.31,312.01z" class="st3"/>
		</g>
		<g>
			<path d="M491.65,312.01c0.2,0,0.35-0.17,0.35-0.39s-0.16-0.39-0.35-0.39s-0.35,0.17-0.35,0.39&#10;&#9;&#9;&#9;&#9;S491.46,312.01,491.65,312.01z" class="st3"/>
		</g>
		<g>
			<path d="M492.5,311.63c0,0.21,0.16,0.39,0.35,0.39s0.35-0.17,0.35-0.39s-0.16-0.39-0.35-0.39&#10;&#9;&#9;&#9;&#9;S492.5,311.41,492.5,311.63z" class="st3"/>
		</g>
		<g>
			<path d="M492.25,311.16c0.2,0,0.35-0.17,0.35-0.39s-0.16-0.39-0.35-0.39s-0.35,0.17-0.35,0.39&#10;&#9;&#9;&#9;&#9;S492.05,311.16,492.25,311.16z" class="st3"/>
		</g>
		<g>
			<path d="M494.28,313.87v1.39c0,0.35-0.33,0.4-0.47,0.4c-0.24,0-0.42-0.07-0.57-0.23c-0.29-0.31-0.39-0.76-0.39-1.26&#10;&#9;&#9;&#9;&#9;c0-0.1,0-0.2,0-0.3l-0.83-0.03c0,0.04-0.01,0.17,0,0.36c-0.04,1.47-0.34,1.47-0.96,1.47c-0.09,0-0.15-0.03-0.22-0.1&#10;&#9;&#9;&#9;&#9;c-0.19-0.2-0.27-0.65-0.3-1.06v-0.64l-0.83-0.03c-0.01,0.07-0.03,0.36,0,0.73v0.33c0,0.66-0.54,0.76-0.67,0.77h-4.14&#10;&#9;&#9;&#9;&#9;c0-0.02,0-0.04,0-0.04v-2.17h-0.83l0,2.19c0,0.01,0.02,0.82-0.4,1.25c-0.18,0.19-0.42,0.28-0.74,0.28v0.83&#10;&#9;&#9;&#9;&#9;c0.55,0,1-0.18,1.34-0.54c0.28-0.29,0.43-0.65,0.52-0.97l4.29,0c0.29-0.02,0.73-0.16,1.05-0.49c0.03,0.04,0.07,0.09,0.1,0.13&#10;&#9;&#9;&#9;&#9;c0.22,0.24,0.51,0.36,0.83,0.36c0.74,0,1.19-0.21,1.45-0.63c0.04,0.05,0.07,0.09,0.12,0.14c0.3,0.32,0.71,0.49,1.18,0.49&#10;&#9;&#9;&#9;&#9;c0.52-0.01,1.3-0.34,1.3-1.23v-1.39H494.28z" class="st3"/>
		</g>
	</g>
	<g>
		<g>
			<path d="M414.18,317.29c-0.2,0-0.35,0.17-0.35,0.39s0.16,0.39,0.35,0.39c0.2,0,0.35-0.17,0.35-0.39&#10;&#9;&#9;&#9;&#9;S414.37,317.29,414.18,317.29z" class="st3"/>
		</g>
		<g>
			<ellipse ry="0.39" rx="0.35" cy="317.68" cx="415.37" class="st3"/>
		</g>
		<g>
			<path d="M409.56,312.06c0.2,0,0.35-0.17,0.35-0.39c0-0.21-0.16-0.39-0.35-0.39s-0.35,0.17-0.35,0.39&#10;&#9;&#9;&#9;&#9;C409.21,311.89,409.37,312.06,409.56,312.06z" class="st3"/>
		</g>
		<g>
			<path d="M410.76,312.06c0.2,0,0.35-0.17,0.35-0.39c0-0.21-0.16-0.39-0.35-0.39s-0.35,0.17-0.35,0.39&#10;&#9;&#9;&#9;&#9;C410.4,311.89,410.56,312.06,410.76,312.06z" class="st3"/>
		</g>
		<g>
			<path d="M418.63,312.06c0.2,0,0.35-0.17,0.35-0.39c0-0.21-0.16-0.39-0.35-0.39s-0.35,0.17-0.35,0.39&#10;&#9;&#9;&#9;&#9;C418.28,311.89,418.43,312.06,418.63,312.06z" class="st3"/>
		</g>
		<g>
			<path d="M426.98,312.85c-0.54-0.17-1.35-0.09-2.36,0.95v-2.71h-0.83v4.58h-4.19l-0.06,0c-0.01,0-0.15,0.02-0.27-0.08&#10;&#9;&#9;&#9;&#9;c-0.14-0.12-0.21-0.38-0.21-0.75v-1.52h-0.83v1.52c0,0.06,0.01,0.1,0.01,0.16l-0.01,0c0,0,0.03,0.29-0.14,0.48&#10;&#9;&#9;&#9;&#9;c-0.11,0.12-0.31,0.19-0.58,0.19l-2.1,0c-0.03-0.03-0.18-0.19-0.18-0.82v-1.88h-0.99l0,2.19c0,0,0.01,0.22-0.12,0.36&#10;&#9;&#9;&#9;&#9;c-0.1,0.11-0.28,0.16-0.53,0.16h-2.23v-2.92h-0.5l0-0.01c-0.01,0-0.03,0.01-0.04,0.01h-0.29v0.07c-0.76,0.2-2.46,0.8-2.46,2.07&#10;&#9;&#9;&#9;&#9;c0,0.64,0.31,0.96,0.57,1.13c0.26,0.16,0.57,0.22,0.89,0.22c0.33,0,0.68-0.07,1-0.17v0.43h3.06c0.47,0,0.84-0.13,1.11-0.4&#10;&#9;&#9;&#9;&#9;c0.04,0.06,0.09,0.12,0.14,0.17c0.2,0.18,0.43,0.23,0.54,0.22h2.13c0.47,0,0.85-0.14,1.12-0.39c0.04,0.04,0.07,0.09,0.12,0.13&#10;&#9;&#9;&#9;&#9;c0.28,0.23,0.58,0.27,0.77,0.27c0.05,0,0.09,0,0.12-0.01h4.07v0.01h2.92c0,0,0.01,0,0.01,0c0.11,0,0.74-0.02,1.2-0.47&#10;&#9;&#9;&#9;&#9;c0.28-0.27,0.42-0.65,0.42-1.1C428.23,313.93,427.73,313.09,426.98,312.85z M409.05,315.32c-0.05-0.03-0.18-0.11-0.18-0.42&#10;&#9;&#9;&#9;&#9;c0-0.55,0.91-0.98,1.63-1.2v1.49C409.92,315.42,409.32,315.48,409.05,315.32z M415.33,315.67c0.01,0,0.02,0,0.03,0&#10;&#9;&#9;&#9;&#9;c0.01,0,0.02,0,0.02,0H415.33z M426.61,315.67h-2v-0.59c0.8-1.07,1.58-1.61,2.11-1.44c0.39,0.13,0.68,0.67,0.68,1.3&#10;&#9;&#9;&#9;&#9;C427.4,315.62,426.8,315.67,426.61,315.67z" class="st3"/>
		</g>
	</g>
	<g>
		<g>
			<g>
				<ellipse ry="0.39" rx="0.35" cy="311.87" cx="463.12" class="st3"/>
			</g>
		</g>
		<g>
			<g>
				<ellipse ry="0.39" rx="0.35" cy="311.87" cx="464.32" class="st3"/>
			</g>
		</g>
		<g>
			<g>
				<ellipse ry="0.39" rx="0.35" cy="311.87" cx="444.79" class="st3"/>
			</g>
		</g>
		<g>
			<g>
				<ellipse ry="0.39" rx="0.35" cy="311.87" cx="445.99" class="st3"/>
			</g>
		</g>
		<g>
			<rect height="5.39" width="0.75" class="st3" y="311.09" x="449.79"/>
		</g>
		<g>
			<path d="M452.92,315.73c0.01,0.27-0.07,1.06-0.49,1.46c-0.18,0.17-0.41,0.26-0.7,0.26v0.7c0.5,0,0.91-0.16,1.24-0.47&#10;&#9;&#9;&#9;&#9;c0.72-0.69,0.7-1.92,0.7-1.96v-2.99h-0.75V315.73z" class="st3"/>
		</g>
		<g>
			<path d="M463.62,312.87c-1.33,0-1.81,0.95-1.81,1.76v1.15h-4.05v-1.7c0-0.35-0.15-0.66-0.42-0.9&#10;&#9;&#9;&#9;&#9;c-0.78-0.67-2.42-0.54-2.6-0.52l0.07,0.7c0.41-0.04,1.57-0.05,2.03,0.35c0.12,0.1,0.17,0.22,0.17,0.38v1.7h-2.24v0.7h9.01&#10;&#9;&#9;&#9;&#9;c0,0,0.01,0,0.01,0c0.11,0,0.69-0.02,1.18-0.47c0.43-0.39,0.64-0.98,0.64-1.74C465.63,312.87,464.12,312.87,463.62,312.87z&#10;&#9;&#9;&#9;&#9; M463.8,315.78h-1.24v-1.15c0-0.48,0.18-1.06,1.06-1.06c1.26,0,1.26,0.4,1.26,0.7C464.88,315.73,463.91,315.78,463.8,315.78z" class="st3"/>
		</g>
		<g>
			<path d="M448.08,315.68c0,0.09-0.08,0.17-0.18,0.17h-5.01c-0.1,0-0.18-0.08-0.18-0.17v-2.86h-0.75v2.86&#10;&#9;&#9;&#9;&#9;c0,0.48,0.42,0.87,0.93,0.87h5.01c0.51,0,0.93-0.39,0.93-0.87v-2.86h-0.75V315.68z" class="st3"/>
		</g>
	</g>
</g>
<g>
	<path d="M411.46,322.59v0.61h-1.2v3.92h-0.74v-3.92h-1.21v-0.61H411.46z" class="st4"/>
	<path d="M412.85,326.95c-0.27-0.15-0.49-0.37-0.64-0.65c-0.16-0.28-0.23-0.6-0.23-0.97c0-0.37,0.08-0.69,0.24-0.97&#10;&#9;&#9;s0.38-0.5,0.66-0.65c0.28-0.15,0.59-0.23,0.93-0.23s0.65,0.08,0.93,0.23c0.28,0.15,0.5,0.37,0.66,0.65s0.24,0.61,0.24,0.97&#10;&#9;&#9;c0,0.36-0.08,0.69-0.25,0.97c-0.17,0.28-0.39,0.5-0.67,0.65c-0.28,0.15-0.6,0.23-0.94,0.23&#10;&#9;&#9;C413.43,327.18,413.12,327.1,412.85,326.95z M414.3,326.4c0.17-0.09,0.3-0.23,0.41-0.41c0.1-0.18,0.16-0.4,0.16-0.66&#10;&#9;&#9;c0-0.26-0.05-0.48-0.15-0.66c-0.1-0.18-0.23-0.32-0.4-0.41s-0.34-0.14-0.53-0.14c-0.19,0-0.37,0.05-0.53,0.14&#10;&#9;&#9;c-0.16,0.09-0.29,0.23-0.39,0.41c-0.1,0.18-0.14,0.4-0.14,0.66c0,0.39,0.1,0.68,0.3,0.9c0.2,0.21,0.45,0.32,0.75,0.32&#10;&#9;&#9;C413.96,326.53,414.14,326.49,414.3,326.4z" class="st4"/>
	<path d="M417.23,324.14v1.99c0,0.13,0.03,0.23,0.09,0.29s0.17,0.09,0.32,0.09h0.46v0.62h-0.59&#10;&#9;&#9;c-0.33,0-0.59-0.08-0.77-0.23c-0.18-0.16-0.27-0.41-0.27-0.76v-1.99h-0.42v-0.61h0.42v-0.89h0.75v0.89h0.87v0.61H417.23z" class="st4"/>
	<path d="M418.76,324.35c0.15-0.28,0.35-0.49,0.61-0.65c0.26-0.15,0.54-0.23,0.86-0.23c0.28,0,0.53,0.06,0.74,0.17&#10;&#9;&#9;s0.38,0.25,0.5,0.41v-0.52h0.75v3.59h-0.75v-0.53c-0.13,0.17-0.3,0.31-0.51,0.42c-0.22,0.11-0.46,0.17-0.74,0.17&#10;&#9;&#9;c-0.31,0-0.59-0.08-0.85-0.24c-0.26-0.16-0.46-0.38-0.61-0.66c-0.15-0.29-0.23-0.61-0.23-0.97S418.61,324.63,418.76,324.35z&#10;&#9;&#9; M421.32,324.68c-0.1-0.18-0.24-0.32-0.4-0.42s-0.34-0.14-0.53-0.14c-0.19,0-0.37,0.05-0.53,0.14c-0.17,0.09-0.3,0.23-0.4,0.41&#10;&#9;&#9;c-0.1,0.18-0.15,0.39-0.15,0.64c0,0.25,0.05,0.46,0.15,0.65c0.1,0.19,0.24,0.33,0.4,0.43s0.34,0.15,0.53,0.15&#10;&#9;&#9;c0.19,0,0.37-0.05,0.53-0.14s0.3-0.24,0.4-0.42c0.1-0.18,0.15-0.4,0.15-0.65C421.48,325.07,421.42,324.86,421.32,324.68z" class="st4"/>
	<path d="M423.94,322.3v4.82h-0.74v-4.82H423.94z" class="st4"/>
	<path d="M429.28,322.59v0.61h-1.92v1.33h1.5v0.61h-1.5v1.98h-0.74v-4.53H429.28z" class="st4"/>
	<path d="M429.94,324.35c0.15-0.28,0.35-0.49,0.61-0.65c0.26-0.15,0.54-0.23,0.86-0.23c0.28,0,0.53,0.06,0.74,0.17&#10;&#9;&#9;s0.38,0.25,0.5,0.41v-0.52h0.75v3.59h-0.75v-0.53c-0.13,0.17-0.3,0.31-0.51,0.42c-0.22,0.11-0.46,0.17-0.74,0.17&#10;&#9;&#9;c-0.31,0-0.59-0.08-0.85-0.24c-0.26-0.16-0.46-0.38-0.61-0.66c-0.15-0.29-0.22-0.61-0.22-0.97S429.79,324.63,429.94,324.35z&#10;&#9;&#9; M432.5,324.68c-0.1-0.18-0.24-0.32-0.4-0.42s-0.34-0.14-0.53-0.14c-0.19,0-0.37,0.05-0.53,0.14c-0.17,0.09-0.3,0.23-0.4,0.41&#10;&#9;&#9;c-0.1,0.18-0.15,0.39-0.15,0.64c0,0.25,0.05,0.46,0.15,0.65c0.1,0.19,0.24,0.33,0.4,0.43s0.34,0.15,0.53,0.15&#10;&#9;&#9;c0.19,0,0.37-0.05,0.53-0.14s0.3-0.24,0.4-0.42c0.1-0.18,0.15-0.4,0.15-0.65C432.66,325.07,432.6,324.86,432.5,324.68z" class="st4"/>
	<path d="M434.36,324.35c0.15-0.28,0.36-0.5,0.62-0.65c0.26-0.15,0.57-0.23,0.91-0.23c0.43,0,0.79,0.1,1.08,0.31&#10;&#9;&#9;c0.28,0.21,0.48,0.5,0.58,0.88h-0.8c-0.07-0.18-0.17-0.32-0.31-0.42c-0.14-0.1-0.32-0.15-0.54-0.15c-0.3,0-0.55,0.11-0.73,0.32&#10;&#9;&#9;c-0.18,0.21-0.27,0.52-0.27,0.9c0,0.39,0.09,0.69,0.27,0.91c0.18,0.22,0.42,0.33,0.73,0.33c0.43,0,0.71-0.19,0.85-0.57h0.8&#10;&#9;&#9;c-0.1,0.36-0.3,0.65-0.59,0.87c-0.29,0.21-0.64,0.32-1.07,0.32c-0.34,0-0.65-0.08-0.91-0.23c-0.27-0.15-0.47-0.37-0.62-0.65&#10;&#9;&#9;c-0.15-0.28-0.22-0.6-0.22-0.97S434.21,324.63,434.36,324.35z" class="st4"/>
	<path d="M438.33,322.92c-0.09-0.09-0.14-0.2-0.14-0.34c0-0.13,0.05-0.25,0.14-0.34c0.09-0.09,0.2-0.14,0.34-0.14&#10;&#9;&#9;c0.13,0,0.24,0.04,0.33,0.14c0.09,0.09,0.14,0.2,0.14,0.34c0,0.13-0.05,0.25-0.14,0.34c-0.09,0.09-0.2,0.14-0.33,0.14&#10;&#9;&#9;C438.53,323.06,438.42,323.01,438.33,322.92z M439.03,323.53v3.59h-0.74v-3.59H439.03z" class="st4"/>
	<path d="M440.75,322.3v4.82h-0.74v-4.82H440.75z" class="st4"/>
	<path d="M441.76,322.92c-0.09-0.09-0.14-0.2-0.14-0.34c0-0.13,0.05-0.25,0.14-0.34c0.09-0.09,0.2-0.14,0.34-0.14&#10;&#9;&#9;c0.13,0,0.24,0.04,0.33,0.14c0.09,0.09,0.14,0.2,0.14,0.34c0,0.13-0.05,0.25-0.14,0.34c-0.09,0.09-0.2,0.14-0.33,0.14&#10;&#9;&#9;C441.97,323.06,441.85,323.01,441.76,322.92z M442.47,323.53v3.59h-0.74v-3.59H442.47z" class="st4"/>
	<path d="M444.31,324.14v1.99c0,0.13,0.03,0.23,0.09,0.29c0.06,0.06,0.17,0.09,0.32,0.09h0.46v0.62h-0.59&#10;&#9;&#9;c-0.33,0-0.59-0.08-0.77-0.23c-0.18-0.16-0.27-0.41-0.27-0.76v-1.99h-0.42v-0.61h0.42v-0.89h0.75v0.89h0.87v0.61H444.31z" class="st4"/>
	<path d="M449.1,323.53l-2.2,5.27h-0.77l0.73-1.75l-1.41-3.53h0.83l1.01,2.74l1.05-2.74H449.1z" class="st4"/>
	<path d="M456.12,322.59v4.53h-0.74v-3.1l-1.38,3.1h-0.51l-1.39-3.1v3.1h-0.74v-4.53h0.8l1.59,3.55l1.58-3.55H456.12z" class="st4"/>
	<path d="M457.07,324.35c0.15-0.28,0.35-0.49,0.61-0.65c0.26-0.15,0.54-0.23,0.86-0.23c0.28,0,0.53,0.06,0.74,0.17&#10;&#9;&#9;s0.38,0.25,0.5,0.41v-0.52h0.75v3.59h-0.75v-0.53c-0.13,0.17-0.3,0.31-0.51,0.42c-0.22,0.11-0.46,0.17-0.74,0.17&#10;&#9;&#9;c-0.31,0-0.59-0.08-0.85-0.24c-0.26-0.16-0.46-0.38-0.61-0.66c-0.15-0.29-0.22-0.61-0.22-0.97S456.92,324.63,457.07,324.35z&#10;&#9;&#9; M459.63,324.68c-0.1-0.18-0.24-0.32-0.4-0.42s-0.34-0.14-0.53-0.14c-0.19,0-0.37,0.05-0.53,0.14c-0.17,0.09-0.3,0.23-0.4,0.41&#10;&#9;&#9;c-0.1,0.18-0.15,0.39-0.15,0.64c0,0.25,0.05,0.46,0.15,0.65c0.1,0.19,0.24,0.33,0.4,0.43s0.34,0.15,0.53,0.15&#10;&#9;&#9;c0.19,0,0.37-0.05,0.53-0.14s0.3-0.24,0.4-0.42c0.1-0.18,0.15-0.4,0.15-0.65C459.78,325.07,459.73,324.86,459.63,324.68z" class="st4"/>
	<path d="M464.08,323.65c0.22,0.12,0.4,0.29,0.52,0.52c0.13,0.23,0.19,0.51,0.19,0.83v2.12h-0.74v-2.01&#10;&#9;&#9;c0-0.32-0.08-0.57-0.24-0.74c-0.16-0.17-0.38-0.26-0.66-0.26s-0.5,0.09-0.66,0.26c-0.16,0.17-0.24,0.42-0.24,0.74v2.01h-0.74v-3.59&#10;&#9;&#9;h0.74v0.41c0.12-0.15,0.28-0.26,0.47-0.34c0.19-0.08,0.39-0.12,0.6-0.12C463.6,323.47,463.85,323.53,464.08,323.65z" class="st4"/>
	<path d="M465.71,324.35c0.15-0.28,0.35-0.49,0.61-0.65c0.26-0.15,0.54-0.23,0.86-0.23c0.28,0,0.53,0.06,0.74,0.17&#10;&#9;&#9;s0.38,0.25,0.5,0.41v-0.52h0.75v3.59h-0.75v-0.53c-0.13,0.17-0.3,0.31-0.51,0.42c-0.22,0.11-0.46,0.17-0.74,0.17&#10;&#9;&#9;c-0.31,0-0.59-0.08-0.85-0.24c-0.26-0.16-0.46-0.38-0.61-0.66c-0.15-0.29-0.22-0.61-0.22-0.97S465.56,324.63,465.71,324.35z&#10;&#9;&#9; M468.27,324.68c-0.1-0.18-0.24-0.32-0.4-0.42s-0.34-0.14-0.53-0.14c-0.19,0-0.37,0.05-0.53,0.14c-0.17,0.09-0.3,0.23-0.4,0.41&#10;&#9;&#9;c-0.1,0.18-0.15,0.39-0.15,0.64c0,0.25,0.05,0.46,0.15,0.65c0.1,0.19,0.24,0.33,0.4,0.43s0.34,0.15,0.53,0.15&#10;&#9;&#9;c0.19,0,0.37-0.05,0.53-0.14s0.3-0.24,0.4-0.42c0.1-0.18,0.15-0.4,0.15-0.65C468.42,325.07,468.37,324.86,468.27,324.68z" class="st4"/>
	<path d="M472.33,323.64c0.21,0.11,0.38,0.25,0.5,0.41v-0.52h0.75v3.65c0,0.33-0.07,0.62-0.21,0.88&#10;&#9;&#9;c-0.14,0.26-0.34,0.46-0.6,0.61c-0.26,0.15-0.58,0.22-0.94,0.22c-0.49,0-0.89-0.11-1.21-0.34c-0.32-0.23-0.5-0.54-0.55-0.93h0.74&#10;&#9;&#9;c0.06,0.19,0.18,0.34,0.36,0.45s0.41,0.17,0.66,0.17c0.3,0,0.54-0.09,0.73-0.27c0.18-0.18,0.28-0.45,0.28-0.79v-0.6&#10;&#9;&#9;c-0.13,0.17-0.3,0.31-0.51,0.43c-0.21,0.12-0.46,0.17-0.73,0.17c-0.31,0-0.6-0.08-0.86-0.24c-0.26-0.16-0.46-0.38-0.61-0.66&#10;&#9;&#9;c-0.15-0.29-0.22-0.61-0.22-0.97s0.07-0.68,0.22-0.96c0.15-0.28,0.35-0.49,0.61-0.65c0.26-0.15,0.54-0.23,0.86-0.23&#10;&#9;&#9;C471.87,323.47,472.12,323.53,472.33,323.64z M472.68,324.68c-0.1-0.18-0.24-0.32-0.4-0.42s-0.34-0.14-0.53-0.14&#10;&#9;&#9;c-0.19,0-0.37,0.05-0.53,0.14c-0.17,0.09-0.3,0.23-0.4,0.41c-0.1,0.18-0.15,0.39-0.15,0.64c0,0.25,0.05,0.46,0.15,0.65&#10;&#9;&#9;c0.1,0.19,0.24,0.33,0.4,0.43s0.34,0.15,0.53,0.15c0.19,0,0.37-0.05,0.53-0.14s0.3-0.24,0.4-0.42c0.1-0.18,0.15-0.4,0.15-0.65&#10;&#9;&#9;C472.84,325.07,472.79,324.86,472.68,324.68z" class="st4"/>
	<path d="M477.83,325.6h-2.74c0.02,0.29,0.13,0.52,0.32,0.69c0.19,0.17,0.43,0.26,0.7,0.26c0.4,0,0.68-0.17,0.85-0.5&#10;&#9;&#9;h0.8c-0.11,0.33-0.3,0.6-0.59,0.81c-0.28,0.21-0.64,0.32-1.06,0.32c-0.34,0-0.65-0.08-0.92-0.23c-0.27-0.15-0.48-0.37-0.64-0.65&#10;&#9;&#9;c-0.15-0.28-0.23-0.6-0.23-0.97s0.07-0.69,0.22-0.97c0.15-0.28,0.36-0.5,0.63-0.65c0.27-0.15,0.58-0.23,0.93-0.23&#10;&#9;&#9;c0.34,0,0.64,0.07,0.91,0.22s0.47,0.35,0.62,0.62c0.15,0.27,0.22,0.57,0.22,0.92C477.85,325.37,477.84,325.49,477.83,325.6z&#10;&#9;&#9; M477.08,325c0-0.27-0.1-0.49-0.29-0.66c-0.19-0.16-0.43-0.25-0.71-0.25c-0.26,0-0.48,0.08-0.66,0.24&#10;&#9;&#9;c-0.18,0.16-0.29,0.38-0.33,0.66H477.08z" class="st4"/>
	<path d="M483.68,323.65c0.22,0.12,0.4,0.29,0.53,0.52c0.13,0.23,0.19,0.51,0.19,0.83v2.12h-0.74v-2.01&#10;&#9;&#9;c0-0.32-0.08-0.57-0.24-0.74c-0.16-0.17-0.38-0.26-0.66-0.26c-0.28,0-0.5,0.09-0.66,0.26c-0.16,0.17-0.24,0.42-0.24,0.74v2.01&#10;&#9;&#9;h-0.74v-2.01c0-0.32-0.08-0.57-0.24-0.74c-0.16-0.17-0.38-0.26-0.66-0.26s-0.5,0.09-0.66,0.26c-0.16,0.17-0.24,0.42-0.24,0.74v2.01&#10;&#9;&#9;h-0.74v-3.59h0.74v0.41c0.12-0.15,0.28-0.26,0.46-0.34c0.19-0.08,0.39-0.12,0.6-0.12c0.29,0,0.54,0.06,0.77,0.18&#10;&#9;&#9;c0.23,0.12,0.4,0.3,0.52,0.53c0.11-0.22,0.28-0.39,0.51-0.52c0.23-0.13,0.48-0.19,0.74-0.19&#10;&#9;&#9;C483.21,323.47,483.46,323.53,483.68,323.65z" class="st4"/>
	<path d="M488.61,325.6h-2.74c0.02,0.29,0.13,0.52,0.32,0.69c0.19,0.17,0.43,0.26,0.7,0.26c0.4,0,0.68-0.17,0.85-0.5&#10;&#9;&#9;h0.8c-0.11,0.33-0.3,0.6-0.59,0.81c-0.28,0.21-0.64,0.32-1.06,0.32c-0.34,0-0.65-0.08-0.92-0.23c-0.27-0.15-0.48-0.37-0.64-0.65&#10;&#9;&#9;c-0.15-0.28-0.23-0.6-0.23-0.97s0.07-0.69,0.22-0.97c0.15-0.28,0.36-0.5,0.63-0.65c0.27-0.15,0.58-0.23,0.93-0.23&#10;&#9;&#9;c0.34,0,0.64,0.07,0.91,0.22s0.47,0.35,0.62,0.62c0.15,0.27,0.22,0.57,0.22,0.92C488.63,325.37,488.62,325.49,488.61,325.6z&#10;&#9;&#9; M487.86,325c0-0.27-0.1-0.49-0.29-0.66c-0.19-0.16-0.43-0.25-0.71-0.25c-0.26,0-0.48,0.08-0.66,0.24&#10;&#9;&#9;c-0.18,0.16-0.29,0.38-0.33,0.66H487.86z" class="st4"/>
	<path d="M491.93,323.65c0.22,0.12,0.4,0.29,0.52,0.52c0.13,0.23,0.19,0.51,0.19,0.83v2.12h-0.74v-2.01&#10;&#9;&#9;c0-0.32-0.08-0.57-0.24-0.74c-0.16-0.17-0.38-0.26-0.66-0.26s-0.5,0.09-0.66,0.26c-0.16,0.17-0.24,0.42-0.24,0.74v2.01h-0.74v-3.59&#10;&#9;&#9;h0.74v0.41c0.12-0.15,0.28-0.26,0.47-0.34c0.19-0.08,0.39-0.12,0.6-0.12C491.46,323.47,491.71,323.53,491.93,323.65z" class="st4"/>
	<path d="M494.46,324.14v1.99c0,0.13,0.03,0.23,0.09,0.29c0.06,0.06,0.17,0.09,0.32,0.09h0.46v0.62h-0.59&#10;&#9;&#9;c-0.33,0-0.59-0.08-0.77-0.23c-0.18-0.16-0.27-0.41-0.27-0.76v-1.99h-0.42v-0.61h0.42v-0.89h0.75v0.89h0.87v0.61H494.46z" class="st4"/>
</g>
</svg>