<?xml version="1.0" encoding="UTF-8"?>
<svg version="1.1" xmlns="http://www.w3.org/2000/svg" width="1600" height="962">
<path d="M0 0 C26.73036774 -0.07019933 53.46072159 -0.12304163 80.19116306 -0.15543652 C92.60362906 -0.17088036 105.01603765 -0.1919223 117.4284668 -0.22631836 C128.25192856 -0.25629684 139.07534873 -0.27559303 149.89885086 -0.28226548 C155.62545068 -0.28616344 161.35193156 -0.2952722 167.07849312 -0.31719017 C172.47846798 -0.33768895 177.8782759 -0.34380693 183.27828598 -0.33932304 C185.25060244 -0.34014229 187.22292501 -0.34602756 189.1952076 -0.35761642 C214.37150133 -0.49818023 235.92049568 4.61659396 254.87263489 22.28895569 C255.43006309 22.80656623 255.9874913 23.32417677 256.56181127 23.85747248 C263.83771169 30.66001814 270.86796784 37.71181792 277.9128418 44.75170898 C279.46482986 46.29905622 281.01701039 47.84621044 282.56936646 49.39318848 C286.7472505 53.55807722 290.92190638 57.72618613 295.09553123 61.89534259 C297.71023105 64.50709363 300.32550933 67.11826411 302.94095802 69.72926521 C311.14554218 77.92021485 319.34815117 86.11313476 327.54785985 94.30896515 C336.97524502 103.73186484 346.40913756 113.14816957 355.84873265 122.55883735 C363.17501159 129.86345098 370.49546812 137.17386672 377.81158954 144.48865372 C382.16875782 148.84477842 386.52827688 153.19848396 390.8938961 157.54614067 C394.99889143 161.63456881 399.09655715 165.73020734 403.18890762 169.8312912 C404.68338495 171.32653399 406.1803845 172.81926121 407.68021202 174.30913734 C427.65925112 194.16345832 442.3275424 215.10292708 442.62450159 244.32851374 C442.62204086 246.71833861 442.59522537 249.1071704 442.56762695 251.49682617 C442.56621147 253.25330057 442.56701818 255.00977791 442.56983948 256.76625061 C442.57125555 261.46772411 442.54216421 266.16854054 442.50696969 270.86986327 C442.47539944 275.80784502 442.47275156 280.74584708 442.46684265 285.68391418 C442.45139332 295.00490699 442.41048736 304.32560141 442.3600952 313.64646369 C442.30392196 324.27060177 442.27664534 334.89475521 442.25161803 345.51900518 C442.19956211 367.34616905 442.1117959 389.17306561 442 411 C441.34 411 440.68 411 440 411 C438.55674744 409.53797913 438.55674744 409.53797913 436.87866211 407.51196289 C433.09490275 403.06523846 429.07430156 398.92961165 424.94140625 394.80859375 C424.1934227 394.05965347 423.44543915 393.3107132 422.67478943 392.53907776 C421.10367536 390.96728775 419.53131608 389.39674151 417.95776367 387.82739258 C415.56900154 385.44398696 413.18562554 383.05528932 410.80273438 380.66601562 C409.2659455 379.12988763 407.7288464 377.59406991 406.19140625 376.05859375 C405.13790733 375.00205849 405.13790733 375.00205849 404.06312561 373.92417908 C400.04563958 369.92538417 395.93283916 366.149799 391.55967712 362.54090881 C390 361 390 361 389 358 C387.1945488 356.94000606 387.1945488 356.94000606 385 356 C364.9937169 343.92635601 340.61091315 325.37773798 334.45290375 301.69838715 C328.33037584 273.22801283 331.09059904 242.35766397 332.47069228 213.5035063 C333.02746364 201.64923475 333.29001192 189.79327518 333.53414333 177.92910373 C334.04095088 153.60494084 334.89770687 129.30397329 336 105 C307.86205701 104.99044314 279.72432312 105.01505229 251.58644962 105.0802784 C238.52137643 105.10976879 225.45646589 105.12810037 212.39135742 105.12011719 C201.00311631 105.11318699 189.61512694 105.12723996 178.22694772 105.16643608 C172.19753592 105.18645691 166.16851942 105.19600652 160.13908577 105.18042374 C154.46146729 105.16608185 148.78460372 105.17984093 143.10708237 105.21495247 C141.02583981 105.222907 138.94452899 105.22068291 136.86331367 105.20739174 C123.50873606 104.72250594 123.50873606 104.72250594 111.6231451 109.933424 C106.83594347 116.02845271 105.40835095 121.5106632 105.48101807 129.16223145 C105.47351681 130.05111415 105.46601556 130.93999686 105.458287 131.85581541 C105.4380854 134.81622754 105.44609774 137.77586825 105.45410156 140.73632812 C105.44536247 142.86556757 105.43487552 144.99480044 105.42277527 147.12402344 C105.39493604 152.89201314 105.39151014 158.65978833 105.39249516 164.42783546 C105.3893643 170.46036193 105.36374244 176.49279203 105.34051514 182.52526855 C105.29996497 193.94310872 105.27961668 205.36089178 105.26654124 216.77879286 C105.25066792 229.77999145 105.21225083 242.78109291 105.17194796 255.78223515 C105.0895624 282.52145749 105.03546184 309.26067716 105 336 C106.00786938 335.96681545 107.01573875 335.93363091 108.05414963 335.89944077 C132.74899038 335.09489412 157.44210725 334.5062263 182.14735031 334.13476181 C194.09650235 333.95026216 206.03692814 333.69957064 217.98046875 333.28417969 C228.40976239 332.92163124 238.83273716 332.69228099 249.26815724 332.61281419 C254.78146451 332.56643582 260.27672697 332.46037705 265.78414154 332.19371796 C285.13692327 331.29258406 302.48497351 330.74372211 317.79064941 344.04309082 C326.47020541 352.01273666 334.18173497 360.87025289 341.49008799 370.09668016 C346.01680188 375.88548745 346.01680188 375.88548745 351.375 380.875 C353.84853057 382.91738819 355.9561663 385.02128038 358.01391602 387.47875977 C362.37283873 392.52198756 367.08523964 397.19846957 371.81471062 401.88987541 C373.43495166 403.49719154 375.05190599 405.10775269 376.66810608 406.71913147 C380.08840705 410.12810374 383.51267639 413.53307225 386.9375 416.9375 C390.93269631 420.90908897 394.92624661 424.88230541 398.91565132 428.8597126 C400.51131902 430.44888426 402.10995735 432.03502638 403.70872498 433.62107849 C404.67697487 434.58569957 405.64508672 435.55045924 406.61303711 436.51538086 C407.46240341 437.35951035 408.31176971 438.20363983 409.18687439 439.073349 C411 441 411 441 411 442 C388.415199 442.11726106 365.83044884 442.20519637 343.24540424 442.25906086 C332.75667909 442.2847457 322.26814406 442.31970832 311.77954102 442.37719727 C302.62824542 442.42733202 293.47708764 442.45936147 284.3256585 442.47044247 C279.48853642 442.47691078 274.6518083 442.49190548 269.81481361 442.52865028 C234.0616516 442.78953281 206.90354017 439.7954094 180.23957825 413.62052917 C177.26589345 410.67585703 174.31163221 407.71223002 171.35864258 404.74682617 C169.71694185 403.10919773 168.07460519 401.47220661 166.4316864 399.83580017 C161.99930663 395.41702148 157.57637839 390.98889691 153.15556931 386.55854583 C148.51184202 381.90718447 143.86075528 377.26319117 139.21086121 372.61799622 C130.90656973 364.32009721 122.6104355 356.01408513 114.3169904 347.7053474 C106.81751459 340.19247083 99.3102088 332.68749388 91.79711914 325.18823242 C83.04431191 316.45152793 74.29662706 307.70974536 65.5562889 298.96056539 C60.93984955 294.33946659 56.32144919 289.7203766 51.69770241 285.10658836 C47.34960445 280.767203 43.00899961 276.42045505 38.67389107 272.06809425 C37.08867061 270.47893183 35.50093787 268.89227058 33.91041946 267.30841064 C13.86326235 247.33740829 -0.29366104 227.72485917 -0.49985456 198.3852787 C-0.49760931 195.52813835 -0.47609077 192.67150441 -0.45410156 189.81445312 C-0.4529707 187.73330202 -0.45361159 185.65214933 -0.45587158 183.57099915 C-0.45701034 177.97074249 -0.4336379 172.3708347 -0.40557575 166.77065849 C-0.38042114 160.89973638 -0.37820908 155.0288046 -0.37347412 149.15783691 C-0.36108543 138.06247081 -0.32831978 126.96726402 -0.28807616 115.87196779 C-0.24323009 103.23098917 -0.22133923 90.5900026 -0.20129442 77.94896412 C-0.15958323 51.96588806 -0.08931166 25.98295299 0 0 Z " fill="#1373B9" transform="translate(191,253)"/>
<path d="M0 0 C2.13409469 -0.00135219 4.26818907 -0.0032973 6.40228271 -0.00579834 C10.83950785 -0.00872102 15.27665162 -0.00454341 19.71386719 0.00488281 C25.36064213 0.01630362 31.00722741 0.00968288 36.65399551 -0.00226212 C41.04841508 -0.00953464 45.44279062 -0.00716865 49.83721161 -0.00200653 C51.91812921 -0.00068636 53.99905099 -0.00225945 56.07996368 -0.00696564 C79.82225625 -0.0489203 105.03822981 0.61890504 123.1171875 18.0625 C138.68576944 34.263017 138.7140504 59.61495457 138.6328125 80.7734375 C138.63484228 82.67853913 138.63776115 84.58363999 138.64151001 86.48873901 C138.6458888 90.44683358 138.6396465 94.40472263 138.62548828 98.36279297 C138.60837555 103.38619359 138.61827952 108.40911381 138.63620567 113.43249702 C138.64714493 117.35520931 138.64355158 121.27781123 138.6358223 125.20052719 C138.6338494 127.050923 138.63617456 128.9013295 138.64326096 130.7517128 C138.67872059 142.60286591 137.65792209 153.66502134 135.234375 165.265625 C134.93987292 166.89011352 134.64726096 168.51495095 134.359375 170.140625 C133.1408705 175.48733871 130.63461635 180.36436881 128.234375 185.265625 C128.8005957 185.50587402 129.36681641 185.74612305 129.95019531 185.99365234 C132.70478087 187.52757611 134.56687171 189.37288518 136.78125 191.6171875 C137.62558594 192.46796875 138.46992187 193.31875 139.33984375 194.1953125 C140.21253906 195.08476563 141.08523438 195.97421875 141.984375 196.890625 C142.87253906 197.7878125 143.76070312 198.685 144.67578125 199.609375 C146.86654469 201.82369504 149.05250263 204.04254935 151.234375 206.265625 C149.74783994 209.73192335 147.77715149 211.95584536 145.1015625 214.59375 C143.89306641 215.79257812 143.89306641 215.79257812 142.66015625 217.015625 C141.39751953 218.253125 141.39751953 218.253125 140.109375 219.515625 C139.25988281 220.35609375 138.41039062 221.1965625 137.53515625 222.0625 C135.43932577 224.13478183 133.33896787 226.20224893 131.234375 228.265625 C127.36773335 226.69897328 125.10008268 224.24779728 122.27734375 221.22265625 C121.32057735 220.22112945 120.36286556 219.22050509 119.40429688 218.22070312 C117.90698011 216.64912299 116.41678526 215.07262714 114.94213867 213.47973633 C113.50957401 211.93801934 112.05268167 210.42310374 110.58984375 208.91015625 C109.73028076 207.99596924 108.87071777 207.08178223 107.98510742 206.13989258 C104.25651065 203.5993372 102.60798472 204.4491007 98.234375 205.265625 C96.99909058 205.50979156 95.76380615 205.75395813 94.49108887 206.00552368 C81.41138422 208.58861501 68.56105129 208.70456974 55.265625 208.6640625 C52.89066479 208.66608978 50.51570518 208.66900661 48.14074707 208.67276001 C43.19224043 208.67715262 38.24389757 208.67085189 33.29541016 208.65673828 C27.00201625 208.63964855 20.7090064 208.64950629 14.41562653 208.66745567 C9.52009265 208.67837684 4.62464749 208.67480924 -0.27088928 208.6670723 C-2.58936104 208.66509324 -4.90784126 208.66744729 -7.2263031 208.67451096 C-29.89542045 208.72844661 -52.23380983 208.26552869 -69.4765625 191.61328125 C-80.56250164 179.65509817 -84.93319548 160.97428622 -84.89501953 145.13012695 C-84.89677185 144.23008438 -84.89852417 143.33004181 -84.90032959 142.40272522 C-84.90471919 139.43643242 -84.90181904 136.47019962 -84.8984375 133.50390625 C-84.89911166 131.43133025 -84.90008263 129.35875432 -84.90133667 127.28617859 C-84.90280998 122.94281257 -84.90067195 118.59946714 -84.89599609 114.25610352 C-84.89031686 108.71286269 -84.89356868 103.16967048 -84.89956856 97.62643147 C-84.90319929 93.34453471 -84.90202377 89.06264929 -84.89944077 84.78075218 C-84.89877751 82.738395 -84.89957871 80.69603675 -84.90192032 78.6536808 C-84.92604924 51.6789208 -84.92604924 51.6789208 -81.578125 40.765625 C-81.35672852 40.03859375 -81.13533203 39.3115625 -80.90722656 38.5625 C-77.03727993 26.3859315 -70.76385625 16.16136897 -59.515625 9.515625 C-57.94645276 8.73643123 -56.36169047 7.98813413 -54.765625 7.265625 C-53.84523438 6.82347656 -52.92484375 6.38132812 -51.9765625 5.92578125 C-45.74480357 3.20431691 -39.97189029 1.80097015 -33.24316406 1.13769531 C-32.42236485 1.05488438 -31.60156563 0.97207344 -30.75589371 0.88675308 C-20.51581897 -0.05546609 -10.27456713 -0.02334251 0 0 Z " fill="#262223" transform="translate(793.765625,387.734375)"/>
<path d="M0 0 C13.86 0 27.72 0 42 0 C55.80253475 14.86426819 55.80253475 14.86426819 61.69140625 22.22265625 C64.8310561 25.99979846 68.18156263 29.55954502 71.5390625 33.14233398 C75.62292953 37.52606079 79.42569739 42.0706146 83.16015625 46.7578125 C84.9077724 48.9770376 84.9077724 48.9770376 86.74609375 50.6796875 C88 52 88 52 88 54 C89.485 54.495 89.485 54.495 91 55 C92.41696507 56.57054206 93.76106816 58.20746664 95.0625 59.875 C98.25774361 63.88329587 101.51929973 67.73150392 105 71.5 C108.25507083 75.0355077 111.36636881 78.62778787 114.375 82.375 C118.76344127 87.81386605 123.46446412 92.90728904 128.2265625 98.015625 C134.07440259 104.28925973 139.59225047 110.85263111 145.16918945 117.3659668 C148.99817123 121.83637267 152.83669674 126.29837422 156.6875 130.75 C157.49828003 131.68827637 157.49828003 131.68827637 158.32543945 132.64550781 C162.29572248 137.22544166 166.35309908 141.71238806 170.48828125 146.14453125 C172 148 172 148 172 150 C172.66 150 173.32 150 174 150 C174 100.5 174 51 174 0 C186.54 0 199.08 0 212 0 C212 66.66 212 133.32 212 202 C197.81 202 183.62 202 169 202 C165.37 197.71 161.74 193.42 158 189 C153.81526188 184.44306787 153.81526188 184.44306787 149.6171875 179.8984375 C146.3706102 176.30297428 143.34839742 172.55443679 140.3125 168.78125 C137.36322396 165.23414773 134.24212476 161.87055257 131.09912109 158.49584961 C127.22446489 154.30977626 123.61604321 149.94189477 120.0703125 145.47265625 C117.97236416 142.88297517 117.97236416 142.88297517 115.2421875 140.30859375 C113 138 113 138 113 136 C112.01 135.67 111.02 135.34 110 135 C108.58303493 133.42945794 107.23893184 131.79253336 105.9375 130.125 C102.74225639 126.11670413 99.48070027 122.26849608 96 118.5 C92.76402245 114.98565879 89.67365193 111.41609555 86.6875 107.6875 C82.61186956 102.63083286 78.2463704 97.91651697 73.79760742 93.19213867 C69.77795093 88.90024154 66.05206444 84.44079513 62.37890625 79.84765625 C59.03570667 75.84569813 55.47221528 72.06332193 51.8671875 68.296875 C47.21726515 63.39056595 43.27895577 58.34869471 39 53 C38.67 102.17 38.34 151.34 38 202 C25.46 202 12.92 202 0 202 C0 135.34 0 68.68 0 0 Z " fill="#262223" transform="translate(969,392)"/>
<path d="M0 0 C0.68216741 0.63879624 1.36433481 1.27759249 2.06717396 1.93574619 C2.63030639 2.49590396 3.19343882 3.05606173 3.77363586 3.63319397 C4.7634697 4.61446259 4.7634697 4.61446259 5.77330017 5.61555481 C6.47113113 6.31226791 7.1689621 7.00898102 7.88793945 7.72680664 C8.64343079 8.47733307 9.39892212 9.2278595 10.17730713 10.00112915 C12.65873705 12.46803775 15.13633338 14.93874786 17.61328125 17.41015625 C18.46595266 18.26000029 19.31862408 19.10984432 20.19713402 19.98544121 C24.71121032 24.48456404 29.22242858 28.98652908 33.73120117 33.4909668 C38.36071048 38.11500315 42.99941667 42.72969463 47.64040852 47.34220219 C51.23255463 50.91561235 54.81786629 54.49582213 58.40141869 58.07784843 C60.10714681 59.78057324 61.81534751 61.48082521 63.52617836 63.17842293 C84.37723116 83.87968716 100.31330743 104.70197623 100.62450159 135.32851374 C100.62204086 137.71833861 100.59522537 140.1071704 100.56762695 142.49682617 C100.56621147 144.25330057 100.56701818 146.00977791 100.56983948 147.76625061 C100.57125555 152.46772411 100.54216421 157.16854054 100.50696969 161.86986327 C100.47539944 166.80784502 100.47275156 171.74584708 100.46684265 176.68391418 C100.45139332 186.00490699 100.41048736 195.32560141 100.3600952 204.64646369 C100.30392196 215.27060177 100.27664534 225.89475521 100.25161803 236.51900518 C100.19956211 258.34616905 100.1117959 280.17306561 100 302 C99.34 302 98.68 302 98 302 C96.55674744 300.53797913 96.55674744 300.53797913 94.87866211 298.51196289 C91.09490275 294.06523846 87.07430156 289.92961165 82.94140625 285.80859375 C82.1934227 285.05965347 81.44543915 284.3107132 80.67478943 283.53907776 C79.10367536 281.96728775 77.53131608 280.39674151 75.95776367 278.82739258 C73.56900154 276.44398696 71.18562554 274.05528932 68.80273438 271.66601562 C67.2659455 270.12988763 65.7288464 268.59406991 64.19140625 267.05859375 C63.13790733 266.00205849 63.13790733 266.00205849 62.06312561 264.92417908 C58.04563958 260.92538417 53.93283916 257.149799 49.55967712 253.54090881 C48 252 48 252 47 249 C45.1945488 247.94000606 45.1945488 247.94000606 43 247 C22.9937169 234.92635601 -1.38908685 216.37773798 -7.54709625 192.69838715 C-10.62786512 178.36853854 -10.79516474 163.62592154 -10.78515625 149.02734375 C-10.7863291 148.02402929 -10.78750196 147.02071482 -10.78871036 145.98699689 C-10.76506598 128.61085661 -9.82947657 111.30203233 -9.0625 93.9375 C-8.051875 61.618125 -7.04125 29.29875 -6 -4 C-76.29 -4 -146.58 -4 -219 -4 C-219 -4.33 -219 -4.66 -219 -5 C-191.47977864 -5.27072006 -163.95944854 -5.50693357 -136.43858242 -5.70202446 C-123.66027097 -5.79341312 -110.88223694 -5.89610914 -98.10424805 -6.02539062 C-86.9674725 -6.13803846 -75.83075931 -6.22950531 -64.69360596 -6.29549801 C-58.79600835 -6.33118479 -52.89892514 -6.37750335 -47.00164604 -6.44918442 C-41.45066758 -6.51632165 -35.90021093 -6.55513074 -30.34885979 -6.57224464 C-28.31182883 -6.58351284 -26.2748247 -6.6051198 -24.23802567 -6.63785744 C-21.45471932 -6.68104291 -18.67370533 -6.68689384 -15.89012146 -6.68356323 C-14.68338474 -6.71561523 -14.68338474 -6.71561523 -13.45226949 -6.74831474 C-7.21713636 -6.67818439 -4.24500552 -4.40731474 0 0 Z " fill="#6359A6" transform="translate(533,362)"/>
<path d="M0 0 C25.86059812 -0.82285943 51.71919816 -1.43728421 77.59031391 -1.81342602 C89.60758432 -1.99284436 101.61666046 -2.23667173 113.62866211 -2.64038086 C124.1169059 -2.99270582 134.59921565 -3.21580614 145.09321278 -3.29309732 C150.6378593 -3.33820796 156.16555847 -3.44150068 161.70467567 -3.70055199 C180.83349516 -4.56092916 198.39661901 -5.3158255 213.57479858 7.81381226 C222.01117836 15.53867148 229.4716505 24.15082678 236.52973783 33.13482797 C241.03227076 38.90789004 241.03227076 38.90789004 246.375 43.875 C248.84853057 45.91738819 250.9561663 48.02128038 253.01391602 50.47875977 C257.37283873 55.52198756 262.08523964 60.19846957 266.81471062 64.88987541 C268.43495166 66.49719154 270.05190599 68.10775269 271.66810608 69.71913147 C275.08840705 73.12810374 278.51267639 76.53307225 281.9375 79.9375 C285.93269631 83.90908897 289.92624661 87.88230541 293.91565132 91.8597126 C295.51131902 93.44888426 297.10995735 95.03502638 298.70872498 96.62107849 C299.67697487 97.58569957 300.64508672 98.55045924 301.61303711 99.51538086 C302.46240341 100.35951035 303.31176971 101.20363983 304.18687439 102.073349 C306 104 306 104 306 105 C283.415199 105.11726106 260.83044884 105.20519637 238.24540424 105.25906086 C227.75667909 105.2847457 217.26814406 105.31970832 206.77954102 105.37719727 C197.62824542 105.42733202 188.47708764 105.45936147 179.3256585 105.47044247 C174.48853642 105.47691078 169.6518083 105.49190548 164.81481361 105.52865028 C129.90626728 105.78336985 102.62660511 103.25008334 76.42228317 77.74873352 C72.14558724 73.52540441 67.9064498 69.26549867 63.671875 65 C61.82873079 63.15379359 59.98499121 61.3081814 58.14068604 59.46313477 C54.29983706 55.6186192 50.46462509 51.76855736 46.63330078 47.91455078 C41.71073001 42.96289738 36.77873593 38.02073928 31.84382248 33.08139038 C28.04795151 29.28197602 24.25551822 25.47914015 20.4638443 21.67553711 C18.64453395 19.85051594 16.82474539 18.02597137 15.00447845 16.2019043 C12.47657344 13.66717042 9.95209313 11.12907918 7.42871094 8.58984375 C6.67145218 7.83146713 5.91419342 7.07309052 5.13398743 6.29173279 C4.11243813 5.26161827 4.11243813 5.26161827 3.07025146 4.21069336 C2.47376675 3.61123398 1.87728203 3.0117746 1.26272202 2.39414978 C0 1 0 1 0 0 Z " fill="#3E813E" transform="translate(296,590)"/>
<path d="M0 0 C1.4892675 -0.00503792 1.4892675 -0.00503792 3.00862122 -0.01017761 C6.29783378 -0.01968666 9.58699523 -0.02163207 12.8762207 -0.02270508 C15.18333456 -0.0259225 17.49044821 -0.02928693 19.79756165 -0.03279114 C24.64890005 -0.03878569 29.50022065 -0.04063118 34.3515625 -0.04003906 C40.49312221 -0.03993852 46.63456348 -0.05347591 52.77609539 -0.07081127 C57.55443313 -0.08208373 62.33274386 -0.08395351 67.11109352 -0.08342934 C69.36992608 -0.08459109 71.62875976 -0.08890808 73.88757896 -0.0967617 C86.03345546 -0.13496958 98.09513636 0.13887832 110.21142578 1.03466797 C111.2858855 1.11224492 112.36034521 1.18982187 113.46736431 1.26974964 C114.48266122 1.35251494 115.49795813 1.43528025 116.54402161 1.52055359 C117.87113018 1.62832642 117.87113018 1.62832642 119.22504902 1.73827648 C122.90614583 2.25676883 126.50806221 3.24365374 130.11450195 4.14526367 C130.11450195 13.05526367 130.11450195 21.96526367 130.11450195 31.14526367 C124.3768042 31.16713745 124.3768042 31.16713745 118.52319336 31.18945312 C105.87045959 31.23983984 93.21785271 31.30629339 80.56524086 31.38097858 C72.89564009 31.42585962 65.22608495 31.46529181 57.55639648 31.49169922 C50.86804578 31.51474184 44.17984044 31.54820922 37.49160516 31.59396523 C33.95334206 31.61781348 30.41522216 31.63659702 26.87688065 31.64287758 C22.91767947 31.65010116 18.95883567 31.68060884 14.99975586 31.71289062 C13.2583432 31.71073799 13.2583432 31.71073799 11.48175049 31.70854187 C1.14944505 31.82731058 -7.29415608 33.38933679 -14.9050293 40.70385742 C-22.16013831 49.64753224 -23.02222385 60.52201819 -23.0625 71.57397461 C-23.0690712 72.37516724 -23.0756424 73.17635986 -23.08241272 74.00183105 C-23.10196657 76.62776819 -23.11376699 79.25364868 -23.1237793 81.87963867 C-23.12785482 82.78405952 -23.13193035 83.68848038 -23.13612938 84.62030792 C-23.15691231 89.40629338 -23.17124829 94.19225081 -23.18066406 98.97827148 C-23.19172176 103.89154038 -23.22613686 108.80435565 -23.26583576 113.71746445 C-23.29211284 117.52330301 -23.30036561 121.32903508 -23.30394554 125.13495636 C-23.30878158 126.94485798 -23.32030913 128.75475582 -23.33898354 130.56456757 C-23.46379368 143.45989435 -22.61556692 155.25673968 -14.8581543 166.16870117 C-8.38554756 172.65412495 0.60425769 175.24163191 9.53718567 175.30348206 C10.61265656 175.31327087 11.68812744 175.32305969 12.79618835 175.33314514 C14.55053947 175.34177834 14.55053947 175.34177834 16.34033203 175.35058594 C18.19948242 175.36543533 18.19948242 175.36543533 20.09619141 175.38058472 C23.48627788 175.40672449 26.8763414 175.42860624 30.26646638 175.4485867 C33.81257262 175.47049604 37.35863669 175.49786046 40.90470886 175.52464294 C47.61584505 175.57450306 54.32700472 175.61946659 61.03818673 175.66266531 C68.6802649 175.71209488 76.32230074 175.76699175 83.96433794 175.8223449 C99.68102163 175.93606235 115.39774423 176.04220188 131.11450195 176.14526367 C131.11450195 185.05526367 131.11450195 193.96526367 131.11450195 203.14526367 C113.07398522 205.39143925 95.55388118 206.60933125 77.3918457 206.57885742 C74.94006713 206.58343899 72.48828982 206.58875027 70.03651428 206.59474182 C64.9534882 206.60357291 59.87062012 206.60136111 54.78759766 206.59130859 C48.32287754 206.57975861 41.85869883 206.60017444 35.39404964 206.62922573 C30.35183854 206.64768216 25.30975545 206.64727773 20.267519 206.64158821 C17.88484493 206.64143654 15.50216132 206.64735049 13.11952019 206.65987968 C-7.28803031 206.75223089 -29.31139241 206.09374198 -45.0769043 191.18041992 C-51.33699095 184.13613235 -55.21319839 176.11332016 -57.88549805 167.14526367 C-58.12673904 166.51466537 -58.36798004 165.88406708 -58.61653137 165.23435974 C-62.08135271 154.98604048 -61.33838593 144.14023202 -61.3190918 133.46166992 C-61.32366233 131.23843732 -61.32897047 129.01520612 -61.3349762 126.79197693 C-61.34388534 122.1395798 -61.3415125 117.48735449 -61.33154297 112.83496094 C-61.32010775 106.92821441 -61.34019271 101.02207061 -61.36946011 95.11540318 C-61.38798703 90.5225814 -61.38749627 85.92989933 -61.38182259 81.33704948 C-61.3816711 79.16256813 -61.38756924 76.98807623 -61.40011406 74.81363106 C-61.50514021 53.61178502 -60.33306068 32.91226092 -45.88549805 16.14526367 C-43.9909668 14.48510742 -43.9909668 14.48510742 -42.07299805 13.08276367 C-41.44780273 12.61741211 -40.82260742 12.15206055 -40.1784668 11.67260742 C-34.52181644 7.90471936 -29.25076943 5.36558446 -22.76049805 3.45776367 C-22.07084961 3.24571289 -21.38120117 3.03366211 -20.6706543 2.81518555 C-13.55521508 0.65878571 -7.3908086 -0.00359242 0 0 Z " fill="#252223" transform="translate(1275.885498046875,389.854736328125)"/>
<path d="M0 0 C2.64 0 5.28 0 8 0 C8 7.26 8 14.52 8 22 C9.98 21.01 11.96 20.02 14 19 C20.45418863 16.86111191 28.42802184 16.83062008 34.5625 19.8125 C37.6453869 21.54289458 40.37393998 23.3561348 41.66796875 26.75390625 C42.12218905 29.82657296 42.24952152 32.83166666 42.3125 35.9375 C42.36857422 37.74541016 42.36857422 37.74541016 42.42578125 39.58984375 C41.91706705 43.66422443 40.95214091 45.18867672 38 48 C34.20881527 49.87531933 31.11755958 50.25633515 26.91210938 50.2746582 C25.70735962 50.28419022 24.50260986 50.29372223 23.26135254 50.30354309 C21.9685437 50.30263168 20.67573486 50.30172028 19.34375 50.30078125 C17.99523792 50.30467165 16.64672706 50.30900703 15.29821777 50.31376648 C12.47725443 50.3212124 9.65641629 50.32094888 6.83544922 50.31567383 C3.22737809 50.30987487 -0.38018042 50.32682772 -3.98816681 50.3500185 C-6.77120947 50.3647753 -9.55412912 50.36562504 -12.33720398 50.36250877 C-14.31194316 50.36326901 -16.28666332 50.37712223 -18.26135254 50.39118958 C-19.46610229 50.38496078 -20.67085205 50.37873199 -21.91210938 50.37231445 C-22.96958374 50.37294388 -24.02705811 50.3735733 -25.11657715 50.3742218 C-28.39512098 49.94871967 -30.30934858 48.87466562 -33 47 C-34.01803711 47.73126099 -34.01803711 47.73126099 -35.05664062 48.47729492 C-38.6453448 50.33385995 -41.06585401 50.37295866 -45.09375 50.36328125 C-46.09746643 50.36402901 -46.09746643 50.36402901 -47.12145996 50.36479187 C-48.53005965 50.36246118 -49.93866429 50.35279211 -51.34716797 50.33618164 C-53.49354607 50.31257099 -55.63868101 50.31563008 -57.78515625 50.32226562 C-68.34207246 50.27940451 -68.34207246 50.27940451 -71.69335938 48.85620117 C-72.45455078 48.57365479 -73.21574219 48.2911084 -74 48 C-75.34235357 48.64831252 -76.67396938 49.31892364 -78 50 C-80.88768131 50.19265749 -83.67579795 50.2802698 -86.5625 50.265625 C-87.39080322 50.26753845 -88.21910645 50.2694519 -89.07250977 50.27142334 C-90.82080388 50.27278212 -92.56910818 50.26910714 -94.31738281 50.26074219 C-96.99046534 50.25003818 -99.66287583 50.26064773 -102.3359375 50.2734375 C-104.03645981 50.27211585 -105.73698171 50.26955334 -107.4375 50.265625 C-108.63451538 50.27169769 -108.63451538 50.27169769 -109.85571289 50.27789307 C-116.98875675 50.21773996 -116.98875675 50.21773996 -120 48 C-120.66 47.01 -121.32 46.02 -122 45 C-122.99 45.495 -122.99 45.495 -124 46 C-134.33681723 46.93138235 -134.33681723 46.93138235 -139.125 44.25 C-143.09875335 39.48149598 -143.3795738 35.71496878 -143.25 29.625 C-142.8152869 25.06051241 -141.01532348 22.98087501 -137.8125 19.88671875 C-134.3257482 17.54768942 -132.33964143 17.58223671 -128.1875 17.75 C-127.02605469 17.78609375 -125.86460937 17.8221875 -124.66796875 17.859375 C-123.78753906 17.90578125 -122.90710938 17.9521875 -122 18 C-122 16.68 -122 15.36 -122 14 C-119.03 14 -116.06 14 -113 14 C-113 23.24 -113 32.48 -113 42 C-108.60323034 41.88034269 -104.20674623 41.75780363 -99.81030273 41.62768555 C-98.31360731 41.58428187 -96.81686061 41.54261087 -95.32006836 41.50268555 C-93.17285688 41.44511384 -91.02590479 41.38138284 -88.87890625 41.31640625 C-86.93866577 41.26141968 -86.93866577 41.26141968 -84.95922852 41.20532227 C-82.11444992 41.3332722 -82.11444992 41.3332722 -81 40 C-80.84313751 38.44051458 -80.74923361 36.87457332 -80.68359375 35.30859375 C-80.62075195 33.89223633 -80.62075195 33.89223633 -80.55664062 32.44726562 C-80.51732422 31.45404297 -80.47800781 30.46082031 -80.4375 29.4375 C-80.37272461 27.94186523 -80.37272461 27.94186523 -80.30664062 26.41601562 C-80.20019702 23.9441585 -80.09818072 21.4721969 -80 19 C-77.36 19 -74.72 19 -72 19 C-71.97494385 19.63091553 -71.9498877 20.26183105 -71.92407227 20.91186523 C-71.80845863 23.75396825 -71.68557684 26.59571083 -71.5625 29.4375 C-71.52318359 30.43072266 -71.48386719 31.42394531 -71.44335938 32.44726562 C-71.40146484 33.39150391 -71.35957031 34.33574219 -71.31640625 35.30859375 C-71.27974854 36.18314209 -71.24309082 37.05769043 -71.20532227 37.95874023 C-71.21818934 39.9927402 -71.21818934 39.9927402 -70 41 C-67.85613343 41.15858842 -65.70733162 41.25129298 -63.55859375 41.31640625 C-62.25341797 41.35830078 -60.94824219 41.40019531 -59.60351562 41.44335938 C-58.2148467 41.48317608 -56.82617478 41.52288825 -55.4375 41.5625 C-54.04490817 41.60567989 -52.65232972 41.649294 -51.25976562 41.69335938 C-47.83997451 41.79985806 -44.42000104 41.90047056 -41 42 C-40.67 34.74 -40.34 27.48 -40 20 C-37.36 20 -34.72 20 -32 20 C-32 26.93 -32 33.86 -32 41 C-21.77 41 -11.54 41 -1 41 C-0.67 27.47 -0.34 13.94 0 0 Z " fill="#2C292A" transform="translate(850,645)"/>
<path d="M0 0 C1.98 1.32 3.96 2.64 6 4 C3.72470069 8.28291635 0.75819892 11.66131216 -2.4765625 15.23046875 C-4.06911251 16.9343521 -4.06911251 16.9343521 -5 19 C-3.205625 18.87625 -3.205625 18.87625 -1.375 18.75 C3.10407241 18.75 5.56159946 20.05279954 9 23 C11.55631086 26.67306099 11.33214806 30.62671472 11.3125 34.9375 C11.32861328 35.64068359 11.34472656 36.34386719 11.36132812 37.06835938 C11.36553788 41.5601644 10.86091479 44.49328052 8 48 C4.86528175 49.96293481 2.41031062 50.2601671 -1.25585938 50.29052734 C-2.82768982 50.3096669 -2.82768982 50.3096669 -4.43127441 50.32919312 C-6.12044983 50.33253159 -6.12044983 50.33253159 -7.84375 50.3359375 C-9.58561584 50.3459227 -9.58561584 50.3459227 -11.3626709 50.35610962 C-13.81712256 50.36623171 -16.27160171 50.37092678 -18.72607422 50.37060547 C-22.48581039 50.37498348 -26.2443774 50.41132325 -30.00390625 50.44921875 C-32.38801681 50.45508591 -34.77213296 50.45905598 -37.15625 50.4609375 C-38.28236694 50.47530853 -39.40848389 50.48967957 -40.56872559 50.50448608 C-41.61661255 50.49833282 -42.66449951 50.49217957 -43.74414062 50.48583984 C-45.12502869 50.4901149 -45.12502869 50.4901149 -46.53381348 50.49447632 C-49.72453046 49.8547299 -50.78549877 48.30438493 -53 46 C-55.74069694 45.89235054 -58.16782661 45.95922144 -60.875 46.1875 C-67.99172067 46.44463466 -67.99172067 46.44463466 -71.3828125 44.94921875 C-75.12802139 41.30352024 -75.51861112 37.06504197 -75.875 32 C-75.63522965 27.21479602 -75.18092699 24.12930833 -71.8125 20.625 C-66.40558733 16.73786819 -60.36290091 17.38892872 -54 18 C-54 16.68 -54 15.36 -54 14 C-51.36 14 -48.72 14 -46 14 C-45.67 23.24 -45.34 32.48 -45 42 C-29.16 42 -13.32 42 3 42 C2.67 37.71 2.34 33.42 2 29 C-2.12727362 26.93636319 -5.26839651 26.57832417 -9.75 26.375 C-10.44738281 26.33632813 -11.14476562 26.29765625 -11.86328125 26.2578125 C-13.57510818 26.16401376 -15.28751682 26.08093826 -17 26 C-17.37510147 21.84305357 -17.47213449 19.68302756 -15.05859375 16.19140625 C-14.19363281 15.32386719 -13.32867188 14.45632813 -12.4375 13.5625 C-11.53128906 12.62921875 -10.62507813 11.6959375 -9.69140625 10.734375 C-8.80324219 9.83203125 -7.91507813 8.9296875 -7 8 C-5.61223566 6.4488258 -4.23526838 4.88784161 -2.875 3.3125 C-2.31554688 2.66925781 -1.75609375 2.02601563 -1.1796875 1.36328125 C-0.79039063 0.91339844 -0.40109375 0.46351563 0 0 Z " fill="#2D2A2B" transform="translate(1299,645)"/>
<path d="M0 0 C2.64 0 5.28 0 8 0 C8.12675467 6.4776521 8.21433146 12.95498462 8.2746582 19.43359375 C8.29980574 21.63749136 8.33392827 23.84130555 8.37719727 26.04492188 C8.43783686 29.21244886 8.46620749 32.3788736 8.48828125 35.546875 C8.51408768 36.53242371 8.5398941 37.51797241 8.56648254 38.53338623 C8.56924576 45.26958552 8.56924576 45.26958552 5.95117188 48.62890625 C2.31335401 50.31901091 -0.77838521 50.50715396 -4.70703125 50.390625 C-5.43242599 50.38496521 -6.15782074 50.37930542 -6.90519714 50.37347412 C-9.20832008 50.35119099 -11.50985224 50.30101487 -13.8125 50.25 C-15.37953472 50.22992434 -16.94659399 50.21167543 -18.51367188 50.1953125 C-22.34305519 50.15135337 -26.17125846 50.08238623 -30 50 C-30.04970947 50.62068359 -30.09941895 51.24136719 -30.15063477 51.88085938 C-30.26362915 53.09999023 -30.26362915 53.09999023 -30.37890625 54.34375 C-30.44924072 55.15005859 -30.5195752 55.95636719 -30.59204102 56.78710938 C-31.16045109 59.87033432 -32.50557248 61.1858709 -35 63 C-38.30994713 64.65497356 -41.99123 64.10084335 -45.625 64.0625 C-46.42679688 64.05798828 -47.22859375 64.05347656 -48.0546875 64.04882812 C-50.03649006 64.03703168 -52.01825433 64.01909605 -54 64 C-54 61.69 -54 59.38 -54 57 C-49.38 56.67 -44.76 56.34 -40 56 C-39.34 54.02 -38.68 52.04 -38 50 C-38.70125 50.04640625 -39.4025 50.0928125 -40.125 50.140625 C-46.3422207 50.3771497 -52.10049981 50.28552774 -57 46 C-60.13657343 40.14987784 -59.72483043 33.43471912 -59 27 C-57.47759193 23.13736135 -55.27853918 20.81684448 -51.75 18.5625 C-45.1749651 17.2176065 -39.79457051 17.27491895 -34 21 C-31.04970971 23.3398854 -30.98386569 24.06453724 -30 28 C-30 32.62 -30 37.24 -30 42 C-20.43 41.67 -10.86 41.34 -1 41 C-0.67 27.47 -0.34 13.94 0 0 Z " fill="#2C292A" transform="translate(960,645)"/>
<path d="M0 0 C2.71003427 -0.1358035 5.41318941 -0.23444624 8.125 -0.3125 C8.88554688 -0.35439453 9.64609375 -0.39628906 10.4296875 -0.43945312 C14.5035184 -0.5272512 17.17353482 -0.31460694 20.4296875 2.26953125 C24.76784855 6.87800325 25.25172487 9.41375628 25.125 15.75 C25.10695313 16.92046875 25.08890625 18.0909375 25.0703125 19.296875 C25.04710937 20.18890625 25.02390625 21.0809375 25 22 C28.3021228 23.1007076 30.94083279 23.20627072 34.41796875 23.31640625 C35.67158203 23.35830078 36.92519531 23.40019531 38.21679688 23.44335938 C39.52712891 23.48267578 40.83746094 23.52199219 42.1875 23.5625 C43.52279978 23.60570992 44.85808652 23.649325 46.19335938 23.69335938 C49.46213297 23.79956502 52.73098333 23.90160997 56 24 C55.505 23.01 55.505 23.01 55 22 C54.4927035 16.44468752 54.23739578 11.58169764 56.6875 6.5 C62.44010947 0.28096274 62.44010947 0.28096274 67.33984375 -0.6015625 C78.24914718 -0.67263288 78.24914718 -0.67263288 81.8125 2.8125 C85.95562856 8.84963018 85.45484576 14.89740854 85 22 C84.03632111 25.43310603 83.35189402 27.05602226 80.43096924 29.09559631 C74.68357332 32.21974481 69.7614155 32.57234943 63.296875 32.49609375 C62.29666321 32.49754898 61.29645142 32.49900421 60.26593018 32.50050354 C58.16488716 32.498852 56.06383111 32.4873749 53.96289062 32.46655273 C50.74557393 32.43745998 47.52989326 32.44598728 44.3125 32.45898438 C42.265617 32.45275035 40.21873917 32.44436204 38.171875 32.43359375 C36.73119659 32.43799721 36.73119659 32.43799721 35.26141357 32.44248962 C33.91916718 32.42346336 33.91916718 32.42346336 32.54980469 32.40405273 C31.76563171 32.39864975 30.98145874 32.39324677 30.17352295 32.38768005 C27.47701646 31.90671813 26.05410233 30.76568836 24 29 C23.1028125 29.4640625 23.1028125 29.4640625 22.1875 29.9375 C18.66983203 31.64608159 15.97500661 32.12106065 12.11328125 32.09765625 C11.17548828 32.09443359 10.23769531 32.09121094 9.27148438 32.08789062 C7.80678711 32.07532227 7.80678711 32.07532227 6.3125 32.0625 C4.83040039 32.05573242 4.83040039 32.05573242 3.31835938 32.04882812 C0.87884526 32.03704303 -1.56054689 32.02059011 -4 32 C-4 29.36 -4 26.72 -4 24 C2.27 23.67 8.54 23.34 15 23 C15.061875 20.89625 15.12375 18.7925 15.1875 16.625 C15.22230469 15.44164062 15.25710938 14.25828125 15.29296875 13.0390625 C15.19628906 12.03617188 15.09960938 11.03328125 15 10 C11.59568053 7.73045369 9.83475798 7.63450051 5.8125 7.375 C4.72582031 7.30023437 3.63914062 7.22546875 2.51953125 7.1484375 C1.68808594 7.09945312 0.85664062 7.05046875 0 7 C0 4.69 0 2.38 0 0 Z " fill="#262324" transform="translate(1114,663)"/>
<path d="M0 0 C2.64 0 5.28 0 8 0 C8.02505615 0.59538574 8.0501123 1.19077148 8.07592773 1.80419922 C8.19177494 4.49469136 8.31455196 7.1848234 8.4375 9.875 C8.47681641 10.81214844 8.51613281 11.74929688 8.55664062 12.71484375 C8.59853516 13.61074219 8.64042969 14.50664063 8.68359375 15.4296875 C8.72025146 16.25710449 8.75690918 17.08452148 8.79467773 17.93701172 C8.88238327 20.06179429 8.88238327 20.06179429 10 22 C20.23 22 30.46 22 41 22 C41.33 15.07 41.66 8.14 42 1 C44.97 1 47.94 1 51 1 C51.495 11.395 51.495 11.395 52 22 C54.31 22 56.62 22 59 22 C60.58403524 20.41596476 60.21974935 18.7228362 60.31640625 16.52734375 C60.35830078 15.62822266 60.40019531 14.72910156 60.44335938 13.80273438 C60.48267578 12.85720703 60.52199219 11.91167969 60.5625 10.9375 C60.62727539 9.5134082 60.62727539 9.5134082 60.69335938 8.06054688 C60.79979276 5.70718647 60.90181008 3.35371646 61 1 C63.64 1 66.28 1 69 1 C69.02505615 1.60062256 69.0501123 2.20124512 69.07592773 2.82006836 C69.1915528 5.52611437 69.31442936 8.23178283 69.4375 10.9375 C69.47681641 11.88302734 69.51613281 12.82855469 69.55664062 13.80273438 C69.59853516 14.70185547 69.64042969 15.60097656 69.68359375 16.52734375 C69.72025146 17.35999756 69.75690918 18.19265137 69.79467773 19.05053711 C69.79367103 21.00338858 69.79367103 21.00338858 71 22 C74 22.16666667 74 22.16666667 77 22 C78.58403524 20.41596476 78.21974935 18.7228362 78.31640625 16.52734375 C78.35830078 15.62822266 78.40019531 14.72910156 78.44335938 13.80273438 C78.48267578 12.85720703 78.52199219 11.91167969 78.5625 10.9375 C78.62727539 9.5134082 78.62727539 9.5134082 78.69335938 8.06054688 C78.79979276 5.70718647 78.90181008 3.35371646 79 1 C81.64 1 84.28 1 87 1 C87.14547545 5.06212212 87.23413226 9.12357287 87.3125 13.1875 C87.35439453 14.33798828 87.39628906 15.48847656 87.43945312 16.67382812 C87.56252335 25.16567334 87.56252335 25.16567334 84.79296875 29.2734375 C81.83372124 31.10279051 80.43301143 31.60378649 77 31.4375 C76.13117188 31.39753906 75.26234375 31.35757813 74.3671875 31.31640625 C71.68707511 30.95817341 69.48868785 30.02475382 67 29 C66.08541016 29.46019531 66.08541016 29.46019531 65.15234375 29.9296875 C62.71758186 31.14044024 61.13802374 31.26827766 58.4375 31.25 C57.67308594 31.25515625 56.90867187 31.2603125 56.12109375 31.265625 C54 31 54 31 51 29 C48.71602968 29.34605611 47.06590963 29.96704519 45 31 C42.56589761 31.11074254 40.16127924 31.16409243 37.7265625 31.16796875 C37.00640961 31.17129715 36.28625671 31.17462555 35.54428101 31.17805481 C34.01943603 31.1831205 32.49457995 31.18546325 30.96972656 31.18530273 C28.64108899 31.18748492 26.31292845 31.20563196 23.984375 31.22460938 C22.50260579 31.22754427 21.02083432 31.22952842 19.5390625 31.23046875 C18.4966893 31.24124702 18.4966893 31.24124702 17.43325806 31.25224304 C13.78399499 31.23507381 11.10343516 31.00072944 8 29 C7.95101563 29.67546875 7.90203125 30.3509375 7.8515625 31.046875 C7.77679687 31.93890625 7.70203125 32.8309375 7.625 33.75 C7.55539062 34.63171875 7.48578125 35.5134375 7.4140625 36.421875 C6.99553964 39.02777206 6.39360811 40.77022703 5 43 C0.76876918 45.48895931 -3.23718941 45.16145121 -8 45 C-8 42.69 -8 40.38 -8 38 C-7.030625 37.690625 -6.06125 37.38125 -5.0625 37.0625 C-2.15934208 36.30476658 -2.15934208 36.30476658 -1 35 C-0.84003834 32.40846893 -0.74061303 29.8404798 -0.68359375 27.24609375 C-0.66281265 26.47064713 -0.64203156 25.6952005 -0.62062073 24.89625549 C-0.55504198 22.41009692 -0.49620201 19.92382955 -0.4375 17.4375 C-0.39432267 15.75584796 -0.35070864 14.07420706 -0.30664062 12.39257812 C-0.19935221 8.26183129 -0.09810868 4.13097464 0 0 Z " fill="#2D2A2B" transform="translate(1322,664)"/>
<path d="M0 0 C2.64 0 5.28 0 8 0 C8.14513802 4.24964127 8.23402037 8.49864635 8.3125 12.75 C8.35439453 13.9565625 8.39628906 15.163125 8.43945312 16.40625 C8.45556641 17.56640625 8.47167969 18.7265625 8.48828125 19.921875 C8.51446533 20.99018555 8.54064941 22.05849609 8.56762695 23.15917969 C8 26 8 26 6.0769043 28.34667969 C1.76359156 30.66436229 -1.89163291 30.57472195 -6.71875 30.53125 C-7.65424683 30.5350769 -8.58974365 30.53890381 -9.55358887 30.54284668 C-11.52711059 30.54556288 -13.50066848 30.53822219 -15.47412109 30.52148438 C-18.49007645 30.50007046 -21.50364974 30.52129584 -24.51953125 30.546875 C-26.44010941 30.54423167 -28.36068609 30.53910659 -30.28125 30.53125 C-31.18033081 30.53934692 -32.07941162 30.54744385 -33.0057373 30.55578613 C-37.06522315 30.49516789 -39.47243981 30.29285179 -43.0769043 28.29199219 C-45.38518463 25.5409276 -45.59145028 24.34588958 -45.48828125 20.796875 C-45.47216797 19.8171875 -45.45605469 18.8375 -45.43945312 17.828125 C-45.39755859 16.81234375 -45.35566406 15.7965625 -45.3125 14.75 C-45.28994141 13.71875 -45.26738281 12.6875 -45.24414062 11.625 C-45.18527163 9.08185935 -45.10310065 6.54166887 -45 4 C-42.36 4 -39.72 4 -37 4 C-36.67 9.61 -36.34 15.22 -36 21 C-24.45 21 -12.9 21 -1 21 C-0.67 14.07 -0.34 7.14 0 0 Z " fill="#2F2C2D" transform="translate(1056,665)"/>
<path d="M0 0 C2.71003427 -0.1358035 5.41318941 -0.23444624 8.125 -0.3125 C8.88554688 -0.35439453 9.64609375 -0.39628906 10.4296875 -0.43945312 C14.5035184 -0.5272512 17.17353482 -0.31460694 20.4296875 2.26953125 C24.76784855 6.87800325 25.25172487 9.41375628 25.125 15.75 C25.10695313 16.92046875 25.08890625 18.0909375 25.0703125 19.296875 C25.04710937 20.18890625 25.02390625 21.0809375 25 22 C28.3021228 23.1007076 30.94083279 23.20627072 34.41796875 23.31640625 C35.67158203 23.35830078 36.92519531 23.40019531 38.21679688 23.44335938 C39.52712891 23.48267578 40.83746094 23.52199219 42.1875 23.5625 C43.52279978 23.60570992 44.85808652 23.649325 46.19335938 23.69335938 C49.46213297 23.79956502 52.73098333 23.90160997 56 24 C55.505 23.01 55.505 23.01 55 22 C54.92934383 19.95944995 54.91578024 17.91665743 54.9375 15.875 C54.94652344 14.77929688 54.95554687 13.68359375 54.96484375 12.5546875 C54.97644531 11.71164062 54.98804688 10.86859375 55 10 C55.33 10 55.66 10 56 10 C56.495 17.425 56.495 17.425 57 25 C54.92976563 25.03738281 52.85953125 25.07476563 50.7265625 25.11328125 C48.7242579 25.16194838 46.72195429 25.21071829 44.71972656 25.26245117 C43.32693911 25.29572873 41.93401589 25.32375197 40.54101562 25.34643555 C38.54008622 25.37992689 36.53953079 25.43381305 34.5390625 25.48828125 C32.73236084 25.52755737 32.73236084 25.52755737 30.88916016 25.56762695 C29.9357373 25.71031006 28.98231445 25.85299316 28 26 C27.34 26.99 26.68 27.98 26 29 C24.34608154 29.39171753 22.67654729 29.72057545 21 30 C20.38866211 30.33499512 19.77732422 30.66999023 19.14746094 31.01513672 C16.59628344 32.1851515 14.81283934 32.22942487 12.015625 32.1953125 C11.08105469 32.18886719 10.14648438 32.18242188 9.18359375 32.17578125 C7.73146484 32.15064453 7.73146484 32.15064453 6.25 32.125 C5.26644531 32.11597656 4.28289062 32.10695313 3.26953125 32.09765625 C0.84610593 32.07412785 -1.57682222 32.04125368 -4 32 C-4 29.36 -4 26.72 -4 24 C2.27 23.67 8.54 23.34 15 23 C15.061875 20.89625 15.12375 18.7925 15.1875 16.625 C15.22230469 15.44164062 15.25710938 14.25828125 15.29296875 13.0390625 C15.19628906 12.03617188 15.09960938 11.03328125 15 10 C11.59568053 7.73045369 9.83475798 7.63450051 5.8125 7.375 C4.72582031 7.30023437 3.63914062 7.22546875 2.51953125 7.1484375 C1.68808594 7.09945312 0.85664062 7.05046875 0 7 C0 4.69 0 2.38 0 0 Z " fill="#353233" transform="translate(1114,663)"/>
<path d="M0 0 C12.34469906 -0.91316952 12.34469906 -0.91316952 16.23046875 1.23046875 C20.57479837 5.57479837 21.1684461 9.42023064 21.25 15.3125 C21.13172385 24.18321156 21.13172385 24.18321156 18 28 C11.98892205 32.22483123 6.30909605 32.54366778 -0.84375 32.390625 C-1.85344849 32.38496521 -2.86314697 32.37930542 -3.90344238 32.37347412 C-7.10279377 32.351228 -10.30099175 32.30105313 -13.5 32.25 C-15.67967123 32.22991982 -17.85936016 32.21167172 -20.0390625 32.1953125 C-25.35976316 32.1514021 -30.67979914 32.08460904 -36 32 C-36 31.67 -36 31.34 -36 31 C-22.14 30.67 -8.28 30.34 6 30 C6.33 28.35 6.66 26.7 7 25 C6.21625 24.896875 5.4325 24.79375 4.625 24.6875 C2 24 2 24 0 21 C-0.64774936 16.48835041 -0.84389224 12.38398327 1.5625 8.4375 C4.68593503 6.59547422 7.41327507 6.27590192 11 6 C11.66 4.35 12.32 2.7 13 1 C8.71 1 4.42 1 0 1 C0 0.67 0 0.34 0 0 Z " fill="#3A3738" transform="translate(1178,663)"/>
<path d="M0 0 C2.97 0 5.94 0 9 0 C9 16.5 9 33 9 50 C6.03 50 3.06 50 0 50 C0 33.5 0 17 0 0 Z " fill="#3A3637" transform="translate(977,645)"/>
<path d="M0 0 C2.64 0 5.28 0 8 0 C8 16.5 8 33 8 50 C5.36 50 2.72 50 0 50 C0 33.5 0 17 0 0 Z " fill="#282526" transform="translate(1073,645)"/>
<path d="M0 0 C2.64 0 5.28 0 8 0 C8.07431132 5.17778402 8.12867808 10.35525569 8.16479492 15.53344727 C8.17985553 17.29391896 8.20030826 19.0543533 8.22631836 20.81469727 C8.26282229 23.34921503 8.27975354 25.88323552 8.29296875 28.41796875 C8.30845261 29.20149216 8.32393646 29.98501556 8.33988953 30.7922821 C8.34129909 35.39800136 7.85307266 38.33865001 5 42 C0.75003492 45.52139964 -2.71872247 45.26853954 -8 45 C-8 42.69 -8 40.38 -8 38 C-7.030625 37.690625 -6.06125 37.38125 -5.0625 37.0625 C-2.15934208 36.30476658 -2.15934208 36.30476658 -1 35 C-0.84003834 32.40846893 -0.74061303 29.8404798 -0.68359375 27.24609375 C-0.66281265 26.47064713 -0.64203156 25.6952005 -0.62062073 24.89625549 C-0.55504198 22.41009692 -0.49620201 19.92382955 -0.4375 17.4375 C-0.39432267 15.75584796 -0.35070864 14.07420706 -0.30664062 12.39257812 C-0.19935221 8.26183129 -0.09810868 4.13097464 0 0 Z " fill="#292627" transform="translate(1094,664)"/>
<path d="M0 0 C1.74216797 0.05414062 1.74216797 0.05414062 3.51953125 0.109375 C4.39996094 0.15578125 5.28039062 0.2021875 6.1875 0.25 C6.1875 0.58 6.1875 0.91 6.1875 1.25 C2.8875 1.25 -0.4125 1.25 -3.8125 1.25 C-3.4825 3.23 -3.1525 5.21 -2.8125 7.25 C0.1575 7.25 3.1275 7.25 6.1875 7.25 C6.26903933 8.83246707 6.32693557 10.41616273 6.375 12 C6.42720703 13.32257812 6.42720703 13.32257812 6.48046875 14.671875 C6.12948355 17.76054475 5.3874621 19.07520909 3.1875 21.25 C-0.3125 21.5 -0.3125 21.5 -3.8125 21.25 C-4.8025 21.25 -5.7925 21.25 -6.8125 21.25 C-7.1425 21.91 -7.4725 22.57 -7.8125 23.25 C-10.375 23.875 -10.375 23.875 -12.8125 24.25 C-15.63667533 19.46802982 -15.32690341 14.65123582 -14.8125 9.25 C-12.0277424 2.3613891 -7.25193548 -0.29300749 0 0 Z " fill="#2D2A2B" transform="translate(721.8125,662.75)"/>
<path d="M0 0 C2.64 0 5.28 0 8 0 C8.02505615 0.63091553 8.0501123 1.26183105 8.07592773 1.91186523 C8.19154137 4.75396825 8.31442316 7.59571083 8.4375 10.4375 C8.47681641 11.43072266 8.51613281 12.42394531 8.55664062 13.44726562 C8.59853516 14.39150391 8.64042969 15.33574219 8.68359375 16.30859375 C8.73858032 17.62041626 8.73858032 17.62041626 8.79467773 18.95874023 C8.78181066 20.9927402 8.78181066 20.9927402 10 22 C12.14386657 22.15858842 14.29266838 22.25129298 16.44140625 22.31640625 C17.74658203 22.35830078 19.05175781 22.40019531 20.39648438 22.44335938 C21.7851533 22.48317608 23.17382522 22.52288825 24.5625 22.5625 C25.95509183 22.60567989 27.34767028 22.649294 28.74023438 22.69335938 C32.16004801 22.79985876 35.57993763 22.90186923 39 23 C39 23.33 39 23.66 39 24 C29.76 24 20.52 24 11 24 C11 24.66 11 25.32 11 26 C10.34 26 9.68 26 9 26 C8.505 27.485 8.505 27.485 8 29 C3.07813552 31.30799295 -1.58682186 31.26382921 -6.8984375 31.1953125 C-8.15087753 31.19106766 -8.15087753 31.19106766 -9.42861938 31.18673706 C-12.07756291 31.17560301 -14.72615984 31.15051127 -17.375 31.125 C-19.17838051 31.11496143 -20.98176636 31.10583712 -22.78515625 31.09765625 C-27.19023633 31.0756859 -31.59505953 31.04120321 -36 31 C-36 30.67 -36 30.34 -36 30 C-23.46 29.67 -10.92 29.34 2 29 C1.67 27.35 1.34 25.7 1 24 C0.01 23.34 -0.98 22.68 -2 22 C-1.505 21.505 -1.505 21.505 -1 21 C-0.84313751 19.44051458 -0.74923361 17.87457332 -0.68359375 16.30859375 C-0.62075195 14.89223633 -0.62075195 14.89223633 -0.55664062 13.44726562 C-0.51732422 12.45404297 -0.47800781 11.46082031 -0.4375 10.4375 C-0.37272461 8.94186523 -0.37272461 8.94186523 -0.30664062 7.41601562 C-0.20019702 4.9441585 -0.09818072 2.4721969 0 0 Z " fill="#383536" transform="translate(770,664)"/>
<path d="M0 0 C4.17443363 3.50074982 8.3145494 6.97950843 12 11 C12 11.66 12 12.32 12 13 C-57.3 13 -126.6 13 -198 13 C-196.68 12.01 -195.36 11.02 -194 10 C-194 10.66 -194 11.32 -194 12 C-169.44378461 11.89280438 -144.8876002 11.78005077 -120.33144093 11.66066074 C-108.92987403 11.60535718 -97.52830401 11.55187986 -86.12670898 11.50268555 C-76.19034366 11.45980862 -66.25400112 11.41352174 -56.317671 11.36312145 C-51.05534788 11.33654882 -45.79302919 11.31169641 -40.5306797 11.29092598 C-35.57889623 11.27132751 -30.627156 11.24717407 -25.67541122 11.21950912 C-23.85694222 11.21015571 -22.03846375 11.2024743 -20.21998024 11.19658089 C-17.73875395 11.18829065 -15.25763176 11.17400582 -12.77644348 11.15821838 C-12.05561846 11.15724028 -11.33479344 11.15626217 -10.59212524 11.15525442 C-6.95603073 11.12546976 -3.49815085 11.04876609 0 10 C1.60019461 7.79174051 1.60019461 7.79174051 2 5 C1.22772827 2.23259665 1.22772827 2.23259665 0 0 Z " fill="#1C72B0" transform="translate(514,344)"/>
<path d="M0 0 C1.98 1.32 3.96 2.64 6 4 C3.95587127 7.63186394 1.69445912 10.62354904 -1.125 13.6875 C-3.88572044 16.62192394 -3.88572044 16.62192394 -6 20 C-5.01 20.33 -4.02 20.66 -3 21 C-2.67 22.65 -2.34 24.3 -2 26 C-6.95 26 -11.9 26 -17 26 C-17 18.13859911 -17 18.13859911 -12.4375 13.5625 C-11.53128906 12.62921875 -10.62507813 11.6959375 -9.69140625 10.734375 C-8.80324219 9.83203125 -7.91507813 8.9296875 -7 8 C-5.61223566 6.4488258 -4.23526838 4.88784161 -2.875 3.3125 C-2.31554688 2.66925781 -1.75609375 2.02601563 -1.1796875 1.36328125 C-0.79039063 0.91339844 -0.40109375 0.46351563 0 0 Z " fill="#262324" transform="translate(1299,645)"/>
<path d="M0 0 C0.66 0.33 1.32 0.66 2 1 C2 2.32 2 3.64 2 5 C2.99 5.33 3.98 5.66 5 6 C4.01 7.485 4.01 7.485 3 9 C2.62832816 11.76020996 2.82149364 14.18852476 3 17 C5.6855594 19.6855594 8.37621328 20.06049974 12 21 C12 21.99 12 22.98 12 24 C11.67 24.33 11.34 24.66 11 25 C11.66 25.66 12.32 26.32 13 27 C2.10094728 28.01875419 2.10094728 28.01875419 -2.19921875 25.93359375 C-6.06918815 22.19480976 -6.47846589 18.17422928 -6.75 12.9375 C-6.57334978 8.32987347 -6.32136346 5.43845545 -3 2.125 C-2.01 1.42375 -1.02 0.7225 0 0 Z " fill="#2D2A2B" transform="translate(1230,664)"/>
<path d="M0 0 C0.33 0 0.66 0 1 0 C1 69.3 1 138.6 1 210 C-2.60772477 208.19613762 -4.47634052 206.7942051 -7.25 204 C-7.95640625 203.29875 -8.6628125 202.5975 -9.390625 201.875 C-11 200 -11 200 -11 198 C-8 199 -8 199 -6 202 C-3.94996045 203.19232613 -3.94996045 203.19232613 -2 204 C-2 204.66 -2 205.32 -2 206 C-1.34 206.33 -0.68 206.66 0 207 C0 138.69 0 70.38 0 0 Z " fill="#1B70AA" transform="translate(294,378)"/>
<path d="M0 0 C2.64 0 5.28 0 8 0 C8.08692074 4.27070558 8.14036515 8.54118458 8.1875 12.8125 C8.21263672 14.02744141 8.23777344 15.24238281 8.26367188 16.49414062 C8.27817383 18.23920898 8.27817383 18.23920898 8.29296875 20.01953125 C8.31653442 21.62985229 8.31653442 21.62985229 8.34057617 23.27270508 C8 26 8 26 6.66918945 27.8737793 C5 29 5 29 2 29 C-1.04724053 22.35717232 -1.25039278 17.22296049 -0.6875 10 C-0.62626953 9.03449219 -0.56503906 8.06898438 -0.50195312 7.07421875 C-0.35009978 4.71465139 -0.18249099 2.35736174 0 0 Z " fill="#282526" transform="translate(1056,665)"/>
<path d="M0 0 C66 0 132 0 200 0 C200 0.33 200 0.66 200 1 C135.98 1.33 71.96 1.66 6 2 C5.67 3.32 5.34 4.64 5 6 C3.35 4.02 1.7 2.04 0 0 Z " fill="#467A45" transform="translate(296,590)"/>
<path d="M0 0 C1.98 1.32 3.96 2.64 6 4 C3.53974941 8.51045941 0.39717963 12.18504423 -3 16 C-3.33 15.34 -3.66 14.68 -4 14 C-5.32 14.33 -6.64 14.66 -8 15 C-8 14.34 -8 13.68 -8 13 C-8.99 12.67 -9.98 12.34 -11 12 C-7.37 8.04 -3.74 4.08 0 0 Z " fill="#2C2A2B" transform="translate(1299,645)"/>
<path d="M0 0 C2.97 0 5.94 0 9 0 C9 2.64 9 5.28 9 8 C6.03 8 3.06 8 0 8 C0 5.36 0 2.72 0 0 Z " fill="#363435" transform="translate(810,649)"/>
<path d="M0 0 C2.64 0 5.28 0 8 0 C8 2.64 8 5.28 8 8 C5.36 8 2.72 8 0 8 C0 5.36 0 2.72 0 0 Z " fill="#3D3C3C" transform="translate(1029,653)"/>
<path d="M0 0 C2.64 0 5.28 0 8 0 C8 2.64 8 5.28 8 8 C5.36 8 2.72 8 0 8 C0 5.36 0 2.72 0 0 Z " fill="#383536" transform="translate(1176,649)"/>
<path d="M0 0 C2.64 0 5.28 0 8 0 C8 2.64 8 5.28 8 8 C5.36 8 2.72 8 0 8 C0 5.36 0 2.72 0 0 Z " fill="#373435" transform="translate(1378,649)"/>
<path d="M0 0 C2.64 0 5.28 0 8 0 C8 2.64 8 5.28 8 8 C5.36 8 2.72 8 0 8 C0 5.36 0 2.72 0 0 Z " fill="#403D3E" transform="translate(1240,646)"/>
<path d="M0 0 C2.64 0 5.28 0 8 0 C8 2.64 8 5.28 8 8 C5.36 8 2.72 8 0 8 C0 5.36 0 2.72 0 0 Z " fill="#393838" transform="translate(1230,646)"/>
<path d="M0 0 C2.64 0 5.28 0 8 0 C8 2.64 8 5.28 8 8 C5.36 8 2.72 8 0 8 C0 5.36 0 2.72 0 0 Z " fill="#373435" transform="translate(723,646)"/>
<path d="M0 0 C2.31 0 4.62 0 7 0 C7 2.64 7 5.28 7 8 C4.69 8 2.38 8 0 8 C0 5.36 0 2.72 0 0 Z " fill="#363434" transform="translate(1039,653)"/>
<path d="M0 0 C2.31 0 4.62 0 7 0 C7 2.64 7 5.28 7 8 C4.69 8 2.38 8 0 8 C0 5.36 0 2.72 0 0 Z " fill="#282627" transform="translate(1388,649)"/>
<path d="M0 0 C2.31 0 4.62 0 7 0 C7 2.64 7 5.28 7 8 C4.69 8 2.38 8 0 8 C0 5.36 0 2.72 0 0 Z " fill="#2C2A2B" transform="translate(1186,649)"/>
<path d="M0 0 C2.31 0 4.62 0 7 0 C7 2.64 7 5.28 7 8 C4.69 8 2.38 8 0 8 C0 5.36 0 2.72 0 0 Z " fill="#312E2F" transform="translate(714,646)"/>
<path d="M0 0 C2.31 0 4.62 0 7 0 C7 2.64 7 5.28 7 8 C4.69 8 2.38 8 0 8 C0 5.36 0 2.72 0 0 Z " fill="#322F30" transform="translate(1383,640)"/>
<path d="M0 0 C2.31 0 4.62 0 7 0 C7 2.31 7 4.62 7 7 C4.69 7 2.38 7 0 7 C0 4.69 0 2.38 0 0 Z " fill="#252424" transform="translate(765,701)"/>
<path d="M0 0 C0.99 0 1.98 0 3 0 C3.33 2.31 3.66 4.62 4 7 C5.65 7.33 7.3 7.66 9 8 C8.67 9.32 8.34 10.64 8 12 C8.66 12.33 9.32 12.66 10 13 C7 13 7 13 4.73828125 10.8125 C3.93777344 9.884375 3.13726562 8.95625 2.3125 8 C1.50425781 7.071875 0.69601563 6.14375 -0.13671875 5.1875 C-1.05904297 4.1046875 -1.05904297 4.1046875 -2 3 C-1.34 2.67 -0.68 2.34 0 2 C0 1.34 0 0.68 0 0 Z " fill="#2276B2" transform="translate(210,499)"/>
<path d="M0 0 C1.98 0 3.96 0 6 0 C6 2.31 6 4.62 6 7 C4.02 7 2.04 7 0 7 C0 4.69 0 2.38 0 0 Z " fill="#221F20" transform="translate(775,701)"/>
<path d="M0 0 C2.9719385 1.12451727 5.33440687 2.22293791 8 4 C8.99 4.33 9.98 4.66 11 5 C11.33 6.65 11.66 8.3 12 10 C9 10 9 10 6.73828125 8.06640625 C5.93777344 7.24011719 5.13726562 6.41382813 4.3125 5.5625 C3.50425781 4.73878906 2.69601563 3.91507813 1.86328125 3.06640625 C0 1 0 1 0 0 Z " fill="#2978B4" transform="translate(219,513)"/>
<path d="M0 0 C-0.5671875 0.27585937 -1.134375 0.55171875 -1.71875 0.8359375 C-9.29158097 4.70015604 -13.81226602 7.96136649 -17 16 C-18.1640625 12.3203125 -18.1640625 12.3203125 -16.6875 9.4375 C-16.130625 8.633125 -15.57375 7.82875 -15 7 C-14.34 6.01 -13.68 5.02 -13 4 C-8.42294507 0.91928995 -5.65513448 -0.55172044 0 0 Z " fill="#2E78AC" transform="translate(314,357)"/>
<path d="M0 0 C0 0.33 0 0.66 0 1 C-1.65 1 -3.3 1 -5 1 C-5 2.98 -5 4.96 -5 7 C-7.31 6.67 -9.62 6.34 -12 6 C-11.66411682 3.48087612 -11.42645046 2.32803881 -9.375 0.75 C-6.1989627 -0.25295915 -3.30771122 -0.12721966 0 0 Z " fill="#333031" transform="translate(1399,687)"/>
<path d="M0 0 C3 1 3 1 5 4 C7.05003955 5.19232613 7.05003955 5.19232613 9 6 C9 6.66 9 7.32 9 8 C9.66 8.33 10.32 8.66 11 9 C11.33 8.34 11.66 7.68 12 7 C12 8.65 12 10.3 12 12 C8.60140297 10.53033642 6.35036291 8.61962486 3.75 6 C3.04359375 5.29875 2.3371875 4.5975 1.609375 3.875 C0 2 0 2 0 0 Z " fill="#2975AC" transform="translate(283,576)"/>
<path d="M0 0 C3.7952131 1.49097658 5.61042731 3.75700849 8 7 C6.02 7.33 4.04 7.66 2 8 C0.23537317 4.91190305 0 3.76687864 0 0 Z " fill="#6C62A6" transform="translate(528,359)"/>
<path d="M0 0 C7.48291572 6.15034169 7.48291572 6.15034169 10 10 C8 11 8 11 6.125 10.5 C2.90515482 8.22716811 1.75885428 5.51770856 0 2 C0 1.34 0 0.68 0 0 Z " fill="#7068A3" transform="translate(582,412)"/>
<path d="M0 0 C3.21043882 1.38188453 5.04936365 2.92421903 7.25 5.625 C8.03117187 6.57246094 8.03117187 6.57246094 8.828125 7.5390625 C9.40820312 8.26222656 9.40820312 8.26222656 10 9 C9.01 9 8.02 9 7 9 C6.67 8.01 6.34 7.02 6 6 C2.99152582 4.77479736 2.99152582 4.77479736 0 4 C0 2.68 0 1.36 0 0 Z " fill="#337CB0" transform="translate(489,320)"/>
<path d="M0 0 C4.83628305 0.99043705 9.47618873 1.95698846 14 4 C13.67 4.66 13.34 5.32 13 6 C10.9375 6.625 10.9375 6.625 9 7 C9 6.34 9 5.68 9 5 C8.01 5 7.02 5 6 5 C6 4.34 6 3.68 6 3 C4.02 2.34 2.04 1.68 0 1 C0 0.67 0 0.34 0 0 Z " fill="#2975AD" transform="translate(407,255)"/>
<path d="M0 0 C2.31 0 4.62 0 7 0 C5.38405168 2.04119788 3.7143618 4.04072937 2 6 C1.34 6 0.68 6 0 6 C0 4.02 0 2.04 0 0 Z " fill="#211F20" transform="translate(1114,664)"/>
<path d="M0 0 C3.78383679 0.92493788 5.56693694 1.39371171 7.875 4.625 C8.431875 5.800625 8.431875 5.800625 9 7 C6 7 6 7 4.39453125 5.46875 C3.87246094 4.8190625 3.35039062 4.169375 2.8125 3.5 C2.28269531 2.8503125 1.75289063 2.200625 1.20703125 1.53125 C0.80871094 1.0259375 0.41039062 0.520625 0 0 Z " fill="#538553" transform="translate(309,603)"/>
<path d="M0 0 C4.10958767 1.45044271 7.43258745 3.51110752 11 6 C10.01 6.495 10.01 6.495 9 7 C8.01 6.67 7.02 6.34 6 6 C6 5.34 6 4.68 6 4 C4.35 4 2.7 4 1 4 C0.67 2.68 0.34 1.36 0 0 Z " fill="#2A76AD" transform="translate(426,262)"/>
<path d="M0 0 C4.75 0.75 4.75 0.75 7 3 C6.67 4.32 6.34 5.64 6 7 C4.02 4.69 2.04 2.38 0 0 Z " fill="#538551" transform="translate(341,635)"/>
<path d="M0 0 C1.485 0.99 1.485 0.99 3 2 C3.6875 5.625 3.6875 5.625 4 9 C1.4375 6.75 1.4375 6.75 -1 4 C-0.8125 1.6875 -0.8125 1.6875 0 0 Z " fill="#2E2B2C" transform="translate(1022,456)"/>
<path d="M0 0 C2.31 0 4.62 0 7 0 C6.67 1.98 6.34 3.96 6 6 C3.97945196 4.35830472 1.97956942 2.69088222 0 1 C0 0.67 0 0.34 0 0 Z " fill="#518253" transform="translate(296,590)"/>
<path d="M0 0 C2.31 0.33 4.62 0.66 7 1 C6.67 2.65 6.34 4.3 6 6 C3.97945196 4.35830472 1.97956942 2.69088222 0 1 C0 0.67 0 0.34 0 0 Z " fill="#2879B6" transform="translate(267,561)"/>
<path d="M0 0 C1.32 0 2.64 0 4 0 C4 0.99 4 1.98 4 3 C4.99 3.33 5.98 3.66 7 4 C7.6875 6.0625 7.6875 6.0625 8 8 C6.85073734 7.04578192 5.70569459 6.08647955 4.5625 5.125 C3.92441406 4.59132813 3.28632813 4.05765625 2.62890625 3.5078125 C1 2 1 2 0 0 Z " fill="#317AB1" transform="translate(231,525)"/>
<path d="M0 0 C0.66 0.33 1.32 0.66 2 1 C-1.465 3.97 -1.465 3.97 -5 7 C-5.66 6.34 -6.32 5.68 -7 5 C-4.69 3.35 -2.38 1.7 0 0 Z " fill="#3B393A" transform="translate(1241,398)"/>
<path d="M0 0 C3.36720387 1.39332574 4.9859524 2.9789286 7 6 C6.01 6.495 6.01 6.495 5 7 C5 6.34 5 5.68 5 5 C4.01 4.67 3.02 4.34 2 4 C1.34 3.67 0.68 3.34 0 3 C0 2.01 0 1.02 0 0 Z " fill="#598958" transform="translate(504,597)"/>
<path d="M0 0 C2.31 1.98 4.62 3.96 7 6 C6.34 6.66 5.68 7.32 5 8 C0 2.25 0 2.25 0 0 Z " fill="#357FB3" transform="translate(514,344)"/>
<path d="M0 0 C3.33537489 1.11179163 4.63707344 2.47411298 7 5 C6.67 5.99 6.34 6.98 6 8 C4.99403703 7.0479279 3.99538437 6.08812654 3 5.125 C2.443125 4.59132813 1.88625 4.05765625 1.3125 3.5078125 C0 2 0 2 0 0 Z " fill="#347AAF" transform="translate(283,576)"/>
</svg>
